<svg role="image" width="17" height="22" fill="currentColor" viewBox="0 0 17 22" xmlns="http://www.w3.org/2000/svg">
<title>Sanity</title>
  <path   d="M1.96126 3.31482C1.96126 6.09924 3.71145 7.75598 7.21536 8.62959L10.9283 9.47536C14.2444 10.2236 16.2639 12.0822 16.2639 15.1103C16.2897 16.4295 15.8531 17.7173 15.0274 18.7579C15.0274 15.7368 13.4367 14.1044 9.59972 13.1229L5.95409 12.3085C3.03475 11.6541 0.781478 10.1262 0.781478 6.83712C0.766123 5.56696 1.18116 4.32784 1.96126 3.31482Z"/>
  <path opacity="0.7" d="M12.7458 14.3689C14.3294 15.3643 15.0238 16.7565 15.0238 18.7544C13.713 20.4041 11.4101 21.33 8.70333 21.33C4.14718 21.33 0.958577 19.1268 0.25 15.2982H4.62547C5.18878 17.0559 6.68034 17.8703 8.67144 17.8703C11.1019 17.8703 12.7174 16.5964 12.7493 14.3619"/>
  <path opacity="0.7" d="M4.23567 7.44267C3.5125 7.02045 2.9192 6.41375 2.51873 5.68697C2.11827 4.96019 1.92558 4.14045 1.96113 3.31476C3.22594 1.67891 5.42608 0.679993 8.10804 0.679993C12.7492 0.679993 15.4347 3.08852 16.0972 6.47856H11.8883C11.4242 5.14203 10.2621 4.10136 8.14347 4.10136C5.87957 4.10136 4.33487 5.39611 4.24629 7.44267"/>
</svg>
