<svg xmlns="http://www.w3.org/2000/svg" id="Layer_1" x="0" y="0" version="1.1" viewBox="0 0 1000 1000" xml:space="preserve">
  <defs/>
  <style>
    .st1{fill:#68D391}
  </style>
  <path fill="#1A202C" d="M0 0h1000v1000H0z"/>
  <path d="M98 388c18-32 44-58 76-76 32-19 69-28 110-28 50 0 93 14 129 40 36 27 60 63 72 109H372c-9-18-21-31-36-41-16-9-33-14-53-14-32 1-58 12-77 34-20 22-30 51-30 88s10 67 30 89c19 22 45 33 77 33 20 0 37-4 53-14 15-9 27-22 36-40h113c-12 46-36 82-72 108-36 27-79 40-129 40-41 0-78-9-110-28-32-18-58-43-76-76-18-32-27-70-27-111 0-42 9-80 27-113zM824 316c33 17 59 42 77 74 19 32 28 69 28 111 0 41-9 78-28 110-18 32-44 57-77 75-34 18-73 27-117 27H548V289h159c45 0 84 9 117 27zm-33 275c22-21 33-51 33-90s-11-70-33-91c-21-22-52-33-91-33h-49v246h49c39 0 70-10 91-32z" class="st1"/>
</svg>
