<svg xmlns="http://www.w3.org/2000/svg" xmlns:xlink="http://www.w3.org/1999/xlink" xml:space="preserve" id="Layer_1" x="0" y="0" style="enable-background:new 0 0 304.1 301.8;" version="1.1" viewBox="0 0 304.1 301.8"><style>.st0{enable-background:new    ;}
	.st1{clip-path:url(#SVGID_2_);enable-background:new    ;}
	.st2{fill:none;stroke:#000000;stroke-width:0.25;stroke-miterlimit:10;}
	.st3{clip-path:url(#SVGID_4_);enable-background:new    ;}
	.st4{clip-path:url(#SVGID_4_);fill:none;stroke:#000000;stroke-width:0.25;stroke-miterlimit:10;}
	.st5{clip-path:url(#SVGID_6_);enable-background:new    ;}
	.st6{clip-path:url(#SVGID_6_);fill:none;stroke:#000000;stroke-width:0.25;stroke-miterlimit:10;}
	.st7{clip-path:url(#SVGID_8_);enable-background:new    ;}
	.st8{clip-path:url(#SVGID_10_);enable-background:new    ;}
	.st9{clip-path:url(#SVGID_10_);fill:none;stroke:#000000;stroke-width:0.25;stroke-miterlimit:10;}
	.st10{clip-path:url(#SVGID_12_);enable-background:new    ;}
	.st11{clip-path:url(#SVGID_12_);fill:none;stroke:#000000;stroke-width:0.25;stroke-miterlimit:10;}
	.st12{clip-path:url(#SVGID_14_);enable-background:new    ;}
	.st13{clip-path:url(#SVGID_16_);enable-background:new    ;}
	.st14{clip-path:url(#SVGID_16_);fill:none;stroke:#000000;stroke-width:0.25;stroke-miterlimit:10;}
	.st15{clip-path:url(#SVGID_18_);enable-background:new    ;}
	.st16{clip-path:url(#SVGID_18_);fill:none;stroke:#000000;stroke-width:0.25;stroke-miterlimit:10;}
	.st17{clip-path:url(#SVGID_20_);enable-background:new    ;}
	.st18{clip-path:url(#SVGID_20_);fill:none;stroke:#000000;stroke-width:0.25;stroke-miterlimit:10;}
	.st19{clip-path:url(#SVGID_23_);}
	.st20{clip-path:url(#SVGID_24_);enable-background:new    ;}
	.st21{clip-path:url(#SVGID_24_);fill:none;stroke:#000000;stroke-width:0.25;stroke-miterlimit:10;}
	.st22{clip-path:url(#SVGID_26_);enable-background:new    ;}
	.st23{clip-path:url(#SVGID_26_);fill:none;stroke:#000000;stroke-width:0.25;stroke-miterlimit:10;}
	.st24{clip-path:url(#SVGID_28_);enable-background:new    ;}
	.st25{clip-path:url(#SVGID_30_);enable-background:new    ;}
	.st26{clip-path:url(#SVGID_30_);fill:none;stroke:#000000;stroke-width:0.25;stroke-miterlimit:10;}
	.st27{clip-path:url(#SVGID_32_);enable-background:new    ;}
	.st28{clip-path:url(#SVGID_32_);fill:none;stroke:#000000;stroke-width:0.25;stroke-miterlimit:10;}
	.st29{clip-path:url(#SVGID_35_);}
	.st30{clip-path:url(#SVGID_36_);enable-background:new    ;}
	.st31{clip-path:url(#SVGID_36_);fill:none;stroke:#000000;stroke-width:0.25;stroke-miterlimit:10;}
	.st32{clip-path:url(#SVGID_38_);enable-background:new    ;}
	.st33{clip-path:url(#SVGID_38_);fill:none;stroke:#000000;stroke-width:0.25;stroke-miterlimit:10;}
	.st34{clip-path:url(#SVGID_40_);enable-background:new    ;}
	.st35{clip-path:url(#SVGID_42_);enable-background:new    ;}
	.st36{clip-path:url(#SVGID_44_);enable-background:new    ;}
	.st37{clip-path:url(#SVGID_44_);fill:none;stroke:#000000;stroke-width:0.25;stroke-miterlimit:10;}
	.st38{clip-path:url(#SVGID_47_);}
	.st39{clip-path:url(#SVGID_48_);enable-background:new    ;}
	.st40{clip-path:url(#SVGID_48_);fill:none;stroke:#000000;stroke-width:0.25;stroke-miterlimit:10;}
	.st41{clip-path:url(#SVGID_51_);}
	.st42{clip-path:url(#SVGID_52_);enable-background:new    ;}
	.st43{clip-path:url(#SVGID_52_);fill:none;stroke:#000000;stroke-width:0.25;stroke-miterlimit:10;}
	.st44{clip-path:url(#SVGID_54_);enable-background:new    ;}
	.st45{clip-path:url(#SVGID_56_);enable-background:new    ;}</style><g class="st0"><g class="st0"><defs><path id="SVGID_1_" d="M1 133.7c1.1-7.1 2.5-16.7 4.6-23.6 1.5-5.1 3.8-11.8 5.7-16.7 1.3-3.3 3.4-7.4 4.8-10.6 2.1-4.6 5.5-10.4 8.4-14.5 2-2.8 4.5-6.6 6.6-9.3 3.1-3.9 7.4-8.8 10.7-12.4 2.2-2.4 5.4-5.5 7.9-7.7 3.8-3.3 9-7.4 12.9-10.4 4.3-3.3 10.5-7 15.3-9.6 2.5-1.4 5.9-3.2 8.5-4.3 5.1-2.2 12-5 17.3-6.9.1 0 7.3-2.6 18.5-4.8 4.5-.9 9.2-1.3 14.1-1.3 4.9.1 10 .6 15.2 1.7 5.3 1.1 10.7 2.8 16.1 5 5.6 2.3 11.2 5.2 16.8 8.7-.1 0-.2.1-.2.1-.1 0-.1.1-.1.2s0 .1.1.2.1.1.3.2c.1.1.2.1.4.2.1.1.3.1.4.1.1 0 .3 0 .4.1h.4c.1 0 .2-.1.2-.1.1 0 .1-.1.1-.2s0-.1-.1-.2-.1-.1-.3-.2c-.1-.1-.2-.1-.4-.2-.1-.1-.3-.1-.4-.1-.1 0-.3 0-.4-.1h-.4c-5.7-3.5-11.3-6.4-16.8-8.7-5.5-2.3-10.9-3.9-16.1-5-5.2-1.1-10.3-1.7-15.2-1.7-4.8-.1-9.6.4-14.1 1.3 4.4-.7 10.3-1.6 14.7-2.1 2.3-.3 5.3-.4 7.6-.5 4.6-.3 12.8-.2 17.9.2 3 .2 7 .6 10 1 4.4.6 8.6 1.4 9.4 1.6 2.7.6 6.3 1.4 9 2.1 1.4.3 3.1.9 4.5 1.2 0 0 3.7 1 9.1 3 3.8 1.4 11.5 4.4 19.9 8.9 1.7.9 4 2.2 5.7 3.2 1.8 1 4 2.5 5.8 3.6 2.3 1.4 5.1 3.5 7.3 5.1 4.5 3.2 11 8.8 13.3 11.1 2.5 2.4 5.7 5.6 8 8.1 2 2.1 4.5 5 6.3 7.3 6.9 8.8 9.5 12.8 14.5 21.4 3.1 5.3 6.3 12.8 8.7 18.4 2.7 6.3 5 15.2 6.7 21.8 1.1 4.2 2 9.9 2.5 14.2.9 7.1 1.2 16.8 1.1 24-.1 5.3-.8 12.4-1.6 17.6-1.2 7.4-3.7 17.1-5.9 24.3-1.6 5.2-4.5 11.8-6.7 16.8-1.3 2.7-2.8 5.3-4.5 7.8-1.8 2.6-3.8 5.1-6.1 7.4-2.3 2.4-5 4.7-7.8 6.9-2.9 2.2-6.1 4.3-9.6 6.3-14.8 8.4-33.1 13.6-53.5 15.5-20.8 2-43.4.5-66-4.1s-44.7-12.3-64.8-22.6c-19.6-10.1-36.8-22.4-50.2-36.5-5.2-5.5-9.6-11-13.3-16.5-3.6-5.4-6.4-10.8-8.5-16.1-2.3-5.2-3.7-10.4-4.4-15.3-.7-4.9-.8-9.7-.3-14.3z" class="st0"/></defs><clipPath id="SVGID_2_"><use xlink:href="#SVGID_1_" style="overflow:visible;"/></clipPath><g class="st1"><path d="M61 78c2.6-15.5 7.4-29 14-40.1 6.9-11.6 15.7-20.8 26.2-27 10.9-6.5 23.5-9.8 37.3-9.2 14.4.6 30 5.5 45.9 15.4-.1 0-.2.1-.2.1-.1 0-.1.1-.1.2s0 .1.1.2.1.1.3.2C168.2 21.4 151 29.5 133.9 41c-17.4 11.7-34.2 26.8-49.4 43.9-15.1 17.2-28.2 36.1-38.2 55.4-9.8 18.9-16.4 37.8-19.1 55.5-12.8-13.5-20.8-27.2-24.4-40.3-3.4-12.4-2.8-24.2 1.3-34.7 3.9-10 11-19 20.8-26.3 9.5-7 21.6-12.6 36.1-16.5z" class="st2"/><path d="M82.4 27.2C69.2 30 58.4 34.4 50 39.9c-8.7 5.8-14.7 12.8-17.7 20.9-3.1 8.4-3 17.9.7 27.9 4 10.5 12 21.6 24.3 32.6M124.9 2.4c-8.1 1.6-14.4 4.1-19.1 7.2-4.8 3.2-7.7 7.2-8.8 11.7-1.1 4.6-.1 9.8 3.1 15.2 3.2 5.6 8.8 11.4 16.7 17.2" class="st2"/><path d="M16.2 102.3c2-16.3 7.7-31.1 16.3-43.9 9-13.2 21.1-24.3 35.8-32.6 15.2-8.5 33-14.1 52.4-15.8 20-1.8 41.5.4 63.4 7.2" class="st2"/><path d="M.8 143.2c1.9-17.1 8.3-33.8 18.3-49.2 10.3-15.9 24.4-30.2 41.2-42.2C77.4 39.5 97.2 30 118.4 23.9c21.3-6.1 43.6-8.5 65.7-6.5" class="st2"/><path d="M27.2 195.9c2.7-17.7 9.3-36.6 19.1-55.5 10-19.3 23.1-38.2 38.2-55.4 15.1-17.2 32-32.2 49.4-43.9 17-11.5 34.2-19.6 50.4-23.3.1.1.2.1.4.2.1.1.3.1.4.1.1 0 .3 0 .4.1h.4c16.6 10.3 31.8 24.9 44.7 42.4 13.2 17.9 23.8 38.5 31.1 60.2 7.3 21.7 11.2 44.1 11.2 65.6 0 21-3.7 40.6-11.3 57.4-14.8 8.4-33.1 13.6-53.5 15.5-20.8 2-43.4.5-66-4.1s-44.7-12.3-64.8-22.6c-19.5-10.3-36.7-22.6-50.1-36.7z" class="st2"/><path d="M57.3 121.3c12.8 11.4 28.9 21.6 47 29.9 18.5 8.5 38.8 15.1 59.3 19.2 20.6 4.2 41 5.9 59.8 4.9 18.4-1 35-4.5 48.3-10.7M116.9 53.7c8.1 5.9 17.9 11.2 28.7 15.6 10.9 4.4 22.6 7.9 34.4 10.3 11.8 2.4 23.5 3.6 34.4 3.5 10.7-.1 20.5-1.4 28.6-4" class="st2"/><path d="M98 241.7c4.4-17.8 10.5-38.4 17.7-60.3 7.3-22.3 15.6-45.3 24.1-67.2 8.5-21.7 17-41.7 24.9-58.6 7.6-16.3 14.5-29.2 20.2-37.7M187 259.9c6.4-17.4 11.3-38.3 14.5-61.1 3.3-23.1 4.9-47.5 4.6-71.2-.3-23.4-2.3-45.6-5.9-64.8-3.5-18.5-8.5-33.9-14.7-44.8" class="st2"/><path d="M261.7 243.6c7.6-16.8 11.3-36.4 11.3-57.4 0-21.4-3.9-43.8-11.2-65.6-7.3-21.7-17.9-42.3-31.1-60.2C217.8 42.9 202.6 28.3 186 18c.1 0 .2-.1.2-.1.1 0 .1-.1.1-.2s0-.1-.1-.2-.1-.1-.3-.2c15.5-3.6 28.5-2.7 38.7 1.6 9.7 4.1 16.9 11.4 21.3 21 4.2 9.2 6 20.5 5.3 33.4-.7 12.4-3.8 26.3-9.3 41.2 13.8 9.6 25 19.9 33.6 30.6 8.9 11.2 14.8 22.8 17.5 34.2 2.8 12 2 23.8-2.8 34.6-4.9 11.4-14.3 21.6-28.5 29.7z" class="st2"/><path d="M271.7 164.6c12.8-6 21.3-13.8 25.7-22.6 4.3-8.5 4.8-17.8 2.1-27.4-2.6-9.2-8.3-18.7-16.6-27.9-8-8.9-18.7-17.5-31.6-25.6" class="st2"/><path d="M242.9 79.1c7.9-2.6 13.4-6.3 16.5-10.6 3.1-4.2 3.9-9 2.8-14.1-1.1-4.9-4.2-10.2-9.1-15.3-4.8-5.1-11.3-10.1-19.4-15" class="st2"/><path d="M293.8 202.6c7.5-16.1 10.5-33.5 9.3-51.3-1.2-18.3-6.9-36.7-16.6-54.1-9.8-17.7-23.7-34-40.8-47.7-17.1-13.8-37.3-24.7-59.5-31.6" class="st2"/><path d="M283.4 156.3c6.7-15.4 9.5-30.9 8.8-45.6-.7-15.3-5.3-29.7-13.4-42.6-8.4-13.3-20.5-24.8-35.9-33.6-15.8-9-34.9-14.9-56.7-16.9" class="st2"/><path d="M242 114.5c5.5-15 8.6-28.8 9.3-41.2.7-12.9-1-24.2-5.3-33.4-4.4-9.6-11.6-16.9-21.3-21-10.2-4.3-23.2-5.1-38.7-1.6-.1-.1-.2-.1-.4-.2-.1-.1-.3-.1-.4-.1-.1 0-.3 0-.4-.1h-.4C168.5 7 152.9 2.1 138.5 1.5c-13.7-.6-26.4 2.7-37.3 9.2-10.4 6.2-19.3 15.4-26.2 27C68.4 49 63.6 62.5 61 78c14-3.7 29.2-5.4 44.7-5.4 15.3 0 31.1 1.7 46.7 4.8 15.6 3.1 31.3 7.8 46.3 13.9 15.3 6.2 30 14 43.3 23.2z" class="st2"/><path d="M251.2 61.1c-12.6-7.9-26.4-14.5-40.7-19.9-14.1-5.3-28.8-9.5-43.4-12.5-14.6-2.9-29.4-4.6-43.5-5-14.4-.3-28.3.7-41.1 3.5M233.7 24.1c-8-4.7-16.9-8.8-26.2-12.2-9.2-3.3-18.8-6-28.4-7.9-9.6-1.9-19.2-3.1-28.3-3.4-9.2-.3-18 .2-25.9 1.8" class="st2"/><path d="M183.6 85.7c4.4-14.8 7.9-27.8 10.4-38.8 2.6-11.5 4.3-20.9 4.8-27.7.6-7.2-.1-11.5-2.1-12.3-2.1-.8-5.8 2.3-11.2 10.3M121.2 73.1c3.4-15 7.5-27.9 11.9-38.5 4.7-11.1 9.8-19.8 15.3-25.6 5.7-6.1 11.8-9.1 17.8-8.3 6.4.9 12.8 6 18.6 16.3" class="st2"/></g></g><g class="st0"><defs><path id="SVGID_3_" d="M122.1 2.8c-8.2 1.6-15.8 4.7-22.7 9.1-6.7 4.3-12.7 9.8-17.9 16.4-5.1 6.4-9.4 13.9-12.9 22.3C65.3 58.9 62.7 68 61 78c-8.6 2.3-16.4 5.2-23.3 8.7-7 3.5-13.1 7.7-18.2 12.3-5.2 4.8-9.5 10-12.6 15.8-3.2 5.9-5.2 12.2-6 18.9.7-5.4 1.6-12.5 3.1-17.7.9-3.4 2-8.1 3.2-11.5 1.7-4.9 4.1-11.3 6.2-16 1.4-3.2 3.5-7.4 5.2-10.4 2.5-4.4 6.2-10 8.9-14.3 2.8-4.4 7.3-9.7 10.8-13.6C42.8 45.4 49 39.1 54.2 35c4.3-3.4 10.2-7.7 14.7-10.8 2.6-1.8 6.2-3.8 8.9-5.3 1.3-.7 10.9-5.8 18.3-8.5 2.6-.9 6-2.3 8.7-3.1 5.2-1.5 12.1-3.3 17.3-4.5z" class="st0"/></defs><clipPath id="SVGID_4_"><use xlink:href="#SVGID_3_" style="overflow:visible;"/></clipPath><g class="st3"><path d="M61 78c2.6-15.5 7.4-29 14-40.1 6.9-11.6 15.7-20.8 26.2-27 10.9-6.5 23.5-9.8 37.3-9.2 14.4.6 30 5.5 45.9 15.4-.1 0-.2.1-.2.1-.1 0-.1.1-.1.2s0 .1.1.2.1.1.3.2C168.2 21.4 151 29.5 133.9 41c-17.4 11.7-34.2 26.8-49.4 43.9-15.1 17.2-28.2 36.1-38.2 55.4-9.8 18.9-16.4 37.8-19.1 55.5-12.8-13.5-20.8-27.2-24.4-40.3-3.4-12.4-2.8-24.2 1.3-34.7 3.9-10 11-19 20.8-26.3 9.5-7 21.6-12.6 36.1-16.5z" class="st2"/><path d="M82.4 27.2C69.2 30 58.4 34.4 50 39.9c-8.7 5.8-14.7 12.8-17.7 20.9-3.1 8.4-3 17.9.7 27.9 4 10.5 12 21.6 24.3 32.6" class="st2"/><path d="M16.2 102.3c2-16.3 7.7-31.1 16.3-43.9 9-13.2 21.1-24.3 35.8-32.6 15.2-8.5 33-14.1 52.4-15.8 20-1.8 41.5.4 63.4 7.2" class="st2"/></g><path d="M122.1 2.8c-8.2 1.6-15.8 4.7-22.7 9.1-6.7 4.3-12.7 9.8-17.9 16.4-5.1 6.4-9.4 13.9-12.9 22.3C65.3 58.9 62.7 68 61 78c-8.6 2.3-16.4 5.2-23.3 8.7-7 3.5-13.1 7.7-18.2 12.3-5.2 4.8-9.5 10-12.6 15.8-3.2 5.9-5.2 12.2-6 18.9.7-5.4 1.6-12.5 3.1-17.7.9-3.4 2-8.1 3.2-11.5 1.7-4.9 4.1-11.3 6.2-16 1.4-3.2 3.5-7.4 5.2-10.4 2.5-4.4 6.2-10 8.9-14.3 2.8-4.4 7.3-9.7 10.8-13.6C42.8 45.4 49 39.1 54.2 35c4.3-3.4 10.2-7.7 14.7-10.8 2.6-1.8 6.2-3.8 8.9-5.3 1.3-.7 10.9-5.8 18.3-8.5 2.6-.9 6-2.3 8.7-3.1 5.2-1.5 12.1-3.3 17.3-4.5z" class="st4"/></g><g class="st0"><defs><path id="SVGID_5_" d="M289.8 215c3.9-8.2 5.4-17 4.7-26.1-.6-8.7-3.3-17.6-7.7-26.5-4.3-8.5-10.4-17-18-25.2-7.4-7.9-16.4-15.6-26.8-22.8-13.4-9.3-28.1-17-43.3-23.2-15-6.1-30.6-10.8-46.3-13.9-15.6-3.1-31.5-4.8-46.7-4.8-15.5 0-30.7 1.7-44.7 5.4 1.7-10 4.3-19.1 7.7-27.4 3.5-8.4 7.8-15.9 12.9-22.3 5.2-6.6 11.2-12.1 17.9-16.4 6.9-4.4 14.5-7.5 22.7-9.1 2.6-.5 6-1.1 8.6-1.4 2.2-.3 5-.6 7.2-.8 2.1-.2 4.8-.3 6.9-.5 3.8-.2 12.1-.2 17.5.2 3 .2 7 .6 10 1 4.4.6 8.5 1.4 9.3 1.6 2.7.6 6.3 1.4 9 2.1 1.4.3 3.1.9 4.5 1.2 2.3.7 7.3 2.3 9.1 3 6.3 2.4 6.6 2.5 9.6 3.9 1.9.9 5.9 2.7 10.5 5.2 9.9 5.3 15.9 9.8 19.5 12.5 2.5 1.8 5.6 4.4 8 6.4 1.9 1.7 4.5 3.9 6.3 5.8 7.8 7.8 9.2 9.6 15.7 17.7 3.6 4.5 7.7 11 10.6 16 3.2 5.7 7 13.5 9.4 19.6 3.4 8.7 4 10.7 7.3 24.5 1.2 5 2 11.7 2.5 16.8.8 7.2.6 16.9.3 24.1-.2 5.2-1.3 12.1-2.2 17.3-1.3 7.4-4.4 17-6.7 24.2-1.5 3.8-3.8 8.4-5.3 11.9z" class="st0"/></defs><clipPath id="SVGID_6_"><use xlink:href="#SVGID_5_" style="overflow:visible;"/></clipPath><g class="st5"><path d="M261.7 243.6c7.6-16.8 11.3-36.4 11.3-57.4 0-21.4-3.9-43.8-11.2-65.6-7.3-21.7-17.9-42.3-31.1-60.2C217.8 42.9 202.6 28.3 186 18c.1 0 .2-.1.2-.1.1 0 .1-.1.1-.2s0-.1-.1-.2-.1-.1-.3-.2c15.5-3.6 28.5-2.7 38.7 1.6 9.7 4.1 16.9 11.4 21.3 21 4.2 9.2 6 20.5 5.3 33.4-.7 12.4-3.8 26.3-9.3 41.2 13.8 9.6 25 19.9 33.6 30.6 8.9 11.2 14.8 22.8 17.5 34.2 2.8 12 2 23.8-2.8 34.6-4.9 11.4-14.3 21.6-28.5 29.7z" class="st2"/><path d="M271.7 164.6c12.8-6 21.3-13.8 25.7-22.6 4.3-8.5 4.8-17.8 2.1-27.4-2.6-9.2-8.3-18.7-16.6-27.9-8-8.9-18.7-17.5-31.6-25.6" class="st2"/><path d="M242.9 79.1c7.9-2.6 13.4-6.3 16.5-10.6 3.1-4.2 3.9-9 2.8-14.1-1.1-4.9-4.2-10.2-9.1-15.3-4.8-5.1-11.3-10.1-19.4-15" class="st2"/><path d="M293.8 202.6c7.5-16.1 10.5-33.5 9.3-51.3-1.2-18.3-6.9-36.7-16.6-54.1-9.8-17.7-23.7-34-40.8-47.7-17.1-13.8-37.3-24.7-59.5-31.6" class="st2"/><path d="M283.4 156.3c6.7-15.4 9.5-30.9 8.8-45.6-.7-15.3-5.3-29.7-13.4-42.6-8.4-13.3-20.5-24.8-35.9-33.6-15.8-9-34.9-14.9-56.7-16.9" class="st2"/><path d="M242 114.5c5.5-15 8.6-28.8 9.3-41.2.7-12.9-1-24.2-5.3-33.4-4.4-9.6-11.6-16.9-21.3-21-10.2-4.3-23.2-5.1-38.7-1.6-.1-.1-.2-.1-.4-.2-.1-.1-.3-.1-.4-.1-.1 0-.3 0-.4-.1h-.4C168.5 7 152.9 2.1 138.5 1.5c-13.7-.6-26.4 2.7-37.3 9.2-10.4 6.2-19.3 15.4-26.2 27C68.4 49 63.6 62.5 61 78c14-3.7 29.2-5.4 44.7-5.4 15.3 0 31.1 1.7 46.7 4.8 15.6 3.1 31.3 7.8 46.3 13.9 15.3 6.2 30 14 43.3 23.2z" class="st2"/><path d="M251.2 61.1c-12.6-7.9-26.4-14.5-40.7-19.9-14.1-5.3-28.8-9.5-43.4-12.5-14.6-2.9-29.4-4.6-43.5-5-14.4-.3-28.3.7-41.1 3.5M233.7 24.1c-8-4.7-16.9-8.8-26.2-12.2-9.2-3.3-18.8-6-28.4-7.9-9.6-1.9-19.2-3.1-28.3-3.4-9.2-.3-18 .2-25.9 1.8" class="st2"/><path d="M183.6 85.7c4.4-14.8 7.9-27.8 10.4-38.8 2.6-11.5 4.3-20.9 4.8-27.7.6-7.2-.1-11.5-2.1-12.3-2.1-.8-5.8 2.3-11.2 10.3M121.2 73.1c3.4-15 7.5-27.9 11.9-38.5 4.7-11.1 9.8-19.8 15.3-25.6 5.7-6.1 11.8-9.1 17.8-8.3 6.4.9 12.8 6 18.6 16.3" class="st2"/></g><path d="M289.8 215c3.9-8.2 5.4-17 4.7-26.1-.6-8.7-3.3-17.6-7.7-26.5-4.3-8.5-10.4-17-18-25.2-7.4-7.9-16.4-15.6-26.8-22.8-13.4-9.3-28.1-17-43.3-23.2-15-6.1-30.6-10.8-46.3-13.9-15.6-3.1-31.5-4.8-46.7-4.8-15.5 0-30.7 1.7-44.7 5.4 1.7-10 4.3-19.1 7.7-27.4 3.5-8.4 7.8-15.9 12.9-22.3 5.2-6.6 11.2-12.1 17.9-16.4 6.9-4.4 14.5-7.5 22.7-9.1 2.6-.5 6-1.1 8.6-1.4 2.2-.3 5-.6 7.2-.8 2.1-.2 4.8-.3 6.9-.5 3.8-.2 12.1-.2 17.5.2 3 .2 7 .6 10 1 4.4.6 8.5 1.4 9.3 1.6 2.7.6 6.3 1.4 9 2.1 1.4.3 3.1.9 4.5 1.2 2.3.7 7.3 2.3 9.1 3 6.3 2.4 6.6 2.5 9.6 3.9 1.9.9 5.9 2.7 10.5 5.2 9.9 5.3 15.9 9.8 19.5 12.5 2.5 1.8 5.6 4.4 8 6.4 1.9 1.7 4.5 3.9 6.3 5.8 7.8 7.8 9.2 9.6 15.7 17.7 3.6 4.5 7.7 11 10.6 16 3.2 5.7 7 13.5 9.4 19.6 3.4 8.7 4 10.7 7.3 24.5 1.2 5 2 11.7 2.5 16.8.8 7.2.6 16.9.3 24.1-.2 5.2-1.3 12.1-2.2 17.3-1.3 7.4-4.4 17-6.7 24.2-1.5 3.8-3.8 8.4-5.3 11.9z" class="st6"/></g><g class="st0"><defs><path id="SVGID_7_" d="M122.2 3.1c4.5-.9 9.2-1.3 14.1-1.3 4.9.1 10 .6 15.2 1.7 5.3 1.1 10.6 2.7 16.1 5 5.5 2.3 11.2 5.1 16.8 8.6-.1 0-.2.1-.2.1-.1 0-.1.1-.1.2s0 .1.1.2.1.1.3.2c.1.1.2.1.4.2.1.1.3.1.4.1.1 0 .3 0 .4.1h.4c.1 0 .2-.1.2-.1.1 0 .1-.1.1-.2s0-.1-.1-.2-.1-.1-.3-.2c-.1-.1-.2-.1-.4-.2-.1-.1-.3-.1-.4-.1-.1 0-.3 0-.4-.1h-.4c-5.7-3.5-11.3-6.3-16.8-8.6-5.5-2.2-10.8-3.9-16.1-5-5.2-1.1-10.2-1.6-15.2-1.7-4.9-.1-9.6.4-14.1 1.3 2.6-.5 6-1.1 8.6-1.4 2.2-.3 5-.6 7.2-.8 2.1-.2 4.8-.3 6.9-.5 3.7-.2 11.6-.2 17.4.2 3 .2 6.9.6 9.9 1 4.4.6 8.5 1.4 9.3 1.6 2.7.6 6.3 1.4 8.9 2.1 1.3.3 3.1.9 4.4 1.2 2.3.7 7.7 2.5 9 3 6.1 2.3 6.5 2.5 9.6 3.9 1.9.9 5.9 2.6 10.5 5.2 9.8 5.3 16.1 9.9 19.4 12.4 2.5 1.8 5.6 4.4 8 6.4 1.9 1.7 4.5 3.9 6.3 5.7 7.8 7.8 9.2 9.6 15.7 17.7 3.6 4.5 7.8 11 10.6 16.1 3.2 5.7 7 13.5 9.4 19.5 3.4 8.8 4.1 11 7.4 24.5 1.2 5 2 11.7 2.6 16.8.8 7.2.6 16.9.3 24.1-.2 5.2-1.3 12.1-2.2 17.2-1.3 7.4-4.4 17-6.7 24.2-1.2 3.6-3.4 8.2-4.9 11.8-1.3 2.7-2.8 5.3-4.5 7.9-1.8 2.6-3.8 5.1-6.2 7.5-2.3 2.4-5 4.8-7.9 7-2.9 2.2-6.1 4.4-9.6 6.3-14.8 8.4-33.1 13.6-53.5 15.5-20.8 2-43.4.5-66-4.1s-44.7-12.3-64.8-22.6c-19.6-10.1-36.8-22.4-50.2-36.5-5.2-5.5-9.6-11-13.3-16.6-3.6-5.4-6.4-10.8-8.5-16.1-1.9-5.3-3.3-10.4-4-15.4-.7-4.9-.8-9.7-.3-14.3.9-6.1 2-14.3 3.7-20.2 1-3.4 2.2-8 3.4-11.4 1.7-4.8 4.2-11.2 6.4-15.8 3-6.2 7.5-14.3 11.4-20 2.9-4.1 7-9.5 10.2-13.4 2.1-2.6 5.3-5.7 7.6-8.2 3.6-3.8 9-8.3 13.1-11.7 2.5-2.1 6-4.5 8.6-6.3 4.7-3.4 11.5-7.1 16.6-9.9 2.6-1.4 6.3-3.1 9-4.2 4.2-1.7 9.9-3.8 14.2-5.3 5.1-1.5 11.9-3.1 17-4.1z" class="st0"/></defs><clipPath id="SVGID_8_"><use xlink:href="#SVGID_7_" style="overflow:visible;"/></clipPath><g class="st7"><path d="M184.4 17c-15.9-9.8-31.5-14.6-45.9-15.2-13.7-.6-26.4 2.8-37.3 9.3-10.4 6.2-19.3 15.4-26.2 27-6.6 11.1-11.4 24.5-14 40-14.5 3.8-26.6 9.5-36 16.5-9.9 7.3-16.9 16.3-20.8 26.3-4.1 10.5-4.7 22.3-1.3 34.7 3.6 13 11.5 26.7 24.4 40.3 2.7-17.6 9.3-36.5 19.1-55.4 10-19.3 23.1-38.2 38.2-55.3 15.1-17.2 32-32.2 49.3-44 17-11.5 34.2-19.7 50.4-23.5-.1-.1-.2-.1-.3-.2-.1-.1-.1-.1-.1-.2s0-.1.1-.2c.2 0 .3-.1.4-.1z" class="st2"/><path d="M124.9 2.6c-8 1.6-14.4 4.1-19.1 7.2-4.8 3.2-7.7 7.2-8.7 11.7-1.1 4.6-.1 9.8 3.1 15.2 3.2 5.6 8.8 11.4 16.7 17.2M82.4 27.5c-13.2 2.8-24 7.2-32.4 12.7C41.4 45.9 35.4 53 32.4 61c-3.1 8.4-3 17.8.7 27.9C37 99.4 45 110.4 57.3 121.5" class="st2"/><path d="M184.1 17.2c-21.9-6.7-43.4-8.8-63.4-7-19.4 1.8-37.2 7.3-52.4 15.9-14.7 8.3-26.9 19.3-35.8 32.5-8.6 12.7-14.3 27.4-16.3 43.7" class="st2"/><path d="M184.1 17.4c-22.1-1.9-44.4.6-65.7 6.7-21.2 6.1-40.9 15.7-58 27.9-16.9 12-30.9 26.3-41.3 42.1-10 15.4-16.4 32-18.4 49.1" class="st2"/><path d="M184.4 17.7C168.2 21.5 151 29.6 134 41.2 116.6 53 99.8 68 84.7 85.2c-15.1 17.2-28.2 36-38.2 55.3-9.8 18.9-16.4 37.7-19.1 55.4C40.8 210 58 222.4 77.6 232.4c20 10.3 42.2 18 64.8 22.6 22.6 4.6 45.2 6.1 66 4.1 20.4-1.9 38.7-7.1 53.5-15.5 7.5-16.7 11.2-36.3 11.1-57.2 0-21.4-3.9-43.8-11.2-65.5-7.3-21.7-17.9-42.4-31-60.3C217.7 43 202.6 28.4 186 18h-.4c-.1 0-.3 0-.4-.1-.1 0-.3-.1-.4-.1-.2 0-.3 0-.4-.1z" class="st2"/><path d="M116.9 53.9c8.1 5.9 17.9 11.2 28.7 15.5 10.9 4.4 22.6 7.9 34.4 10.3 11.8 2.4 23.5 3.6 34.3 3.5 10.7-.1 20.5-1.4 28.5-4M57.3 121.5c12.8 11.4 28.9 21.6 47 29.9 18.5 8.5 38.7 15.1 59.3 19.2 20.5 4.2 40.9 5.9 59.7 4.9 18.4-1 34.9-4.5 48.2-10.7" class="st2"/><path d="M184.9 17.9c-5.7 8.6-12.6 21.6-20.3 37.9-7.9 16.9-16.4 37-24.9 58.6-8.5 21.9-16.8 44.8-24.1 67.1-7.2 21.9-13.3 42.5-17.7 60.2M185.5 18.1c6.2 10.9 11.1 26.3 14.6 44.9 3.6 19.2 5.6 41.4 5.9 64.9.3 23.7-1.3 48-4.6 71.1-3.2 22.7-8.1 43.6-14.4 60.9" class="st2"/><path d="M186 18c16.6 10.4 31.7 25 44.6 42.5 13.2 17.9 23.7 38.6 31 60.3 7.3 21.7 11.2 44.1 11.2 65.5 0 20.9-3.6 40.5-11.1 57.2 14.2-8.1 23.6-18.3 28.6-29.6 4.8-10.8 5.6-22.6 2.8-34.6-2.7-11.4-8.6-23-17.5-34.2-8.5-10.7-19.8-21.1-33.6-30.6 5.5-14.9 8.5-28.7 9.2-41 .7-12.9-1.1-24.2-5.3-33.4-4.4-9.6-11.6-16.9-21.3-21-10.2-4.3-23.1-5.2-38.6-1.7.1.1.2.1.3.2.1.1.1.1.1.2s0 .1-.1.2h-.3z" class="st2"/><path d="M242.8 79.2c7.9-2.6 13.3-6.3 16.5-10.6 3.1-4.2 3.9-9 2.8-14.1-1.1-4.9-4.2-10.1-9.1-15.3-4.8-5.1-11.3-10.1-19.4-15" class="st2"/><path d="M271.5 164.8c12.8-6 21.3-13.8 25.7-22.6 4.3-8.4 4.8-17.8 2.1-27.4-2.6-9.2-8.2-18.7-16.6-27.9-8-8.9-18.6-17.5-31.6-25.6" class="st2"/><path d="M186.3 17.9c22.2 7 42.3 18 59.4 31.8s30.9 30.1 40.7 47.8c9.7 17.4 15.4 35.8 16.7 54 1.2 17.7-1.7 35.1-9.2 51.2" class="st2"/><path d="M186.3 17.6c21.7 2 40.8 8 56.6 17 15.4 8.8 27.4 20.3 35.8 33.6 8.1 12.9 12.7 27.3 13.4 42.6.7 14.7-2.1 30-8.7 45.4" class="st2"/><path d="M186 17.3c15.5-3.5 28.5-2.6 38.6 1.7 9.7 4.1 16.8 11.4 21.3 21 4.2 9.2 6 20.5 5.3 33.4-.7 12.3-3.7 26.2-9.2 41-13.4-9.3-28.1-17-43.3-23.2-15-6.1-30.6-10.8-46.3-13.9-15.6-3.1-31.5-4.8-46.7-4.8-15.5 0-30.7 1.7-44.7 5.4 2.6-15.4 7.4-28.8 14-40 6.9-11.6 15.7-20.7 26.2-27 10.9-6.5 23.5-9.8 37.3-9.3 14.4.6 30 5.4 45.9 15.2h.4c.1 0 .3 0 .4.1.1 0 .3.1.4.1.1.2.3.3.4.3z" class="st2"/><path d="M233.6 24.3c-8-4.7-16.9-8.8-26.1-12.2-9.2-3.3-18.8-6-28.4-7.9-9.6-1.9-19.2-3.1-28.3-3.4-9.2-.3-18 .2-25.9 1.8M251.1 61.3c-12.6-7.9-26.4-14.5-40.7-19.9-14.1-5.3-28.8-9.5-43.4-12.5-14.6-2.9-29.4-4.6-43.5-5-14.3-.3-28.3.7-41.1 3.5" class="st2"/><path d="M185.5 17.1c5.3-7.9 9-11 11.1-10.1 2 .8 2.7 5.2 2.1 12.4-.5 6.8-2.2 16.2-4.8 27.7-2.5 11-6 24-10.3 38.7M184.9 17C179 6.9 172.6 1.8 166.2.9c-6-.8-12.1 2.2-17.8 8.4-5.4 5.8-10.6 14.5-15.3 25.5-4.5 10.6-8.5 23.4-11.9 38.3" class="st2"/></g></g><g class="st0"><defs><path id="SVGID_9_" d="M1 133.6c1.1-7.1 2.8-16.6 4.6-23.5 1.6-5.8 4.2-13.5 6.7-18.9 2.9-6.3 7-14.6 10.8-20.4 2.7-4.1 6.6-9.5 9.6-13.5 2-2.7 5-6 7.3-8.5 3.3-3.6 8.1-8.1 11.8-11.4 2.4-2.2 5.9-4.7 8.4-6.8 3.9-3.2 9.6-6.9 14-9.3 2.7-1.5 6.1-3.6 8.9-4.8 4.9-2.3 11.5-5.2 16.5-7.1 2.5-1 5.9-2.1 8.5-2.8 4.2-1.2 9.9-2.6 14.2-3.5-8.2 1.6-15.8 4.7-22.7 9.1-6.7 4.3-12.7 9.8-17.9 16.4-5.1 6.4-9.4 13.9-12.9 22.3C65.3 59 62.7 68.1 61 78c-8.6 2.3-16.4 5.2-23.2 8.6-7 3.5-13.1 7.7-18.2 12.3-5.2 4.7-9.5 10-12.6 15.7-3.2 6-5.2 12.3-6 19z" class="st0"/></defs><clipPath id="SVGID_10_"><use xlink:href="#SVGID_9_" style="overflow:visible;"/></clipPath><g class="st8"><path d="M184.4 17c-15.9-9.8-31.5-14.6-45.9-15.2-13.7-.6-26.4 2.8-37.3 9.3-10.4 6.2-19.3 15.4-26.2 27-6.6 11.1-11.4 24.5-14 40-14.5 3.8-26.6 9.5-36 16.5-9.9 7.3-16.9 16.3-20.8 26.3-4.1 10.5-4.7 22.3-1.3 34.7 3.6 13 11.5 26.7 24.4 40.3 2.7-17.6 9.3-36.5 19.1-55.4 10-19.3 23.1-38.2 38.2-55.3 15.1-17.2 32-32.2 49.3-44 17-11.5 34.2-19.7 50.4-23.5-.1-.1-.2-.1-.3-.2-.1-.1-.1-.1-.1-.2s0-.1.1-.2c.2 0 .3-.1.4-.1z" class="st2"/><path d="M82.4 27.5c-13.2 2.8-24 7.2-32.4 12.7C41.4 45.9 35.4 53 32.4 61c-3.1 8.4-3 17.8.7 27.9C37 99.4 45 110.4 57.3 121.5" class="st2"/><path d="M184.1 17.2c-21.9-6.7-43.4-8.8-63.4-7-19.4 1.8-37.2 7.3-52.4 15.9-14.7 8.3-26.9 19.3-35.8 32.5-8.6 12.7-14.3 27.4-16.3 43.7" class="st2"/></g><path d="M1 133.6c1.1-7.1 2.8-16.6 4.6-23.5 1.6-5.8 4.2-13.5 6.7-18.9 2.9-6.3 7-14.6 10.8-20.4 2.7-4.1 6.6-9.5 9.6-13.5 2-2.7 5-6 7.3-8.5 3.3-3.6 8.1-8.1 11.8-11.4 2.4-2.2 5.9-4.7 8.4-6.8 3.9-3.2 9.6-6.9 14-9.3 2.7-1.5 6.1-3.6 8.9-4.8 4.9-2.3 11.5-5.2 16.5-7.1 2.5-1 5.9-2.1 8.5-2.8 4.2-1.2 9.9-2.6 14.2-3.5-8.2 1.6-15.8 4.7-22.7 9.1-6.7 4.3-12.7 9.8-17.9 16.4-5.1 6.4-9.4 13.9-12.9 22.3C65.3 59 62.7 68.1 61 78c-8.6 2.3-16.4 5.2-23.2 8.6-7 3.5-13.1 7.7-18.2 12.3-5.2 4.7-9.5 10-12.6 15.7-3.2 6-5.2 12.3-6 19z" class="st9"/></g><g class="st0"><defs><path id="SVGID_11_" d="M229.4 21.5c2.1 1.3 4.9 3 6.9 4.3 1.8 1.2 4.2 3 6.1 4.2 2.2 1.5 5 3.7 7 5.5 3.9 3.4 8.9 8 12.5 11.7 2.6 2.6 5.9 6.4 8.2 9.3 2.8 3.6 6.4 8.5 9 12.3 1.8 2.6 4 6.2 5.5 9 2.9 5.4 6.4 12.8 8.8 18.5 1.3 3.1 2.8 7.5 3.8 10.7 3.7 11.9 5 21.3 5.5 25.3 1 7.1 1.7 16.8 1.2 23.9-.4 5.3-.9 12.4-1.6 17.6-.5 3.7-1.5 8.6-2.4 12.2-.9 3.7-2.2 8.5-3.4 12.1-1.8 5.1-4.4 11.8-6.6 16.7 3.8-8.2 5.3-17 4.7-26-.6-8.7-3.3-17.6-7.7-26.4-4.3-8.5-10.4-17-18-25.2-7.4-7.9-16.4-15.6-26.8-22.8-13.4-9.3-28.1-17-43.3-23.2-15-6.1-30.6-10.8-46.3-13.9-15.6-3.1-31.5-4.8-46.7-4.8-15.5 0-30.7 1.7-44.7 5.4 1.7-9.9 4.3-19.1 7.7-27.3 3.5-8.4 7.8-15.9 12.9-22.3 5.2-6.6 11.2-12.1 17.9-16.4 6.9-4.4 14.5-7.5 22.7-9.1 4.4-.7 10.2-1.7 14.7-2.1 6-.6 11.2-.7 13.7-.7 3 0 13.9 0 26.3 2.1 1.8.3 7.2 1.2 13.5 2.9 2.6.7 7.8 2.2 13.5 4.2 5.7 2.1 9.1 3.6 14.4 6.1 3.5 1.9 8.8 4.9 11 6.2z" class="st0"/></defs><clipPath id="SVGID_12_"><use xlink:href="#SVGID_11_" style="overflow:visible;"/></clipPath><g class="st10"><path d="M186 18c16.6 10.4 31.7 25 44.6 42.5 13.2 17.9 23.7 38.6 31 60.3 7.3 21.7 11.2 44.1 11.2 65.5 0 20.9-3.6 40.5-11.1 57.2 14.2-8.1 23.6-18.3 28.6-29.6 4.8-10.8 5.6-22.6 2.8-34.6-2.7-11.4-8.6-23-17.5-34.2-8.5-10.7-19.8-21.1-33.6-30.6 5.5-14.9 8.5-28.7 9.2-41 .7-12.9-1.1-24.2-5.3-33.4-4.4-9.6-11.6-16.9-21.3-21-10.2-4.3-23.1-5.2-38.6-1.7.1.1.2.1.3.2.1.1.1.1.1.2s0 .1-.1.2h-.3z" class="st2"/><path d="M242.8 79.2c7.9-2.6 13.3-6.3 16.5-10.6 3.1-4.2 3.9-9 2.8-14.1-1.1-4.9-4.2-10.1-9.1-15.3-4.8-5.1-11.3-10.1-19.4-15" class="st2"/><path d="M271.5 164.8c12.8-6 21.3-13.8 25.7-22.6 4.3-8.4 4.8-17.8 2.1-27.4-2.6-9.2-8.2-18.7-16.6-27.9-8-8.9-18.6-17.5-31.6-25.6" class="st2"/><path d="M186.3 17.9c22.2 7 42.3 18 59.4 31.8s30.9 30.1 40.7 47.8c9.7 17.4 15.4 35.8 16.7 54 1.2 17.7-1.7 35.1-9.2 51.2" class="st2"/><path d="M186.3 17.6c21.7 2 40.8 8 56.6 17 15.4 8.8 27.4 20.3 35.8 33.6 8.1 12.9 12.7 27.3 13.4 42.6.7 14.7-2.1 30-8.7 45.4" class="st2"/><path d="M186 17.3c15.5-3.5 28.5-2.6 38.6 1.7 9.7 4.1 16.8 11.4 21.3 21 4.2 9.2 6 20.5 5.3 33.4-.7 12.3-3.7 26.2-9.2 41-13.4-9.3-28.1-17-43.3-23.2-15-6.1-30.6-10.8-46.3-13.9-15.6-3.1-31.5-4.8-46.7-4.8-15.5 0-30.7 1.7-44.7 5.4 2.6-15.4 7.4-28.8 14-40 6.9-11.6 15.7-20.7 26.2-27 10.9-6.5 23.5-9.8 37.3-9.3 14.4.6 30 5.4 45.9 15.2h.4c.1 0 .3 0 .4.1.1 0 .3.1.4.1.1.2.3.3.4.3z" class="st2"/><path d="M233.6 24.3c-8-4.7-16.9-8.8-26.1-12.2-9.2-3.3-18.8-6-28.4-7.9-9.6-1.9-19.2-3.1-28.3-3.4-9.2-.3-18 .2-25.9 1.8M251.1 61.3c-12.6-7.9-26.4-14.5-40.7-19.9-14.1-5.3-28.8-9.5-43.4-12.5-14.6-2.9-29.4-4.6-43.5-5-14.3-.3-28.3.7-41.1 3.5" class="st2"/><path d="M185.5 17.1c5.3-7.9 9-11 11.1-10.1 2 .8 2.7 5.2 2.1 12.4-.5 6.8-2.2 16.2-4.8 27.7-2.5 11-6 24-10.3 38.7M184.9 17C179 6.9 172.6 1.8 166.2.9c-6-.8-12.1 2.2-17.8 8.4-5.4 5.8-10.6 14.5-15.3 25.5-4.5 10.6-8.5 23.4-11.9 38.3" class="st2"/></g><path d="M229.4 21.5c2.1 1.3 4.9 3 6.9 4.3 1.8 1.2 4.2 3 6.1 4.2 2.2 1.5 5 3.7 7 5.5 3.9 3.4 8.9 8 12.5 11.7 2.6 2.6 5.9 6.4 8.2 9.3 2.8 3.6 6.4 8.5 9 12.3 1.8 2.6 4 6.2 5.5 9 2.9 5.4 6.4 12.8 8.8 18.5 1.3 3.1 2.8 7.5 3.8 10.7 3.7 11.9 5 21.3 5.5 25.3 1 7.1 1.7 16.8 1.2 23.9-.4 5.3-.9 12.4-1.6 17.6-.5 3.7-1.5 8.6-2.4 12.2-.9 3.7-2.2 8.5-3.4 12.1-1.8 5.1-4.4 11.8-6.6 16.7 3.8-8.2 5.3-17 4.7-26-.6-8.7-3.3-17.6-7.7-26.4-4.3-8.5-10.4-17-18-25.2-7.4-7.9-16.4-15.6-26.8-22.8-13.4-9.3-28.1-17-43.3-23.2-15-6.1-30.6-10.8-46.3-13.9-15.6-3.1-31.5-4.8-46.7-4.8-15.5 0-30.7 1.7-44.7 5.4 1.7-9.9 4.3-19.1 7.7-27.3 3.5-8.4 7.8-15.9 12.9-22.3 5.2-6.6 11.2-12.1 17.9-16.4 6.9-4.4 14.5-7.5 22.7-9.1 4.4-.7 10.2-1.7 14.7-2.1 6-.6 11.2-.7 13.7-.7 3 0 13.9 0 26.3 2.1 1.8.3 7.2 1.2 13.5 2.9 2.6.7 7.8 2.2 13.5 4.2 5.7 2.1 9.1 3.6 14.4 6.1 3.5 1.9 8.8 4.9 11 6.2z" class="st11"/></g><g class="st0"><defs><path id="SVGID_13_" d="M2.1 133.4c1.1-7.1 2.5-16.5 4.6-23.4 1.5-5 3.8-11.7 5.7-16.5 1.3-3.2 3.3-7.4 4.8-10.5 2.1-4.5 5.5-10.3 8.3-14.4 2-2.8 4.4-6.5 6.5-9.2 3-3.8 7.3-8.8 10.6-12.3 2.2-2.4 5.4-5.5 7.9-7.6 3.7-3.2 8.9-7.3 12.8-10.3 4.3-3.3 10.4-7 15.1-9.5 2.5-1.4 5.8-3.2 8.4-4.3 5.1-2.2 12-5 17.2-6.8.1 0 7.3-2.6 18.3-4.8 4.5-.9 9.2-1.3 14-1.3 4.9.1 9.9.6 15.1 1.7 5.2 1.1 10.6 2.7 16 4.9 5.5 2.2 11.1 5.1 16.7 8.5-.1 0-.2.1-.2.1-.1 0-.1.1-.1.2s0 .1.1.2.1.1.3.2c.1.1.2.1.4.2.1.1.3.1.4.1h.8c.1 0 .2-.1.2-.1.1 0 .1-.1.1-.2s0-.1-.1-.2-.1-.1-.3-.2c-.1-.1-.2-.1-.4-.2-.1-.1-.3-.1-.4-.1h-.8c-5.6-3.5-11.2-6.3-16.7-8.5-5.4-2.2-10.8-3.9-16-4.9-5.2-1.1-10.2-1.6-15.1-1.7-4.8 0-9.5.4-14 1.3 0 0 6-1.3 14.6-2.1 5.2-.5 10.8-.7 14.2-.7 1.9 0 7 0 11.1.4 4.5.4 8.3.7 14.6 1.7 1.4.2 3.2.6 4.6.8 2.7.6 6.2 1.4 8.9 2.1 2.9.7 7.2 2.1 8.9 2.6 2.1.7 6 2.1 9.2 3.3 3 1.2 6.8 2.9 9.7 4.3 4 1.9 7.6 4 10.8 5.8.2.1 5.4 3.3 7.1 4.5 3.7 2.5 8.5 6.1 12 8.9 2.3 1.8 5.2 4.4 7.3 6.4 2.6 2.5 9.2 8.9 14.2 15.3 2.8 3.6 6.4 8.5 9 12.3 1.8 2.6 4 6.2 5.5 9 7 13.3 7.8 15.3 12.5 29 2.2 6.5 3.9 15.6 5.1 22.4.8 4.3 1.2 10.2 1.4 14.5.2 3.6.1 8.4.1 12 0 5.3-.8 12.3-1.6 17.5-1.2 7.3-3.6 17-5.8 24.1-1.6 5.1-4.4 11.7-6.6 16.6-1.3 2.7-2.8 5.3-4.5 7.8-1.8 2.6-3.8 5-6.1 7.4-2.3 2.4-4.9 4.7-7.8 6.9-2.9 2.2-6.1 4.3-9.6 6.3-14.7 8.3-32.9 13.4-53.1 15.3-20.7 1.9-43 .5-65.5-4.1-22.4-4.6-44.4-12.2-64.3-22.4-19.5-10-36.5-22.2-49.8-36.2-5.2-5.5-9.6-11-13.2-16.4-3.6-5.4-6.4-10.7-8.5-16-2.1-5.2-3.4-10.3-4.2-15.2-.9-5.1-.9-9.9-.4-14.5z" class="st0"/></defs><clipPath id="SVGID_14_"><use xlink:href="#SVGID_13_" style="overflow:visible;"/></clipPath><g class="st12"><path d="M61.6 78.3C64.2 63 69 49.6 75.5 38.5c6.8-11.5 15.7-20.6 26-26.8 10.9-6.5 23.4-9.8 37.1-9.2 14.3.6 29.8 5.4 45.6 15.1-.1 0-.2.1-.2.1-.1 0-.1.1-.1.2s0 .1.1.2.1.1.3.2C168.1 22 151 30.1 134.1 41.6c-17.3 11.7-34 26.7-49 43.7-15 17-28 35.8-37.9 55-9.7 18.7-16.3 37.5-19 55-12.8-13.4-20.7-27-24.2-40-3.4-12.3-2.8-24 1.2-34.5C9 110.9 16 102 25.8 94.7c9.4-7 21.4-12.6 35.8-16.4z" class="st2"/><path d="M82.9 27.9C69.8 30.7 59 35.1 50.7 40.6c-8.6 5.7-14.5 12.8-17.5 20.8-3.1 8.3-3 17.7.8 27.7 3.9 10.4 11.8 21.4 24.1 32.3M125.1 3.2c-8 1.6-14.3 4-19 7.2-4.7 3.2-7.7 7.2-8.7 11.7-1 4.6-.1 9.7 3.1 15.1 3.2 5.5 8.7 11.3 16.6 17.1" class="st2"/><path d="M17.1 102.4c2-16.2 7.6-30.8 16.2-43.5 8.9-13.1 21-24.1 35.6-32.3 15.1-8.5 32.8-14 52.1-15.8 19.8-1.8 41.2.3 63 6.9" class="st2"/><path d="M1.9 143c1.9-17 8.3-33.5 18.2-48.8 10.2-15.7 24.2-30 40.9-41.9 17-12.1 36.6-21.6 57.7-27.7 21.1-6.1 43.3-8.5 65.2-6.7" class="st2"/><path d="M28.2 195.3c2.7-17.5 9.3-36.3 19-55 9.9-19.2 22.9-37.9 37.9-55s31.7-32 49-43.7c16.9-11.5 34-19.6 50.1-23.3.1.1.2.1.4.2.1.1.3.1.4.1h.8c16.5 10.3 31.5 24.8 44.3 42.3 13.1 17.8 23.5 38.3 30.8 59.9 7.2 21.6 11.1 43.8 11.1 65.1 0 20.8-3.6 40.2-11.1 56.8-14.7 8.3-32.9 13.4-53.1 15.3-20.7 1.9-43 .5-65.5-4.1-22.4-4.6-44.4-12.2-64.3-22.4-19.4-10-36.5-22.2-49.8-36.2z" class="st2"/><path d="M58.1 121.4c12.7 11.3 28.7 21.4 46.7 29.7 18.4 8.5 38.4 14.9 58.8 19.1 20.4 4.1 40.6 5.8 59.3 4.9 18.3-1 34.7-4.5 47.9-10.6M117.2 54.3c8.1 5.9 17.8 11.1 28.5 15.4 10.8 4.4 22.4 7.9 34.1 10.2 11.7 2.4 23.3 3.6 34.1 3.5 10.7-.1 20.3-1.4 28.4-4" class="st2"/><path d="M98.5 240.8c4.4-17.6 10.4-38 17.5-59.8 7.3-22.1 15.5-44.9 23.9-66.6 8.4-21.5 16.8-41.5 24.7-58.3 7.6-16.2 14.5-29.2 20.1-37.7M186.7 258.8c6.3-17.2 11.1-37.9 14.4-60.5 3.3-22.9 4.8-47.1 4.6-70.6-.2-23.3-2.2-45.3-5.8-64.4-3.5-18.5-8.4-33.8-14.5-44.6M260.9 242.7c7.5-16.6 11.1-36 11.1-56.8 0-21.2-3.9-43.5-11.1-65.1-7.2-21.6-17.7-42.1-30.8-59.9-12.8-17.4-27.8-32-44.3-42.3.1 0 .2-.1.2-.1.1 0 .1-.1.1-.2s0-.1-.1-.2-.1-.1-.3-.2c15.4-3.5 28.3-2.6 38.4 1.7 9.7 4.1 16.8 11.4 21.2 20.9 4.2 9.1 6 20.4 5.3 33.2-.7 12.3-3.7 26.1-9.2 40.9 13.7 9.5 24.9 19.8 33.3 30.4 8.8 11.1 14.7 22.6 17.3 33.9 2.8 11.9 2 23.6-2.8 34.3-4.8 11.3-14.2 21.5-28.3 29.5z" class="st2"/><path d="M270.7 164.4c12.7-5.9 21.1-13.6 25.6-22.4 4.3-8.4 4.8-17.7 2.1-27.2-2.6-9.1-8.2-18.6-16.4-27.7-8-8.8-18.5-17.4-31.4-25.5" class="st2"/><path d="M242.2 79.4c7.8-2.6 13.3-6.2 16.4-10.5 3.1-4.2 3.9-8.9 2.8-14-1.1-4.9-4.2-10.1-9-15.3-4.7-5-11.2-10.1-19.3-14.9" class="st2"/><path d="M292.9 202.1c7.4-15.9 10.4-33.2 9.2-50.9-1.3-18.1-6.9-36.4-16.5-53.7-9.8-17.6-23.5-33.8-40.4-47.5-17-13.7-36.9-24.6-59-31.6" class="st2"/><path d="M282.6 156c6.6-15.3 9.4-30.6 8.7-45.2-.7-15.1-5.3-29.5-13.3-42.3-8.3-13.2-20.3-24.7-35.6-33.4-15.7-9-34.6-14.9-56.2-16.9" class="st2"/><path d="M241.5 114.6c5.5-14.8 8.5-28.6 9.2-40.9.7-12.8-1.1-24.1-5.3-33.2-4.4-9.6-11.5-16.8-21.2-20.9-10.1-4.3-23-5.2-38.4-1.7-.1-.1-.2-.1-.4-.2-.1-.1-.3-.1-.4-.1h-.8C168.4 7.8 152.9 3 138.6 2.4c-13.7-.6-26.2 2.7-37.1 9.2-10.4 6.2-19.2 15.3-26 26.8-6.6 11.1-11.3 24.4-13.9 39.8 14-3.7 29-5.4 44.5-5.4 15.2 0 30.9 1.7 46.5 4.8 15.6 3.1 31.2 7.8 46 13.8 15.1 6.2 29.7 14 42.9 23.2z" class="st2"/><path d="M250.6 61.6c-12.5-7.8-26.3-14.4-40.5-19.8-14-5.3-28.6-9.5-43.2-12.4-14.5-2.9-29.2-4.6-43.3-4.9-14.3-.3-28.1.8-40.9 3.5M233.2 24.8c-7.9-4.7-16.8-8.8-26-12.1-9.1-3.3-18.7-6-28.2-7.9-9.5-1.9-19-3.1-28.1-3.4-9.2-.3-17.9.2-25.8 1.8" class="st2"/><path d="M183.4 85.9c4.3-14.6 7.8-27.6 10.3-38.5 2.6-11.4 4.2-20.8 4.8-27.5.6-7.1-.1-11.5-2.1-12.3-2.1-.9-5.8 2.2-11 10.1M121.4 73.4c3.4-14.8 7.4-27.6 11.9-38.1 4.6-11 9.8-19.6 15.2-25.4 5.7-6.1 11.7-9.1 17.7-8.3 6.4.8 12.7 5.9 18.5 16" class="st2"/></g></g><g class="st0"><defs><path id="SVGID_15_" d="M122.4 3.6c-8.1 1.6-15.7 4.7-22.5 9C93.2 16.9 87.2 22.4 82 29c-5 6.4-9.4 13.8-12.8 22.2-3.4 8.2-5.9 17.2-7.6 27.1-8.5 2.3-16.2 5.2-23.1 8.6-7 3.5-13 7.6-18.1 12.2-5.2 4.7-9.4 9.9-12.5 15.6-3.2 5.8-5.2 12.1-5.9 18.8.7-5.3 1.6-12.4 3.1-17.6.9-3.4 2-8 3.2-11.4 1.6-4.8 4-11.2 6.1-15.9 1.4-3.2 3.4-7.3 5.2-10.3 2.5-4.3 6.1-9.9 8.9-14.1 2.8-4.3 7.2-9.7 10.7-13.4C43.7 46 49.8 39.7 55 35.7c4.3-3.4 10.1-7.6 14.6-10.7 2.6-1.7 6.2-3.8 8.9-5.3 1.2-.7 10.8-5.8 18.1-8.5 2.6-.9 6-2.3 8.6-3.1 5.1-1.5 12-3.3 17.2-4.5z" class="st0"/></defs><clipPath id="SVGID_16_"><use xlink:href="#SVGID_15_" style="overflow:visible;"/></clipPath><g class="st13"><path d="M61.6 78.3C64.2 63 69 49.6 75.5 38.5c6.8-11.5 15.7-20.6 26-26.8 10.9-6.5 23.4-9.8 37.1-9.2 14.3.6 29.8 5.4 45.6 15.1-.1 0-.2.1-.2.1-.1 0-.1.1-.1.2s0 .1.1.2.1.1.3.2C168.1 22 151 30.1 134.1 41.6c-17.3 11.7-34 26.7-49 43.7-15 17-28 35.8-37.9 55-9.7 18.7-16.3 37.5-19 55-12.8-13.4-20.7-27-24.2-40-3.4-12.3-2.8-24 1.2-34.5C9 110.9 16 102 25.8 94.7c9.4-7 21.4-12.6 35.8-16.4z" class="st2"/><path d="M82.9 27.9C69.8 30.7 59 35.1 50.7 40.6c-8.6 5.7-14.5 12.8-17.5 20.8-3.1 8.3-3 17.7.8 27.7 3.9 10.4 11.8 21.4 24.1 32.3" class="st2"/><path d="M17.1 102.4c2-16.2 7.6-30.8 16.2-43.5 8.9-13.1 21-24.1 35.6-32.3 15.1-8.5 32.8-14 52.1-15.8 19.8-1.8 41.2.3 63 6.9" class="st2"/></g><path d="M122.4 3.6c-8.1 1.6-15.7 4.7-22.5 9C93.2 16.9 87.2 22.4 82 29c-5 6.4-9.4 13.8-12.8 22.2-3.4 8.2-5.9 17.2-7.6 27.1-8.5 2.3-16.2 5.2-23.1 8.6-7 3.5-13 7.6-18.1 12.2-5.2 4.7-9.4 9.9-12.5 15.6-3.2 5.8-5.2 12.1-5.9 18.8.7-5.3 1.6-12.4 3.1-17.6.9-3.4 2-8 3.2-11.4 1.6-4.8 4-11.2 6.1-15.9 1.4-3.2 3.4-7.3 5.2-10.3 2.5-4.3 6.1-9.9 8.9-14.1 2.8-4.3 7.2-9.7 10.7-13.4C43.7 46 49.8 39.7 55 35.7c4.3-3.4 10.1-7.6 14.6-10.7 2.6-1.7 6.2-3.8 8.9-5.3 1.2-.7 10.8-5.8 18.1-8.5 2.6-.9 6-2.3 8.6-3.1 5.1-1.5 12-3.3 17.2-4.5z" class="st14"/></g><g class="st0"><defs><path id="SVGID_17_" d="M289 214.2c3.8-8.1 5.3-16.9 4.7-25.8-.6-8.6-3.2-17.5-7.7-26.2-4.3-8.5-10.3-16.9-17.9-25-7.4-7.9-16.2-15.5-26.6-22.6-13.3-9.2-27.9-16.9-43-23.1-14.9-6.1-30.5-10.7-46-13.8-15.5-3.1-31.3-4.8-46.5-4.8-15.4 0-30.5 1.7-44.5 5.4 1.7-9.9 4.2-19 7.6-27.1C72.7 42.8 77 35.4 82 29c5.2-6.6 11.2-12 17.8-16.3 6.9-4.4 14.4-7.4 22.5-9 2.6-.5 6-1.1 8.6-1.4 2.1-.3 5-.6 7.1-.8 2.1-.2 4.8-.3 6.9-.5 3.6-.2 11.5-.2 17.3.2 3 .2 6.9.6 9.9 1 4.4.6 8.4 1.4 9.2 1.6 2.7.6 6.2 1.4 8.9 2.1 1.3.3 3.1.9 4.4 1.2 2.2.6 7.5 2.4 9 3 5.9 2.3 6.4 2.5 9.5 3.8 2 .9 5.8 2.6 10.5 5.1 9.7 5.3 15.9 9.9 19.2 12.3 2.5 1.8 5.6 4.4 7.9 6.4 1.9 1.7 4.5 3.9 6.3 5.7 2.9 2.9 6.8 7 9.5 10.1 1.9 2.2 4.3 5.2 6.1 7.5 3.6 4.5 7.7 11 10.5 16 3.2 5.6 7 13.4 9.3 19.4 3.4 8.8 4.1 10.9 7.3 24.3 1.2 4.9 2 11.7 2.5 16.7.8 7.1.6 16.8.3 23.9-.2 5.2-1.3 12-2.2 17.1-1.3 7.4-4.3 16.9-6.6 24-1 3.7-3.3 8.3-4.7 11.8z" class="st0"/></defs><clipPath id="SVGID_18_"><use xlink:href="#SVGID_17_" style="overflow:visible;"/></clipPath><g class="st15"><path d="M260.9 242.7c7.5-16.6 11.1-36 11.1-56.8 0-21.2-3.9-43.5-11.1-65.1-7.2-21.6-17.7-42.1-30.8-59.9-12.8-17.4-27.8-32-44.3-42.3.1 0 .2-.1.2-.1.1 0 .1-.1.1-.2s0-.1-.1-.2-.1-.1-.3-.2c15.4-3.5 28.3-2.6 38.4 1.7 9.7 4.1 16.8 11.4 21.2 20.9 4.2 9.1 6 20.4 5.3 33.2-.7 12.3-3.7 26.1-9.2 40.9 13.7 9.5 24.9 19.8 33.3 30.4 8.8 11.1 14.7 22.6 17.3 33.9 2.8 11.9 2 23.6-2.8 34.3-4.8 11.3-14.2 21.5-28.3 29.5z" class="st2"/><path d="M270.7 164.4c12.7-5.9 21.1-13.6 25.6-22.4 4.3-8.4 4.8-17.7 2.1-27.2-2.6-9.1-8.2-18.6-16.4-27.7-8-8.8-18.5-17.4-31.4-25.5" class="st2"/><path d="M242.2 79.4c7.8-2.6 13.3-6.2 16.4-10.5 3.1-4.2 3.9-8.9 2.8-14-1.1-4.9-4.2-10.1-9-15.3-4.7-5-11.2-10.1-19.3-14.9" class="st2"/><path d="M292.9 202.1c7.4-15.9 10.4-33.2 9.2-50.9-1.3-18.1-6.9-36.4-16.5-53.7-9.8-17.6-23.5-33.8-40.4-47.5-17-13.7-36.9-24.6-59-31.6" class="st2"/><path d="M282.6 156c6.6-15.3 9.4-30.6 8.7-45.2-.7-15.1-5.3-29.5-13.3-42.3-8.3-13.2-20.3-24.7-35.6-33.4-15.7-9-34.6-14.9-56.2-16.9" class="st2"/><path d="M241.5 114.6c5.5-14.8 8.5-28.6 9.2-40.9.7-12.8-1.1-24.1-5.3-33.2-4.4-9.6-11.5-16.8-21.2-20.9-10.1-4.3-23-5.2-38.4-1.7-.1-.1-.2-.1-.4-.2-.1-.1-.3-.1-.4-.1h-.8C168.4 7.8 152.9 3 138.6 2.4c-13.7-.6-26.2 2.7-37.1 9.2-10.4 6.2-19.2 15.3-26 26.8-6.6 11.1-11.3 24.4-13.9 39.8 14-3.7 29-5.4 44.5-5.4 15.2 0 30.9 1.7 46.5 4.8 15.6 3.1 31.2 7.8 46 13.8 15.1 6.2 29.7 14 42.9 23.2z" class="st2"/><path d="M250.6 61.6c-12.5-7.8-26.3-14.4-40.5-19.8-14-5.3-28.6-9.5-43.2-12.4-14.5-2.9-29.2-4.6-43.3-4.9-14.3-.3-28.1.8-40.9 3.5M233.2 24.8c-7.9-4.7-16.8-8.8-26-12.1-9.1-3.3-18.7-6-28.2-7.9-9.5-1.9-19-3.1-28.1-3.4-9.2-.3-17.9.2-25.8 1.8" class="st2"/><path d="M183.4 85.9c4.3-14.6 7.8-27.6 10.3-38.5 2.6-11.4 4.2-20.8 4.8-27.5.6-7.1-.1-11.5-2.1-12.3-2.1-.9-5.8 2.2-11 10.1M121.4 73.4c3.4-14.8 7.4-27.6 11.9-38.1 4.6-11 9.8-19.6 15.2-25.4 5.7-6.1 11.7-9.1 17.7-8.3 6.4.8 12.7 5.9 18.5 16" class="st2"/></g><path d="M289 214.2c3.8-8.1 5.3-16.9 4.7-25.8-.6-8.6-3.2-17.5-7.7-26.2-4.3-8.5-10.3-16.9-17.9-25-7.4-7.9-16.2-15.5-26.6-22.6-13.3-9.2-27.9-16.9-43-23.1-14.9-6.1-30.5-10.7-46-13.8-15.5-3.1-31.3-4.8-46.5-4.8-15.4 0-30.5 1.7-44.5 5.4 1.7-9.9 4.2-19 7.6-27.1C72.7 42.8 77 35.4 82 29c5.2-6.6 11.2-12 17.8-16.3 6.9-4.4 14.4-7.4 22.5-9 2.6-.5 6-1.1 8.6-1.4 2.1-.3 5-.6 7.1-.8 2.1-.2 4.8-.3 6.9-.5 3.6-.2 11.5-.2 17.3.2 3 .2 6.9.6 9.9 1 4.4.6 8.4 1.4 9.2 1.6 2.7.6 6.2 1.4 8.9 2.1 1.3.3 3.1.9 4.4 1.2 2.2.6 7.5 2.4 9 3 5.9 2.3 6.4 2.5 9.5 3.8 2 .9 5.8 2.6 10.5 5.1 9.7 5.3 15.9 9.9 19.2 12.3 2.5 1.8 5.6 4.4 7.9 6.4 1.9 1.7 4.5 3.9 6.3 5.7 2.9 2.9 6.8 7 9.5 10.1 1.9 2.2 4.3 5.2 6.1 7.5 3.6 4.5 7.7 11 10.5 16 3.2 5.6 7 13.4 9.3 19.4 3.4 8.8 4.1 10.9 7.3 24.3 1.2 4.9 2 11.7 2.5 16.7.8 7.1.6 16.8.3 23.9-.2 5.2-1.3 12-2.2 17.1-1.3 7.4-4.3 16.9-6.6 24-1 3.7-3.3 8.3-4.7 11.8z" class="st16"/></g><g class="st0"><defs><path id="SVGID_19_" d="M183.9 17.8v.1s0 .1.1.1l.1.1s.1.1.2.1c.1.1.2.1.4.2.1.1.3.1.4.1h.9s.1 0 .1-.1l.1-.1v-.1l-65.3 233.6v.1s0 .1-.1.1-.1.1-.1.1-.1 0-.1.1c-.1 0-.2.1-.3.1h-.3c-.1 0-.2-.1-.3-.1-.1-.1-.2-.1-.3-.2l-.1-.1-.1-.1v-.2" class="st0"/></defs><clipPath id="SVGID_20_"><use xlink:href="#SVGID_19_" style="overflow:visible;"/></clipPath><g class="st17"><path d="M184.2 18.2c-.1-.1-.2-.1-.3-.2-.1-.1-.1-.1-.1-.2s0-.1.1-.2c.1 0 .1-.1.2-.1M119.4 251.1c-.1 0-.2.1-.2.2-.1.1-.1.1-.1.2v.3c0 .1.1.2.2.2" class="st2"/><path d="M119.3 252c.1.1.2.1.3.2.1.1.2.1.3.1h.3c.1 0 .2 0 .3-.1l65.3-233.7h-.8c-.1 0-.3-.1-.4-.1-.1-.1-.3-.1-.4-.2M185.3 18.6l-65.2 233.7" class="st2"/><path d="m185.8 18.6-65.3 233.7c.1 0 .2-.1.2-.2.1-.1.1-.1.1-.2v-.3c0-.1-.1-.2-.2-.2l65.2-233.5c.1.1.2.1.3.2.1.1.1.1.1.2s0 .1-.1.2c-.1 0-.1 0-.3.1zM186.1 18.4 120.8 252" class="st2"/></g><path d="M183.9 17.8v.1s0 .1.1.1l.1.1s.1.1.2.1c.1.1.2.1.4.2.1.1.3.1.4.1h.9s.1 0 .1-.1l.1-.1v-.1l-65.3 233.6v.1s0 .1-.1.1-.1.1-.1.1-.1 0-.1.1c-.1 0-.2.1-.3.1h-.3c-.1 0-.2-.1-.3-.1-.1-.1-.2-.1-.3-.2l-.1-.1-.1-.1v-.2" class="st18"/></g><g class="st0"><defs><path id="SVGID_21_" d="M119.4 251.1s-.1 0-.1.1c0 0-.1 0-.1.1 0 0 0 .1-.1.1v.1" class="st0"/></defs><defs><path id="SVGID_22_" d="M183.9 17.8c0-.1 0-.1 0 0l.1-.1s.1 0 .1-.1.1 0 .1 0" class="st0"/></defs><clipPath id="SVGID_23_"><use xlink:href="#SVGID_21_" style="overflow:visible;"/></clipPath><clipPath id="SVGID_24_" class="st19"><use xlink:href="#SVGID_22_" style="overflow:visible;"/></clipPath><g class="st20"><path d="M184.2 18.2c-.1-.1-.2-.1-.3-.2-.1-.1-.1-.1-.1-.2s0-.1.1-.2c.1 0 .1-.1.2-.1M119.4 251.1c-.1 0-.2.1-.2.2-.1.1-.1.1-.1.2v.3c0 .1.1.2.2.2" class="st2"/></g><path d="M119.4 251.1s-.1 0-.1.1c0 0-.1 0-.1.1 0 0 0 .1-.1.1v.1M183.9 17.8c0-.1 0-.1 0 0l.1-.1s.1 0 .1-.1.1 0 .1 0" class="st21"/></g><g class="st0"><defs><path id="SVGID_25_" d="M184.2 17.6h.8c.1 0 .3.1.4.1.1.1.3.1.4.2.1 0 .1.1.2.1l.1.1s0 .1.1.1v.1l-65.3 233.6v-.2s0-.1-.1-.1l-.1-.1c-.1-.1-.2-.1-.3-.2-.1-.1-.2-.1-.3-.1h-.3c-.1 0-.2 0-.3.1" class="st0"/></defs><clipPath id="SVGID_26_"><use xlink:href="#SVGID_25_" style="overflow:visible;"/></clipPath><g class="st22"><path d="m185.8 18.6-65.3 233.7c.1 0 .2-.1.2-.2.1-.1.1-.1.1-.2v-.3c0-.1-.1-.2-.2-.2l65.2-233.5c.1.1.2.1.3.2.1.1.1.1.1.2s0 .1-.1.2c-.1 0-.1 0-.3.1zM186.1 18.2l-65.3 233.5" class="st2"/><path d="M184.2 17.6h.8c.1 0 .3.1.4.1.1.1.3.1.4.2l-65.2 233.5c-.1-.1-.2-.1-.3-.2-.1-.1-.2-.1-.3-.1h-.3c-.1 0-.2 0-.3.1" class="st2"/></g><path d="M184.2 17.6h.8c.1 0 .3.1.4.1.1.1.3.1.4.2.1 0 .1.1.2.1l.1.1s0 .1.1.1v.1l-65.3 233.6v-.2s0-.1-.1-.1l-.1-.1c-.1-.1-.2-.1-.3-.2-.1-.1-.2-.1-.3-.1h-.3c-.1 0-.2 0-.3.1" class="st23"/></g><g class="st0"><defs><path id="SVGID_27_" d="M2.1 133.4c.8-6.6 2.8-12.9 5.9-18.8 3.1-5.7 7.3-10.9 12.5-15.6 5.1-4.6 11.1-8.7 18.1-12.2 6.8-3.4 14.5-6.3 23.1-8.6-2.5 14.9-2.8 30.4-1.1 46 1.6 15.3 5 30.8 10 45.7 5 14.9 11.6 29.6 19.7 43.2 8.2 13.8 18 26.7 29.2 38-.1 0-.2.1-.2.2-.1.1-.1.1-.1.2v.3c0 .1.1.2.2.2.1.1.2.1.3.2.1.1.2.1.3.1h.3c.1 0 .2 0 .3-.1.1 0 .2-.1.2-.2.1-.1.1-.1.1-.2v-.3c0-.1-.1-.2-.2-.2-.1-.1-.2-.1-.3-.2-.1-.1-.2-.1-.3-.1h-.3c-.1 0-.2 0-.3.1-11.2-11.3-21-24.2-29.2-38-8.1-13.6-14.7-28.2-19.7-43.2-5-14.9-8.4-30.4-10-45.7-1.6-15.5-1.4-31.1 1.1-46 14-3.7 29-5.4 44.5-5.4 15.2 0 30.9 1.7 46.5 4.8 15.6 3.1 31.2 7.8 46 13.8 15.1 6.2 29.7 13.9 43 23.1 10.3 7.2 19.2 14.8 26.6 22.6 7.6 8.1 13.6 16.5 17.9 25 4.4 8.8 7 17.6 7.7 26.2.6 8.9-.8 17.7-4.7 25.8-2.9 5.7-6.9 13.3-10.4 18.6-3.3 5.1-8.2 11.7-12.4 16.2-4.7 5.2-11.3 11.8-16.6 16.2-5.6 4.6-13.5 10.3-19.7 13.9-4.5 2.6-10.6 5.9-15.3 7.9-3.1 1.3-7.3 3.1-10.5 4.3-3.9 1.4-9.1 3.1-13.1 4.1-3.1.7-7.2 1.7-10.3 2.3-3.4.6-7.9 1.4-11.3 1.7-3.1.3-7.2.7-10.4.8-5.6.1-13.2 0-18.8-.4-6.6-.5-15.3-2-18-2.6-5.2-1.2-12-3-17.1-4.5-2.6-.8-5.9-2-8.4-3-2.6-1-5.9-2.5-8.4-3.6-2.5-1.2-5.7-2.9-8.1-4.1-2.5-1.2-5.6-3.2-8-4.6-2.7-1.6-6.1-4-8.6-5.8-2.4-1.7-5.5-4.2-7.7-6-.6-.5-9.4-7.8-16.4-15.8-3-3.5-6.9-8.3-9.7-12-2-2.6-4.3-6.4-6.1-9.1-3-4.4-6.3-10.8-8.5-15.6-2.6-5.8-5.7-13.7-7.6-19.8-1-3.3-2.2-7.8-2.9-11.2-.8-3.9-1.9-9.1-2.3-13.1-.6-7.1-1.1-16.5-1.1-23.6-.3-3.5.3-8.3.6-11.9z" class="st0"/></defs><clipPath id="SVGID_28_"><use xlink:href="#SVGID_27_" style="overflow:visible;"/></clipPath><g class="st24"><path d="M119.4 251.1c-11.2-11.3-21-24.2-29.2-38-8.1-13.6-14.7-28.2-19.7-43.2-5-14.9-8.4-30.4-10-45.7-1.6-15.5-1.4-31.1 1.1-46-14.4 3.8-26.4 9.4-35.8 16.4C16 102 9 110.9 5.2 120.8 1.2 131.3.6 143 4 155.3c3.6 12.9 11.5 26.5 24.2 40-2.6 16.8-1.2 30.8 3.1 41.6 4.2 10.3 11.1 17.7 20.1 22.1 8.6 4.2 19 5.7 30.7 4.5 11.3-1.2 23.8-5 37.2-11.4-.1-.1-.1-.2-.2-.2v-.3c0-.1 0-.2.1-.2 0-.2.1-.3.2-.3z" class="st2"/><path d="M82.6 199.1c-6.8 2.8-12.3 6.5-16.4 11-4.2 4.5-7 9.8-8.2 15.6-1.3 5.8-.9 12.2 1.2 18.6 2.1 6.5 6.1 13.2 11.9 19.5M62.7 139.6c-11.9 3.9-21.7 9.5-29.4 16.3-7.9 7-13.4 15.4-16.3 24.6-3 9.6-3.2 20.2-.3 31.1 3.1 11.4 9.6 23.2 19.9 34.7" class="st2"/><path d="M119.1 251.3c-16.4-6.6-31.3-15.4-44.3-25.7-13-10.3-24.3-22.2-33.3-35.1-9.2-13-16.2-27.2-20.5-41.9-4.4-15-5.9-30.7-4-46.3" class="st2"/><path d="M119.1 251.7c-17.3-.3-33.3-3.1-47.6-8.1-14.6-5.1-27.5-12.4-38.2-21.6-11-9.4-19.7-20.9-25.2-33.9-5.7-13.5-8.1-28.7-6.2-45" class="st2"/><path d="M119.3 252c-13.4 6.5-25.9 10.2-37.2 11.4-11.7 1.3-22.1-.2-30.7-4.5-9-4.4-15.9-11.8-20.1-22.1-4.4-10.8-5.7-24.7-3.1-41.6 13.3 14 30.4 26.2 49.8 36.2 19.9 10.2 41.9 17.8 64.3 22.4 22.4 4.6 44.8 6 65.5 4.1 20.2-1.9 38.4-7 53.1-15.3-7.2 16-17.2 27.6-28.8 35.2-11.1 7.2-23.7 10.6-36.8 10.6-12.5-.1-25.6-3.4-38.4-9.7-12.4-6-24.6-14.9-36.3-26.5-.1 0-.2.1-.3.1h-.3c-.1 0-.2-.1-.3-.1-.2-.1-.3-.1-.4-.2z" class="st2"/><path d="M71 263.8c5.9 6.5 13.3 12 21.4 16.3 8.2 4.4 17.2 7.6 26.4 9.5 9.2 1.9 18.4 2.4 27.1 1.5 8.7-.9 16.7-3.3 23.7-7.1" class="st2"/><path d="M36.5 246.3c10.6 11.8 24.1 22.1 39.3 30.3 15.5 8.3 32.6 14.5 50.1 18 17.5 3.6 35 4.6 51.4 2.7 16.1-1.8 30.8-6.3 43-13.5" class="st2"/><path d="M119.7 252.2c-5.7 11.5-10.7 20.4-14.8 26.5-4.4 6.4-7.8 9.9-10.1 10-2.4.1-3.5-3.4-3.1-10.9.4-7.9 2.6-20.2 6.8-37.1M120.1 252.3c3.3 13.4 7.4 24.1 12 32 4.8 8.3 10.3 13.6 16.1 15.4 6.1 1.9 12.6-.1 19-6.4 6.8-6.6 13.5-18 19.5-34.5" class="st2"/><path d="M120.6 252.2c11.7 11.6 23.9 20.4 36.3 26.5 12.9 6.3 25.9 9.6 38.4 9.7 13.1.1 25.7-3.3 36.8-10.6 11.6-7.6 21.6-19.2 28.8-35.2 14.1-8 23.5-18.1 28.5-29.4 4.8-10.7 5.6-22.4 2.8-34.3-2.6-11.3-8.5-22.9-17.3-33.9-8.4-10.6-19.6-20.9-33.3-30.4-5.3 14.4-12.4 28.6-20.9 42.1-8.3 13.3-17.9 26.2-28.4 38s-21.9 22.8-33.8 32.3c-12.1 9.7-24.9 18-37.8 24.3.1.1.1.2.2.2v.3c0 .1 0 .2-.1.2l-.2.2z" class="st2"/><path d="M169.6 283.9c6.8-3.8 11.8-8.6 15.1-14.1 3.2-5.4 4.7-11.3 4.5-17.4-.1-6-1.9-12.2-5.1-18.3-3.2-5.9-7.8-11.8-13.9-17.2M220.3 283.9c11.8-7 20-15.8 24.9-25.6 4.6-9.5 6.1-19.8 4.7-30.3-1.4-10.1-5.4-20.5-12-30.5-6.3-9.6-15-19-26-27.6" class="st2"/><path d="M120.8 252c16.7 6.6 33.5 10.5 50 11.8 16.8 1.3 33.2 0 48.5-3.9 15.8-4 30.4-10.8 42.8-20.2 12.9-9.7 23.6-22.4 30.7-37.7" class="st2"/><path d="M120.8 251.7c17.1.2 34-2.1 50.1-6.5s31.7-10.8 45.8-19c14.4-8.3 27.5-18.4 38.7-30 11.4-11.9 20.8-25.4 27.1-40.2" class="st2"/><path d="M120.6 251.4c13-6.3 25.7-14.7 37.8-24.3 11.9-9.5 23.3-20.5 33.8-32.3 10.5-11.8 20.1-24.7 28.4-38 8.4-13.5 15.6-27.7 20.9-42.1-13.3-9.2-27.9-16.9-43-23.1-14.9-6.1-30.5-10.7-46-13.8C137 74.7 121.2 73 106 73c-15.4 0-30.5 1.7-44.5 5.4-2.5 14.9-2.8 30.4-1.1 46 1.6 15.3 5 30.8 10 45.7 5 14.9 11.6 29.6 19.7 43.2 8.2 13.8 18 26.7 29.2 38 .1 0 .2-.1.3-.1h.3c.1 0 .2.1.3.1.3-.1.4 0 .4.1z" class="st2"/><path d="M170.2 217c-6-5.3-12.8-9.7-20.1-13.2-7.2-3.4-14.9-6-22.7-7.6-7.8-1.6-15.6-2.2-23.2-1.7-7.6.4-15 2-21.7 4.7M211.9 169.9c-10.7-8.4-22.6-15.3-35-20.8-12.3-5.4-25.3-9.5-38.3-12.2-13-2.6-26.2-3.8-38.9-3.5-12.9.4-25.5 2.4-37.1 6.2" class="st2"/><path d="M120.3 251.1c5.5-11.1 11.2-23.7 16.9-37 5.6-13.1 11.2-27.1 16.6-41.3 5.4-14.2 10.7-28.8 15.7-43.3 5-14.6 9.8-29.4 14-43.6M119.8 251c-3.2-12.8-5.4-27.1-6.8-41.9-1.4-14.5-1.9-29.7-1.8-45 .2-15.2 1.1-30.7 2.7-45.9 1.7-15.3 4.1-30.5 7.4-44.9" class="st2"/></g></g><g class="st0"><defs><path id="SVGID_29_" d="M39.3 249.8c-4.3-4.9-9.6-11.9-13.3-17.3-2.7-3.9-5.7-9.4-8-13.5-2.6-4.7-5.3-11.4-7.3-16.4-1.3-3.2-2.6-7.6-3.6-10.9-2-6.2-3.4-14.7-4.5-21.1-.6-3.5-.8-8.2-1.1-11.7-.3-3.5-.3-8.3-.2-11.9.1-4.1.5-9.6.9-13.6-.5 4.6-.4 9.3.3 14.2.7 5 2.1 10 4.2 15.2 2.1 5.3 4.9 10.6 8.5 16 3.6 5.5 8 11 13.2 16.4 13.3 14 30.4 26.2 49.8 36.2 19.9 10.2 41.9 17.8 64.3 22.4 22.4 4.6 44.8 6 65.5 4.1 20.2-1.9 38.4-7 53.1-15.3 3.5-2 6.7-4.1 9.6-6.3 2.9-2.2 5.5-4.5 7.8-6.9 2.3-2.4 4.3-4.9 6.1-7.4 1.8-2.5 3.3-5.1 4.5-7.8-1.8 3.4-3.9 8-5.9 11.2-3.3 5.4-7.7 12.7-11.8 17.5-3.9 4.6-9.1 10.9-13.6 15-5.3 5-12.9 11.2-18.8 15.4-5.5 4-13.4 8.3-19.5 11.4-4.5 2.3-10.8 4.8-15.5 6.6-6.1 2.3-14.5 4.4-20.8 5.8-3.8.9-8.9 1.5-12.7 2-.8.1-8.6 1.2-20.6 1-7-.1-12.6-.7-18.8-1.5-.8-.1-8.2-1.1-17.6-3.6-6.1-1.6-9.9-2.9-16.8-5.5-.1 0-7.9-3-16.3-7.6-2.5-1.4-5.8-3.3-8.2-4.8-2.4-1.5-5.6-3.7-7.9-5.3-2.6-1.8-6-4.5-8.4-6.5-2.4-2-5.4-4.7-7.6-6.8-3.1-2.2-6.5-5.9-9-8.7z" class="st0"/></defs><clipPath id="SVGID_30_"><use xlink:href="#SVGID_29_" style="overflow:visible;"/></clipPath><g class="st25"><path d="M119.4 251.1c-11.2-11.3-21-24.2-29.2-38-8.1-13.6-14.7-28.2-19.7-43.2-5-14.9-8.4-30.4-10-45.7-1.6-15.5-1.4-31.1 1.1-46-14.4 3.8-26.4 9.4-35.8 16.4C16 102 9 110.9 5.2 120.8 1.2 131.3.6 143 4 155.3c3.6 12.9 11.5 26.5 24.2 40-2.6 16.8-1.2 30.8 3.1 41.6 4.2 10.3 11.1 17.7 20.1 22.1 8.6 4.2 19 5.7 30.7 4.5 11.3-1.2 23.8-5 37.2-11.4-.1-.1-.1-.2-.2-.2v-.3c0-.1 0-.2.1-.2 0-.2.1-.3.2-.3z" class="st2"/><path d="M62.7 139.6c-11.9 3.9-21.7 9.5-29.4 16.3-7.9 7-13.4 15.4-16.3 24.6-3 9.6-3.2 20.2-.3 31.1 3.1 11.4 9.6 23.2 19.9 34.7" class="st2"/><path d="M119.1 251.7c-17.3-.3-33.3-3.1-47.6-8.1-14.6-5.1-27.5-12.4-38.2-21.6-11-9.4-19.7-20.9-25.2-33.9-5.7-13.5-8.1-28.7-6.2-45" class="st2"/><path d="M119.3 252c-13.4 6.5-25.9 10.2-37.2 11.4-11.7 1.3-22.1-.2-30.7-4.5-9-4.4-15.9-11.8-20.1-22.1-4.4-10.8-5.7-24.7-3.1-41.6 13.3 14 30.4 26.2 49.8 36.2 19.9 10.2 41.9 17.8 64.3 22.4 22.4 4.6 44.8 6 65.5 4.1 20.2-1.9 38.4-7 53.1-15.3-7.2 16-17.2 27.6-28.8 35.2-11.1 7.2-23.7 10.6-36.8 10.6-12.5-.1-25.6-3.4-38.4-9.7-12.4-6-24.6-14.9-36.3-26.5-.1 0-.2.1-.3.1h-.3c-.1 0-.2-.1-.3-.1-.2-.1-.3-.1-.4-.2z" class="st2"/><path d="M36.5 246.3c10.6 11.8 24.1 22.1 39.3 30.3 15.5 8.3 32.6 14.5 50.1 18 17.5 3.6 35 4.6 51.4 2.7 16.1-1.8 30.8-6.3 43-13.5" class="st2"/><path d="M119.7 252.2c-5.7 11.5-10.7 20.4-14.8 26.5-4.4 6.4-7.8 9.9-10.1 10-2.4.1-3.5-3.4-3.1-10.9.4-7.9 2.6-20.2 6.8-37.1M120.1 252.3c3.3 13.4 7.4 24.1 12 32 4.8 8.3 10.3 13.6 16.1 15.4 6.1 1.9 12.6-.1 19-6.4 6.8-6.6 13.5-18 19.5-34.5" class="st2"/><path d="M120.6 252.2c11.7 11.6 23.9 20.4 36.3 26.5 12.9 6.3 25.9 9.6 38.4 9.7 13.1.1 25.7-3.3 36.8-10.6 11.6-7.6 21.6-19.2 28.8-35.2 14.1-8 23.5-18.1 28.5-29.4 4.8-10.7 5.6-22.4 2.8-34.3-2.6-11.3-8.5-22.9-17.3-33.9-8.4-10.6-19.6-20.9-33.3-30.4-5.3 14.4-12.4 28.6-20.9 42.1-8.3 13.3-17.9 26.2-28.4 38s-21.9 22.8-33.8 32.3c-12.1 9.7-24.9 18-37.8 24.3.1.1.1.2.2.2v.3c0 .1 0 .2-.1.2l-.2.2z" class="st2"/><path d="M220.3 283.9c11.8-7 20-15.8 24.9-25.6 4.6-9.5 6.1-19.8 4.7-30.3-1.4-10.1-5.4-20.5-12-30.5-6.3-9.6-15-19-26-27.6" class="st2"/></g><path d="M39.3 249.8c-4.3-4.9-9.6-11.9-13.3-17.3-2.7-3.9-5.7-9.4-8-13.5-2.6-4.7-5.3-11.4-7.3-16.4-1.3-3.2-2.6-7.6-3.6-10.9-2-6.2-3.4-14.7-4.5-21.1-.6-3.5-.8-8.2-1.1-11.7-.3-3.5-.3-8.3-.2-11.9.1-4.1.5-9.6.9-13.6-.5 4.6-.4 9.3.3 14.2.7 5 2.1 10 4.2 15.2 2.1 5.3 4.9 10.6 8.5 16 3.6 5.5 8 11 13.2 16.4 13.3 14 30.4 26.2 49.8 36.2 19.9 10.2 41.9 17.8 64.3 22.4 22.4 4.6 44.8 6 65.5 4.1 20.2-1.9 38.4-7 53.1-15.3 3.5-2 6.7-4.1 9.6-6.3 2.9-2.2 5.5-4.5 7.8-6.9 2.3-2.4 4.3-4.9 6.1-7.4 1.8-2.5 3.3-5.1 4.5-7.8-1.8 3.4-3.9 8-5.9 11.2-3.3 5.4-7.7 12.7-11.8 17.5-3.9 4.6-9.1 10.9-13.6 15-5.3 5-12.9 11.2-18.8 15.4-5.5 4-13.4 8.3-19.5 11.4-4.5 2.3-10.8 4.8-15.5 6.6-6.1 2.3-14.5 4.4-20.8 5.8-3.8.9-8.9 1.5-12.7 2-.8.1-8.6 1.2-20.6 1-7-.1-12.6-.7-18.8-1.5-.8-.1-8.2-1.1-17.6-3.6-6.1-1.6-9.9-2.9-16.8-5.5-.1 0-7.9-3-16.3-7.6-2.5-1.4-5.8-3.3-8.2-4.8-2.4-1.5-5.6-3.7-7.9-5.3-2.6-1.8-6-4.5-8.4-6.5-2.4-2-5.4-4.7-7.6-6.8-3.1-2.2-6.5-5.9-9-8.7z" class="st26"/></g><g class="st0"><defs><path id="SVGID_31_" d="M184 17.2v.1s0 .1.1.1l.1.1s.1.1.2.1c.1.1.2.1.4.2.1.1.3.1.4.1.1 0 .3 0 .4.1h.6l.1-.1c.1-.1 0 0 0-.1-22.2 78.3-44.4 156.5-66.6 234.8" class="st0"/></defs><clipPath id="SVGID_32_"><use xlink:href="#SVGID_31_" style="overflow:visible;"/></clipPath><g class="st27"><path d="M184.4 17.7c-.1-.1-.2-.1-.3-.2-.1-.1-.1-.1-.1-.2s0-.1.1-.2c.1 0 .1-.1.2-.1M119.7 252.6" class="st2"/><path d="M119.7 252.6 186 18h-.4c-.1 0-.3 0-.4-.1-.1 0-.3-.1-.4-.1-.1-.1-.3-.1-.4-.2" class="st2"/><path d="m186 18-66.3 234.6L186 17.3c.1.1.2.1.3.2.1.1.1.1.1.2s0 .1-.1.2-.2.1-.3.1zM186.3 17.9l-66.6 234.7" class="st2"/></g><path d="M184 17.2v.1s0 .1.1.1l.1.1s.1.1.2.1c.1.1.2.1.4.2.1.1.3.1.4.1.1 0 .3 0 .4.1h.6l.1-.1c.1-.1 0 0 0-.1-22.2 78.3-44.4 156.5-66.6 234.8" class="st28"/></g><g class="st0"><defs><path id="SVGID_33_" d="M119.7 252.6" class="st0"/></defs><defs><path id="SVGID_34_" d="M184 17.2c.1 0 .1 0 0 0l.1-.1s.1 0 .1-.1.1 0 .1 0" class="st0"/></defs><clipPath id="SVGID_35_"><use xlink:href="#SVGID_33_" style="overflow:visible;"/></clipPath><clipPath id="SVGID_36_" class="st29"><use xlink:href="#SVGID_34_" style="overflow:visible;"/></clipPath><g class="st30"><path d="M184.4 17.7c-.1-.1-.2-.1-.3-.2-.1-.1-.1-.1-.1-.2s0-.1.1-.2c.1 0 .1-.1.2-.1M119.7 252.6" class="st2"/></g><path d="M184 17.2c.1 0 .1 0 0 0l.1-.1s.1 0 .1-.1.1 0 .1 0" class="st31"/></g><g class="st0"><defs><path id="SVGID_37_" d="M184.4 17h.4c.1 0 .3 0 .4.1.1 0 .3.1.4.1.1.1.3.1.4.2.1 0 .1.1.2.1l.1.1s0 .1.1.1v.1c-22.2 78.3-44.4 156.5-66.6 234.8" class="st0"/></defs><clipPath id="SVGID_38_"><use xlink:href="#SVGID_37_" style="overflow:visible;"/></clipPath><g class="st32"><path d="m186 18-66.3 234.6L186 17.3c.1.1.2.1.3.2.1.1.1.1.1.2s0 .1-.1.2-.2.1-.3.1zM119.7 252.6" class="st2"/><path d="M184.4 17h.4c.1 0 .3 0 .4.1.1 0 .3.1.4.1.1.1.3.1.4.2" class="st2"/></g><path d="M184.4 17h.4c.1 0 .3 0 .4.1.1 0 .3.1.4.1.1.1.3.1.4.2.1 0 .1.1.2.1l.1.1s0 .1.1.1v.1M119.7 252.6" class="st33"/></g><g class="st0"><defs><path id="SVGID_39_" d="M1 133.8c.6-5.4 1.7-12.5 3.1-17.7 1-3.4 2-8.1 3.2-11.5 1.7-4.9 4.1-11.3 6.2-16 1.4-3.2 3.5-7.4 5.2-10.4 2.5-4.4 6.2-10 8.9-14.2 2.8-4.3 7.3-9.7 10.8-13.5 4.5-4.8 10.7-11.1 15.9-15.3 4.3-3.4 10.2-7.7 14.7-10.8 2.6-1.8 6.2-3.8 8.9-5.3 1.4-.8 11-5.9 18.4-8.6 2.6-.9 6-2.3 8.7-3.1 5.1-1.5 12-3.3 17.2-4.4-8.2 1.6-15.8 4.7-22.7 9.1-6.7 4.3-12.7 9.8-18 16.4-5.1 6.4-9.4 13.9-12.9 22.3-3.4 8.2-6 17.4-7.7 27.3-2.5 15-2.8 30.7-1.1 46.3 1.6 15.4 5.1 31 10.2 46.1 5.1 15.1 11.8 29.8 20 43.6 8.3 13.9 18.2 27 29.7 38.4-11.4-11.4-21.4-24.5-29.7-38.4-8.2-13.7-14.9-28.5-20-43.6-5.1-15.1-8.6-30.7-10.2-46.1-1.6-15.6-1.4-31.3 1.1-46.3 1.7-10 4.3-19.1 7.7-27.3 3.5-8.4 7.8-15.9 12.9-22.3 5.2-6.6 11.3-12.1 18-16.4 6.9-4.4 14.5-7.5 22.7-9.1 2.6-.5 6-1.1 8.6-1.4 2.1-.3 5-.6 7.2-.8 2.1-.2 4.8-.4 6.9-.5 5.5-.2 9.5-.1 11.9 0 4.2.1 7.2.4 10.6.7 2.3.2 7.5.9 9.6 1.3 1.4.3 3.2.6 4.6.8 2.7.6 6.3 1.4 8.9 2.1 4.9 1.2 13.3 4 18.2 6 4.7 2 6.6 2.8 10 4.5 3.3 1.6 7.6 3.9 10.7 5.8.4.2.8.5 1.2.7 2 1.3 4.8 2.9 6.8 4.3 3.7 2.6 8.5 6.2 12 9 2.5 2 9.6 8.3 14.4 13.7 3 3.3 6.8 7.9 9.6 11.5 1.8 2.3 4 5.6 5.7 8.1 3.4 5 7.4 12 9.9 17.5 4 8.6 5.7 12.8 9 23.3 2 6.7 3.7 15.9 4.8 22.8.8 5.1 1.2 12.1 1.2 17.3 0 7.3-.7 17.1-1.7 24.4-.7 5.3-2.2 12.2-3.7 17.3-2.1 7.3-5.7 16.9-8.8 23.8-2.6 5.7-6.8 13-10.2 18.3-3.3 5.2-8.3 11.8-12.4 16.5-4.7 5.3-11.4 11.9-16.8 16.5-5.6 4.7-13.7 10.2-19.9 14.1-4.4 2.8-10.6 6-15.4 8-3.2 1.3-7.4 3.2-10.6 4.3-3.9 1.4-9.2 3-13.2 4.1-3 .8-11.2 2.9-21.8 4-11.3 1.2-19.9.9-20 .9-13.2-.6-14.7-.7-27.5-3.1-2.6-.5-6.1-1.4-8.7-2-2.6-.7-6-1.8-8.5-2.5-2.6-.8-5.9-2.1-8.4-3.1-1.5-.5-7.1-2.7-16.7-7.8-5.9-3.1-12.8-7.7-16.7-10.6-2.9-2.1-6.6-5-9.3-7.3-2.4-2-5.4-4.8-7.7-7-3.2-3.2-7.3-7.6-10.2-11-2.2-2.5-4.8-6.1-6.8-8.7-3.2-4.2-6.9-10.2-9.5-14.8-7.4-13.3-12.5-26.8-15.7-41.3-5.4-23.5-3.5-42-2.8-48.9z" class="st0"/></defs><clipPath id="SVGID_40_"><use xlink:href="#SVGID_39_" style="overflow:visible;"/></clipPath><g class="st34"><path d="M119.7 252.6c-11.4-11.4-21.4-24.5-29.7-38.4-8.2-13.7-14.9-28.5-20-43.6-5.1-15.1-8.6-30.7-10.2-46.1-1.6-15.6-1.4-31.3 1.1-46.3C46.5 82 34.4 87.7 25 94.7 15.1 102.1 8 111 4.1 121 0 131.5-.6 143.3 2.8 155.8c3.6 13 11.5 26.7 24.3 40.3-2.6 17-1.2 31 3.3 41.9 4.3 10.4 11.3 17.8 20.4 22.2 8.7 4.2 19.3 5.7 31.1 4.3 11.5-1.4 24.2-5.3 37.8-11.9z" class="st2"/><path d="M82.3 200.1c-6.8 2.8-12.3 6.5-16.4 11-4.2 4.5-7 9.8-8.2 15.6-1.3 5.9-.9 12.2 1.2 18.6 2.1 6.6 6 13.2 11.9 19.6M62.1 140c-12 4-21.9 9.6-29.5 16.4-7.9 7.1-13.5 15.5-16.5 24.8-3.1 9.7-3.3 20.3-.3 31.3 3.1 11.5 9.6 23.4 19.9 34.9" class="st2"/><path d="M119.7 252.6c-16.7-6.7-31.8-15.6-45-25.9-13.2-10.4-24.6-22.4-33.8-35.3-9.3-13.1-16.4-27.4-20.7-42.2-4.4-15.1-6-30.9-4.1-46.7" class="st2"/><path d="M119.7 252.6c-17.5-.2-33.8-3.1-48.3-8-14.8-5.1-28-12.4-38.8-21.6-11.2-9.5-19.9-21-25.5-34.1-5.8-13.6-8.3-28.9-6.4-45.4" class="st2"/><path d="M119.7 252.6c-13.6 6.6-26.3 10.5-37.7 11.8-11.9 1.4-22.5-.1-31.1-4.3-9.1-4.4-16.1-11.8-20.4-22.2-4.5-10.8-5.8-24.9-3.3-41.9 13.4 14.1 30.6 26.5 50.2 36.5 20 10.3 42.2 18 64.8 22.6 22.6 4.6 45.1 6.1 66 4.1 20.4-1.9 38.7-7.1 53.5-15.5-7.3 16.1-17.4 27.8-29.1 35.4-11.2 7.2-23.9 10.6-37.2 10.4-12.7-.2-25.8-3.6-38.9-10-12.6-6.1-25-15.1-36.8-26.9z" class="st2"/><path d="M70.7 264.8c5.9 6.5 13.3 12 21.4 16.3 8.2 4.4 17.2 7.6 26.4 9.5 9.2 1.9 18.4 2.4 27.1 1.5 8.7-.9 16.7-3.3 23.7-7.1" class="st2"/><path d="M35.7 247.4c10.7 11.9 24.2 22.2 39.5 30.5 15.6 8.4 32.8 14.6 50.4 18.2 17.6 3.6 35.2 4.6 51.7 2.7 16.2-1.8 31-6.3 43.3-13.6" class="st2"/><path d="M119.7 252.6c-5.8 11.7-10.9 20.8-15.1 27-4.4 6.6-7.9 10.2-10.2 10.4-2.5.2-3.6-3.2-3.2-10.8.4-7.9 2.6-20.3 6.8-37.3M119.7 252.6c3.4 13.6 7.4 24.5 12.1 32.6 4.9 8.5 10.4 13.9 16.2 15.8 6.2 2 12.7.1 19.2-6.2 6.9-6.6 13.6-18.1 19.7-34.7" class="st2"/><path d="M119.7 252.6c11.8 11.8 24.2 20.8 36.7 27 13 6.4 26.2 9.9 38.9 10 13.3.2 26-3.2 37.2-10.4 11.8-7.6 21.9-19.3 29.1-35.4 14.2-8.1 23.6-18.3 28.6-29.7 4.8-10.8 5.6-22.6 2.8-34.6-2.7-11.4-8.6-23-17.5-34.2-8.5-10.7-19.7-21.1-33.5-30.6-5.3 14.5-12.6 28.8-21.1 42.4-8.4 13.4-18.1 26.4-28.7 38.3-10.6 11.9-22.1 23-34.2 32.6-12.2 9.8-25.1 18.2-38.3 24.6z" class="st2"/><path d="M169.3 285c6.8-3.8 11.8-8.6 15.1-14.1 3.2-5.4 4.7-11.3 4.5-17.5-.1-6-1.8-12.2-5.1-18.3-3.2-6-7.8-11.8-13.9-17.2M220.6 285.2c11.9-7 20.1-15.9 25-25.8 4.7-9.5 6.2-20 4.7-30.6-1.4-10.2-5.5-20.6-12.1-30.7-6.4-9.7-15.1-19.1-26.1-27.7" class="st2"/><path d="M119.7 252.6c16.9 6.8 34 10.8 50.6 12.2 17 1.4 33.6.1 49.1-3.7 15.9-4 30.7-10.8 43.3-20.2 13.1-9.8 23.8-22.5 31.1-38" class="st2"/><path d="M119.7 252.6c17.3.2 34.5-2 50.8-6.4 16.3-4.4 32-10.9 46.4-19.1 14.5-8.3 27.8-18.5 39.1-30.2 11.5-12 21-25.6 27.4-40.5" class="st2"/><path d="M119.7 252.6c13.2-6.4 26.1-14.8 38.4-24.6 12.1-9.6 23.6-20.7 34.2-32.6 10.6-11.9 20.3-24.9 28.7-38.3 8.5-13.6 15.7-28 21.1-42.4-13.4-9.3-28.1-17-43.2-23.2-15-6.1-30.6-10.8-46.3-13.9-15.6-3.1-31.5-4.8-46.7-4.8-15.5 0-30.7 1.7-44.7 5.4-2.5 15-2.8 30.7-1.1 46.3 1.6 15.4 5.1 31 10.2 46.1 5.1 15.1 11.8 29.8 20 43.6 8 13.9 18 27 29.4 38.4z" class="st2"/><path d="M170 217.9c-6-5.3-12.8-9.7-20.1-13.2-7.2-3.5-14.9-6-22.7-7.6-7.8-1.6-15.6-2.2-23.2-1.7-7.6.4-15 2-21.7 4.7M212.1 170.4c-10.7-8.4-22.7-15.4-35.2-21-12.3-5.5-25.4-9.6-38.4-12.2-13.1-2.6-26.3-3.9-39.1-3.5-12.9.4-25.6 2.4-37.3 6.3" class="st2"/><path d="M119.7 252.6c5.6-11.2 11.4-24 17.1-37.5 5.6-13.2 11.3-27.3 16.8-41.7 5.4-14.3 10.8-29 15.8-43.6 5-14.8 9.8-29.6 14.1-43.9M119.7 252.6c-3.2-13-5.5-27.4-6.9-42.4-1.4-14.6-2-30-1.8-45.4.2-15.3 1.1-31 2.7-46.2 1.7-15.4 4.1-30.7 7.5-45.2" class="st2"/><path d="M61 78.2c2.6-15.5 7.4-28.9 14-40.1 6.9-11.6 15.7-20.8 26.2-27 10.9-6.5 23.5-9.9 37.3-9.3 14.4.6 30 5.4 45.9 15.2-.1 0-.2.1-.2.1-.1 0-.1.1-.1.2s0 .1.1.2.1.1.3.2c-16.2 3.8-33.4 11.9-50.4 23.5-17.4 11.8-34.2 26.9-49.3 44-15.1 17.2-28.2 36.1-38.2 55.4-9.8 18.9-16.5 37.8-19.2 55.5-12.8-13.5-20.8-27.2-24.3-40.3-3.6-12.4-3.1-24.2 1-34.8 3.9-10 11-19 20.8-26.3 9.5-7 21.6-12.7 36.1-16.5z" class="st2"/><path d="M82.4 27.5c-13.2 2.8-24 7.2-32.3 12.7-8.7 5.8-14.7 12.9-17.7 20.9-3.1 8.4-3 17.8.7 27.9C37 99.5 45 110.5 57.3 121.6M124.9 2.6c-8 1.6-14.4 4.1-19.1 7.2-4.8 3.2-7.7 7.2-8.7 11.7-1.1 4.6-.1 9.8 3.1 15.2 3.2 5.6 8.8 11.4 16.7 17.2" class="st2"/><path d="M16.2 102.5c2.1-16.3 7.7-31 16.4-43.8 9-13.2 21.2-24.3 35.8-32.6 15.2-8.6 33-14.1 52.4-15.9 20-1.9 41.5.3 63.4 7" class="st2"/><path d="M.8 143.4c2-17.1 8.4-33.8 18.4-49.2C29.4 78.4 43.5 64 60.3 52c17.1-12.2 36.9-21.8 58.1-27.9 21.2-6.1 43.6-8.6 65.7-6.7" class="st2"/><path d="M27.2 196.1c2.7-17.7 9.4-36.6 19.2-55.5 10-19.3 23.1-38.2 38.2-55.4 15.1-17.2 32-32.3 49.3-44 17-11.5 34.2-19.7 50.4-23.5.1.1.2.1.4.2.1.1.3.1.4.1.1 0 .3 0 .4.1h.4c16.6 10.4 31.7 25 44.6 42.5 13.2 17.9 23.7 38.6 31 60.3 7.3 21.8 11.2 44.2 11.2 65.6 0 21-3.6 40.6-11.2 57.3-14.8 8.4-33.1 13.6-53.5 15.5-20.8 2-43.4.5-66-4.1s-44.7-12.3-64.8-22.6c-19.4-10.1-36.6-22.4-50-36.5z" class="st2"/><path d="M57.3 121.6c12.8 11.4 28.9 21.6 47 29.9 18.5 8.5 38.7 15.1 59.3 19.2 20.5 4.2 40.9 5.9 59.7 4.9 18.4-1 34.9-4.5 48.2-10.7M116.9 53.9c8.1 5.9 17.9 11.2 28.7 15.5 10.9 4.4 22.6 7.9 34.4 10.3 11.8 2.4 23.5 3.6 34.3 3.5 10.7-.1 20.5-1.4 28.5-4" class="st2"/><path d="M98 242c4.4-17.7 10.5-38.4 17.7-60.3 7.3-22.3 15.6-45.2 24.1-67.2 8.5-21.7 17-41.8 24.9-58.7 7.6-16.3 14.6-29.3 20.3-37.9M186.9 260.1c6.3-17.4 11.2-38.3 14.5-61 3.3-23.1 4.9-47.5 4.6-71.2-.2-23.5-2.2-45.7-5.9-64.9-3.5-18.6-8.4-34-14.6-44.9" class="st2"/><path d="M261.6 243.8c7.5-16.8 11.2-36.4 11.2-57.3 0-21.4-3.9-43.8-11.2-65.6-7.3-21.8-17.8-42.4-31-60.3C217.7 43 202.6 28.4 186 18c.1 0 .2-.1.2-.1.1 0 .1-.1.1-.2s0-.1-.1-.2-.1-.1-.3-.2c15.5-3.5 28.5-2.6 38.6 1.7 9.7 4.1 16.8 11.4 21.3 21.1 4.2 9.2 6 20.5 5.3 33.4-.7 12.4-3.7 26.2-9.2 41.1 13.8 9.6 25 19.9 33.5 30.6 8.9 11.2 14.8 22.8 17.5 34.2 2.8 12 2 23.8-2.8 34.6-4.9 11.5-14.3 21.7-28.5 29.8z" class="st2"/><path d="M271.5 164.9c12.8-6 21.3-13.8 25.7-22.6 4.3-8.4 4.8-17.8 2.1-27.4-2.6-9.2-8.2-18.7-16.6-27.9-8-8.9-18.6-17.5-31.6-25.6" class="st2"/><path d="M242.8 79.3c7.9-2.6 13.3-6.3 16.5-10.6 3.1-4.2 3.9-9 2.8-14.1-1.1-4.9-4.2-10.1-9.1-15.3-4.8-5.1-11.3-10.1-19.4-15" class="st2"/><path d="M293.7 202.8c7.5-16.1 10.5-33.5 9.2-51.3-1.3-18.3-7-36.7-16.6-54.1-9.8-17.7-23.6-34-40.7-47.8-17.1-13.8-37.2-24.8-59.4-31.8" class="st2"/><path d="M283.3 156.5c6.6-15.4 9.5-30.8 8.7-45.5-.7-15.2-5.3-29.7-13.4-42.6-8.4-13.3-20.4-24.9-35.8-33.7-15.8-9-34.9-15-56.6-17" class="st2"/><path d="M242 114.7c5.5-14.9 8.5-28.8 9.2-41.1.7-12.9-1.1-24.2-5.3-33.4-4.4-9.6-11.6-16.9-21.3-21.1-10.2-4.3-23.1-5.2-38.6-1.7-.1-.1-.2-.1-.4-.2-.1-.1-.3-.1-.4-.1-.1 0-.3 0-.4-.1h-.4c-15.9-9.8-31.5-14.6-45.9-15.2-13.7-.6-26.4 2.8-37.3 9.3-10.4 6.2-19.3 15.4-26.2 27-6.6 11.1-11.4 24.6-14 40.1 14-3.7 29.2-5.4 44.7-5.4 15.3 0 31.1 1.7 46.7 4.8 15.6 3.1 31.3 7.8 46.3 13.9 15.2 6.2 29.9 13.9 43.3 23.2z" class="st2"/><path d="M251.1 61.4c-12.6-7.9-26.4-14.5-40.7-19.9C196.3 36.2 181.6 32 167 29c-14.6-2.9-29.4-4.6-43.5-5-14.3-.3-28.3.8-41.1 3.5M233.6 24.3c-8-4.7-16.9-8.8-26.1-12.2-9.2-3.3-18.8-6-28.4-7.9-9.6-1.9-19.2-3.1-28.3-3.4-9.2-.3-18 .2-25.9 1.8" class="st2"/><path d="M183.5 85.9c4.4-14.7 7.8-27.7 10.3-38.7 2.6-11.5 4.3-20.9 4.8-27.7.6-7.2-.1-11.6-2.1-12.4-2.1-.9-5.8 2.2-11.1 10.1M121.2 73.3c3.4-14.9 7.5-27.8 11.9-38.4 4.7-11.1 9.8-19.8 15.3-25.6 5.7-6.2 11.8-9.2 17.8-8.4 6.4.8 12.8 5.9 18.6 16.1" class="st2"/></g></g><g class="st0"><defs><path id="SVGID_41_" d="M38.3 250.7c-4.3-5-9.7-12-13.4-17.4-2.7-3.9-5.8-9.3-8-13.5-2.4-4.8-5.5-11.4-7.4-16.5-2.3-6.6-5-15.5-6.5-22.3-3.2-14.9-3.3-29.7-3.1-33.7.2-4 .5-9.5.9-13.5.4-3.6 1.2-8.4 1.9-11.9.9-5.3 2.7-12.2 4.4-17.2C9.5 98 13.2 89.3 16.2 83c2.2-4.5 5.7-10.3 8.4-14.5 2.7-4.2 6.6-9.6 9.9-13.4 4.3-5 10.4-11.6 15.3-16 3.7-3.3 8.9-7.4 12.9-10.4 2.5-1.9 6.1-4.1 8.7-5.8 4.2-2.8 10.4-5.8 14.9-8.1 5-2.5 12-5.2 17.3-6.9 9-3 15.5-4.3 18.6-4.9 4.5-.9 9.2-1.3 14.1-1.3 4.9.1 10 .6 15.2 1.7 5.3 1.1 10.6 2.7 16.1 5 5.5 2.3 11.2 5.1 16.8 8.6-.1 0-.2.1-.2.1-.1 0-.1.1-.1.2s0 .1.1.2.1.1.3.2c.1.1.2.1.4.2.1.1.3.1.4.1.1 0 .3 0 .4.1h.4c.1 0 .2-.1.2-.1.1 0 .1-.1.1-.2s0-.1-.1-.2-.1-.1-.3-.2c-.1-.1-.2-.1-.4-.2-.1-.1-.3-.1-.4-.1-.1 0-.3 0-.4-.1h-.4c-5.6-3.5-11.3-6.3-16.8-8.6-5.5-2.2-10.8-3.9-16.1-5-5.2-1.1-10.2-1.6-15.2-1.7-4.8-.1-9.5.4-14.1 1.3 4.4-.7 10.2-1.6 14.7-2.1 2.3-.3 5.3-.4 7.6-.5 5.8-.3 9.1-.2 12.2-.1 4.1.1 7.3.4 10.6.7 2.3.2 7.5.9 9.6 1.3 1.4.3 3.2.6 4.6.8 2.7.6 6.3 1.4 8.9 2.1 5 1.2 13.5 4.1 18.1 6 5 2.1 6.7 2.8 9.9 4.4 2.2 1.1 6 2.9 11 5.9 2.1 1.2 4.9 2.9 6.9 4.3 3.7 2.6 8.6 6.1 12 8.9 2.3 1.8 5.2 4.4 7.3 6.4 2.5 2.3 5.8 5.5 8.1 8.1 1.9 2.1 4.5 5 6.3 7.2 2.8 3.6 6.4 8.5 9 12.3 3.6 5.3 7.7 12.8 10.4 18.6 2.7 5.7 5.9 13.5 7.6 19.6.9 3.3 2.3 7.7 3 11.1.9 4.2 2 9.9 2.5 14.2 1 7.1 1.1 16.8 1.2 24 0 5.3-.7 12.4-1.6 17.7-1.3 7.4-3.5 17.1-5.8 24.3-1.6 5.2-4.3 11.9-6.7 16.8-2.7 5.7-6.7 13-10.2 18.3-2.1 3.1-4.9 7.3-7.3 10.2-3.9 4.7-9.2 11-13.7 15.2-2.7 2.6-6.2 6-9.2 8.2-5.5 4.2-12.9 9.9-19 13.3-6.1 3.5-14.6 7.6-21.1 10.4-4.5 1.9-10.8 3.9-15.5 5.3-3.9 1.2-9.2 2.4-13.2 3.1-6 1-14 2-20.1 2.4-3.2.2-7.6.3-10.9.2-10.2-.5-13.3-.6-19-1.5-10.2-1.7-12.2-2.2-17.7-3.6-9.7-2.6-16.9-5.5-16.9-5.6-8.3-3.5-11.3-4.8-16.5-7.7-2.5-1.4-5.9-3.3-8.3-4.8-2.5-1.5-5.6-3.7-8-5.4-2.6-1.8-6-4.5-8.5-6.6-2.4-2-5.4-4.8-7.7-6.9-2.5-2.3-6-6-8.5-8.8z" class="st0"/></defs><clipPath id="SVGID_42_"><use xlink:href="#SVGID_41_" style="overflow:visible;"/></clipPath><g class="st35"><path d="M119.7 252.6c-11.4-11.4-21.4-24.5-29.7-38.4-8.2-13.7-14.9-28.5-20-43.6-5.1-15.1-8.6-30.7-10.2-46.1-1.6-15.6-1.4-31.3 1.1-46.3C46.5 82 34.4 87.7 25 94.7 15.1 102.1 8 111 4.1 121 0 131.5-.6 143.3 2.8 155.8c3.6 13 11.5 26.7 24.3 40.3-2.6 17-1.2 31 3.3 41.9 4.3 10.4 11.3 17.8 20.4 22.2 8.7 4.2 19.3 5.7 31.1 4.3 11.5-1.4 24.2-5.3 37.8-11.9z" class="st2"/><path d="M62.1 140c-12 4-21.9 9.6-29.5 16.4-7.9 7.1-13.5 15.5-16.5 24.8-3.1 9.7-3.3 20.3-.3 31.3 3.1 11.5 9.6 23.4 19.9 34.9" class="st2"/><path d="M119.7 252.6c-16.7-6.7-31.8-15.6-45-25.9-13.2-10.4-24.6-22.4-33.8-35.3-9.3-13.1-16.4-27.4-20.7-42.2-4.4-15.1-6-30.9-4.1-46.7" class="st2"/><path d="M119.7 252.6c-17.5-.2-33.8-3.1-48.3-8-14.8-5.1-28-12.4-38.8-21.6-11.2-9.5-19.9-21-25.5-34.1-5.8-13.6-8.3-28.9-6.4-45.4" class="st2"/><path d="M119.7 252.6c-13.6 6.6-26.3 10.5-37.7 11.8-11.9 1.4-22.5-.1-31.1-4.3-9.1-4.4-16.1-11.8-20.4-22.2-4.5-10.8-5.8-24.9-3.3-41.9 13.4 14.1 30.6 26.5 50.2 36.5 20 10.3 42.2 18 64.8 22.6 22.6 4.6 45.1 6.1 66 4.1 20.4-1.9 38.7-7.1 53.5-15.5-7.3 16.1-17.4 27.8-29.1 35.4-11.2 7.2-23.9 10.6-37.2 10.4-12.7-.2-25.8-3.6-38.9-10-12.6-6.1-25-15.1-36.8-26.9z" class="st2"/><path d="M35.7 247.4c10.7 11.9 24.2 22.2 39.5 30.5 15.6 8.4 32.8 14.6 50.4 18.2 17.6 3.6 35.2 4.6 51.7 2.7 16.2-1.8 31-6.3 43.3-13.6" class="st2"/><path d="M119.7 252.6c-5.8 11.7-10.9 20.8-15.1 27-4.4 6.6-7.9 10.2-10.2 10.4-2.5.2-3.6-3.2-3.2-10.8.4-7.9 2.6-20.3 6.8-37.3M119.7 252.6c3.4 13.6 7.4 24.5 12.1 32.6 4.9 8.5 10.4 13.9 16.2 15.8 6.2 2 12.7.1 19.2-6.2 6.9-6.6 13.6-18.1 19.7-34.7" class="st2"/><path d="M119.7 252.6c11.8 11.8 24.2 20.8 36.7 27 13 6.4 26.2 9.9 38.9 10 13.3.2 26-3.2 37.2-10.4 11.8-7.6 21.9-19.3 29.1-35.4 14.2-8.1 23.6-18.3 28.6-29.7 4.8-10.8 5.6-22.6 2.8-34.6-2.7-11.4-8.6-23-17.5-34.2-8.5-10.7-19.7-21.1-33.5-30.6-5.3 14.5-12.6 28.8-21.1 42.4-8.4 13.4-18.1 26.4-28.7 38.3-10.6 11.9-22.1 23-34.2 32.6-12.2 9.8-25.1 18.2-38.3 24.6z" class="st2"/><path d="M220.6 285.2c11.9-7 20.1-15.9 25-25.8 4.7-9.5 6.2-20 4.7-30.6-1.4-10.2-5.5-20.6-12.1-30.7-6.4-9.7-15.1-19.1-26.1-27.7" class="st2"/><path d="M119.7 252.6c16.9 6.8 34 10.8 50.6 12.2 17 1.4 33.6.1 49.1-3.7 15.9-4 30.7-10.8 43.3-20.2 13.1-9.8 23.8-22.5 31.1-38" class="st2"/><path d="M119.7 252.6c17.3.2 34.5-2 50.8-6.4 16.3-4.4 32-10.9 46.4-19.1 14.5-8.3 27.8-18.5 39.1-30.2 11.5-12 21-25.6 27.4-40.5" class="st2"/><path d="M119.7 252.6c13.2-6.4 26.1-14.8 38.4-24.6 12.1-9.6 23.6-20.7 34.2-32.6 10.6-11.9 20.3-24.9 28.7-38.3 8.5-13.6 15.7-28 21.1-42.4-13.4-9.3-28.1-17-43.2-23.2-15-6.1-30.6-10.8-46.3-13.9-15.6-3.1-31.5-4.8-46.7-4.8-15.5 0-30.7 1.7-44.7 5.4-2.5 15-2.8 30.7-1.1 46.3 1.6 15.4 5.1 31 10.2 46.1 5.1 15.1 11.8 29.8 20 43.6 8 13.9 18 27 29.4 38.4z" class="st2"/><path d="M212.1 170.4c-10.7-8.4-22.7-15.4-35.2-21-12.3-5.5-25.4-9.6-38.4-12.2-13.1-2.6-26.3-3.9-39.1-3.5-12.9.4-25.6 2.4-37.3 6.3" class="st2"/><path d="M119.7 252.6c5.6-11.2 11.4-24 17.1-37.5 5.6-13.2 11.3-27.3 16.8-41.7 5.4-14.3 10.8-29 15.8-43.6 5-14.8 9.8-29.6 14.1-43.9M119.7 252.6c-3.2-13-5.5-27.4-6.9-42.4-1.4-14.6-2-30-1.8-45.4.2-15.3 1.1-31 2.7-46.2 1.7-15.4 4.1-30.7 7.5-45.2" class="st2"/><path d="M61 78.2c2.6-15.5 7.4-28.9 14-40.1 6.9-11.6 15.7-20.8 26.2-27 10.9-6.5 23.5-9.9 37.3-9.3 14.4.6 30 5.4 45.9 15.2-.1 0-.2.1-.2.1-.1 0-.1.1-.1.2s0 .1.1.2.1.1.3.2c-16.2 3.8-33.4 11.9-50.4 23.5-17.4 11.8-34.2 26.9-49.3 44-15.1 17.2-28.2 36.1-38.2 55.4-9.8 18.9-16.5 37.8-19.2 55.5-12.8-13.5-20.8-27.2-24.3-40.3-3.6-12.4-3.1-24.2 1-34.8 3.9-10 11-19 20.8-26.3 9.5-7 21.6-12.7 36.1-16.5z" class="st2"/><path d="M82.4 27.5c-13.2 2.8-24 7.2-32.3 12.7-8.7 5.8-14.7 12.9-17.7 20.9-3.1 8.4-3 17.8.7 27.9C37 99.5 45 110.5 57.3 121.6M124.9 2.6c-8 1.6-14.4 4.1-19.1 7.2-4.8 3.2-7.7 7.2-8.7 11.7-1.1 4.6-.1 9.8 3.1 15.2 3.2 5.6 8.8 11.4 16.7 17.2" class="st2"/><path d="M16.2 102.5c2.1-16.3 7.7-31 16.4-43.8 9-13.2 21.2-24.3 35.8-32.6 15.2-8.6 33-14.1 52.4-15.9 20-1.9 41.5.3 63.4 7" class="st2"/><path d="M.8 143.4c2-17.1 8.4-33.8 18.4-49.2C29.4 78.4 43.5 64 60.3 52c17.1-12.2 36.9-21.8 58.1-27.9 21.2-6.1 43.6-8.6 65.7-6.7" class="st2"/><path d="M27.2 196.1c2.7-17.7 9.4-36.6 19.2-55.5 10-19.3 23.1-38.2 38.2-55.4 15.1-17.2 32-32.3 49.3-44 17-11.5 34.2-19.7 50.4-23.5.1.1.2.1.4.2.1.1.3.1.4.1.1 0 .3 0 .4.1h.4c16.6 10.4 31.7 25 44.6 42.5 13.2 17.9 23.7 38.6 31 60.3 7.3 21.8 11.2 44.2 11.2 65.6 0 21-3.6 40.6-11.2 57.3-14.8 8.4-33.1 13.6-53.5 15.5-20.8 2-43.4.5-66-4.1s-44.7-12.3-64.8-22.6c-19.4-10.1-36.6-22.4-50-36.5z" class="st2"/><path d="M57.3 121.6c12.8 11.4 28.9 21.6 47 29.9 18.5 8.5 38.7 15.1 59.3 19.2 20.5 4.2 40.9 5.9 59.7 4.9 18.4-1 34.9-4.5 48.2-10.7M116.9 53.9c8.1 5.9 17.9 11.2 28.7 15.5 10.9 4.4 22.6 7.9 34.4 10.3 11.8 2.4 23.5 3.6 34.3 3.5 10.7-.1 20.5-1.4 28.5-4" class="st2"/><path d="M98 242c4.4-17.7 10.5-38.4 17.7-60.3 7.3-22.3 15.6-45.2 24.1-67.2 8.5-21.7 17-41.8 24.9-58.7 7.6-16.3 14.6-29.3 20.3-37.9M186.9 260.1c6.3-17.4 11.2-38.3 14.5-61 3.3-23.1 4.9-47.5 4.6-71.2-.2-23.5-2.2-45.7-5.9-64.9-3.5-18.6-8.4-34-14.6-44.9" class="st2"/><path d="M261.6 243.8c7.5-16.8 11.2-36.4 11.2-57.3 0-21.4-3.9-43.8-11.2-65.6-7.3-21.8-17.8-42.4-31-60.3C217.7 43 202.6 28.4 186 18c.1 0 .2-.1.2-.1.1 0 .1-.1.1-.2s0-.1-.1-.2-.1-.1-.3-.2c15.5-3.5 28.5-2.6 38.6 1.7 9.7 4.1 16.8 11.4 21.3 21.1 4.2 9.2 6 20.5 5.3 33.4-.7 12.4-3.7 26.2-9.2 41.1 13.8 9.6 25 19.9 33.5 30.6 8.9 11.2 14.8 22.8 17.5 34.2 2.8 12 2 23.8-2.8 34.6-4.9 11.5-14.3 21.7-28.5 29.8z" class="st2"/><path d="M271.5 164.9c12.8-6 21.3-13.8 25.7-22.6 4.3-8.4 4.8-17.8 2.1-27.4-2.6-9.2-8.2-18.7-16.6-27.9-8-8.9-18.6-17.5-31.6-25.6" class="st2"/><path d="M242.8 79.3c7.9-2.6 13.3-6.3 16.5-10.6 3.1-4.2 3.9-9 2.8-14.1-1.1-4.9-4.2-10.1-9.1-15.3-4.8-5.1-11.3-10.1-19.4-15" class="st2"/><path d="M293.7 202.8c7.5-16.1 10.5-33.5 9.2-51.3-1.3-18.3-7-36.7-16.6-54.1-9.8-17.7-23.6-34-40.7-47.8-17.1-13.8-37.2-24.8-59.4-31.8" class="st2"/><path d="M283.3 156.5c6.6-15.4 9.5-30.8 8.7-45.5-.7-15.2-5.3-29.7-13.4-42.6-8.4-13.3-20.4-24.9-35.8-33.7-15.8-9-34.9-15-56.6-17" class="st2"/><path d="M242 114.7c5.5-14.9 8.5-28.8 9.2-41.1.7-12.9-1.1-24.2-5.3-33.4-4.4-9.6-11.6-16.9-21.3-21.1-10.2-4.3-23.1-5.2-38.6-1.7-.1-.1-.2-.1-.4-.2-.1-.1-.3-.1-.4-.1-.1 0-.3 0-.4-.1h-.4c-15.9-9.8-31.5-14.6-45.9-15.2-13.7-.6-26.4 2.8-37.3 9.3-10.4 6.2-19.3 15.4-26.2 27-6.6 11.1-11.4 24.6-14 40.1 14-3.7 29.2-5.4 44.7-5.4 15.3 0 31.1 1.7 46.7 4.8 15.6 3.1 31.3 7.8 46.3 13.9 15.2 6.2 29.9 13.9 43.3 23.2z" class="st2"/><path d="M251.1 61.4c-12.6-7.9-26.4-14.5-40.7-19.9C196.3 36.2 181.6 32 167 29c-14.6-2.9-29.4-4.6-43.5-5-14.3-.3-28.3.8-41.1 3.5M233.6 24.3c-8-4.7-16.9-8.8-26.1-12.2-9.2-3.3-18.8-6-28.4-7.9-9.6-1.9-19.2-3.1-28.3-3.4-9.2-.3-18 .2-25.9 1.8" class="st2"/><path d="M183.5 85.9c4.4-14.7 7.8-27.7 10.3-38.7 2.6-11.5 4.3-20.9 4.8-27.7.6-7.2-.1-11.6-2.1-12.4-2.1-.9-5.8 2.2-11.1 10.1M121.2 73.3c3.4-14.9 7.5-27.8 11.9-38.4 4.7-11.1 9.8-19.8 15.3-25.6 5.7-6.2 11.8-9.2 17.8-8.4 6.4.8 12.8 5.9 18.6 16.1" class="st2"/></g></g><g class="st0"><defs><path id="SVGID_43_" d="M183.9 17.8v.1s0 .1.1.1l.1.1s.1.1.2.1c.1.1.2.1.4.2.1.1.3.1.4.1h.9s.1 0 .1-.1l.1-.1v-.1l-65.3 233.6v.1s0 .1-.1.1-.1.1-.1.1-.1 0-.1.1c-.1 0-.2.1-.3.1h-.3c-.1 0-.2-.1-.3-.1-.1-.1-.2-.1-.3-.2l-.1-.1-.1-.1v-.2" class="st0"/></defs><clipPath id="SVGID_44_"><use xlink:href="#SVGID_43_" style="overflow:visible;"/></clipPath><g class="st36"><path d="M119.3 252c-.1-.1-.1-.2-.2-.2v-.3c0-.1 0-.2.1-.2l.2-.2M184.2 17.6c-.1 0-.2.1-.2.1-.1 0-.1.1-.1.2s0 .1.1.2.1.1.3.2M120.6 252.2c-.1 0-.2.1-.3.1h-.3c-.1 0-.2-.1-.3-.1-.1-.1-.2-.1-.3-.2" class="st2"/><path d="M184.2 18.2c.1.1.2.1.4.2.1.1.3.1.4.1h.8M120.8 252l65.3-233.6" class="st2"/></g><path d="M183.9 17.8v.1s0 .1.1.1l.1.1s.1.1.2.1c.1.1.2.1.4.2.1.1.3.1.4.1h.9s.1 0 .1-.1l.1-.1v-.1l-65.3 233.6v.1s0 .1-.1.1-.1.1-.1.1-.1 0-.1.1c-.1 0-.2.1-.3.1h-.3c-.1 0-.2-.1-.3-.1-.1-.1-.2-.1-.3-.2l-.1-.1-.1-.1v-.2" class="st37"/></g><g class="st0"><defs><path id="SVGID_45_" d="M119.4 251.1s-.1 0-.1.1c0 0-.1 0-.1.1 0 0 0 .1-.1.1s0 .1 0 .1" class="st0"/></defs><defs><path id="SVGID_46_" d="M183.9 17.8c0-.1 0-.1 0 0l.1-.1s.1 0 .1-.1h.1" class="st0"/></defs><clipPath id="SVGID_47_"><use xlink:href="#SVGID_45_" style="overflow:visible;"/></clipPath><clipPath id="SVGID_48_" class="st38"><use xlink:href="#SVGID_46_" style="overflow:visible;"/></clipPath><g class="st39"><path d="M119.3 252c-.1-.1-.1-.2-.2-.2v-.3c0-.1 0-.2.1-.2l.2-.2M184.2 17.6c-.1 0-.2.1-.2.1-.1 0-.1.1-.1.2s0 .1.1.2.1.1.3.2" class="st2"/></g><path d="M119.4 251.1s-.1 0-.1.1c0 0-.1 0-.1.1 0 0 0 .1-.1.1s0 .1 0 .1M183.9 17.8c0-.1 0-.1 0 0l.1-.1s.1 0 .1-.1h.1" class="st40"/></g><g class="st0"><defs><path id="SVGID_49_" d="M120.8 251.9v-.2s0-.1-.1-.1l-.1-.1c-.1-.1-.2-.1-.3-.2-.1-.1-.2-.1-.3-.1h-.3c-.1 0-.2 0-.3.1" class="st0"/></defs><defs><path id="SVGID_50_" d="M184.2 17.6h.8c.1 0 .3.1.4.1.1.1.3.1.4.2.1 0 .1.1.2.1l.1.1s0 .1.1.1v.1" class="st0"/></defs><clipPath id="SVGID_51_"><use xlink:href="#SVGID_49_" style="overflow:visible;"/></clipPath><clipPath id="SVGID_52_" class="st41"><use xlink:href="#SVGID_50_" style="overflow:visible;"/></clipPath><g class="st42"><path d="M120.6 251.4c.1.1.1.2.2.2v.3c0 .1 0 .2-.1.2l-.2.2M185.8 18.6c.1 0 .2-.1.2-.1.1 0 .1-.1.1-.2s0-.1-.1-.2-.1-.1-.3-.2M119.4 251.1c.1 0 .2-.1.3-.1h.3c.1 0 .2.1.3.1.1.1.2.1.3.2M185.8 17.9c-.1-.1-.2-.1-.4-.2-.1-.1-.3-.1-.4-.1h-.8" class="st2"/></g><path d="M184.2 17.6h.8c.1 0 .3.1.4.1.1.1.3.1.4.2.1 0 .1.1.2.1l.1.1s0 .1.1.1v.1M120.8 251.9v-.2s0-.1-.1-.1l-.1-.1c-.1-.1-.2-.1-.3-.2-.1-.1-.2-.1-.3-.1h-.3c-.1 0-.2 0-.3.1" class="st43"/></g><g class="st0"><defs><path id="SVGID_53_" d="M122.4 3.6c4.5-.9 9.2-1.3 14-1.3 4.9.1 9.9.6 15.1 1.7 5.2 1.1 10.6 2.7 16 4.9 5.5 2.2 11.1 5.1 16.7 8.5-.1 0-.2.1-.2.1-.1 0-.1.1-.1.2s0 .1.1.2.1.1.3.2c.1.1.2.1.4.2.1.1.3.1.4.1h.8c.1 0 .2-.1.2-.1.1 0 .1-.1.1-.2s0-.1-.1-.2-.1-.1-.3-.2c-.1-.1-.2-.1-.4-.2-.1-.1-.3-.1-.4-.1h-.8c-5.6-3.5-11.2-6.3-16.7-8.5-5.4-2.2-10.8-3.9-16-4.9-5.2-1.1-10.2-1.6-15.1-1.7-4.8 0-9.5.5-14 1.3 2.6-.5 6-1.1 8.6-1.4 2.1-.3 5-.6 7.1-.8 2.1-.2 4.8-.4 6.9-.5 5.5-.2 9.5-.1 11.9-.1 4.1.1 7 .4 10.4.7 2.3.2 7.5.9 9.5 1.3 1.4.3 3.2.5 4.6.8 2.7.6 6.2 1.4 8.9 2.1 4.9 1.2 13.3 4 18.1 6 4.5 1.9 6.5 2.7 10 4.5 3.3 1.6 7.5 3.9 10.7 5.8 5 3 7.6 4.8 7.8 5 3.7 2.6 8.5 6.1 11.9 9 2.5 2 9.6 8.3 14.3 13.6 3 3.3 6.8 7.9 9.5 11.4 1.8 2.3 4 5.6 5.7 8.1 3.4 4.9 7.3 11.9 9.8 17.4 4 8.6 5.7 12.7 8.9 23.2 2 6.6 3.7 15.8 4.7 22.6.8 5.1 1.2 12 1.2 17.1.1 7.3-.7 17-1.7 24.2-.7 5.2-2.2 12-3.6 17.1-2.1 7.3-5.7 16.7-8.7 23.6-2.4 5.4-6.3 12.2-9.5 17.2-3.4 5.4-8.5 12.2-12.7 17-4.9 5.5-11.9 12.4-17.5 17.2-5.4 4.7-13.4 9.9-19.5 13.7-4.4 2.7-10.6 5.9-15.3 7.9-3.1 1.3-7.3 3.1-10.5 4.3-3.9 1.4-9.2 3-13.1 4.1-3 .8-11.1 2.8-21.6 4-11.1 1.2-19.8.9-19.8.9-2.8-.1-6.6-.2-9.4-.5-5.4-.6-12.5-1.6-17.8-2.6-2.6-.5-6-1.3-8.6-2-2.6-.7-5.9-1.8-8.5-2.5-2.6-.8-5.9-2.1-8.4-3-1.5-.5-7-2.7-16.6-7.7-5.9-3.1-12.7-7.6-16.6-10.4-2.8-2.1-6.5-5-9.2-7.2-2.4-2-5.4-4.8-7.6-6.9-3.2-3.2-7.3-7.6-10.2-11-2.1-2.5-4.7-6-6.7-8.6-3.2-4.2-6.9-10.2-9.5-14.8-7.3-13.2-12.5-26.6-15.6-41-3-13.6-3.3-24.4-3.3-24.8-.1-3.6-.3-8.3-.1-11.9.4-6.1.9-14.2 2-20.2 3-15.6 4.6-20.4 10-33.8 1.9-4.7 5.1-10.6 7.5-15 1.6-3 4.1-6.8 6-9.7 2.8-4.2 7-9.4 10.2-13.3 2.1-2.6 5.2-5.8 7.5-8.1 3.7-3.7 9-8.3 13-11.6 2.5-2 5.9-4.6 8.6-6.3 4.8-3.2 11.5-7 16.5-9.8 2.6-1.4 6.2-3.1 9-4.2 4.2-1.7 9.8-3.9 14.1-5.3 4.8-2 11.6-3.7 16.7-4.8z" class="st0"/></defs><clipPath id="SVGID_54_"><use xlink:href="#SVGID_53_" style="overflow:visible;"/></clipPath><g class="st44"><path d="M184.2 17.6C168.4 7.8 152.9 3 138.6 2.4c-13.7-.6-26.2 2.7-37.1 9.2-10.4 6.2-19.2 15.3-26 26.8-6.6 11.1-11.3 24.4-13.9 39.8-14.4 3.8-26.4 9.4-35.8 16.4C16 102 9 110.9 5.2 120.8 1.2 131.3.6 143 4 155.3c3.6 12.9 11.5 26.5 24.2 40 2.7-17.5 9.3-36.3 19-55 9.9-19.2 22.9-37.9 37.9-55s31.7-32 49-43.7c16.9-11.5 34-19.6 50.1-23.3-.1-.1-.2-.1-.3-.2-.1-.1-.1-.1-.1-.2s0-.1.1-.2.2-.1.3-.1z" class="st2"/><path d="M125.1 3.2c-8 1.6-14.3 4-19 7.2-4.7 3.2-7.7 7.2-8.7 11.7-1 4.6-.1 9.7 3.1 15.1 3.2 5.5 8.7 11.3 16.6 17.1M82.9 27.9C69.8 30.7 59 35.1 50.7 40.6c-8.6 5.7-14.5 12.8-17.5 20.8-3.1 8.3-3 17.7.8 27.7 3.9 10.4 11.8 21.4 24.1 32.3" class="st2"/><path d="M183.9 17.7c-21.7-6.7-43.1-8.8-63-6.9-19.3 1.8-37 7.3-52.1 15.8-14.6 8.2-26.7 19.2-35.6 32.3C24.6 71.6 19 86.2 17 102.4" class="st2"/><path d="M183.9 18c-21.9-1.9-44.1.6-65.2 6.7-21 6-40.7 15.6-57.7 27.7-16.7 11.8-30.7 26.1-40.9 41.8C10.1 109.5 3.8 126 1.9 143" class="st2"/><path d="M184.2 18.2C168.1 22 151 30.1 134.1 41.6c-17.3 11.7-34 26.7-49 43.7-15 17-28 35.8-37.9 55-9.7 18.7-16.3 37.5-19 55 13.3 14 30.4 26.2 49.8 36.2 19.9 10.2 41.9 17.8 64.3 22.4 22.4 4.6 44.8 6 65.5 4.1 20.2-1.9 38.4-7 53.1-15.3 7.5-16.6 11.1-36 11.1-56.8 0-21.2-3.9-43.5-11.1-65.1-7.2-21.6-17.7-42.1-30.8-59.9-12.8-17.4-27.8-32-44.3-42.3h-.8c-.1 0-.3-.1-.4-.1-.1-.1-.2-.2-.4-.3z" class="st2"/><path d="M117.2 54.3c8.1 5.9 17.8 11.1 28.5 15.4 10.8 4.4 22.4 7.9 34.1 10.2 11.7 2.4 23.3 3.6 34.1 3.5 10.7-.1 20.3-1.4 28.4-4M58.1 121.4c12.7 11.3 28.7 21.4 46.7 29.7 18.4 8.5 38.4 14.9 58.8 19.1 20.4 4.1 40.6 5.8 59.3 4.9 18.3-1 34.7-4.5 47.9-10.6" class="st2"/><path d="M184.8 18.5c-5.7 8.5-12.5 21.5-20.1 37.7-7.9 16.8-16.3 36.7-24.7 58.3-8.5 21.7-16.7 44.5-23.9 66.6-7.1 21.7-13.2 42.2-17.5 59.8M185.3 18.6c6.1 10.9 11 26.2 14.5 44.6 3.6 19.1 5.6 41.2 5.8 64.4.2 23.5-1.3 47.7-4.6 70.6-3.2 22.5-8.1 43.3-14.4 60.5" class="st2"/><path d="M185.8 18.6c16.5 10.3 31.5 24.8 44.3 42.3 13.1 17.8 23.5 38.3 30.8 59.9 7.2 21.6 11.1 43.8 11.1 65.1 0 20.8-3.6 40.2-11.1 56.8 14.1-8 23.5-18.1 28.5-29.4 4.8-10.7 5.6-22.4 2.8-34.3-2.6-11.3-8.5-22.9-17.3-33.9-8.4-10.6-19.6-20.9-33.3-30.4 5.5-14.8 8.5-28.6 9.2-40.9.7-12.8-1.1-24.1-5.3-33.2-4.4-9.6-11.5-16.8-21.2-20.9-10.1-4.3-23-5.2-38.4-1.7.1.1.2.1.3.2.1.1.1.1.1.2s0 .1-.1.2c-.2-.1-.2-.1-.4 0z" class="st2"/><path d="M242.2 79.4c7.8-2.6 13.3-6.2 16.4-10.5 3.1-4.2 3.9-8.9 2.8-14-1.1-4.9-4.2-10.1-9-15.3-4.7-5-11.2-10.1-19.3-14.9" class="st2"/><path d="M270.7 164.4c12.7-5.9 21.1-13.6 25.6-22.4 4.3-8.4 4.8-17.7 2.1-27.2-2.6-9.1-8.2-18.6-16.4-27.7-8-8.8-18.5-17.4-31.4-25.5" class="st2"/><path d="M186.1 18.4c22.1 6.9 42 17.9 59 31.6 16.9 13.7 30.6 29.9 40.4 47.5 9.6 17.3 15.3 35.6 16.5 53.7 1.2 17.6-1.7 34.9-9.2 50.9" class="st2"/><path d="M186.1 18.2c21.6 2 40.5 8 56.2 16.9 15.3 8.7 27.3 20.2 35.6 33.4 8 12.8 12.6 27.2 13.3 42.3.7 14.6-2.1 29.9-8.7 45.2" class="st2"/><path d="M185.8 17.9c15.4-3.5 28.3-2.6 38.4 1.7 9.7 4.1 16.8 11.4 21.2 20.9 4.2 9.1 6 20.4 5.3 33.2-.7 12.3-3.7 26.1-9.2 40.9-13.3-9.2-27.9-16.9-43-23.1-14.9-6.1-30.5-10.7-46-13.8-15.5-3.1-31.3-4.8-46.5-4.8-15.4 0-30.5 1.7-44.5 5.4 2.6-15.3 7.4-28.7 13.9-39.8 6.8-11.5 15.7-20.6 26-26.8 10.9-6.5 23.4-9.8 37.1-9.2 14.3.6 29.8 5.4 45.6 15.1h.8c.1 0 .3.1.4.1.3 0 .4.1.5.2z" class="st2"/><path d="M233.2 24.8c-7.9-4.7-16.8-8.8-26-12.1-9.1-3.3-18.7-6-28.2-7.9-9.5-1.9-19-3.1-28.1-3.4-9.2-.3-17.9.2-25.8 1.8M250.6 61.6c-12.5-7.8-26.3-14.4-40.5-19.8-14-5.3-28.6-9.5-43.2-12.4-14.5-2.9-29.2-4.6-43.3-4.9-14.3-.3-28.1.8-40.9 3.5" class="st2"/><path d="M185.3 17.6c5.3-7.9 8.9-11 11-10.1 2 .8 2.7 5.1 2.1 12.3-.5 6.8-2.1 16.1-4.8 27.5-2.5 10.9-5.9 23.9-10.3 38.5M184.7 17.5c-5.8-10.1-12.2-15.2-18.5-16-6-.8-12 2.2-17.7 8.3-5.4 5.8-10.6 14.4-15.2 25.4-4.4 10.5-8.5 23.3-11.9 38.1M61.6 78.3c-2.5 14.9-2.8 30.4-1.1 46 1.6 15.3 5 30.8 10 45.7 5 14.9 11.6 29.6 19.7 43.2 8.2 13.8 18 26.7 29.2 38-.1 0-.2.1-.2.2-.1.1-.1.1-.1.2v.3c0 .1.1.2.2.2-13.4 6.5-25.9 10.2-37.2 11.4-11.7 1.3-22.1-.2-30.7-4.5-9-4.4-15.9-11.8-20.1-22.1-4.4-10.8-5.7-24.7-3.1-41.6-12.8-13.4-20.7-27-24.2-40-3.4-12.3-2.8-24 1.2-34.5C9 110.9 16 102 25.8 94.7c9.4-7 21.4-12.6 35.8-16.4z" class="st2"/><path d="M62.7 139.6c-11.9 3.9-21.7 9.5-29.4 16.3-7.9 7-13.4 15.4-16.3 24.6-3 9.6-3.2 20.2-.3 31.1 3.1 11.4 9.6 23.2 19.9 34.7" class="st2"/><path d="M17.1 102.4c-2 15.6-.4 31.3 4 46.3 4.3 14.7 11.3 28.9 20.5 41.9 9.1 12.9 20.3 24.8 33.3 35.1 13 10.3 27.9 19.1 44.3 25.7" class="st2"/><path d="M1.9 143c-1.9 16.3.5 31.5 6.2 45 5.5 13 14.2 24.5 25.2 33.9 10.7 9.2 23.6 16.5 38.3 21.6 14.3 5 30.3 7.8 47.6 8.1" class="st2"/><path d="M28.2 195.3c-2.6 16.8-1.2 30.8 3.1 41.6 4.2 10.3 11.1 17.7 20.1 22.1 8.6 4.2 19 5.7 30.7 4.5 11.3-1.2 23.8-5 37.2-11.4.1.1.2.1.3.2.1.1.2.1.3.1h.3c.1 0 .2 0 .3-.1 11.7 11.6 23.9 20.4 36.3 26.5 12.9 6.3 25.9 9.6 38.4 9.7 13.1.1 25.7-3.3 36.8-10.6 11.6-7.6 21.6-19.2 28.8-35.2-14.7 8.3-32.9 13.4-53.1 15.3-20.7 1.9-43 .5-65.5-4.1-22.4-4.6-44.4-12.2-64.3-22.4-19.3-10-36.4-22.2-49.7-36.2z" class="st2"/><path d="M36.5 246.3c10.6 11.8 24.1 22.1 39.3 30.3 15.5 8.3 32.6 14.5 50.1 18 17.5 3.6 35 4.6 51.4 2.7 16.1-1.8 30.8-6.3 43-13.5" class="st2"/><path d="M98.5 240.8c-4.2 16.8-6.4 29.2-6.8 37.1-.4 7.5.7 11 3.1 10.9 2.3-.1 5.7-3.6 10.1-10 4.1-6.1 9.1-15 14.8-26.5M186.7 258.8c-6 16.5-12.7 27.9-19.5 34.5-6.4 6.3-12.9 8.3-19 6.4-5.8-1.8-11.2-7-16.1-15.4-4.6-7.9-8.7-18.6-12-32" class="st2"/><path d="M260.9 242.7c-7.2 16-17.2 27.6-28.8 35.2-11.1 7.2-23.7 10.6-36.8 10.6-12.5-.1-25.6-3.4-38.4-9.7-12.4-6-24.6-14.9-36.3-26.5.1 0 .2-.1.2-.2.1-.1.1-.1.1-.2v-.3c0-.1-.1-.2-.2-.2 13-6.3 25.7-14.7 37.8-24.3 11.9-9.5 23.3-20.5 33.8-32.3 10.5-11.8 20.1-24.7 28.4-38 8.4-13.5 15.6-27.7 20.9-42.1 13.7 9.5 24.9 19.8 33.3 30.4 8.8 11.1 14.7 22.6 17.3 33.9 2.8 11.9 2 23.6-2.8 34.3-5 11.2-14.4 21.4-28.5 29.4z" class="st2"/><path d="M220.3 283.9c11.8-7 20-15.8 24.9-25.6 4.6-9.5 6.1-19.8 4.7-30.3-1.4-10.1-5.4-20.5-12-30.5-6.3-9.6-15-19-26-27.6" class="st2"/><path d="M292.9 202.1c-7.2 15.4-17.8 28-30.7 37.7-12.5 9.4-27.1 16.2-42.8 20.2-15.3 3.9-31.7 5.2-48.5 3.9-16.4-1.3-33.3-5.2-50-11.8" class="st2"/><path d="M282.6 156c-6.4 14.8-15.7 28.3-27.1 40.2-11.1 11.6-24.3 21.7-38.7 30-14.2 8.2-29.7 14.6-45.8 19-16.1 4.4-33 6.7-50.1 6.5" class="st2"/><path d="M241.5 114.6c-5.3 14.4-12.4 28.6-20.9 42.1-8.3 13.3-17.9 26.2-28.4 38s-21.9 22.8-33.8 32.3c-12.1 9.7-24.9 18-37.8 24.3-.1-.1-.2-.1-.3-.2-.1-.1-.2-.1-.3-.1h-.3c-.1 0-.2 0-.3.1-11.2-11.3-21-24.2-29.2-38-8.1-13.6-14.7-28.2-19.7-43.2-5-14.9-8.4-30.4-10-45.7-1.6-15.5-1.4-31.1 1.1-46 14-3.7 29-5.4 44.5-5.4 15.2 0 30.9 1.7 46.5 4.8 15.6 3.1 31.2 7.8 46 13.8 15.1 6.2 29.7 14 42.9 23.2z" class="st2"/><path d="M211.9 169.9c-10.7-8.4-22.6-15.3-35-20.8-12.3-5.4-25.3-9.5-38.3-12.2-13-2.6-26.2-3.8-38.9-3.5-12.9.4-25.5 2.4-37.1 6.2" class="st2"/><path d="M183.4 85.9c-4.2 14.2-9 28.9-14 43.6-5 14.5-10.3 29.1-15.7 43.3-5.4 14.2-11.1 28.2-16.6 41.3-5.7 13.4-11.4 26-16.9 37M121.4 73.4c-3.3 14.4-5.7 29.6-7.4 44.9-1.6 15.1-2.6 30.7-2.7 45.9-.2 15.3.4 30.6 1.8 45 1.4 14.8 3.6 29 6.8 41.9" class="st2"/></g></g><g class="st0"><defs><path id="SVGID_55_" d="M2.1 133.4c.9-7.1 2.7-16.5 4.6-23.4 1.5-5.8 4.1-13.3 6.6-18.7C16.1 85 20.2 76.7 23.9 71c2.7-4.1 6.5-9.5 9.5-13.4 2-2.6 5-6 7.2-8.4 3.3-3.6 8.1-8.1 11.7-11.3 2.4-2.2 5.8-4.7 8.3-6.7 3.9-3.1 9.5-6.8 13.9-9.3 2.6-1.5 6.1-3.5 8.8-4.8 4.9-2.3 11.4-5.2 16.4-7.1 2.5-.9 5.9-2.1 8.4-2.8 4.2-1.2 9.8-2.5 14.1-3.5-8.1 1.6-15.7 4.7-22.5 9C93.2 16.9 87.2 22.4 82 29c-5 6.4-9.4 13.8-12.8 22.2-3.4 8.2-5.9 17.2-7.6 27.1-2.5 14.9-2.8 30.4-1.1 46 1.6 15.3 5 30.8 10 45.7 5 14.9 11.6 29.6 19.7 43.2 8.2 13.8 18 26.7 29.2 38-.1 0-.2.1-.2.2-.1.1-.1.1-.1.2v.3c0 .1.1.2.2.2.1.1.2.1.3.2.1.1.2.1.3.1h.3c.1 0 .2 0 .3-.1.1 0 .2-.1.2-.2.1-.1.1-.1.1-.2v-.3c0-.1-.1-.2-.2-.2-.1-.1-.2-.1-.3-.2-.1-.1-.2-.1-.3-.1h-.3c-.1 0-.2 0-.3.1-11.2-11.3-21-24.2-29.2-38-8.1-13.6-14.7-28.2-19.7-43.2-5-14.9-8.4-30.4-10-45.7-1.6-15.5-1.4-31.1 1.1-46 1.7-9.9 4.2-19 7.6-27.1C72.7 42.8 77 35.4 82 29c5.2-6.6 11.2-12 17.8-16.3 6.9-4.4 14.4-7.4 22.5-9 4.4-.7 10.2-1.6 14.6-2.1 2.2-.3 5.3-.4 7.5-.5 5.8-.3 9-.2 12.2-.1 4.1.1 7.2.4 10.6.7 2.3.2 7.5.9 9.6 1.3 1.4.3 3.2.6 4.6.8 2.7.6 6.2 1.4 8.9 2.1 5 1.2 13.4 4 18 6 4.8 2 6.6 2.8 9.8 4.4 2.2 1.1 5.9 2.9 11 5.9 8.9 5.3 15.4 10.4 18.8 13.1 2.2 1.8 5.2 4.4 7.3 6.4 2.5 2.3 5.7 5.5 8 8.1 1.9 2.1 4.5 5 6.2 7.2 2.8 3.6 6.4 8.5 9 12.3 3.5 5.3 7.6 12.8 10.4 18.5 2.7 5.7 5.9 13.4 7.6 19.5.9 3.3 2.2 7.7 3 11 .9 4.2 1.9 9.9 2.5 14.1 1 7.1 1.2 16.6 1.1 23.8-.1 5.3-.7 12.3-1.6 17.5-1.3 7.3-3.4 17-5.8 24.1-1.7 5.1-4.2 11.8-6.6 16.6-3.4 6.8-8.3 15.6-12.6 21.8-3.3 4.8-8.1 10.8-12 15.1-4.2 4.6-10.2 10.5-15.1 14.4-5.6 4.4-13.3 10.1-19.5 13.7-6 3.6-14.4 7.7-20.9 10.3-4.5 1.8-10.7 4-15.4 5.2-3.1.8-7.2 1.9-10.4 2.5-3.8.7-8.9 1.7-12.7 2-3 .3-6.9.7-9.9.8-3.2.2-7.5.3-10.8.2-2.9-.1-6.9-.2-9.8-.5-5.4-.6-12.5-1.5-17.8-2.6-2.6-.5-6.2-1.3-8.7-2.1-2.5-.8-5.9-1.7-8.5-2.5-2.5-.8-5.8-2.1-8.3-3-5.7-2.1-13.7-6.2-16.3-7.6-3.8-2-10.8-6.2-16.2-10.1-9.5-6.9-15.1-12.3-16.1-13.3-2.7-2.6-6.2-6.2-8.7-9-2.2-2.4-5-5.8-7-8.4-2.8-3.7-6.3-8.8-8.8-12.7-1.8-2.8-3.9-6.8-5.5-9.7-2.6-4.7-5.5-11.3-7.3-16.4-2.3-6.5-5-15.3-6.4-22.1-1.3-6.4-2.6-15.1-2.9-21.6-.2-3.6-.3-8.3-.2-11.9.1-3.9.3-9.4.9-13.5z" class="st0"/></defs><clipPath id="SVGID_56_"><use xlink:href="#SVGID_55_" style="overflow:visible;"/></clipPath><g class="st45"><path d="M184.2 17.6C168.4 7.8 152.9 3 138.6 2.4c-13.7-.6-26.2 2.7-37.1 9.2-10.4 6.2-19.2 15.3-26 26.8-6.6 11.1-11.3 24.4-13.9 39.8-14.4 3.8-26.4 9.4-35.8 16.4C16 102 9 110.9 5.2 120.8 1.2 131.3.6 143 4 155.3c3.6 12.9 11.5 26.5 24.2 40 2.7-17.5 9.3-36.3 19-55 9.9-19.2 22.9-37.9 37.9-55s31.7-32 49-43.7c16.9-11.5 34-19.6 50.1-23.3-.1-.1-.2-.1-.3-.2-.1-.1-.1-.1-.1-.2s0-.1.1-.2.2-.1.3-.1z" class="st2"/><path d="M125.1 3.2c-8 1.6-14.3 4-19 7.2-4.7 3.2-7.7 7.2-8.7 11.7-1 4.6-.1 9.7 3.1 15.1 3.2 5.5 8.7 11.3 16.6 17.1M82.9 27.9C69.8 30.7 59 35.1 50.7 40.6c-8.6 5.7-14.5 12.8-17.5 20.8-3.1 8.3-3 17.7.8 27.7 3.9 10.4 11.8 21.4 24.1 32.3" class="st2"/><path d="M183.9 17.7c-21.7-6.7-43.1-8.8-63-6.9-19.3 1.8-37 7.3-52.1 15.8-14.6 8.2-26.7 19.2-35.6 32.3C24.6 71.6 19 86.2 17 102.4" class="st2"/><path d="M183.9 18c-21.9-1.9-44.1.6-65.2 6.7-21 6-40.7 15.6-57.7 27.7-16.7 11.8-30.7 26.1-40.9 41.8C10.1 109.5 3.8 126 1.9 143" class="st2"/><path d="M184.2 18.2C168.1 22 151 30.1 134.1 41.6c-17.3 11.7-34 26.7-49 43.7-15 17-28 35.8-37.9 55-9.7 18.7-16.3 37.5-19 55 13.3 14 30.4 26.2 49.8 36.2 19.9 10.2 41.9 17.8 64.3 22.4 22.4 4.6 44.8 6 65.5 4.1 20.2-1.9 38.4-7 53.1-15.3 7.5-16.6 11.1-36 11.1-56.8 0-21.2-3.9-43.5-11.1-65.1-7.2-21.6-17.7-42.1-30.8-59.9-12.8-17.4-27.8-32-44.3-42.3h-.8c-.1 0-.3-.1-.4-.1-.1-.1-.2-.2-.4-.3z" class="st2"/><path d="M117.2 54.3c8.1 5.9 17.8 11.1 28.5 15.4 10.8 4.4 22.4 7.9 34.1 10.2 11.7 2.4 23.3 3.6 34.1 3.5 10.7-.1 20.3-1.4 28.4-4M58.1 121.4c12.7 11.3 28.7 21.4 46.7 29.7 18.4 8.5 38.4 14.9 58.8 19.1 20.4 4.1 40.6 5.8 59.3 4.9 18.3-1 34.7-4.5 47.9-10.6" class="st2"/><path d="M184.8 18.5c-5.7 8.5-12.5 21.5-20.1 37.7-7.9 16.8-16.3 36.7-24.7 58.3-8.5 21.7-16.7 44.5-23.9 66.6-7.1 21.7-13.2 42.2-17.5 59.8M185.3 18.6c6.1 10.9 11 26.2 14.5 44.6 3.6 19.1 5.6 41.2 5.8 64.4.2 23.5-1.3 47.7-4.6 70.6-3.2 22.5-8.1 43.3-14.4 60.5" class="st2"/><path d="M185.8 18.6c16.5 10.3 31.5 24.8 44.3 42.3 13.1 17.8 23.5 38.3 30.8 59.9 7.2 21.6 11.1 43.8 11.1 65.1 0 20.8-3.6 40.2-11.1 56.8 14.1-8 23.5-18.1 28.5-29.4 4.8-10.7 5.6-22.4 2.8-34.3-2.6-11.3-8.5-22.9-17.3-33.9-8.4-10.6-19.6-20.9-33.3-30.4 5.5-14.8 8.5-28.6 9.2-40.9.7-12.8-1.1-24.1-5.3-33.2-4.4-9.6-11.5-16.8-21.2-20.9-10.1-4.3-23-5.2-38.4-1.7.1.1.2.1.3.2.1.1.1.1.1.2s0 .1-.1.2c-.2-.1-.2-.1-.4 0z" class="st2"/><path d="M242.2 79.4c7.8-2.6 13.3-6.2 16.4-10.5 3.1-4.2 3.9-8.9 2.8-14-1.1-4.9-4.2-10.1-9-15.3-4.7-5-11.2-10.1-19.3-14.9" class="st2"/><path d="M270.7 164.4c12.7-5.9 21.1-13.6 25.6-22.4 4.3-8.4 4.8-17.7 2.1-27.2-2.6-9.1-8.2-18.6-16.4-27.7-8-8.8-18.5-17.4-31.4-25.5" class="st2"/><path d="M186.1 18.4c22.1 6.9 42 17.9 59 31.6 16.9 13.7 30.6 29.9 40.4 47.5 9.6 17.3 15.3 35.6 16.5 53.7 1.2 17.6-1.7 34.9-9.2 50.9" class="st2"/><path d="M186.1 18.2c21.6 2 40.5 8 56.2 16.9 15.3 8.7 27.3 20.2 35.6 33.4 8 12.8 12.6 27.2 13.3 42.3.7 14.6-2.1 29.9-8.7 45.2" class="st2"/><path d="M185.8 17.9c15.4-3.5 28.3-2.6 38.4 1.7 9.7 4.1 16.8 11.4 21.2 20.9 4.2 9.1 6 20.4 5.3 33.2-.7 12.3-3.7 26.1-9.2 40.9-13.3-9.2-27.9-16.9-43-23.1-14.9-6.1-30.5-10.7-46-13.8-15.5-3.1-31.3-4.8-46.5-4.8-15.4 0-30.5 1.7-44.5 5.4 2.6-15.3 7.4-28.7 13.9-39.8 6.8-11.5 15.7-20.6 26-26.8 10.9-6.5 23.4-9.8 37.1-9.2 14.3.6 29.8 5.4 45.6 15.1h.8c.1 0 .3.1.4.1.3 0 .4.1.5.2z" class="st2"/><path d="M233.2 24.8c-7.9-4.7-16.8-8.8-26-12.1-9.1-3.3-18.7-6-28.2-7.9-9.5-1.9-19-3.1-28.1-3.4-9.2-.3-17.9.2-25.8 1.8M250.6 61.6c-12.5-7.8-26.3-14.4-40.5-19.8-14-5.3-28.6-9.5-43.2-12.4-14.5-2.9-29.2-4.6-43.3-4.9-14.3-.3-28.1.8-40.9 3.5" class="st2"/><path d="M185.3 17.6c5.3-7.9 8.9-11 11-10.1 2 .8 2.7 5.1 2.1 12.3-.5 6.8-2.1 16.1-4.8 27.5-2.5 10.9-5.9 23.9-10.3 38.5M184.7 17.5c-5.8-10.1-12.2-15.2-18.5-16-6-.8-12 2.2-17.7 8.3-5.4 5.8-10.6 14.4-15.2 25.4-4.4 10.5-8.5 23.3-11.9 38.1M61.6 78.3c-2.5 14.9-2.8 30.4-1.1 46 1.6 15.3 5 30.8 10 45.7 5 14.9 11.6 29.6 19.7 43.2 8.2 13.8 18 26.7 29.2 38-.1 0-.2.1-.2.2-.1.1-.1.1-.1.2v.3c0 .1.1.2.2.2-13.4 6.5-25.9 10.2-37.2 11.4-11.7 1.3-22.1-.2-30.7-4.5-9-4.4-15.9-11.8-20.1-22.1-4.4-10.8-5.7-24.7-3.1-41.6-12.8-13.4-20.7-27-24.2-40-3.4-12.3-2.8-24 1.2-34.5C9 110.9 16 102 25.8 94.7c9.4-7 21.4-12.6 35.8-16.4z" class="st2"/><path d="M62.7 139.6c-11.9 3.9-21.7 9.5-29.4 16.3-7.9 7-13.4 15.4-16.3 24.6-3 9.6-3.2 20.2-.3 31.1 3.1 11.4 9.6 23.2 19.9 34.7M82.6 199.1c-6.8 2.8-12.3 6.5-16.4 11-4.2 4.5-7 9.8-8.2 15.6-1.3 5.8-.9 12.2 1.2 18.6 2.1 6.5 6.1 13.2 11.9 19.5" class="st2"/><path d="M17.1 102.4c-2 15.6-.4 31.3 4 46.3 4.3 14.7 11.3 28.9 20.5 41.9 9.1 12.9 20.3 24.8 33.3 35.1 13 10.3 27.9 19.1 44.3 25.7" class="st2"/><path d="M1.9 143c-1.9 16.3.5 31.5 6.2 45 5.5 13 14.2 24.5 25.2 33.9 10.7 9.2 23.6 16.5 38.3 21.6 14.3 5 30.3 7.8 47.6 8.1" class="st2"/><path d="M28.2 195.3c-2.6 16.8-1.2 30.8 3.1 41.6 4.2 10.3 11.1 17.7 20.1 22.1 8.6 4.2 19 5.7 30.7 4.5 11.3-1.2 23.8-5 37.2-11.4.1.1.2.1.3.2.1.1.2.1.3.1h.3c.1 0 .2 0 .3-.1 11.7 11.6 23.9 20.4 36.3 26.5 12.9 6.3 25.9 9.6 38.4 9.7 13.1.1 25.7-3.3 36.8-10.6 11.6-7.6 21.6-19.2 28.8-35.2-14.7 8.3-32.9 13.4-53.1 15.3-20.7 1.9-43 .5-65.5-4.1-22.4-4.6-44.4-12.2-64.3-22.4-19.3-10-36.4-22.2-49.7-36.2z" class="st2"/><path d="M36.5 246.3c10.6 11.8 24.1 22.1 39.3 30.3 15.5 8.3 32.6 14.5 50.1 18 17.5 3.6 35 4.6 51.4 2.7 16.1-1.8 30.8-6.3 43-13.5" class="st2"/><path d="M71 263.8c5.9 6.5 13.3 12 21.4 16.3 8.2 4.4 17.2 7.6 26.4 9.5 9.2 1.9 18.4 2.4 27.1 1.5 8.7-.9 16.7-3.3 23.7-7.1" class="st2"/><path d="M98.5 240.8c-4.2 16.8-6.4 29.2-6.8 37.1-.4 7.5.7 11 3.1 10.9 2.3-.1 5.7-3.6 10.1-10 4.1-6.1 9.1-15 14.8-26.5M186.7 258.8c-6 16.5-12.7 27.9-19.5 34.5-6.4 6.3-12.9 8.3-19 6.4-5.8-1.8-11.2-7-16.1-15.4-4.6-7.9-8.7-18.6-12-32" class="st2"/><path d="M260.9 242.7c-7.2 16-17.2 27.6-28.8 35.2-11.1 7.2-23.7 10.6-36.8 10.6-12.5-.1-25.6-3.4-38.4-9.7-12.4-6-24.6-14.9-36.3-26.5.1 0 .2-.1.2-.2.1-.1.1-.1.1-.2v-.3c0-.1-.1-.2-.2-.2 13-6.3 25.7-14.7 37.8-24.3 11.9-9.5 23.3-20.5 33.8-32.3 10.5-11.8 20.1-24.7 28.4-38 8.4-13.5 15.6-27.7 20.9-42.1 13.7 9.5 24.9 19.8 33.3 30.4 8.8 11.1 14.7 22.6 17.3 33.9 2.8 11.9 2 23.6-2.8 34.3-5 11.2-14.4 21.4-28.5 29.4z" class="st2"/><path d="M220.3 283.9c11.8-7 20-15.8 24.9-25.6 4.6-9.5 6.1-19.8 4.7-30.3-1.4-10.1-5.4-20.5-12-30.5-6.3-9.6-15-19-26-27.6M169.6 283.9c6.8-3.8 11.8-8.6 15.1-14.1 3.2-5.4 4.7-11.3 4.5-17.4-.1-6-1.9-12.2-5.1-18.3-3.2-5.9-7.8-11.8-13.9-17.2" class="st2"/><path d="M292.9 202.1c-7.2 15.4-17.8 28-30.7 37.7-12.5 9.4-27.1 16.2-42.8 20.2-15.3 3.9-31.7 5.2-48.5 3.9-16.4-1.3-33.3-5.2-50-11.8" class="st2"/><path d="M282.6 156c-6.4 14.8-15.7 28.3-27.1 40.2-11.1 11.6-24.3 21.7-38.7 30-14.2 8.2-29.7 14.6-45.8 19-16.1 4.4-33 6.7-50.1 6.5" class="st2"/><path d="M241.5 114.6c-5.3 14.4-12.4 28.6-20.9 42.1-8.3 13.3-17.9 26.2-28.4 38s-21.9 22.8-33.8 32.3c-12.1 9.7-24.9 18-37.8 24.3-.1-.1-.2-.1-.3-.2-.1-.1-.2-.1-.3-.1h-.3c-.1 0-.2 0-.3.1-11.2-11.3-21-24.2-29.2-38-8.1-13.6-14.7-28.2-19.7-43.2-5-14.9-8.4-30.4-10-45.7-1.6-15.5-1.4-31.1 1.1-46 14-3.7 29-5.4 44.5-5.4 15.2 0 30.9 1.7 46.5 4.8 15.6 3.1 31.2 7.8 46 13.8 15.1 6.2 29.7 14 42.9 23.2z" class="st2"/><path d="M211.9 169.9c-10.7-8.4-22.6-15.3-35-20.8-12.3-5.4-25.3-9.5-38.3-12.2-13-2.6-26.2-3.8-38.9-3.5-12.9.4-25.5 2.4-37.1 6.2M170.2 217c-6-5.3-12.8-9.7-20.1-13.2-7.2-3.4-14.9-6-22.7-7.6-7.8-1.6-15.6-2.2-23.2-1.7-7.6.4-15 2-21.7 4.7" class="st2"/><path d="M183.4 85.9c-4.2 14.2-9 28.9-14 43.6-5 14.5-10.3 29.1-15.7 43.3-5.4 14.2-11.1 28.2-16.6 41.3-5.7 13.4-11.4 26-16.9 37M121.4 73.4c-3.3 14.4-5.7 29.6-7.4 44.9-1.6 15.1-2.6 30.7-2.7 45.9-.2 15.3.4 30.6 1.8 45 1.4 14.8 3.6 29 6.8 41.9" class="st2"/></g></g></g></svg>