<svg xmlns="http://www.w3.org/2000/svg" viewBox="0 0 116.6 173.6">
  <title>Map of Great Britain</title>
  <defs />
  <g class="primary">
    <ellipse cx="49.6" cy="171.9" rx="1.5" ry="1.6" />
    <ellipse cx="67" cy="167.6" rx="1.5" ry="1.6" />
    <ellipse cx="62.7" cy="167.6" rx="1.5" ry="1.6" />
    <ellipse cx="58.3" cy="167.6" rx="1.5" ry="1.6" />
    <ellipse cx="53.9" cy="167.6" rx="1.5" ry="1.6" />
    <ellipse cx="88.9" cy="163.2" rx="1.5" ry="1.6" />
    <ellipse cx="80.1" cy="163.2" rx="1.5" ry="1.6" />
    <ellipse cx="75.8" cy="163.2" rx="1.5" ry="1.6" />
    <ellipse cx="71.4" cy="163.2" rx="1.5" ry="1.6" />
    <ellipse cx="67" cy="163.2" rx="1.5" ry="1.6" />
    <ellipse cx="62.7" cy="163.2" rx="1.5" ry="1.6" />
    <ellipse cx="58.3" cy="163.2" rx="1.5" ry="1.6" />
    <ellipse cx="102" cy="158.8" rx="1.5" ry="1.6" />
    <ellipse cx="97.6" cy="158.8" rx="1.5" ry="1.6" />
    <ellipse cx="93.2" cy="158.8" rx="1.5" ry="1.6" />
    <ellipse cx="88.9" cy="158.8" rx="1.5" ry="1.6" />
    <ellipse cx="84.5" cy="158.8" rx="1.5" ry="1.6" />
    <ellipse cx="80.1" cy="158.8" rx="1.5" ry="1.6" />
    <ellipse cx="75.8" cy="158.8" rx="1.5" ry="1.6" />
    <ellipse cx="71.4" cy="158.8" rx="1.5" ry="1.6" />
    <ellipse cx="67" cy="158.8" rx="1.5" ry="1.6" />
    <ellipse cx="62.7" cy="158.8" rx="1.5" ry="1.6" />
    <ellipse cx="58.3" cy="158.8" rx="1.5" ry="1.6" />
    <ellipse cx="110.7" cy="154.5" rx="1.5" ry="1.6" />
    <ellipse cx="106.3" cy="154.5" rx="1.5" ry="1.6" />
    <ellipse cx="102" cy="154.5" rx="1.5" ry="1.6" />
    <ellipse cx="97.6" cy="154.5" rx="1.5" ry="1.6" />
    <ellipse cx="93.2" cy="154.5" rx="1.5" ry="1.6" />
    <ellipse cx="88.9" cy="154.5" rx="1.5" ry="1.6" />
    <ellipse cx="84.5" cy="154.5" rx="1.5" ry="1.6" />
    <ellipse cx="75.8" cy="154.5" rx="1.5" ry="1.6" />
    <ellipse cx="106.3" cy="150.1" rx="1.5" ry="1.6" />
    <ellipse cx="102" cy="150.1" rx="1.5" ry="1.6" />
    <ellipse cx="97.6" cy="150.1" rx="1.5" ry="1.6" />
    <ellipse cx="93.2" cy="150.1" rx="1.5" ry="1.6" />
    <ellipse cx="88.9" cy="150.1" rx="1.5" ry="1.6" />
    <ellipse cx="84.5" cy="150.1" rx="1.5" ry="1.6" />
    <ellipse cx="80.1" cy="150.1" rx="1.5" ry="1.6" />
    <ellipse cx="75.8" cy="150.1" rx="1.5" ry="1.6" />
    <ellipse cx="71.4" cy="150.1" rx="1.5" ry="1.6" />
    <ellipse cx="67" cy="150.1" rx="1.5" ry="1.6" />
    <ellipse cx="62.7" cy="150.1" rx="1.5" ry="1.6" />
    <ellipse cx="14.6" cy="150.1" rx="1.5" ry="1.6" />
    <ellipse cx="10.3" cy="150.1" rx="1.5" ry="1.6" />
    <ellipse cx="110.7" cy="145.7" rx="1.5" ry="1.6" />
    <ellipse cx="106.3" cy="145.7" rx="1.5" ry="1.6" />
    <ellipse cx="102" cy="145.7" rx="1.5" ry="1.6" />
    <ellipse cx="97.6" cy="145.7" rx="1.5" ry="1.6" />
    <ellipse cx="93.2" cy="145.7" rx="1.5" ry="1.6" />
    <ellipse cx="88.9" cy="145.7" rx="1.5" ry="1.6" />
    <ellipse cx="84.5" cy="145.7" rx="1.5" ry="1.6" />
    <ellipse cx="80.1" cy="145.7" rx="1.5" ry="1.6" />
    <ellipse cx="75.8" cy="145.7" rx="1.5" ry="1.6" />
    <ellipse cx="71.4" cy="145.7" rx="1.5" ry="1.6" />
    <ellipse cx="67" cy="145.7" rx="1.5" ry="1.6" />
    <ellipse cx="62.7" cy="145.7" rx="1.5" ry="1.6" />
    <ellipse cx="58.3" cy="145.7" rx="1.5" ry="1.6" />
    <ellipse cx="53.9" cy="145.7" rx="1.5" ry="1.6" />
    <ellipse cx="49.6" cy="145.7" rx="1.5" ry="1.6" />
    <ellipse cx="23.4" cy="145.7" rx="1.5" ry="1.6" />
    <ellipse cx="19" cy="145.7" rx="1.5" ry="1.6" />
    <ellipse cx="14.6" cy="145.7" rx="1.5" ry="1.6" />
    <ellipse cx="10.3" cy="145.7" rx="1.5" ry="1.6" />
    <ellipse cx="5.9" cy="145.7" rx="1.5" ry="1.6" />
    <ellipse cx="1.5" cy="145.7" rx="1.5" ry="1.6" />
    <ellipse cx="115.1" cy="141.4" rx="1.5" ry="1.6" />
    <ellipse cx="110.7" cy="141.4" rx="1.5" ry="1.6" />
    <ellipse cx="106.3" cy="141.4" rx="1.5" ry="1.6" />
    <ellipse cx="102" cy="141.4" rx="1.5" ry="1.6" />
    <ellipse cx="97.6" cy="141.4" rx="1.5" ry="1.6" />
    <ellipse cx="93.2" cy="141.4" rx="1.5" ry="1.6" />
    <ellipse cx="88.9" cy="141.4" rx="1.5" ry="1.6" />
    <ellipse cx="84.5" cy="141.4" rx="1.5" ry="1.6" />
    <ellipse cx="80.1" cy="141.4" rx="1.5" ry="1.6" />
    <ellipse cx="75.8" cy="141.4" rx="1.5" ry="1.6" />
    <ellipse cx="71.4" cy="141.4" rx="1.5" ry="1.6" />
    <ellipse cx="67" cy="141.4" rx="1.5" ry="1.6" />
    <ellipse cx="62.7" cy="141.4" rx="1.5" ry="1.6" />
    <ellipse cx="58.3" cy="141.4" rx="1.5" ry="1.6" />
    <ellipse cx="32.1" cy="141.4" rx="1.5" ry="1.6" />
    <ellipse cx="27.7" cy="141.4" rx="1.5" ry="1.6" />
    <ellipse cx="23.4" cy="141.4" rx="1.5" ry="1.6" />
    <ellipse cx="19" cy="141.4" rx="1.5" ry="1.6" />
    <ellipse cx="14.6" cy="141.4" rx="1.5" ry="1.6" />
    <ellipse cx="10.3" cy="141.4" rx="1.5" ry="1.6" />
    <ellipse cx="5.9" cy="141.4" rx="1.5" ry="1.6" />
    <ellipse cx="1.5" cy="141.4" rx="1.5" ry="1.6" />
    <ellipse cx="115.1" cy="137" rx="1.5" ry="1.6" />
    <ellipse cx="110.7" cy="137" rx="1.5" ry="1.6" />
    <ellipse cx="106.3" cy="137" rx="1.5" ry="1.6" />
    <ellipse cx="102" cy="137" rx="1.5" ry="1.6" />
    <ellipse cx="97.6" cy="137" rx="1.5" ry="1.6" />
    <ellipse cx="93.2" cy="137" rx="1.5" ry="1.6" />
    <ellipse cx="88.9" cy="137" rx="1.5" ry="1.6" />
    <ellipse cx="84.5" cy="137" rx="1.5" ry="1.6" />
    <ellipse cx="80.1" cy="137" rx="1.5" ry="1.6" />
    <ellipse cx="75.8" cy="137" rx="1.5" ry="1.6" />
    <ellipse cx="71.4" cy="137" rx="1.5" ry="1.6" />
    <ellipse cx="67" cy="137" rx="1.5" ry="1.6" />
    <ellipse cx="62.7" cy="137" rx="1.5" ry="1.6" />
    <ellipse cx="36.5" cy="137" rx="1.5" ry="1.6" />
    <ellipse cx="32.1" cy="137" rx="1.5" ry="1.6" />
    <ellipse cx="27.7" cy="137" rx="1.5" ry="1.6" />
    <ellipse cx="23.4" cy="137" rx="1.5" ry="1.6" />
    <ellipse cx="19" cy="137" rx="1.5" ry="1.6" />
    <ellipse cx="14.6" cy="137" rx="1.5" ry="1.6" />
    <ellipse cx="10.3" cy="137" rx="1.5" ry="1.6" />
    <ellipse cx="5.9" cy="137" rx="1.5" ry="1.6" />
    <ellipse cx="115.1" cy="132.6" rx="1.5" ry="1.6" />
    <ellipse cx="110.7" cy="132.6" rx="1.5" ry="1.6" />
    <ellipse cx="106.3" cy="132.6" rx="1.5" ry="1.6" />
    <ellipse cx="102" cy="132.6" rx="1.5" ry="1.6" />
    <ellipse cx="97.6" cy="132.6" rx="1.5" ry="1.6" />
    <ellipse cx="93.2" cy="132.6" rx="1.5" ry="1.6" />
    <ellipse cx="88.9" cy="132.6" rx="1.5" ry="1.6" />
    <ellipse cx="84.5" cy="132.6" rx="1.5" ry="1.6" />
    <ellipse cx="80.1" cy="132.6" rx="1.5" ry="1.6" />
    <ellipse cx="75.8" cy="132.6" rx="1.5" ry="1.6" />
    <ellipse cx="71.4" cy="132.6" rx="1.5" ry="1.6" />
    <ellipse cx="67" cy="132.6" rx="1.5" ry="1.6" />
    <ellipse cx="62.7" cy="132.6" rx="1.5" ry="1.6" />
    <ellipse cx="40.8" cy="132.6" rx="1.5" ry="1.6" />
    <ellipse cx="36.5" cy="132.6" rx="1.5" ry="1.6" />
    <ellipse cx="32.1" cy="132.6" rx="1.5" ry="1.6" />
    <ellipse cx="27.7" cy="132.6" rx="1.5" ry="1.6" />
    <ellipse cx="23.4" cy="132.6" rx="1.5" ry="1.6" />
    <ellipse cx="19" cy="132.6" rx="1.5" ry="1.6" />
    <ellipse cx="14.6" cy="132.6" rx="1.5" ry="1.6" />
    <ellipse cx="10.3" cy="132.6" rx="1.5" ry="1.6" />
    <ellipse cx="110.7" cy="128.3" rx="1.5" ry="1.6" />
    <ellipse cx="106.3" cy="128.3" rx="1.5" ry="1.6" />
    <ellipse cx="97.6" cy="128.3" rx="1.5" ry="1.6" />
    <ellipse cx="93.2" cy="128.3" rx="1.5" ry="1.6" />
    <ellipse cx="88.9" cy="128.3" rx="1.5" ry="1.6" />
    <ellipse cx="84.5" cy="128.3" rx="1.5" ry="1.6" />
    <ellipse cx="80.1" cy="128.3" rx="1.5" ry="1.6" />
    <ellipse cx="75.8" cy="128.3" rx="1.5" ry="1.6" />
    <ellipse cx="71.4" cy="128.3" rx="1.5" ry="1.6" />
    <ellipse cx="67" cy="128.3" rx="1.5" ry="1.6" />
    <ellipse cx="62.7" cy="128.3" rx="1.5" ry="1.6" />
    <ellipse cx="58.3" cy="128.3" rx="1.5" ry="1.6" />
    <ellipse cx="40.8" cy="128.3" rx="1.5" ry="1.6" />
    <ellipse cx="36.5" cy="128.3" rx="1.5" ry="1.6" />
    <ellipse cx="32.1" cy="128.3" rx="1.5" ry="1.6" />
    <ellipse cx="27.7" cy="128.3" rx="1.5" ry="1.6" />
    <ellipse cx="23.4" cy="128.3" rx="1.5" ry="1.6" />
    <ellipse cx="19" cy="128.3" rx="1.5" ry="1.6" />
    <ellipse cx="14.6" cy="128.3" rx="1.5" ry="1.6" />
    <ellipse cx="10.3" cy="128.3" rx="1.5" ry="1.6" />
    <ellipse cx="102" cy="123.9" rx="1.5" ry="1.6" />
    <ellipse cx="97.6" cy="123.9" rx="1.5" ry="1.6" />
    <ellipse cx="93.2" cy="123.9" rx="1.5" ry="1.6" />
    <ellipse cx="88.9" cy="123.9" rx="1.5" ry="1.6" />
    <ellipse cx="84.5" cy="123.9" rx="1.5" ry="1.6" />
    <ellipse cx="80.1" cy="123.9" rx="1.5" ry="1.6" />
    <ellipse cx="75.8" cy="123.9" rx="1.5" ry="1.6" />
    <ellipse cx="71.4" cy="123.9" rx="1.5" ry="1.6" />
    <ellipse cx="67" cy="123.9" rx="1.5" ry="1.6" />
    <ellipse cx="62.7" cy="123.9" rx="1.5" ry="1.6" />
    <ellipse cx="58.3" cy="123.9" rx="1.5" ry="1.6" />
    <ellipse cx="40.8" cy="123.9" rx="1.5" ry="1.6" />
    <ellipse cx="36.5" cy="123.9" rx="1.5" ry="1.6" />
    <ellipse cx="32.1" cy="123.9" rx="1.5" ry="1.6" />
    <ellipse cx="27.7" cy="123.9" rx="1.5" ry="1.6" />
    <ellipse cx="23.4" cy="123.9" rx="1.5" ry="1.6" />
    <ellipse cx="19" cy="123.9" rx="1.5" ry="1.6" />
    <ellipse cx="14.6" cy="123.9" rx="1.5" ry="1.6" />
    <ellipse cx="10.3" cy="123.9" rx="1.5" ry="1.6" />
    <ellipse cx="97.6" cy="119.5" rx="1.5" ry="1.6" />
    <ellipse cx="93.2" cy="119.5" rx="1.5" ry="1.6" />
    <ellipse cx="88.9" cy="119.5" rx="1.5" ry="1.6" />
    <ellipse cx="84.5" cy="119.5" rx="1.5" ry="1.6" />
    <ellipse cx="80.1" cy="119.5" rx="1.5" ry="1.6" />
    <ellipse cx="75.8" cy="119.5" rx="1.5" ry="1.6" />
    <ellipse cx="71.4" cy="119.5" rx="1.5" ry="1.6" />
    <ellipse cx="40.8" cy="119.5" rx="1.5" ry="1.6" />
    <ellipse cx="36.5" cy="119.5" rx="1.5" ry="1.6" />
    <ellipse cx="32.1" cy="119.5" rx="1.5" ry="1.6" />
    <ellipse cx="27.7" cy="119.5" rx="1.5" ry="1.6" />
    <ellipse cx="23.4" cy="119.5" rx="1.5" ry="1.6" />
    <ellipse cx="19" cy="119.5" rx="1.5" ry="1.6" />
    <ellipse cx="14.6" cy="119.5" rx="1.5" ry="1.6" />
    <ellipse cx="10.3" cy="119.5" rx="1.5" ry="1.6" />
    <ellipse cx="5.9" cy="119.5" rx="1.5" ry="1.6" />
    <ellipse cx="97.6" cy="115.2" rx="1.5" ry="1.6" />
    <ellipse cx="93.2" cy="115.2" rx="1.5" ry="1.6" />
    <ellipse cx="88.9" cy="115.2" rx="1.5" ry="1.6" />
    <ellipse cx="84.5" cy="115.2" rx="1.5" ry="1.6" />
    <ellipse cx="80.1" cy="115.2" rx="1.5" ry="1.6" />
    <ellipse cx="75.8" cy="115.2" rx="1.5" ry="1.6" />
    <ellipse cx="71.4" cy="115.2" rx="1.5" ry="1.6" />
    <ellipse cx="40.8" cy="115.2" rx="1.5" ry="1.6" />
    <ellipse cx="36.5" cy="115.2" rx="1.5" ry="1.6" />
    <ellipse cx="32.1" cy="115.2" rx="1.5" ry="1.6" />
    <ellipse cx="27.7" cy="115.2" rx="1.5" ry="1.6" />
    <ellipse cx="23.4" cy="115.2" rx="1.5" ry="1.6" />
    <ellipse cx="19" cy="115.2" rx="1.5" ry="1.6" />
    <ellipse cx="14.6" cy="115.2" rx="1.5" ry="1.6" />
    <ellipse cx="10.3" cy="115.2" rx="1.5" ry="1.6" />
    <ellipse cx="5.9" cy="115.2" rx="1.5" ry="1.6" />
    <ellipse cx="97.6" cy="110.8" rx="1.5" ry="1.6" />
    <ellipse cx="93.2" cy="110.8" rx="1.5" ry="1.6" />
    <ellipse cx="88.9" cy="110.8" rx="1.5" ry="1.6" />
    <ellipse cx="84.5" cy="110.8" rx="1.5" ry="1.6" />
    <ellipse cx="80.1" cy="110.8" rx="1.5" ry="1.6" />
    <ellipse cx="75.8" cy="110.8" rx="1.5" ry="1.6" />
    <ellipse cx="40.8" cy="110.8" rx="1.5" ry="1.6" />
    <ellipse cx="36.5" cy="110.8" rx="1.5" ry="1.6" />
    <ellipse cx="32.1" cy="110.8" rx="1.5" ry="1.6" />
    <ellipse cx="27.7" cy="110.8" rx="1.5" ry="1.6" />
    <ellipse cx="23.4" cy="110.8" rx="1.5" ry="1.6" />
    <ellipse cx="19" cy="110.8" rx="1.5" ry="1.6" />
    <ellipse cx="14.6" cy="110.8" rx="1.5" ry="1.6" />
    <ellipse cx="10.3" cy="110.8" rx="1.5" ry="1.6" />
    <ellipse cx="5.9" cy="110.8" rx="1.5" ry="1.6" />
    <ellipse cx="93.2" cy="106.4" rx="1.5" ry="1.6" />
    <ellipse cx="88.9" cy="106.4" rx="1.5" ry="1.6" />
    <ellipse cx="84.5" cy="106.4" rx="1.5" ry="1.6" />
    <ellipse cx="80.1" cy="106.4" rx="1.5" ry="1.6" />
    <ellipse cx="75.8" cy="106.4" rx="1.5" ry="1.6" />
    <ellipse cx="71.4" cy="106.4" rx="1.5" ry="1.6" />
    <ellipse cx="58.3" cy="106.4" rx="1.5" ry="1.6" />
    <ellipse cx="45.2" cy="106.4" rx="1.5" ry="1.6" />
    <ellipse cx="40.8" cy="106.4" rx="1.5" ry="1.6" />
    <ellipse cx="36.5" cy="106.4" rx="1.5" ry="1.6" />
    <ellipse cx="32.1" cy="106.4" rx="1.5" ry="1.6" />
    <ellipse cx="27.7" cy="106.4" rx="1.5" ry="1.6" />
    <ellipse cx="23.4" cy="106.4" rx="1.5" ry="1.6" />
    <ellipse cx="19" cy="106.4" rx="1.5" ry="1.6" />
    <ellipse cx="10.3" cy="106.4" rx="1.5" ry="1.6" />
    <ellipse cx="88.9" cy="102.1" rx="1.5" ry="1.6" />
    <ellipse cx="84.5" cy="102.1" rx="1.5" ry="1.6" />
    <ellipse cx="80.1" cy="102.1" rx="1.5" ry="1.6" />
    <ellipse cx="75.8" cy="102.1" rx="1.5" ry="1.6" />
    <ellipse cx="71.4" cy="102.1" rx="1.5" ry="1.6" />
    <ellipse cx="67" cy="102.1" rx="1.5" ry="1.6" />
    <ellipse cx="45.2" cy="102.1" rx="1.5" ry="1.6" />
    <ellipse cx="40.8" cy="102.1" rx="1.5" ry="1.6" />
    <ellipse cx="36.5" cy="102.1" rx="1.5" ry="1.6" />
    <ellipse cx="32.1" cy="102.1" rx="1.5" ry="1.6" />
    <ellipse cx="27.7" cy="102.1" rx="1.5" ry="1.6" />
    <ellipse cx="23.4" cy="102.1" rx="1.5" ry="1.6" />
    <ellipse cx="19" cy="102.1" rx="1.5" ry="1.6" />
    <ellipse cx="84.5" cy="97.7" rx="1.5" ry="1.6" />
    <ellipse cx="80.1" cy="97.7" rx="1.5" ry="1.6" />
    <ellipse cx="75.8" cy="97.7" rx="1.5" ry="1.6" />
    <ellipse cx="71.4" cy="97.7" rx="1.5" ry="1.6" />
    <ellipse cx="62.7" cy="97.7" rx="1.5" ry="1.6" />
    <ellipse cx="58.3" cy="97.7" rx="1.5" ry="1.6" />
    <ellipse cx="53.9" cy="97.7" rx="1.5" ry="1.6" />
    <ellipse cx="45.2" cy="97.7" rx="1.5" ry="1.6" />
    <ellipse cx="40.8" cy="97.7" rx="1.5" ry="1.6" />
    <ellipse cx="36.5" cy="97.7" rx="1.5" ry="1.6" />
    <ellipse cx="32.1" cy="97.7" rx="1.5" ry="1.6" />
    <ellipse cx="27.7" cy="97.7" rx="1.5" ry="1.6" />
    <ellipse cx="23.4" cy="97.7" rx="1.5" ry="1.6" />
    <ellipse cx="84.5" cy="93.3" rx="1.5" ry="1.6" />
    <ellipse cx="80.1" cy="93.3" rx="1.5" ry="1.6" />
    <ellipse cx="75.8" cy="93.3" rx="1.5" ry="1.6" />
    <ellipse cx="71.4" cy="93.3" rx="1.5" ry="1.6" />
    <ellipse cx="67" cy="93.3" rx="1.5" ry="1.6" />
    <ellipse cx="62.7" cy="93.3" rx="1.5" ry="1.6" />
    <ellipse cx="58.3" cy="93.3" rx="1.5" ry="1.6" />
    <ellipse cx="53.9" cy="93.3" rx="1.5" ry="1.6" />
    <ellipse cx="40.8" cy="93.3" rx="1.5" ry="1.6" />
    <ellipse cx="36.5" cy="93.3" rx="1.5" ry="1.6" />
    <ellipse cx="32.1" cy="93.3" rx="1.5" ry="1.6" />
    <ellipse cx="27.7" cy="93.3" rx="1.5" ry="1.6" />
    <ellipse cx="23.4" cy="93.3" rx="1.5" ry="1.6" />
    <ellipse cx="84.5" cy="89" rx="1.5" ry="1.6" />
    <ellipse cx="80.1" cy="89" rx="1.5" ry="1.6" />
    <ellipse cx="75.8" cy="89" rx="1.5" ry="1.6" />
    <ellipse cx="71.4" cy="89" rx="1.5" ry="1.6" />
    <ellipse cx="67" cy="89" rx="1.5" ry="1.6" />
    <ellipse cx="62.7" cy="89" rx="1.5" ry="1.6" />
    <ellipse cx="58.3" cy="89" rx="1.5" ry="1.6" />
    <ellipse cx="45.2" cy="89" rx="1.5" ry="1.6" />
    <ellipse cx="80.1" cy="84.6" rx="1.5" ry="1.6" />
    <ellipse cx="75.8" cy="84.6" rx="1.5" ry="1.6" />
    <ellipse cx="71.4" cy="84.6" rx="1.5" ry="1.6" />
    <ellipse cx="67" cy="84.6" rx="1.5" ry="1.6" />
    <ellipse cx="62.7" cy="84.6" rx="1.5" ry="1.6" />
    <ellipse cx="58.3" cy="84.6" rx="1.5" ry="1.6" />
    <ellipse cx="53.9" cy="84.6" rx="1.5" ry="1.6" />
    <ellipse cx="49.6" cy="84.6" rx="1.5" ry="1.6" />
    <ellipse cx="45.2" cy="84.6" rx="1.5" ry="1.6" />
    <ellipse cx="40.8" cy="84.6" rx="1.5" ry="1.6" />
    <ellipse cx="80.1" cy="80.2" rx="1.5" ry="1.6" />
    <ellipse cx="75.8" cy="80.2" rx="1.5" ry="1.6" />
    <ellipse cx="71.4" cy="80.2" rx="1.5" ry="1.6" />
    <ellipse cx="67" cy="80.2" rx="1.5" ry="1.6" />
    <ellipse cx="62.7" cy="80.2" rx="1.5" ry="1.6" />
    <ellipse cx="58.3" cy="80.2" rx="1.5" ry="1.6" />
    <ellipse cx="53.9" cy="80.2" rx="1.5" ry="1.6" />
    <ellipse cx="49.6" cy="80.2" rx="1.5" ry="1.6" />
    <ellipse cx="40.8" cy="80.2" rx="1.5" ry="1.6" />
    <ellipse cx="71.4" cy="75.9" rx="1.5" ry="1.6" />
    <ellipse cx="67" cy="75.9" rx="1.5" ry="1.6" />
    <ellipse cx="62.7" cy="75.9" rx="1.5" ry="1.6" />
    <ellipse cx="58.3" cy="75.9" rx="1.5" ry="1.6" />
    <ellipse cx="53.9" cy="75.9" rx="1.5" ry="1.6" />
    <ellipse cx="49.6" cy="75.9" rx="1.5" ry="1.6" />
    <ellipse cx="45.2" cy="75.9" rx="1.5" ry="1.6" />
    <ellipse cx="71.4" cy="71.5" rx="1.5" ry="1.6" />
    <ellipse cx="67" cy="71.5" rx="1.5" ry="1.6" />
    <ellipse cx="62.7" cy="71.5" rx="1.5" ry="1.6" />
    <ellipse cx="58.3" cy="71.5" rx="1.5" ry="1.6" />
    <ellipse cx="53.9" cy="71.5" rx="1.5" ry="1.6" />
    <ellipse cx="49.6" cy="71.5" rx="1.5" ry="1.6" />
    <ellipse cx="45.2" cy="71.5" rx="1.5" ry="1.6" />
    <ellipse cx="75.8" cy="67.1" rx="1.5" ry="1.6" />
    <ellipse cx="71.4" cy="67.1" rx="1.5" ry="1.6" />
    <ellipse cx="67" cy="67.1" rx="1.5" ry="1.6" />
    <ellipse cx="62.7" cy="67.1" rx="1.5" ry="1.6" />
    <ellipse cx="58.3" cy="67.1" rx="1.5" ry="1.6" />
    <ellipse cx="53.9" cy="67.1" rx="1.5" ry="1.6" />
    <ellipse cx="49.6" cy="67.1" rx="1.5" ry="1.6" />
    <ellipse cx="45.2" cy="67.1" rx="1.5" ry="1.6" />
    <ellipse cx="40.8" cy="67.1" rx="1.5" ry="1.6" />
    <ellipse cx="80.1" cy="62.8" rx="1.5" ry="1.6" />
    <ellipse cx="75.8" cy="62.8" rx="1.5" ry="1.6" />
    <ellipse cx="71.4" cy="62.8" rx="1.5" ry="1.6" />
    <ellipse cx="67" cy="62.8" rx="1.5" ry="1.6" />
    <ellipse cx="62.7" cy="62.8" rx="1.5" ry="1.6" />
    <ellipse cx="58.3" cy="62.8" rx="1.5" ry="1.6" />
    <ellipse cx="53.9" cy="62.8" rx="1.5" ry="1.6" />
    <ellipse cx="49.6" cy="62.8" rx="1.5" ry="1.6" />
    <ellipse cx="45.2" cy="62.8" rx="1.5" ry="1.6" />
    <ellipse cx="40.8" cy="62.8" rx="1.5" ry="1.6" />
    <ellipse cx="80.1" cy="58.4" rx="1.5" ry="1.6" />
    <ellipse cx="75.8" cy="58.4" rx="1.5" ry="1.6" />
    <ellipse cx="71.4" cy="58.4" rx="1.5" ry="1.6" />
    <ellipse cx="67" cy="58.4" rx="1.5" ry="1.6" />
    <ellipse cx="62.7" cy="58.4" rx="1.5" ry="1.6" />
    <ellipse cx="58.3" cy="58.4" rx="1.5" ry="1.6" />
    <ellipse cx="53.9" cy="58.4" rx="1.5" ry="1.6" />
    <ellipse cx="49.6" cy="58.4" rx="1.5" ry="1.6" />
    <ellipse cx="45.2" cy="58.4" rx="1.5" ry="1.6" />
    <ellipse cx="40.8" cy="58.4" rx="1.5" ry="1.6" />
    <ellipse cx="80.1" cy="54" rx="1.5" ry="1.6" />
    <ellipse cx="75.8" cy="54" rx="1.5" ry="1.6" />
    <ellipse cx="71.4" cy="54" rx="1.5" ry="1.6" />
    <ellipse cx="67" cy="54" rx="1.5" ry="1.6" />
    <ellipse cx="62.7" cy="54" rx="1.5" ry="1.6" />
    <ellipse cx="58.3" cy="54" rx="1.5" ry="1.6" />
    <ellipse cx="53.9" cy="54" rx="1.5" ry="1.6" />
    <ellipse cx="49.6" cy="54" rx="1.5" ry="1.6" />
    <ellipse cx="45.2" cy="54" rx="1.5" ry="1.6" />
    <ellipse cx="40.8" cy="54" rx="1.5" ry="1.6" />
    <ellipse cx="36.5" cy="54" rx="1.5" ry="1.6" />
    <ellipse cx="80.1" cy="49.7" rx="1.5" ry="1.6" />
    <ellipse cx="75.8" cy="49.7" rx="1.5" ry="1.6" />
    <ellipse cx="71.4" cy="49.7" rx="1.5" ry="1.6" />
    <ellipse cx="67" cy="49.7" rx="1.5" ry="1.6" />
    <ellipse cx="62.7" cy="49.7" rx="1.5" ry="1.6" />
    <ellipse cx="58.3" cy="49.7" rx="1.5" ry="1.6" />
    <ellipse cx="53.9" cy="49.7" rx="1.5" ry="1.6" />
    <ellipse cx="49.6" cy="49.7" rx="1.5" ry="1.6" />
    <ellipse cx="45.2" cy="49.7" rx="1.5" ry="1.6" />
    <ellipse cx="40.8" cy="49.7" rx="1.5" ry="1.6" />
    <ellipse cx="32.1" cy="49.7" rx="1.5" ry="1.6" />
    <ellipse cx="62.7" cy="45.3" rx="1.5" ry="1.6" />
    <ellipse cx="58.3" cy="45.3" rx="1.5" ry="1.6" />
    <ellipse cx="53.9" cy="45.3" rx="1.5" ry="1.6" />
    <ellipse cx="49.6" cy="45.3" rx="1.5" ry="1.6" />
    <ellipse cx="36.5" cy="45.3" rx="1.5" ry="1.6" />
    <ellipse cx="67" cy="40.9" rx="1.5" ry="1.6" />
    <ellipse cx="62.7" cy="40.9" rx="1.5" ry="1.6" />
    <ellipse cx="58.3" cy="40.9" rx="1.5" ry="1.6" />
    <ellipse cx="53.9" cy="40.9" rx="1.5" ry="1.6" />
    <ellipse cx="49.6" cy="40.9" rx="1.5" ry="1.6" />
    <ellipse cx="40.8" cy="40.9" rx="1.5" ry="1.6" />
    <ellipse cx="36.5" cy="40.9" rx="1.5" ry="1.6" />
    <ellipse cx="71.4" cy="36.6" rx="1.5" ry="1.6" />
    <ellipse cx="67" cy="36.6" rx="1.5" ry="1.6" />
    <ellipse cx="62.7" cy="36.6" rx="1.5" ry="1.6" />
    <ellipse cx="58.3" cy="36.6" rx="1.5" ry="1.6" />
    <ellipse cx="53.9" cy="36.6" rx="1.5" ry="1.6" />
    <ellipse cx="40.8" cy="36.6" rx="1.5" ry="1.6" />
    <ellipse cx="71.4" cy="32.2" rx="1.5" ry="1.6" />
    <ellipse cx="67" cy="32.2" rx="1.5" ry="1.6" />
    <ellipse cx="53.9" cy="32.2" rx="1.5" ry="1.6" />
    <ellipse cx="71.4" cy="27.8" rx="1.5" ry="1.6" />
    <ellipse cx="75.8" cy="23.5" rx="1.5" ry="1.6" />
    <ellipse cx="71.4" cy="23.5" rx="1.5" ry="1.6" />
    <ellipse cx="71.4" cy="19.1" rx="1.5" ry="1.6" />
    <ellipse cx="88.9" cy="6" rx="1.5" ry="1.6" />
    <ellipse cx="88.9" cy="1.6" rx="1.5" ry="1.6" />
    <ellipse cx="84.5" cy="1.6" rx="1.5" ry="1.6" />
  </g>
  <g class="map__accent">
    <ellipse cx="80.1" cy="154.5" rx="1.5" ry="1.6" />
  </g>
</svg>
