<svg xmlns="http://www.w3.org/2000/svg" xml:space="preserve" id="Layer_1" x="0" y="0" style="enable-background:new 0 0 334.2 204.8;" version="1.1" viewBox="0 0 334.2 204.8"><style>.st0{fill:none;stroke:#000000;stroke-miterlimit:10;}</style><path d="M314.9 24.8 166.7 3.2 148.2.5l-20.2 35-54.6 94.6c-4.1-3.2-9.6-5.5-16.4-6.4-20.5-3-44.3 7.1-53.2 22.6s.4 30.4 20.9 33.3c20.5 3 44.3-7.1 53.2-22.6l68.6-118.8 148.2 21.6-54.6 94.6c-3.8-3.1-9.6-5.5-16.4-6.4-20.5-3-44.3 7.1-53.2 22.6s.4 30.4 20.9 33.3c20.5 3 44.3-7.1 53.2-22.6l68.6-118.8 20.2-34.9-18.5-2.8z" class="st0"/></svg>