<?xml version="1.0" encoding="utf-8"?>
<!-- Generator: Adobe Illustrator 19.1.0, SVG Export Plug-In . SVG Version: 6.00 Build 0)  -->
<svg version="1.1" id="Layer_1" xmlns="http://www.w3.org/2000/svg" xmlns:xlink="http://www.w3.org/1999/xlink" x="0px" y="0px"
	 viewBox="0 0 960 560" style="enable-background:new 0 0 960 560;" xml:space="preserve">
<style type="text/css">
	.st0{fill:url(#SVGID_1_);}
	.st1{fill:url(#SVGID_2_);}
	.st2{fill:url(#SVGID_3_);}
	.st3{fill:url(#SVGID_4_);}
	.st4{fill:url(#SVGID_5_);}
	.st5{fill:url(#SVGID_6_);}
	.st6{fill:url(#SVGID_7_);}
	.st7{fill:url(#SVGID_8_);}
	.st8{fill:url(#SVGID_9_);}
	.st9{fill:url(#SVGID_10_);}
	.st10{fill:url(#SVGID_11_);}
	.st11{fill:url(#SVGID_12_);}
	.st12{fill:url(#SVGID_13_);}
	.st13{fill:url(#SVGID_14_);}
	.st14{fill:url(#SVGID_15_);}
	.st15{fill:url(#SVGID_16_);}
	.st16{fill:url(#SVGID_17_);}
	.st17{fill:url(#SVGID_18_);}
	.st18{fill:url(#SVGID_19_);}
	.st19{fill:url(#SVGID_20_);}
	.st20{fill:url(#SVGID_21_);}
	.st21{fill:url(#SVGID_22_);}
	.st22{fill:url(#SVGID_23_);}
	.st23{fill:url(#SVGID_24_);}
	.st24{fill:url(#SVGID_25_);}
	.st25{fill:url(#SVGID_26_);}
	.st26{fill:url(#SVGID_27_);}
	.st27{fill:url(#SVGID_28_);}
	.st28{fill:url(#SVGID_29_);}
	.st29{fill:url(#SVGID_30_);}
	.st30{fill:url(#SVGID_31_);}
	.st31{fill:url(#SVGID_32_);}
	.st32{fill:url(#SVGID_33_);}
	.st33{fill:url(#SVGID_34_);}
	.st34{fill:url(#SVGID_35_);}
	.st35{fill:url(#SVGID_36_);}
	.st36{fill:url(#SVGID_37_);}
	.st37{fill:url(#SVGID_38_);}
	.st38{fill:url(#SVGID_39_);}
	.st39{fill:url(#SVGID_40_);}
	.st40{fill:url(#SVGID_41_);}
	.st41{fill:url(#SVGID_42_);}
	.st42{fill:url(#SVGID_43_);}
	.st43{fill:url(#SVGID_44_);}
	.st44{fill:url(#SVGID_45_);}
	.st45{fill:url(#SVGID_46_);}
	.st46{fill:url(#SVGID_47_);}
	.st47{fill:url(#SVGID_48_);}
	.st48{fill:url(#SVGID_49_);}
	.st49{fill:url(#SVGID_50_);}
	.st50{fill:url(#SVGID_51_);}
	.st51{fill:url(#SVGID_52_);}
	.st52{fill:url(#SVGID_53_);}
	.st53{fill:url(#SVGID_54_);}
	.st54{fill:url(#SVGID_55_);}
	.st55{fill:url(#SVGID_56_);}
	.st56{fill:url(#SVGID_57_);}
	.st57{fill:url(#SVGID_58_);}
	.st58{fill:url(#SVGID_59_);}
	.st59{fill:url(#SVGID_60_);}
	.st60{fill:url(#SVGID_61_);}
	.st61{fill:url(#SVGID_62_);}
	.st62{fill:url(#SVGID_63_);}
	.st63{fill:url(#SVGID_64_);}
	.st64{fill:url(#SVGID_65_);}
	.st65{fill:url(#SVGID_66_);}
	.st66{fill:url(#SVGID_67_);}
	.st67{fill:url(#SVGID_68_);}
	.st68{fill:url(#SVGID_69_);}
	.st69{fill:url(#SVGID_70_);}
	.st70{fill:url(#SVGID_71_);}
	.st71{fill:url(#SVGID_72_);}
	.st72{fill:url(#SVGID_73_);}
	.st73{fill:url(#SVGID_74_);}
	.st74{fill:url(#SVGID_75_);}
	.st75{fill:url(#SVGID_76_);}
	.st76{fill:url(#SVGID_77_);}
	.st77{fill:url(#SVGID_78_);}
	.st78{fill:url(#SVGID_79_);}
	.st79{fill:url(#SVGID_80_);}
	.st80{fill:url(#SVGID_81_);}
	.st81{fill:url(#SVGID_82_);}
	.st82{fill:url(#SVGID_83_);}
	.st83{fill:url(#SVGID_84_);}
	.st84{fill:url(#SVGID_85_);}
	.st85{fill:url(#SVGID_86_);}
	.st86{fill:url(#SVGID_87_);}
	.st87{fill:url(#SVGID_88_);}
	.st88{fill:url(#SVGID_89_);}
	.st89{fill:url(#SVGID_90_);}
	.st90{fill:url(#SVGID_91_);}
	.st91{fill:url(#SVGID_92_);}
	.st92{fill:url(#SVGID_93_);}
	.st93{fill:url(#SVGID_94_);}
	.st94{fill:url(#SVGID_95_);}
	.st95{fill:url(#SVGID_96_);}
	.st96{fill:url(#SVGID_97_);}
	.st97{fill:url(#SVGID_98_);}
	.st98{fill:url(#SVGID_99_);}
	.st99{fill:url(#SVGID_100_);}
	.st100{fill:url(#SVGID_101_);}
	.st101{fill:url(#SVGID_102_);}
	.st102{fill:url(#SVGID_103_);}
	.st103{fill:url(#SVGID_104_);}
	.st104{fill:url(#SVGID_105_);}
	.st105{fill:url(#SVGID_106_);}
	.st106{fill:url(#SVGID_107_);}
	.st107{fill:url(#SVGID_108_);}
	.st108{fill:url(#SVGID_109_);}
	.st109{fill:url(#SVGID_110_);}
	.st110{fill:url(#SVGID_111_);}
	.st111{fill:url(#SVGID_112_);}
	.st112{fill:url(#SVGID_113_);}
	.st113{fill:url(#SVGID_114_);}
	.st114{fill:url(#SVGID_115_);}
	.st115{fill:url(#SVGID_116_);}
	.st116{fill:url(#SVGID_117_);}
	.st117{fill:url(#SVGID_118_);}
	.st118{fill:url(#SVGID_119_);}
	.st119{fill:url(#SVGID_120_);}
	.st120{fill:url(#SVGID_121_);}
	.st121{fill:url(#SVGID_122_);}
	.st122{fill:url(#SVGID_123_);}
	.st123{fill:url(#SVGID_124_);}
	.st124{fill:url(#SVGID_125_);}
	.st125{fill:url(#SVGID_126_);}
	.st126{fill:url(#SVGID_127_);}
	.st127{fill:url(#SVGID_128_);}
	.st128{fill:url(#SVGID_129_);}
	.st129{fill:url(#SVGID_130_);}
	.st130{fill:url(#SVGID_131_);}
	.st131{fill:url(#SVGID_132_);}
	.st132{fill:url(#SVGID_133_);}
	.st133{fill:url(#SVGID_134_);}
	.st134{fill:url(#SVGID_135_);}
	.st135{fill:url(#SVGID_136_);}
	.st136{fill:url(#SVGID_137_);}
	.st137{fill:url(#SVGID_138_);}
	.st138{fill:url(#SVGID_139_);}
	.st139{fill:url(#SVGID_140_);}
	.st140{fill:url(#SVGID_141_);}
	.st141{fill:url(#SVGID_142_);}
	.st142{fill:url(#SVGID_143_);}
	.st143{fill:url(#SVGID_144_);}
	.st144{fill:url(#SVGID_145_);}
	.st145{fill:url(#SVGID_146_);}
	.st146{fill:url(#SVGID_147_);}
	.st147{fill:url(#SVGID_148_);}
	.st148{fill:url(#SVGID_149_);}
	.st149{fill:url(#SVGID_150_);}
	.st150{fill:url(#SVGID_151_);}
	.st151{fill:url(#SVGID_152_);}
</style>
<g>
	
		<linearGradient id="SVGID_1_" gradientUnits="userSpaceOnUse" x1="-541.6405" y1="58.0444" x2="-1935.5411" y2="197.3831" gradientTransform="matrix(0.5132 0.3661 -0.3661 0.5132 -92.2435 819.7321)">
		<stop  offset="0" style="stop-color:#0C1325"/>
		<stop  offset="0.6656" style="stop-color:#10B981"/>
		<stop  offset="1" style="stop-color:#ECFDF5"/>
	</linearGradient>
	<path class="st0" d="M-362,910.1c-299.5,172.9-635.7,151.2-750.9-48.4s34.2-501.6,333.7-674.4s635.7-151.2,750.9,48.4
		S-62.5,737.2-362,910.1z"/>
	
		<linearGradient id="SVGID_2_" gradientUnits="userSpaceOnUse" x1="-530.7073" y1="19.311" x2="-1942.3871" y2="160.5752" gradientTransform="matrix(0.5042 0.3682 -0.3682 0.5042 -95.6879 819.5392)">
		<stop  offset="0" style="stop-color:#0C1325"/>
		<stop  offset="0.6656" style="stop-color:#10B981"/>
		<stop  offset="1" style="stop-color:#ECFDF5"/>
	</linearGradient>
	<path class="st1" d="M-352.2,893.7c-303.1,164.5-637.7,134.2-747.3-67.8s47.2-499.1,350.3-663.6S-111.6,28.1-1.9,230.1
		S-49.1,729.1-352.2,893.7z"/>
	
		<linearGradient id="SVGID_3_" gradientUnits="userSpaceOnUse" x1="-518.3902" y1="-20.0456" x2="-1948.0687" y2="123.17" gradientTransform="matrix(0.4951 0.3707 -0.3707 0.4951 -99.6258 819.2773)">
		<stop  offset="0" style="stop-color:#0C1325"/>
		<stop  offset="0.6656" style="stop-color:#10B981"/>
		<stop  offset="1" style="stop-color:#ECFDF5"/>
	</linearGradient>
	<path class="st2" d="M-342.3,877.7c-306.6,155.8-639.3,116.4-743.1-87.9c-103.8-204.3,60.6-496.2,367.2-652S-79,21.4,24.8,225.7
		S-35.7,721.9-342.3,877.7z"/>
	
		<linearGradient id="SVGID_4_" gradientUnits="userSpaceOnUse" x1="-504.6299" y1="-59.9826" x2="-1952.5031" y2="85.2076" gradientTransform="matrix(0.4858 0.3734 -0.3734 0.4858 -104.0816 818.8923)">
		<stop  offset="0" style="stop-color:#0C1325"/>
		<stop  offset="0.6656" style="stop-color:#10B981"/>
		<stop  offset="1" style="stop-color:#ECFDF5"/>
	</linearGradient>
	<path class="st3" d="M-332.3,862.1c-310,146.6-640.5,98-738.2-108.6C-1168.3,547-996.2,260.6-686.2,114S-45.7,16,52.1,222.6
		S-22.3,715.5-332.3,862.1z"/>
	
		<linearGradient id="SVGID_5_" gradientUnits="userSpaceOnUse" x1="-489.3682" y1="-100.4518" x2="-1955.6055" y2="46.734" gradientTransform="matrix(0.4763 0.3765 -0.3765 0.4763 -109.0727 818.321)">
		<stop  offset="0" style="stop-color:#0C1325"/>
		<stop  offset="0.6656" style="stop-color:#10B981"/>
		<stop  offset="1" style="stop-color:#ECFDF5"/>
	</linearGradient>
	<path class="st4" d="M-322.3,847c-313.3,137.1-641.3,78.9-732.7-129.9C-1146.3,508.4-966.3,228-653,91S-11.7,12.1,79.7,220.8
		S-9,710-322.3,847z"/>
	
		<linearGradient id="SVGID_6_" gradientUnits="userSpaceOnUse" x1="-472.5492" y1="-141.3988" x2="-1957.2899" y2="7.8005" gradientTransform="matrix(0.4666 0.3799 -0.3799 0.4666 -114.608 817.4916)">
		<stop  offset="0" style="stop-color:#0C1325"/>
		<stop  offset="0.6656" style="stop-color:#10B981"/>
		<stop  offset="1" style="stop-color:#ECFDF5"/>
	</linearGradient>
	<path class="st5" d="M-312.1,832.4c-316.5,127.1-641.6,59.1-726.3-151.8s103.2-484.8,419.7-611.9S22.9,9.6,107.6,220.5
		S4.3,705.4-312.1,832.4z"/>
	
		<linearGradient id="SVGID_7_" gradientUnits="userSpaceOnUse" x1="-454.1193" y1="-182.7631" x2="-1957.4697" y2="-31.5359" gradientTransform="matrix(0.4567 0.3836 -0.3836 0.4567 -120.6862 816.324)">
		<stop  offset="0" style="stop-color:#0C1325"/>
		<stop  offset="0.6656" style="stop-color:#10B981"/>
		<stop  offset="1" style="stop-color:#ECFDF5"/>
	</linearGradient>
	<path class="st6" d="M-301.9,818.2c-319.4,116.6-641.4,38.6-719.1-174.3s118.2-480,437.6-596.6S58,8.8,135.8,221.6
		S17.5,701.6-301.9,818.2z"/>
	
		<linearGradient id="SVGID_8_" gradientUnits="userSpaceOnUse" x1="-434.028" y1="-224.4781" x2="-1956.058" y2="-71.2119" gradientTransform="matrix(0.4466 0.3876 -0.3876 0.4466 -127.2929 814.7306)">
		<stop  offset="0" style="stop-color:#0C1325"/>
		<stop  offset="0.6656" style="stop-color:#10B981"/>
		<stop  offset="1" style="stop-color:#ECFDF5"/>
	</linearGradient>
	<path class="st7" d="M-291.5,804.5c-322.2,105.8-640.5,17.5-710.9-197.2S-868.9,132.8-546.8,27S93.7,9.5,164.2,224.2
		S30.6,698.7-291.5,804.5z"/>
	
		<linearGradient id="SVGID_9_" gradientUnits="userSpaceOnUse" x1="-412.2289" y1="-266.4706" x2="-1952.9681" y2="-111.1585" gradientTransform="matrix(0.4353 0.3929 -0.3929 0.4353 -139.236 815.7906)">
		<stop  offset="0" style="stop-color:#0C1325"/>
		<stop  offset="0.6656" style="stop-color:#10B981"/>
		<stop  offset="1" style="stop-color:#ECFDF5"/>
	</linearGradient>
	<path class="st8" d="M-285.9,794c-324.9,93.6-638.9-6-701.3-222.5S-836.8,103.6-511.9,9.9s638.9,6,701.3,222.5S39,700.3-285.9,794z
		"/>
	
		<linearGradient id="SVGID_10_" gradientUnits="userSpaceOnUse" x1="-388.68" y1="-308.6611" x2="-1948.1146" y2="-151.3007" gradientTransform="matrix(0.4228 0.3994 -0.3994 0.4228 -160.0105 821.159)">
		<stop  offset="0" style="stop-color:#0C1325"/>
		<stop  offset="0.6656" style="stop-color:#10B981"/>
		<stop  offset="1" style="stop-color:#ECFDF5"/>
	</linearGradient>
	<path class="st9" d="M-288.3,788.6c-327.4,80.4-636.3-31.3-689.9-249.5S-809.7,78.8-482.3-1.6S154,29.8,207.5,248
		S39.1,708.2-288.3,788.6z"/>
	
		<linearGradient id="SVGID_11_" gradientUnits="userSpaceOnUse" x1="-363.3444" y1="-350.9639" x2="-1941.4141" y2="-191.5572" gradientTransform="matrix(0.4118 0.4042 -0.4042 0.4118 -179.3989 824.1577)">
		<stop  offset="0" style="stop-color:#0C1325"/>
		<stop  offset="0.6656" style="stop-color:#10B981"/>
		<stop  offset="1" style="stop-color:#ECFDF5"/>
	</linearGradient>
	<path class="st10" d="M-288.9,782.7c-329.2,68.1-632.9-54.6-678.2-274c-45.4-219.4,184.8-452.4,514-520.5s632.9,54.6,678.2,274
		S40.3,714.6-288.9,782.7z"/>
	
		<linearGradient id="SVGID_12_" gradientUnits="userSpaceOnUse" x1="-336.1915" y1="-393.2869" x2="-1932.7854" y2="-231.8412" gradientTransform="matrix(0.4021 0.4077 -0.4077 0.4021 -197.3303 825.1)">
		<stop  offset="0" style="stop-color:#0C1325"/>
		<stop  offset="0.6656" style="stop-color:#10B981"/>
		<stop  offset="1" style="stop-color:#ECFDF5"/>
	</linearGradient>
	<path class="st11" d="M-287.8,776.3c-330.4,56.6-628.8-76-666.6-296.1S-754.8,35.5-424.4-21.1s628.8,76,666.6,296.1
		S42.7,719.6-287.8,776.3z"/>
	
		<linearGradient id="SVGID_13_" gradientUnits="userSpaceOnUse" x1="-307.1971" y1="-435.532" x2="-1922.1511" y2="-272.0601" gradientTransform="matrix(0.3937 0.41 -0.41 0.3937 -213.7734 824.2678)">
		<stop  offset="0" style="stop-color:#0C1325"/>
		<stop  offset="0.6656" style="stop-color:#10B981"/>
		<stop  offset="1" style="stop-color:#ECFDF5"/>
	</linearGradient>
	<path class="st12" d="M-284.9,769.5c-331.1,46-624.3-95.5-655-316.1S-727.1,16.6-396-29.4s624.3,95.5,655,316.1
		S46.2,723.5-284.9,769.5z"/>
	
		<linearGradient id="SVGID_14_" gradientUnits="userSpaceOnUse" x1="-276.3448" y1="-477.5955" x2="-1909.4382" y2="-312.1158" gradientTransform="matrix(0.3864 0.4113 -0.4113 0.3864 -228.7267 821.9119)">
		<stop  offset="0" style="stop-color:#0C1325"/>
		<stop  offset="0.6656" style="stop-color:#10B981"/>
		<stop  offset="1" style="stop-color:#ECFDF5"/>
	</linearGradient>
	<path class="st13" d="M-280.4,762.6C-611.7,798.8-899.9,649.2-924,428.4S-699.2-0.7-367.8-37S251.6,76.4,275.8,297.2
		S51,726.3-280.4,762.6z"/>
	
		<linearGradient id="SVGID_15_" gradientUnits="userSpaceOnUse" x1="-243.626" y1="-519.3682" x2="-1894.5791" y2="-351.9054" gradientTransform="matrix(0.3804 0.4118 -0.4118 0.3804 -242.2094 818.2524)">
		<stop  offset="0" style="stop-color:#0C1325"/>
		<stop  offset="0.6656" style="stop-color:#10B981"/>
		<stop  offset="1" style="stop-color:#ECFDF5"/>
	</linearGradient>
	<path class="st14" d="M-274.3,755.5C-605.6,782.7-888.7,625.8-906.9,405S-671.1-16.6-339.9-43.8S274.5,85.9,292.6,306.6
		C310.7,527.3,56.9,728.3-274.3,755.5z"/>
	
		<linearGradient id="SVGID_16_" gradientUnits="userSpaceOnUse" x1="-209.0412" y1="-560.7363" x2="-1877.5122" y2="-391.3212" gradientTransform="matrix(0.3754 0.4115 -0.4115 0.3754 -254.256 813.482)">
		<stop  offset="0" style="stop-color:#0C1325"/>
		<stop  offset="0.6656" style="stop-color:#10B981"/>
		<stop  offset="1" style="stop-color:#ECFDF5"/>
	</linearGradient>
	<path class="st15" d="M-266.9,748.3C-597.7,767.1-876,603.6-888.6,383.2S-643-31.3-312.2-50.1S297,94.7,309.5,315.1
		S64,729.5-266.9,748.3z"/>
	
		<linearGradient id="SVGID_17_" gradientUnits="userSpaceOnUse" x1="-172.6001" y1="-601.5816" x2="-1858.1835" y2="-430.2518" gradientTransform="matrix(0.3713 0.4105 -0.4105 0.3713 -264.9108 807.7678)">
		<stop  offset="0" style="stop-color:#0C1325"/>
		<stop  offset="0.6656" style="stop-color:#10B981"/>
		<stop  offset="1" style="stop-color:#ECFDF5"/>
	</linearGradient>
	<path class="st16" d="M-258,741.2c-330.2,11-603.9-158.4-611.2-378.5S-614.8-44.7-284.6-55.7s603.9,158.4,611.2,378.5
		S72.2,730.2-258,741.2z"/>
	
		<linearGradient id="SVGID_18_" gradientUnits="userSpaceOnUse" x1="-134.3227" y1="-641.7825" x2="-1836.5471" y2="-468.5824" gradientTransform="matrix(0.3682 0.409 -0.409 0.3682 -274.2245 801.2548)">
		<stop  offset="0" style="stop-color:#0C1325"/>
		<stop  offset="0.6656" style="stop-color:#10B981"/>
		<stop  offset="1" style="stop-color:#ECFDF5"/>
	</linearGradient>
	<path class="st17" d="M-247.9,734C-577.3,737.9-846.4,563-849,343.5S-586.5-57.1-257.1-60.9S341.4,110.1,344,329.6
		S81.5,730.2-247.9,734z"/>
	
		<linearGradient id="SVGID_19_" gradientUnits="userSpaceOnUse" x1="-94.2393" y1="-681.2147" x2="-1812.5664" y2="-506.1956" gradientTransform="matrix(0.3659 0.407 -0.407 0.3659 -282.2514 794.0681)">
		<stop  offset="0" style="stop-color:#0C1325"/>
		<stop  offset="0.6656" style="stop-color:#10B981"/>
		<stop  offset="1" style="stop-color:#ECFDF5"/>
	</linearGradient>
	<path class="st18" d="M-236.6,727c-328.5-2.9-593.2-182.6-591.3-401.5c1.9-218.9,269.7-394,598.2-391.2
		c328.5,2.9,593.2,182.6,591.3,401.5C359.7,554.7,91.9,729.9-236.6,727z"/>
	
		<linearGradient id="SVGID_20_" gradientUnits="userSpaceOnUse" x1="-52.3908" y1="-719.752" x2="-1786.2147" y2="-542.9722" gradientTransform="matrix(0.3644 0.4047 -0.4047 0.3644 -289.0478 786.3155)">
		<stop  offset="0" style="stop-color:#0C1325"/>
		<stop  offset="0.6656" style="stop-color:#10B981"/>
		<stop  offset="1" style="stop-color:#ECFDF5"/>
	</linearGradient>
	<path class="st19" d="M-224.1,720.1C-551.5,711-812,526.8-805.9,308.6c6-218.2,276.3-387.7,603.7-378.6s587.9,193.3,581.9,411.4
		S103.3,729.1-224.1,720.1z"/>
	
		<linearGradient id="SVGID_21_" gradientUnits="userSpaceOnUse" x1="-8.8296" y1="-757.2674" x2="-1757.4764" y2="-578.7925" gradientTransform="matrix(0.3637 0.4019 -0.4019 0.3637 -294.6702 778.0901)">
		<stop  offset="0" style="stop-color:#0C1325"/>
		<stop  offset="0.6656" style="stop-color:#10B981"/>
		<stop  offset="1" style="stop-color:#ECFDF5"/>
	</linearGradient>
	<path class="st20" d="M-210.5,713.2c-326.2-14.8-582.7-203.1-572.8-420.4S-501-88.8-174.8-74S407.9,129.1,398,346.5
		S115.7,728.1-210.5,713.2z"/>
	
		<linearGradient id="SVGID_22_" gradientUnits="userSpaceOnUse" x1="36.3811" y1="-793.6342" x2="-1726.3472" y2="-613.5368" gradientTransform="matrix(0.3635 0.3989 -0.3989 0.3635 -299.1746 769.4723)">
		<stop  offset="0" style="stop-color:#0C1325"/>
		<stop  offset="0.6656" style="stop-color:#10B981"/>
		<stop  offset="1" style="stop-color:#ECFDF5"/>
	</linearGradient>
	<path class="st21" d="M-196,706.6C-520.9,686.4-773.5,494.5-760,278C-746.6,61.4-472.3-97.8-147.3-77.6S430.2,134.4,416.7,351
		S129,726.8-196,706.6z"/>
	
		<linearGradient id="SVGID_23_" gradientUnits="userSpaceOnUse" x1="83.1667" y1="-828.727" x2="-1692.8351" y2="-647.0868" gradientTransform="matrix(0.364 0.3956 -0.3956 0.364 -302.6158 760.531)">
		<stop  offset="0" style="stop-color:#0C1325"/>
		<stop  offset="0.6656" style="stop-color:#10B981"/>
		<stop  offset="1" style="stop-color:#ECFDF5"/>
	</linearGradient>
	<path class="st22" d="M-180.5,700.1C-504.1,675-752.9,479.7-736.1,264.1s292.7-370.1,616.4-345s572.4,220.4,555.7,436.1
		S143.2,725.3-180.5,700.1z"/>
	
		<linearGradient id="SVGID_24_" gradientUnits="userSpaceOnUse" x1="131.4415" y1="-862.4229" x2="-1656.9609" y2="-679.3265" gradientTransform="matrix(0.3651 0.392 -0.392 0.3651 -305.0473 751.3257)">
		<stop  offset="0" style="stop-color:#0C1325"/>
		<stop  offset="0.6656" style="stop-color:#10B981"/>
		<stop  offset="1" style="stop-color:#ECFDF5"/>
	</linearGradient>
	<path class="st23" d="M-164.1,693.8C-486.3,664-731.5,465.8-711.7,251S-414.5-113.7-92.2-83.9s567.5,228,547.6,442.8
		S158.2,723.6-164.1,693.8z"/>
	
		<linearGradient id="SVGID_25_" gradientUnits="userSpaceOnUse" x1="181.1095" y1="-894.6027" x2="-1618.7585" y2="-710.1433" gradientTransform="matrix(0.3666 0.3883 -0.3883 0.3666 -306.5205 741.908)">
		<stop  offset="0" style="stop-color:#0C1325"/>
		<stop  offset="0.6656" style="stop-color:#10B981"/>
		<stop  offset="1" style="stop-color:#ECFDF5"/>
	</linearGradient>
	<path class="st24" d="M-146.8,687.7c-320.9-34.1-562.6-235.1-539.8-449C-663.9,24.9-385.4-120.8-64.5-86.7s562.6,235.1,539.8,449
		C452.6,576.1,174.1,721.8-146.8,687.7z"/>
	
		<linearGradient id="SVGID_26_" gradientUnits="userSpaceOnUse" x1="232.0643" y1="-925.1522" x2="-1578.2751" y2="-739.4294" gradientTransform="matrix(0.3687 0.3844 -0.3844 0.3687 -307.0848 732.3219)">
		<stop  offset="0" style="stop-color:#0C1325"/>
		<stop  offset="0.6656" style="stop-color:#10B981"/>
		<stop  offset="1" style="stop-color:#ECFDF5"/>
	</linearGradient>
	<path class="st25" d="M-128.7,681.8c-319.5-38.2-557.8-241.7-532.4-454.6c25.4-212.9,305-354.5,624.5-316.4
		s557.8,241.7,532.4,454.6C470.3,578.3,190.7,720-128.7,681.8z"/>
	
		<linearGradient id="SVGID_27_" gradientUnits="userSpaceOnUse" x1="284.1897" y1="-953.9632" x2="-1535.571" y2="-767.0826" gradientTransform="matrix(0.3711 0.3804 -0.3804 0.3711 -306.788 722.6057)">
		<stop  offset="0" style="stop-color:#0C1325"/>
		<stop  offset="0.6656" style="stop-color:#10B981"/>
		<stop  offset="1" style="stop-color:#ECFDF5"/>
	</linearGradient>
	<path class="st26" d="M-109.9,676.1c-318-41.9-553.2-247.7-525.2-459.6C-607.2,4.5-326.8-133.3-8.7-91.4s553.2,247.7,525.2,459.6
		C488.5,580.2,208.1,718-109.9,676.1z"/>
	
		<linearGradient id="SVGID_28_" gradientUnits="userSpaceOnUse" x1="337.3612" y1="-980.9347" x2="-1490.7196" y2="-793.0074" gradientTransform="matrix(0.374 0.3762 -0.3762 0.374 -305.6755 712.7924)">
		<stop  offset="0" style="stop-color:#0C1325"/>
		<stop  offset="0.6656" style="stop-color:#10B981"/>
		<stop  offset="1" style="stop-color:#ECFDF5"/>
	</linearGradient>
	<path class="st27" d="M-90.4,670.6C-407,625.1-639,417.3-608.7,206.3s311.5-345.1,628-299.7S567.9,160,537.6,370.9
		S226.1,716-90.4,670.6z"/>
	
		<linearGradient id="SVGID_29_" gradientUnits="userSpaceOnUse" x1="391.4461" y1="-1005.9739" x2="-1443.8073" y2="-817.1165" gradientTransform="matrix(0.3773 0.3719 -0.3719 0.3773 -303.7913 702.9102)">
		<stop  offset="0" style="stop-color:#0C1325"/>
		<stop  offset="0.6656" style="stop-color:#10B981"/>
		<stop  offset="1" style="stop-color:#ECFDF5"/>
	</linearGradient>
	<path class="st28" d="M-70.2,665.3c-315.1-48.8-544.2-258.5-511.7-468.5c32.5-210,314.3-340.7,629.4-291.9s544.2,258.5,511.7,468.5
		S244.9,714.1-70.2,665.3z"/>
	
		<linearGradient id="SVGID_30_" gradientUnits="userSpaceOnUse" x1="446.3051" y1="-1028.9976" x2="-1394.9326" y2="-839.3307" gradientTransform="matrix(0.3809 0.3675 -0.3675 0.3809 -301.1771 692.9837)">
		<stop  offset="0" style="stop-color:#0C1325"/>
		<stop  offset="0.6656" style="stop-color:#10B981"/>
		<stop  offset="1" style="stop-color:#ECFDF5"/>
	</linearGradient>
	<path class="st29" d="M-49.4,660.2C-363,608.4-589.2,396.9-554.6,187.9S-237.8-148.5,75.8-96.6S615.6,166.7,581,375.7
		C546.5,584.7,264.2,712.1-49.4,660.2z"/>
	
		<linearGradient id="SVGID_31_" gradientUnits="userSpaceOnUse" x1="501.7933" y1="-1049.9323" x2="-1344.2054" y2="-859.581" gradientTransform="matrix(0.3849 0.363 -0.363 0.3849 -297.8731 683.0339)">
		<stop  offset="0" style="stop-color:#0C1325"/>
		<stop  offset="0.6656" style="stop-color:#10B981"/>
		<stop  offset="1" style="stop-color:#ECFDF5"/>
	</linearGradient>
	<path class="st30" d="M-27.9,655.3c-312.1-54.8-535.6-267.8-499.1-475.8s319.1-332.2,631.3-277.5s535.6,267.8,499.1,475.8
		S284.2,710.1-27.9,655.3z"/>
	
		<linearGradient id="SVGID_32_" gradientUnits="userSpaceOnUse" x1="557.7615" y1="-1068.7157" x2="-1291.7468" y2="-877.8081" gradientTransform="matrix(0.3892 0.3584 -0.3584 0.3892 -293.9181 673.0791)">
		<stop  offset="0" style="stop-color:#0C1325"/>
		<stop  offset="0.6656" style="stop-color:#10B981"/>
		<stop  offset="1" style="stop-color:#ECFDF5"/>
	</linearGradient>
	<path class="st31" d="M-6,650.7c-310.7-57.5-531.5-271.9-493.2-479s321.2-328.3,631.9-270.8s531.5,271.9,493.2,479
		C587.6,586.9,304.7,708.2-6,650.7z"/>
	
		<linearGradient id="SVGID_33_" gradientUnits="userSpaceOnUse" x1="614.0574" y1="-1085.297" x2="-1237.6871" y2="-893.9639" gradientTransform="matrix(0.3937 0.3537 -0.3537 0.3937 -289.3489 663.1347)">
		<stop  offset="0" style="stop-color:#0C1325"/>
		<stop  offset="0.6656" style="stop-color:#10B981"/>
		<stop  offset="1" style="stop-color:#ECFDF5"/>
	</linearGradient>
	<path class="st32" d="M16.6,646.2c-309.2-60-527.4-275.8-487.4-481.8S-147.7-160,161.5-100s527.4,275.8,487.4,481.8
		S325.8,706.2,16.6,646.2z"/>
	
		<linearGradient id="SVGID_34_" gradientUnits="userSpaceOnUse" x1="670.527" y1="-1099.6372" x2="-1182.1652" y2="-908.0114" gradientTransform="matrix(0.3985 0.349 -0.349 0.3985 -284.2014 653.2141)">
		<stop  offset="0" style="stop-color:#0C1325"/>
		<stop  offset="0.6656" style="stop-color:#10B981"/>
		<stop  offset="1" style="stop-color:#ECFDF5"/>
	</linearGradient>
	<path class="st33" d="M39.6,641.9c-307.7-62.4-523.5-279.3-481.9-484.4s324.8-320.7,632.6-258.3s523.5,279.3,481.9,484.4
		C630.5,588.8,347.3,704.4,39.6,641.9z"/>
	
		<linearGradient id="SVGID_35_" gradientUnits="userSpaceOnUse" x1="727.0164" y1="-1111.7097" x2="-1125.3274" y2="-919.9252" gradientTransform="matrix(0.4036 0.3443 -0.3443 0.4036 -278.5097 643.3287)">
		<stop  offset="0" style="stop-color:#0C1325"/>
		<stop  offset="0.6656" style="stop-color:#10B981"/>
		<stop  offset="1" style="stop-color:#ECFDF5"/>
	</linearGradient>
	<path class="st34" d="M63.1,637.9c-306.3-64.7-519.6-282.6-476.5-486.7S-87.1-166,219.2-101.3s519.6,282.6,476.5,486.7
		C652.6,589.6,369.4,702.6,63.1,637.9z"/>
	
		<linearGradient id="SVGID_36_" gradientUnits="userSpaceOnUse" x1="783.3726" y1="-1121.5004" x2="-1067.3257" y2="-929.6917" gradientTransform="matrix(0.4089 0.3395 -0.3395 0.4089 -272.3072 633.4881)">
		<stop  offset="0" style="stop-color:#0C1325"/>
		<stop  offset="0.6656" style="stop-color:#10B981"/>
		<stop  offset="1" style="stop-color:#ECFDF5"/>
	</linearGradient>
	<path class="st35" d="M87,634c-304.9-66.8-515.9-285.7-471.3-488.8s327.8-313.7,632.6-246.8S764.1,184,719.6,387.2
		S391.8,700.9,87,634z"/>
	
		<linearGradient id="SVGID_37_" gradientUnits="userSpaceOnUse" x1="839.4452" y1="-1129.0072" x2="-1008.3166" y2="-937.3087" gradientTransform="matrix(0.4144 0.3346 -0.3346 0.4144 -265.6258 623.7005)">
		<stop  offset="0" style="stop-color:#0C1325"/>
		<stop  offset="0.6656" style="stop-color:#10B981"/>
		<stop  offset="1" style="stop-color:#ECFDF5"/>
	</linearGradient>
	<path class="st36" d="M111.3,630.4C-192.1,561.5-400.9,341.8-355,139.6s329-310.3,632.4-241.5s512.2,288.5,466.3,490.7
		C697.9,591.1,414.7,699.2,111.3,630.4z"/>
	
		<linearGradient id="SVGID_38_" gradientUnits="userSpaceOnUse" x1="895.0875" y1="-1134.2407" x2="-948.4598" y2="-942.7856" gradientTransform="matrix(0.4201 0.3297 -0.3297 0.4201 -258.4964 613.9729)">
		<stop  offset="0" style="stop-color:#0C1325"/>
		<stop  offset="0.6656" style="stop-color:#10B981"/>
		<stop  offset="1" style="stop-color:#ECFDF5"/>
	</linearGradient>
	<path class="st37" d="M136,626.9c-302-70.7-508.6-291.2-461.5-492.4S4.7-172.6,306.7-101.9s508.6,291.2,461.5,492.4
		S438,697.6,136,626.9z"/>
	
		<linearGradient id="SVGID_39_" gradientUnits="userSpaceOnUse" x1="950.1582" y1="-1137.2229" x2="-887.9165" y2="-946.1428" gradientTransform="matrix(0.426 0.3248 -0.3248 0.426 -250.9493 604.3109)">
		<stop  offset="0" style="stop-color:#0C1325"/>
		<stop  offset="0.6656" style="stop-color:#10B981"/>
		<stop  offset="1" style="stop-color:#ECFDF5"/>
	</linearGradient>
	<path class="st38" d="M161.1,623.6C-139.5,551.1-344,330-295.7,129.7S35.4-174.3,336-101.8s505.1,293.6,456.8,493.9
		S461.7,696.1,161.1,623.6z"/>
	
		<linearGradient id="SVGID_40_" gradientUnits="userSpaceOnUse" x1="1004.5217" y1="-1137.9871" x2="-826.8478" y2="-947.4116" gradientTransform="matrix(0.4321 0.3199 -0.3199 0.4321 -243.0135 594.7192)">
		<stop  offset="0" style="stop-color:#0C1325"/>
		<stop  offset="0.6656" style="stop-color:#10B981"/>
		<stop  offset="1" style="stop-color:#ECFDF5"/>
	</linearGradient>
	<path class="st39" d="M186.5,620.5c-299.2-74.2-501.7-295.9-452.2-495.3s332-300.9,631.2-226.7s501.7,295.9,452.2,495.3
		S485.7,694.7,186.5,620.5z"/>
	
		<linearGradient id="SVGID_41_" gradientUnits="userSpaceOnUse" x1="1058.0497" y1="-1136.5774" x2="-765.4138" y2="-946.6329" gradientTransform="matrix(0.4383 0.3149 -0.3149 0.4383 -234.7174 585.2017)">
		<stop  offset="0" style="stop-color:#0C1325"/>
		<stop  offset="0.6656" style="stop-color:#10B981"/>
		<stop  offset="1" style="stop-color:#ECFDF5"/>
	</linearGradient>
	<path class="st40" d="M212.2,617.6c-297.8-75.7-498.3-298-447.8-496.4S97.1-176.8,394.9-101.1s498.3,298,447.8,496.4
		S510,693.3,212.2,617.6z"/>
	
		<linearGradient id="SVGID_42_" gradientUnits="userSpaceOnUse" x1="1110.6219" y1="-1133.0479" x2="-703.7718" y2="-943.8574" gradientTransform="matrix(0.4447 0.3099 -0.3099 0.4447 -226.0886 575.7612)">
		<stop  offset="0" style="stop-color:#0C1325"/>
		<stop  offset="0.6656" style="stop-color:#10B981"/>
		<stop  offset="1" style="stop-color:#ECFDF5"/>
	</linearGradient>
	<path class="st41" d="M238.1,614.8c-296.4-77.2-495-299.9-443.5-497.5s333.5-295.1,629.9-217.9S919.5,199.5,868,397
		C816.6,594.5,534.6,692.1,238.1,614.8z"/>
	
		<linearGradient id="SVGID_43_" gradientUnits="userSpaceOnUse" x1="1162.127" y1="-1127.4615" x2="-642.0754" y2="-939.144" gradientTransform="matrix(0.4512 0.3049 -0.3049 0.4512 -217.1541 566.4003)">
		<stop  offset="0" style="stop-color:#0C1325"/>
		<stop  offset="0.6656" style="stop-color:#10B981"/>
		<stop  offset="1" style="stop-color:#ECFDF5"/>
	</linearGradient>
	<path class="st42" d="M264.4,612.3c-295-78.6-491.8-301.7-439.4-498.4S159-178.4,454.1-99.8S945.8,202,893.4,398.6
		S559.4,690.9,264.4,612.3z"/>
	
		<linearGradient id="SVGID_44_" gradientUnits="userSpaceOnUse" x1="1212.4624" y1="-1119.8898" x2="-580.4731" y2="-932.5597" gradientTransform="matrix(0.4579 0.2998 -0.2998 0.4579 -207.9403 557.1203)">
		<stop  offset="0" style="stop-color:#0C1325"/>
		<stop  offset="0.6656" style="stop-color:#10B981"/>
		<stop  offset="1" style="stop-color:#ECFDF5"/>
	</linearGradient>
	<path class="st43" d="M290.8,609.9C-2.9,529.9-197.8,306.5-144.5,110.7S190-178.8,483.7-98.9S972.3,204.5,919,400.2
		C865.8,595.9,584.5,689.8,290.8,609.9z"/>
	
		<linearGradient id="SVGID_45_" gradientUnits="userSpaceOnUse" x1="1261.5356" y1="-1110.4108" x2="-519.1077" y2="-924.1778" gradientTransform="matrix(0.4647 0.2948 -0.2948 0.4647 -198.4727 547.9225)">
		<stop  offset="0" style="stop-color:#0C1325"/>
		<stop  offset="0.6656" style="stop-color:#10B981"/>
		<stop  offset="1" style="stop-color:#ECFDF5"/>
	</linearGradient>
	<path class="st44" d="M317.5,607.6C25.1,526.4-168,302.7-113.9,107.9s335-287,627.3-205.8S998.9,207,944.8,401.8
		S609.8,688.8,317.5,607.6z"/>
	
		<linearGradient id="SVGID_46_" gradientUnits="userSpaceOnUse" x1="1309.2644" y1="-1099.1094" x2="-458.1149" y2="-914.0778" gradientTransform="matrix(0.4717 0.2897 -0.2897 0.4717 -188.7767 538.8075)">
		<stop  offset="0" style="stop-color:#0C1325"/>
		<stop  offset="0.6656" style="stop-color:#10B981"/>
		<stop  offset="1" style="stop-color:#ECFDF5"/>
	</linearGradient>
	<path class="st45" d="M344.3,605.5c-291-82.4-482.5-306.3-427.6-500.3S252-179.1,543-96.8s482.5,306.3,427.6,500.3
		S635.3,687.9,344.3,605.5z"/>
	
		<linearGradient id="SVGID_47_" gradientUnits="userSpaceOnUse" x1="1355.5763" y1="-1086.0752" x2="-397.6228" y2="-902.3439" gradientTransform="matrix(0.4787 0.2846 -0.2846 0.4787 -178.877 529.7754)">
		<stop  offset="0" style="stop-color:#0C1325"/>
		<stop  offset="0.6656" style="stop-color:#10B981"/>
		<stop  offset="1" style="stop-color:#ECFDF5"/>
	</linearGradient>
	<path class="st46" d="M371.3,603.6C81.6,520.1-108.2,296-52.6,102.9S283-179,572.7-95.5s479.5,307.6,423.8,500.7
		C940.9,598.2,661,687.1,371.3,603.6z"/>
	
		<linearGradient id="SVGID_48_" gradientUnits="userSpaceOnUse" x1="1400.4089" y1="-1071.4025" x2="-337.7515" y2="-889.0643" gradientTransform="matrix(0.4859 0.2795 -0.2795 0.4859 -168.7978 520.826)">
		<stop  offset="0" style="stop-color:#0C1325"/>
		<stop  offset="0.6656" style="stop-color:#10B981"/>
		<stop  offset="1" style="stop-color:#ECFDF5"/>
	</linearGradient>
	<path class="st47" d="M398.4,601.8C110,517.3-78.1,293-21.8,100.8S314-178.7,602.4-94.2s476.5,308.8,420.2,501
		S686.8,686.3,398.4,601.8z"/>
	
		<linearGradient id="SVGID_49_" gradientUnits="userSpaceOnUse" x1="1443.7104" y1="-1055.1881" x2="-278.6122" y2="-874.3304" gradientTransform="matrix(0.4932 0.2744 -0.2744 0.4932 -158.563 511.9586)">
		<stop  offset="0" style="stop-color:#0C1325"/>
		<stop  offset="0.6656" style="stop-color:#10B981"/>
		<stop  offset="1" style="stop-color:#ECFDF5"/>
	</linearGradient>
	<path class="st48" d="M425.7,600.2C138.6,514.7-48,290.3,9,98.9S344.9-178.2,632-92.7s473.6,309.9,416.7,501.2
		C991.7,599.9,712.8,685.7,425.7,600.2z"/>
	
		<linearGradient id="SVGID_50_" gradientUnits="userSpaceOnUse" x1="1485.4385" y1="-1037.5317" x2="-220.3078" y2="-858.2352" gradientTransform="matrix(0.5006 0.2693 -0.2693 0.5006 -148.1958 503.1724)">
		<stop  offset="0" style="stop-color:#0C1325"/>
		<stop  offset="0.6656" style="stop-color:#10B981"/>
		<stop  offset="1" style="stop-color:#ECFDF5"/>
	</linearGradient>
	<path class="st49" d="M453,598.7C167.2,512.2-17.8,287.8,39.8,97.3s336-274.8,621.8-188.4s470.8,310.9,413.2,501.4
		C1017.2,600.8,738.8,685.1,453,598.7z"/>
	
		<linearGradient id="SVGID_51_" gradientUnits="userSpaceOnUse" x1="1525.5604" y1="-1018.5338" x2="-162.9308" y2="-840.8735" gradientTransform="matrix(0.508 0.2642 -0.2642 0.508 -137.7195 494.466)">
		<stop  offset="0" style="stop-color:#0C1325"/>
		<stop  offset="0.6656" style="stop-color:#10B981"/>
		<stop  offset="1" style="stop-color:#ECFDF5"/>
	</linearGradient>
	<path class="st50" d="M480.4,597.3C195.9,510,12.4,285.5,70.6,95.9s336-272.6,620.6-185.2s468,311.8,409.9,501.4
		C1042.8,601.7,765,684.6,480.4,597.3z"/>
	
		<linearGradient id="SVGID_52_" gradientUnits="userSpaceOnUse" x1="1564.0525" y1="-998.2955" x2="-106.5656" y2="-822.3401" gradientTransform="matrix(0.5156 0.2591 -0.2591 0.5156 -127.157 485.8381)">
		<stop  offset="0" style="stop-color:#0C1325"/>
		<stop  offset="0.6656" style="stop-color:#10B981"/>
		<stop  offset="1" style="stop-color:#ECFDF5"/>
	</linearGradient>
	<path class="st51" d="M507.9,596.1C224.6,507.9,42.6,283.5,101.3,94.7s336-270.4,619.3-182.2s465.3,312.6,406.6,501.4
		C1068.4,602.6,791.2,684.2,507.9,596.1z"/>
	
		<linearGradient id="SVGID_53_" gradientUnits="userSpaceOnUse" x1="1600.9" y1="-976.9177" x2="-51.2867" y2="-802.7298" gradientTransform="matrix(0.5232 0.2539 -0.2539 0.5232 -116.5304 477.2869)">
		<stop  offset="0" style="stop-color:#0C1325"/>
		<stop  offset="0.6656" style="stop-color:#10B981"/>
		<stop  offset="1" style="stop-color:#ECFDF5"/>
	</linearGradient>
	<path class="st52" d="M535.4,595C253.4,506,72.8,281.6,132,93.7S467.9-174.5,750-85.6s462.6,313.4,403.4,501.3
		S817.4,683.9,535.4,595z"/>
	
		<linearGradient id="SVGID_54_" gradientUnits="userSpaceOnUse" x1="1636.0959" y1="-954.5001" x2="2.8402" y2="-782.1363" gradientTransform="matrix(0.531 0.2488 -0.2488 0.531 -105.8622 468.8105)">
		<stop  offset="0" style="stop-color:#0C1325"/>
		<stop  offset="0.6656" style="stop-color:#10B981"/>
		<stop  offset="1" style="stop-color:#ECFDF5"/>
	</linearGradient>
	<path class="st53" d="M562.9,594c-280.8-89.7-460-314-400.2-501.1S498.5-173.3,779.2-83.6s460,314,400.2,501.1
		S843.7,683.6,562.9,594z"/>
	
		<linearGradient id="SVGID_55_" gradientUnits="userSpaceOnUse" x1="1669.6414" y1="-931.1407" x2="55.7585" y2="-760.6517" gradientTransform="matrix(0.5388 0.2437 -0.2437 0.5388 -95.1741 460.4066)">
		<stop  offset="0" style="stop-color:#0C1325"/>
		<stop  offset="0.6656" style="stop-color:#10B981"/>
		<stop  offset="1" style="stop-color:#ECFDF5"/>
	</linearGradient>
	<path class="st54" d="M590.4,593.1C310.8,502.8,133,278.5,193.2,92.2S528.8-171.8,808.4-81.5s457.3,314.6,397.1,500.9
		S869.9,683.4,590.4,593.1z"/>
	
		<linearGradient id="SVGID_56_" gradientUnits="userSpaceOnUse" x1="1701.5438" y1="-906.9354" x2="107.4201" y2="-738.366" gradientTransform="matrix(0.5466 0.2385 -0.2385 0.5466 -84.4878 452.0732)">
		<stop  offset="0" style="stop-color:#0C1325"/>
		<stop  offset="0.6656" style="stop-color:#10B981"/>
		<stop  offset="1" style="stop-color:#ECFDF5"/>
	</linearGradient>
	<path class="st55" d="M617.8,592.3C339.5,501.4,163,277.2,223.7,91.8S559.1-170.3,837.4-79.3s454.8,315.1,394.1,500.6
		S896.1,683.3,617.8,592.3z"/>
	
		<linearGradient id="SVGID_57_" gradientUnits="userSpaceOnUse" x1="1731.8173" y1="-881.9771" x2="157.7854" y2="-715.3668" gradientTransform="matrix(0.5546 0.2334 -0.2334 0.5546 -73.8248 443.8075)">
		<stop  offset="0" style="stop-color:#0C1325"/>
		<stop  offset="0.6656" style="stop-color:#10B981"/>
		<stop  offset="1" style="stop-color:#ECFDF5"/>
	</linearGradient>
	<path class="st56" d="M645.2,591.7C368.1,500.1,193,276.1,254,91.5S589.2-168.6,866.3-77s452.2,315.6,391.2,500.2
		S922.3,683.3,645.2,591.7z"/>
	
		<linearGradient id="SVGID_58_" gradientUnits="userSpaceOnUse" x1="1760.4813" y1="-856.3557" x2="206.8229" y2="-691.7385" gradientTransform="matrix(0.5626 0.2282 -0.2282 0.5626 -63.2062 435.6072)">
		<stop  offset="0" style="stop-color:#0C1325"/>
		<stop  offset="0.6656" style="stop-color:#10B981"/>
		<stop  offset="1" style="stop-color:#ECFDF5"/>
	</linearGradient>
	<path class="st57" d="M672.6,591.1C396.7,499,222.8,275.2,284.2,91.3S619.1-166.8,895-74.7s449.8,315.9,388.3,499.8
		S948.5,683.3,672.6,591.1z"/>
	
		<linearGradient id="SVGID_59_" gradientUnits="userSpaceOnUse" x1="1787.5607" y1="-830.1577" x2="254.5086" y2="-667.5626" gradientTransform="matrix(0.5707 0.2231 -0.2231 0.5707 -52.653 427.4694)">
		<stop  offset="0" style="stop-color:#0C1325"/>
		<stop  offset="0.6656" style="stop-color:#10B981"/>
		<stop  offset="1" style="stop-color:#ECFDF5"/>
	</linearGradient>
	<path class="st58" d="M699.8,590.7C425.1,498,252.5,274.4,314.3,91.4S648.9-164.9,923.6-72.2s447.3,316.3,385.5,499.3
		C1247.3,610.2,974.5,683.4,699.8,590.7z"/>
	
		<linearGradient id="SVGID_60_" gradientUnits="userSpaceOnUse" x1="1813.0846" y1="-803.4655" x2="300.8251" y2="-642.9166" gradientTransform="matrix(0.5788 0.2179 -0.2179 0.5788 -42.1862 419.3912)">
		<stop  offset="0" style="stop-color:#0C1325"/>
		<stop  offset="0.6656" style="stop-color:#10B981"/>
		<stop  offset="1" style="stop-color:#ECFDF5"/>
	</linearGradient>
	<path class="st59" d="M726.9,590.3C453.4,497.1,282.1,273.8,344.2,91.5S678.4-162.9,951.9-69.7s444.9,316.6,382.7,498.8
		C1272.5,611.4,1000.5,683.6,726.9,590.3z"/>
	
		<linearGradient id="SVGID_61_" gradientUnits="userSpaceOnUse" x1="1837.0863" y1="-776.3578" x2="345.7614" y2="-617.8746" gradientTransform="matrix(0.587 0.2127 -0.2127 0.587 -31.8264 411.3698)">
		<stop  offset="0" style="stop-color:#0C1325"/>
		<stop  offset="0.6656" style="stop-color:#10B981"/>
		<stop  offset="1" style="stop-color:#ECFDF5"/>
	</linearGradient>
	<path class="st60" d="M753.9,590.1c-272.3-93.7-442.5-316.8-380-498.3S707.7-160.8,980.1-67.1s442.5,316.8,380,498.3
		S1026.3,683.8,753.9,590.1z"/>
	
		<linearGradient id="SVGID_62_" gradientUnits="userSpaceOnUse" x1="1859.6025" y1="-748.9092" x2="389.3125" y2="-592.5067" gradientTransform="matrix(0.5952 0.2076 -0.2076 0.5952 -21.594 403.4019)">
		<stop  offset="0" style="stop-color:#0C1325"/>
		<stop  offset="0.6656" style="stop-color:#10B981"/>
		<stop  offset="1" style="stop-color:#ECFDF5"/>
	</linearGradient>
	<path class="st61" d="M780.8,589.9C509.6,495.7,340.7,272.9,403.4,92.2S736.8-158.6,1008-64.5s440.1,316.9,377.4,497.6
		S1052,684,780.8,589.9z"/>
	
		<linearGradient id="SVGID_63_" gradientUnits="userSpaceOnUse" x1="1880.6729" y1="-721.19" x2="431.4787" y2="-566.8791" gradientTransform="matrix(0.6035 0.2024 -0.2024 0.6035 -11.5095 395.4845)">
		<stop  offset="0" style="stop-color:#0C1325"/>
		<stop  offset="0.6656" style="stop-color:#10B981"/>
		<stop  offset="1" style="stop-color:#ECFDF5"/>
	</linearGradient>
	<path class="st62" d="M807.5,589.8c-270-94.6-437.8-317.1-374.8-497s333-249.1,603-154.6s437.8,317.1,374.8,497
		S1077.5,684.3,807.5,589.8z"/>
	
		<linearGradient id="SVGID_64_" gradientUnits="userSpaceOnUse" x1="1900.3392" y1="-693.2662" x2="472.2652" y2="-541.054" gradientTransform="matrix(0.6119 0.1972 -0.1972 0.6119 -1.593 387.6143)">
		<stop  offset="0" style="stop-color:#0C1325"/>
		<stop  offset="0.6656" style="stop-color:#10B981"/>
		<stop  offset="1" style="stop-color:#ECFDF5"/>
	</linearGradient>
	<path class="st63" d="M834,589.7C565.1,494.8,398.5,272.6,461.8,93.5S794.2-154,1063.1-59s435.5,317.1,372.2,496.3
		S1102.8,684.7,834,589.7z"/>
	
		<linearGradient id="SVGID_65_" gradientUnits="userSpaceOnUse" x1="1918.6453" y1="-665.1997" x2="511.6816" y2="-515.0895" gradientTransform="matrix(0.6203 0.1921 -0.1921 0.6203 8.1353 379.7881)">
		<stop  offset="0" style="stop-color:#0C1325"/>
		<stop  offset="0.6656" style="stop-color:#10B981"/>
		<stop  offset="1" style="stop-color:#ECFDF5"/>
	</linearGradient>
	<path class="st64" d="M860.2,589.8C592.6,494.5,427,272.6,490.5,94.2s332-245.7,599.7-150.5s433.2,317.2,369.7,495.5
		S1127.9,685.1,860.2,589.8z"/>
	
		<linearGradient id="SVGID_66_" gradientUnits="userSpaceOnUse" x1="1935.6365" y1="-637.048" x2="549.7414" y2="-489.0399" gradientTransform="matrix(0.6287 0.1869 -0.1869 0.6287 17.6555 372.0023)">
		<stop  offset="0" style="stop-color:#0C1325"/>
		<stop  offset="0.6656" style="stop-color:#10B981"/>
		<stop  offset="1" style="stop-color:#ECFDF5"/>
	</linearGradient>
	<path class="st65" d="M886.3,589.9c-266.5-95.6-431-317.1-367.2-494.8s331.5-244.1,598-148.5s431,317.1,367.2,494.8
		S1152.8,685.5,886.3,589.9z"/>
	
		<linearGradient id="SVGID_67_" gradientUnits="userSpaceOnUse" x1="1951.3591" y1="-608.8647" x2="586.4616" y2="-462.9554" gradientTransform="matrix(0.6372 0.1817 -0.1817 0.6372 26.9477 364.2535)">
		<stop  offset="0" style="stop-color:#0C1325"/>
		<stop  offset="0.6656" style="stop-color:#10B981"/>
		<stop  offset="1" style="stop-color:#ECFDF5"/>
	</linearGradient>
	<path class="st66" d="M912.1,590.1C646.7,494.1,483.4,273,547.3,96.1s330.9-242.5,596.3-146.5s428.7,317.1,364.8,494
		C1444.5,620.4,1177.5,686,912.1,590.1z"/>
	
		<linearGradient id="SVGID_68_" gradientUnits="userSpaceOnUse" x1="1965.8601" y1="-580.6991" x2="621.8625" y2="-436.8827" gradientTransform="matrix(0.6457 0.1766 -0.1766 0.6457 35.9923 356.5383)">
		<stop  offset="0" style="stop-color:#0C1325"/>
		<stop  offset="0.6656" style="stop-color:#10B981"/>
		<stop  offset="1" style="stop-color:#ECFDF5"/>
	</linearGradient>
	<path class="st67" d="M937.6,590.3c-264.3-96.2-426.5-317-362.4-493.1s330.3-240.9,594.6-144.7s426.5,317,362.4,493.1
		C1468.1,621.7,1201.9,686.5,937.6,590.3z"/>
	
		<linearGradient id="SVGID_69_" gradientUnits="userSpaceOnUse" x1="1979.1871" y1="-552.5967" x2="655.9667" y2="-410.8643" gradientTransform="matrix(0.6543 0.1714 -0.1714 0.6543 44.7694 348.853)">
		<stop  offset="0" style="stop-color:#0C1325"/>
		<stop  offset="0.6656" style="stop-color:#10B981"/>
		<stop  offset="1" style="stop-color:#ECFDF5"/>
	</linearGradient>
	<path class="st68" d="M962.9,590.6C699.7,494.1,538.5,273.7,602.8,98.3S932.6-141,1195.7-44.5s424.4,316.9,360.1,492.2
		C1491.5,623.1,1226.1,687,962.9,590.6z"/>
	
		<linearGradient id="SVGID_70_" gradientUnits="userSpaceOnUse" x1="1991.3875" y1="-524.5991" x2="688.7994" y2="-384.9397" gradientTransform="matrix(0.6629 0.1662 -0.1662 0.6629 53.2597 341.194)">
		<stop  offset="0" style="stop-color:#0C1325"/>
		<stop  offset="0.6656" style="stop-color:#10B981"/>
		<stop  offset="1" style="stop-color:#ECFDF5"/>
	</linearGradient>
	<path class="st69" d="M987.8,590.9c-262-96.7-422.2-316.7-357.8-491.3s329.1-237.8,591.2-141.1s422.2,316.7,357.8,491.3
		S1249.9,687.6,987.8,590.9z"/>
	
		<linearGradient id="SVGID_71_" gradientUnits="userSpaceOnUse" x1="2002.5084" y1="-496.7444" x2="720.3875" y2="-359.1445" gradientTransform="matrix(0.6716 0.1611 -0.1611 0.6716 61.4435 333.5576)">
		<stop  offset="0" style="stop-color:#0C1325"/>
		<stop  offset="0.6656" style="stop-color:#10B981"/>
		<stop  offset="1" style="stop-color:#ECFDF5"/>
	</linearGradient>
	<path class="st70" d="M1012.5,591.2C751.5,494.3,592.4,274.7,657,100.9s328.5-236.3,589.4-139.3s420.1,316.5,355.5,490.4
		S1273.4,688.2,1012.5,591.2z"/>
	
		<linearGradient id="SVGID_72_" gradientUnits="userSpaceOnUse" x1="2012.597" y1="-469.0672" x2="750.7596" y2="-333.5114" gradientTransform="matrix(0.6803 0.1559 -0.1559 0.6803 69.3016 325.9402)">
		<stop  offset="0" style="stop-color:#0C1325"/>
		<stop  offset="0.6656" style="stop-color:#10B981"/>
		<stop  offset="1" style="stop-color:#ECFDF5"/>
	</linearGradient>
	<path class="st71" d="M1036.8,591.6c-259.8-97.1-418-316.3-353.3-489.4s327.8-234.8,587.7-137.6s418,316.3,353.3,489.4
		S1296.6,688.8,1036.8,591.6z"/>
	
		<linearGradient id="SVGID_73_" gradientUnits="userSpaceOnUse" x1="2021.6996" y1="-441.5986" x2="779.9458" y2="-308.0697" gradientTransform="matrix(0.689 0.1507 -0.1507 0.689 76.8146 318.338)">
		<stop  offset="0" style="stop-color:#0C1325"/>
		<stop  offset="0.6656" style="stop-color:#10B981"/>
		<stop  offset="1" style="stop-color:#ECFDF5"/>
	</linearGradient>
	<path class="st72" d="M1060.7,592.1c-258.7-97.3-415.9-316-351.1-488.4s327.2-233.3,585.9-136s415.9,316,351.1,488.4
		S1319.4,689.4,1060.7,592.1z"/>
	
		<linearGradient id="SVGID_74_" gradientUnits="userSpaceOnUse" x1="2029.8616" y1="-414.3668" x2="807.9769" y2="-282.8459" gradientTransform="matrix(0.6978 0.1456 -0.1456 0.6978 83.9633 310.747)">
		<stop  offset="0" style="stop-color:#0C1325"/>
		<stop  offset="0.6656" style="stop-color:#10B981"/>
		<stop  offset="1" style="stop-color:#ECFDF5"/>
	</linearGradient>
	<path class="st73" d="M1084.2,592.5c-257.6-97.5-413.8-315.7-348.9-487.4s326.5-231.9,584.1-134.4s413.8,315.7,348.9,487.4
		S1341.9,690,1084.2,592.5z"/>
	
		<linearGradient id="SVGID_75_" gradientUnits="userSpaceOnUse" x1="2037.1276" y1="-387.397" x2="834.8846" y2="-257.8638" gradientTransform="matrix(0.7065 0.1404 -0.1404 0.7065 90.7286 303.1637)">
		<stop  offset="0" style="stop-color:#0C1325"/>
		<stop  offset="0.6656" style="stop-color:#10B981"/>
		<stop  offset="1" style="stop-color:#ECFDF5"/>
	</linearGradient>
	<path class="st74" d="M1107.4,593c-256.6-97.6-411.8-315.4-346.7-486.3S1086.4-123.7,1343-26.1s411.8,315.4,346.7,486.3
		C1624.7,631.2,1363.9,690.7,1107.4,593z"/>
	
		<linearGradient id="SVGID_76_" gradientUnits="userSpaceOnUse" x1="2043.5413" y1="-360.7114" x2="860.7014" y2="-233.1443" gradientTransform="matrix(0.7154 0.1352 -0.1352 0.7154 97.0912 295.584)">
		<stop  offset="0" style="stop-color:#0C1325"/>
		<stop  offset="0.6656" style="stop-color:#10B981"/>
		<stop  offset="1" style="stop-color:#ECFDF5"/>
	</linearGradient>
	<path class="st75" d="M1130.1,593.5c-255.5-97.7-409.8-315-344.6-485.3S1110.5-120.8,1366-23s409.8,315,344.6,485.3
		S1385.6,691.3,1130.1,593.5z"/>
	
		<linearGradient id="SVGID_77_" gradientUnits="userSpaceOnUse" x1="2049.1448" y1="-334.3298" x2="885.4597" y2="-208.706" gradientTransform="matrix(0.7242 0.1301 -0.1301 0.7242 103.0323 288.0041)">
		<stop  offset="0" style="stop-color:#0C1325"/>
		<stop  offset="0.6656" style="stop-color:#10B981"/>
		<stop  offset="1" style="stop-color:#ECFDF5"/>
	</linearGradient>
	<path class="st76" d="M1152.4,594.1C898,496.2,744.6,279.4,809.8,109.9s324.3-227.6,578.7-129.8s407.8,314.6,342.6,484.2
		S1406.8,691.9,1152.4,594.1z"/>
	
		<linearGradient id="SVGID_78_" gradientUnits="userSpaceOnUse" x1="2053.9797" y1="-308.2695" x2="909.1924" y2="-184.5654" gradientTransform="matrix(0.7331 0.1249 -0.1249 0.7331 108.5327 280.42)">
		<stop  offset="0" style="stop-color:#0C1325"/>
		<stop  offset="0.6656" style="stop-color:#10B981"/>
		<stop  offset="1" style="stop-color:#ECFDF5"/>
	</linearGradient>
	<path class="st77" d="M1174.2,594.6c-253.3-98-405.8-314.2-340.5-483s323.6-226.3,576.9-128.3s405.8,314.2,340.5,483
		C1685.9,635.1,1427.6,692.6,1174.2,594.6z"/>
	
		<linearGradient id="SVGID_79_" gradientUnits="userSpaceOnUse" x1="2058.0857" y1="-282.5455" x2="931.9323" y2="-160.7365" gradientTransform="matrix(0.742 0.1197 -0.1197 0.742 113.5737 272.8279)">
		<stop  offset="0" style="stop-color:#0C1325"/>
		<stop  offset="0.6656" style="stop-color:#10B981"/>
		<stop  offset="1" style="stop-color:#ECFDF5"/>
	</linearGradient>
	<path class="st78" d="M1195.6,595.1c-252.3-98-403.8-313.8-338.5-481.9s322.8-224.9,575.1-126.9s403.8,313.8,338.5,481.9
		C1705.3,636.4,1447.9,693.2,1195.6,595.1z"/>
	
		<linearGradient id="SVGID_80_" gradientUnits="userSpaceOnUse" x1="2061.5015" y1="-257.1708" x2="953.7122" y2="-137.2315" gradientTransform="matrix(0.7509 0.1146 -0.1146 0.7509 118.1362 265.2237)">
		<stop  offset="0" style="stop-color:#0C1325"/>
		<stop  offset="0.6656" style="stop-color:#10B981"/>
		<stop  offset="1" style="stop-color:#ECFDF5"/>
	</linearGradient>
	<path class="st79" d="M1216.5,595.7C965.3,497.6,814.6,282.4,880,114.9s322-223.6,573.2-125.5s401.9,313.3,336.5,480.7
		C1724.3,637.6,1467.7,693.8,1216.5,595.7z"/>
	
		<linearGradient id="SVGID_81_" gradientUnits="userSpaceOnUse" x1="2064.2644" y1="-232.1564" x2="974.5643" y2="-114.0609" gradientTransform="matrix(0.7599 0.1094 -0.1094 0.7599 122.2015 257.6035)">
		<stop  offset="0" style="stop-color:#0C1325"/>
		<stop  offset="0.6656" style="stop-color:#10B981"/>
		<stop  offset="1" style="stop-color:#ECFDF5"/>
	</linearGradient>
	<path class="st80" d="M1236.9,596.2c-250.2-98.1-399.9-312.9-334.5-479.6s321.2-222.3,571.4-124.1s399.9,312.9,334.5,479.6
		S1487,694.4,1236.9,596.2z"/>
	
		<linearGradient id="SVGID_82_" gradientUnits="userSpaceOnUse" x1="2066.4099" y1="-207.5114" x2="994.5209" y2="-91.2334" gradientTransform="matrix(0.7689 0.1042 -0.1042 0.7689 125.7508 249.9632)">
		<stop  offset="0" style="stop-color:#0C1325"/>
		<stop  offset="0.6656" style="stop-color:#10B981"/>
		<stop  offset="1" style="stop-color:#ECFDF5"/>
	</linearGradient>
	<path class="st81" d="M1256.7,596.8c-249.1-98.2-398-312.4-332.6-478.4s320.4-221,569.5-122.8s398,312.4,332.6,478.4
		S1505.8,694.9,1256.7,596.8z"/>
	
		<linearGradient id="SVGID_83_" gradientUnits="userSpaceOnUse" x1="2067.9729" y1="-183.2433" x2="1013.6135" y2="-68.7559" gradientTransform="matrix(0.7779 9.907832e-002 -9.907832e-002 0.7779 128.7653 242.2989)">
		<stop  offset="0" style="stop-color:#0C1325"/>
		<stop  offset="0.6656" style="stop-color:#10B981"/>
		<stop  offset="1" style="stop-color:#ECFDF5"/>
	</linearGradient>
	<path class="st82" d="M1276,597.3c-248.1-98.2-396.1-311.8-330.7-477.1S1264.9-99.6,1513-1.4s396.1,311.8,330.7,477.1
		C1778.2,641.1,1524.1,695.5,1276,597.3z"/>
	
		<linearGradient id="SVGID_84_" gradientUnits="userSpaceOnUse" x1="2068.9863" y1="-159.3581" x2="1031.8732" y2="-46.6343" gradientTransform="matrix(0.7869 9.391733e-002 -9.391733e-002 0.7869 131.2264 234.6064)">
		<stop  offset="0" style="stop-color:#0C1325"/>
		<stop  offset="0.6656" style="stop-color:#10B981"/>
		<stop  offset="1" style="stop-color:#ECFDF5"/>
	</linearGradient>
	<path class="st83" d="M1294.7,597.8c-247-98.2-394.2-311.3-328.8-475.9S1284.7-96.6,1531.8,1.7s394.2,311.3,328.8,475.9
		S1541.7,696,1294.7,597.8z"/>
</g>
</svg>
