<svg xmlns="http://www.w3.org/2000/svg" xml:space="preserve" id="Layer_1" x="0" y="0" style="enable-background:new 0 0 960 560;" version="1.1" viewBox="0 0 960 560"><style>.st0{fill:url(#SVGID_1_);}
	.st1{fill:url(#SVGID_2_);}
	.st2{fill:url(#SVGID_3_);}
	.st3{fill:url(#SVGID_4_);}
	.st4{fill:url(#SVGID_5_);}
	.st5{fill:url(#SVGID_6_);}
	.st6{fill:url(#SVGID_7_);}
	.st7{fill:url(#SVGID_8_);}
	.st8{fill:url(#SVGID_9_);}
	.st9{fill:url(#SVGID_10_);}
	.st10{fill:url(#SVGID_11_);}
	.st11{fill:url(#SVGID_12_);}
	.st12{fill:url(#SVGID_13_);}
	.st13{fill:url(#SVGID_14_);}
	.st14{fill:url(#SVGID_15_);}
	.st15{fill:url(#SVGID_16_);}
	.st16{fill:url(#SVGID_17_);}
	.st17{fill:url(#SVGID_18_);}
	.st18{fill:url(#SVGID_19_);}
	.st19{fill:url(#SVGID_20_);}
	.st20{fill:url(#SVGID_21_);}
	.st21{fill:url(#SVGID_22_);}
	.st22{fill:url(#SVGID_23_);}
	.st23{fill:url(#SVGID_24_);}
	.st24{fill:url(#SVGID_25_);}
	.st25{fill:url(#SVGID_26_);}
	.st26{fill:url(#SVGID_27_);}
	.st27{fill:url(#SVGID_28_);}
	.st28{fill:url(#SVGID_29_);}
	.st29{fill:url(#SVGID_30_);}
	.st30{fill:url(#SVGID_31_);}
	.st31{fill:url(#SVGID_32_);}
	.st32{fill:url(#SVGID_33_);}
	.st33{fill:url(#SVGID_34_);}
	.st34{fill:url(#SVGID_35_);}
	.st35{fill:url(#SVGID_36_);}
	.st36{fill:url(#SVGID_37_);}
	.st37{fill:url(#SVGID_38_);}
	.st38{fill:url(#SVGID_39_);}
	.st39{fill:url(#SVGID_40_);}
	.st40{fill:url(#SVGID_41_);}
	.st41{fill:url(#SVGID_42_);}
	.st42{fill:url(#SVGID_43_);}
	.st43{fill:url(#SVGID_44_);}
	.st44{fill:url(#SVGID_45_);}
	.st45{fill:url(#SVGID_46_);}
	.st46{fill:url(#SVGID_47_);}
	.st47{fill:url(#SVGID_48_);}
	.st48{fill:url(#SVGID_49_);}
	.st49{fill:url(#SVGID_50_);}
	.st50{fill:url(#SVGID_51_);}
	.st51{fill:url(#SVGID_52_);}
	.st52{fill:url(#SVGID_53_);}
	.st53{fill:url(#SVGID_54_);}
	.st54{fill:url(#SVGID_55_);}
	.st55{fill:url(#SVGID_56_);}
	.st56{fill:url(#SVGID_57_);}
	.st57{fill:url(#SVGID_58_);}
	.st58{fill:url(#SVGID_59_);}
	.st59{fill:url(#SVGID_60_);}
	.st60{fill:url(#SVGID_61_);}
	.st61{fill:url(#SVGID_62_);}
	.st62{fill:url(#SVGID_63_);}
	.st63{fill:url(#SVGID_64_);}
	.st64{fill:url(#SVGID_65_);}
	.st65{fill:url(#SVGID_66_);}
	.st66{fill:url(#SVGID_67_);}
	.st67{fill:url(#SVGID_68_);}
	.st68{fill:url(#SVGID_69_);}
	.st69{fill:url(#SVGID_70_);}
	.st70{fill:url(#SVGID_71_);}
	.st71{fill:url(#SVGID_72_);}
	.st72{fill:url(#SVGID_73_);}
	.st73{fill:url(#SVGID_74_);}
	.st74{fill:url(#SVGID_75_);}
	.st75{fill:url(#SVGID_76_);}
	.st76{fill:url(#SVGID_77_);}
	.st77{fill:url(#SVGID_78_);}
	.st78{fill:url(#SVGID_79_);}
	.st79{fill:url(#SVGID_80_);}
	.st80{fill:url(#SVGID_81_);}
	.st81{fill:url(#SVGID_82_);}
	.st82{fill:url(#SVGID_83_);}
	.st83{fill:url(#SVGID_84_);}
	.st84{fill:url(#SVGID_85_);}
	.st85{fill:url(#SVGID_86_);}
	.st86{fill:url(#SVGID_87_);}
	.st87{fill:url(#SVGID_88_);}
	.st88{fill:url(#SVGID_89_);}
	.st89{fill:url(#SVGID_90_);}
	.st90{fill:url(#SVGID_91_);}
	.st91{fill:url(#SVGID_92_);}
	.st92{fill:url(#SVGID_93_);}
	.st93{fill:url(#SVGID_94_);}
	.st94{fill:url(#SVGID_95_);}
	.st95{fill:url(#SVGID_96_);}
	.st96{fill:url(#SVGID_97_);}
	.st97{fill:url(#SVGID_98_);}
	.st98{fill:url(#SVGID_99_);}
	.st99{fill:url(#SVGID_100_);}
	.st100{fill:url(#SVGID_101_);}
	.st101{fill:url(#SVGID_102_);}
	.st102{fill:url(#SVGID_103_);}
	.st103{fill:url(#SVGID_104_);}
	.st104{fill:url(#SVGID_105_);}
	.st105{fill:url(#SVGID_106_);}
	.st106{fill:url(#SVGID_107_);}
	.st107{fill:url(#SVGID_108_);}
	.st108{fill:url(#SVGID_109_);}
	.st109{fill:url(#SVGID_110_);}
	.st110{fill:url(#SVGID_111_);}
	.st111{fill:url(#SVGID_112_);}
	.st112{fill:url(#SVGID_113_);}
	.st113{fill:url(#SVGID_114_);}
	.st114{fill:url(#SVGID_115_);}
	.st115{fill:url(#SVGID_116_);}
	.st116{fill:url(#SVGID_117_);}
	.st117{fill:url(#SVGID_118_);}
	.st118{fill:url(#SVGID_119_);}
	.st119{fill:url(#SVGID_120_);}
	.st120{fill:url(#SVGID_121_);}
	.st121{fill:url(#SVGID_122_);}
	.st122{fill:url(#SVGID_123_);}
	.st123{fill:url(#SVGID_124_);}
	.st124{fill:url(#SVGID_125_);}
	.st125{fill:url(#SVGID_126_);}
	.st126{fill:url(#SVGID_127_);}
	.st127{fill:url(#SVGID_128_);}
	.st128{fill:url(#SVGID_129_);}
	.st129{fill:url(#SVGID_130_);}
	.st130{fill:url(#SVGID_131_);}
	.st131{fill:url(#SVGID_132_);}
	.st132{fill:url(#SVGID_133_);}
	.st133{fill:url(#SVGID_134_);}
	.st134{fill:url(#SVGID_135_);}
	.st135{fill:url(#SVGID_136_);}
	.st136{fill:url(#SVGID_137_);}
	.st137{fill:url(#SVGID_138_);}
	.st138{fill:url(#SVGID_139_);}
	.st139{fill:url(#SVGID_140_);}
	.st140{fill:url(#SVGID_141_);}
	.st141{fill:url(#SVGID_142_);}
	.st142{fill:url(#SVGID_143_);}
	.st143{fill:url(#SVGID_144_);}
	.st144{fill:url(#SVGID_145_);}
	.st145{fill:url(#SVGID_146_);}
	.st146{fill:url(#SVGID_147_);}
	.st147{fill:url(#SVGID_148_);}
	.st148{fill:url(#SVGID_149_);}
	.st149{fill:url(#SVGID_150_);}
	.st150{fill:url(#SVGID_151_);}
	.st151{fill:url(#SVGID_152_);}</style><linearGradient id="SVGID_1_" x1="-541.64" x2="-1935.541" y1="58.044" y2="197.383" gradientTransform="rotate(35.503 -1326.435 265.796) scale(.6304)" gradientUnits="userSpaceOnUse"><stop offset="0" style="stop-color:#0C1325"/><stop offset=".666" style="stop-color:#10B981"/><stop offset="1" style="stop-color:#ECFDF5"/></linearGradient><path d="M-362 910.1c-299.5 172.9-635.7 151.2-750.9-48.4s34.2-501.6 333.7-674.4 635.7-151.2 750.9 48.4S-62.5 737.2-362 910.1z" class="st0"/><linearGradient id="SVGID_2_" x1="-530.707" x2="-1942.387" y1="19.311" y2="160.575" gradientTransform="matrix(.5042 .3682 -.3682 .5042 -95.688 819.54)" gradientUnits="userSpaceOnUse"><stop offset="0" style="stop-color:#0C1325"/><stop offset=".666" style="stop-color:#10B981"/><stop offset="1" style="stop-color:#ECFDF5"/></linearGradient><path d="M-352.2 893.7c-303.1 164.5-637.7 134.2-747.3-67.8s47.2-499.1 350.3-663.6S-111.6 28.1-1.9 230.1s-47.2 499-350.3 663.6z" class="st1"/><linearGradient id="SVGID_3_" x1="-518.39" x2="-1948.069" y1="-20.046" y2="123.17" gradientTransform="rotate(36.824 -1280.387 259.998) scale(.6185)" gradientUnits="userSpaceOnUse"><stop offset="0" style="stop-color:#0C1325"/><stop offset=".666" style="stop-color:#10B981"/><stop offset="1" style="stop-color:#ECFDF5"/></linearGradient><path d="M-342.3 877.7c-306.6 155.8-639.3 116.4-743.1-87.9-103.8-204.3 60.6-496.2 367.2-652S-79 21.4 24.8 225.7s-60.5 496.2-367.1 652z" class="st2"/><linearGradient id="SVGID_4_" x1="-504.63" x2="-1952.503" y1="-59.983" y2="85.208" gradientTransform="rotate(37.544 -1256.6 256.271) scale(.6127)" gradientUnits="userSpaceOnUse"><stop offset="0" style="stop-color:#0C1325"/><stop offset=".666" style="stop-color:#10B981"/><stop offset="1" style="stop-color:#ECFDF5"/></linearGradient><path d="M-332.3 862.1c-310 146.6-640.5 98-738.2-108.6-97.8-206.5 74.3-492.9 384.3-639.5S-45.7 16 52.1 222.6s-74.4 492.9-384.4 639.5z" class="st3"/><linearGradient id="SVGID_5_" x1="-489.368" x2="-1955.605" y1="-100.452" y2="46.734" gradientTransform="matrix(.4763 .3765 -.3765 .4763 -109.073 818.321)" gradientUnits="userSpaceOnUse"><stop offset="0" style="stop-color:#0C1325"/><stop offset=".666" style="stop-color:#10B981"/><stop offset="1" style="stop-color:#ECFDF5"/></linearGradient><path d="M-322.3 847c-313.3 137.1-641.3 78.9-732.7-129.9C-1146.3 508.4-966.3 228-653 91S-11.7 12.1 79.7 220.8-9 710-322.3 847z" class="st4"/><linearGradient id="SVGID_6_" x1="-472.549" x2="-1957.29" y1="-141.399" y2="7.801" gradientTransform="rotate(39.152 -1206.718 247.613) scale(.6017)" gradientUnits="userSpaceOnUse"><stop offset="0" style="stop-color:#0C1325"/><stop offset=".666" style="stop-color:#10B981"/><stop offset="1" style="stop-color:#ECFDF5"/></linearGradient><path d="M-312.1 832.4c-316.5 127.1-641.6 59.1-726.3-151.8s103.2-484.8 419.7-611.9S22.9 9.6 107.6 220.5 4.3 705.4-312.1 832.4z" class="st5"/><linearGradient id="SVGID_7_" x1="-454.119" x2="-1957.47" y1="-182.763" y2="-31.536" gradientTransform="matrix(.4567 .3836 -.3836 .4567 -120.686 816.324)" gradientUnits="userSpaceOnUse"><stop offset="0" style="stop-color:#0C1325"/><stop offset=".666" style="stop-color:#10B981"/><stop offset="1" style="stop-color:#ECFDF5"/></linearGradient><path d="M-301.9 818.2c-319.4 116.6-641.4 38.6-719.1-174.3s118.2-480 437.6-596.6S58 8.8 135.8 221.6s-118.3 480-437.7 596.6z" class="st6"/><linearGradient id="SVGID_8_" x1="-434.028" x2="-1956.058" y1="-224.478" y2="-71.212" gradientTransform="matrix(.4466 .3876 -.3876 .4466 -127.293 814.73)" gradientUnits="userSpaceOnUse"><stop offset="0" style="stop-color:#0C1325"/><stop offset=".666" style="stop-color:#10B981"/><stop offset="1" style="stop-color:#ECFDF5"/></linearGradient><path d="M-291.5 804.5C-613.7 910.3-932 822-1002.4 607.3S-868.9 132.8-546.8 27s640.5-17.5 711 197.2S30.6 698.7-291.5 804.5z" class="st7"/><linearGradient id="SVGID_9_" x1="-412.229" x2="-1952.968" y1="-266.471" y2="-111.159" gradientTransform="rotate(42.07 -1130.308 226.88) scale(.5864)" gradientUnits="userSpaceOnUse"><stop offset="0" style="stop-color:#0C1325"/><stop offset=".666" style="stop-color:#10B981"/><stop offset="1" style="stop-color:#ECFDF5"/></linearGradient><path d="M-285.9 794c-324.9 93.6-638.9-6-701.3-222.5S-836.8 103.6-511.9 9.9s638.9 6 701.3 222.5S39 700.3-285.9 794z" class="st8"/><linearGradient id="SVGID_10_" x1="-388.68" x2="-1948.115" y1="-308.661" y2="-151.301" gradientTransform="rotate(43.368 -1112.529 209.333) scale(.5816)" gradientUnits="userSpaceOnUse"><stop offset="0" style="stop-color:#0C1325"/><stop offset=".666" style="stop-color:#10B981"/><stop offset="1" style="stop-color:#ECFDF5"/></linearGradient><path d="M-288.3 788.6c-327.4 80.4-636.3-31.3-689.9-249.5S-809.7 78.8-482.3-1.6 154 29.8 207.5 248 39.1 708.2-288.3 788.6z" class="st9"/><linearGradient id="SVGID_11_" x1="-363.344" x2="-1941.414" y1="-350.964" y2="-191.557" gradientTransform="rotate(44.464 -1097.785 192.58) scale(.577)" gradientUnits="userSpaceOnUse"><stop offset="0" style="stop-color:#0C1325"/><stop offset=".666" style="stop-color:#10B981"/><stop offset="1" style="stop-color:#ECFDF5"/></linearGradient><path d="M-288.9 782.7c-329.2 68.1-632.9-54.6-678.2-274-45.4-219.4 184.8-452.4 514-520.5s632.9 54.6 678.2 274-184.8 452.4-514 520.5z" class="st10"/><linearGradient id="SVGID_12_" x1="-336.192" x2="-1932.785" y1="-393.287" y2="-231.841" gradientTransform="matrix(.4021 .4077 -.4077 .4021 -197.33 825.1)" gradientUnits="userSpaceOnUse"><stop offset="0" style="stop-color:#0C1325"/><stop offset=".666" style="stop-color:#10B981"/><stop offset="1" style="stop-color:#ECFDF5"/></linearGradient><path d="M-287.8 776.3c-330.4 56.6-628.8-76-666.6-296.1s199.6-444.7 530-501.3 628.8 76 666.6 296.1-199.5 444.6-530 501.3z" class="st11"/><linearGradient id="SVGID_13_" x1="-307.197" x2="-1922.151" y1="-435.532" y2="-272.06" gradientTransform="rotate(46.16 -1074.001 161.266) scale(.5684)" gradientUnits="userSpaceOnUse"><stop offset="0" style="stop-color:#0C1325"/><stop offset=".666" style="stop-color:#10B981"/><stop offset="1" style="stop-color:#ECFDF5"/></linearGradient><path d="M-284.9 769.5c-331.1 46-624.3-95.5-655-316.1S-727.1 16.6-396-29.4s624.3 95.5 655 316.1S46.2 723.5-284.9 769.5z" class="st12"/><linearGradient id="SVGID_14_" x1="-276.345" x2="-1909.438" y1="-477.596" y2="-312.116" gradientTransform="matrix(.3864 .4113 -.4113 .3864 -228.727 821.912)" gradientUnits="userSpaceOnUse"><stop offset="0" style="stop-color:#0C1325"/><stop offset=".666" style="stop-color:#10B981"/><stop offset="1" style="stop-color:#ECFDF5"/></linearGradient><path d="M-280.4 762.6C-611.7 798.8-899.9 649.2-924 428.4S-699.2-.7-367.8-37 251.6 76.4 275.8 297.2 51 726.3-280.4 762.6z" class="st13"/><linearGradient id="SVGID_15_" x1="-243.626" x2="-1894.579" y1="-519.368" y2="-351.905" gradientTransform="rotate(47.269 -1055.998 132.366) scale(.5606)" gradientUnits="userSpaceOnUse"><stop offset="0" style="stop-color:#0C1325"/><stop offset=".666" style="stop-color:#10B981"/><stop offset="1" style="stop-color:#ECFDF5"/></linearGradient><path d="M-274.3 755.5C-605.6 782.7-888.7 625.8-906.9 405s235.8-421.6 567-448.8S274.5 85.9 292.6 306.6c18.1 220.7-235.7 421.7-566.9 448.9z" class="st14"/><linearGradient id="SVGID_16_" x1="-209.041" x2="-1877.512" y1="-560.736" y2="-391.321" gradientTransform="rotate(47.626 -1048.747 118.668) scale(.557)" gradientUnits="userSpaceOnUse"><stop offset="0" style="stop-color:#0C1325"/><stop offset=".666" style="stop-color:#10B981"/><stop offset="1" style="stop-color:#ECFDF5"/></linearGradient><path d="M-266.9 748.3C-597.7 767.1-876 603.6-888.6 383.2S-643-31.3-312.2-50.1 297 94.7 309.5 315.1 64 729.5-266.9 748.3z" class="st15"/><linearGradient id="SVGID_17_" x1="-172.6" x2="-1858.184" y1="-601.582" y2="-430.252" gradientTransform="rotate(47.869 -1042.353 105.453) scale(.5535)" gradientUnits="userSpaceOnUse"><stop offset="0" style="stop-color:#0C1325"/><stop offset=".666" style="stop-color:#10B981"/><stop offset="1" style="stop-color:#ECFDF5"/></linearGradient><path d="M-258 741.2c-330.2 11-603.9-158.4-611.2-378.5S-614.8-44.7-284.6-55.7s603.9 158.4 611.2 378.5S72.2 730.2-258 741.2z" class="st16"/><linearGradient id="SVGID_18_" x1="-134.323" x2="-1836.547" y1="-641.783" y2="-468.582" gradientTransform="rotate(48.003 -1036.814 92.66) scale(.5503)" gradientUnits="userSpaceOnUse"><stop offset="0" style="stop-color:#0C1325"/><stop offset=".666" style="stop-color:#10B981"/><stop offset="1" style="stop-color:#ECFDF5"/></linearGradient><path d="M-247.9 734c-329.4 3.9-598.5-171-601.1-390.5S-586.5-57.1-257.1-60.9s598.5 171 601.1 390.5S81.5 730.2-247.9 734z" class="st17"/><linearGradient id="SVGID_19_" x1="-94.239" x2="-1812.566" y1="-681.215" y2="-506.196" gradientTransform="rotate(48.044 -1031.964 80.398) scale(.5473)" gradientUnits="userSpaceOnUse"><stop offset="0" style="stop-color:#0C1325"/><stop offset=".666" style="stop-color:#10B981"/><stop offset="1" style="stop-color:#ECFDF5"/></linearGradient><path d="M-236.6 727c-328.5-2.9-593.2-182.6-591.3-401.5 1.9-218.9 269.7-394 598.2-391.2 328.5 2.9 593.2 182.6 591.3 401.5C359.7 554.7 91.9 729.9-236.6 727z" class="st18"/><linearGradient id="SVGID_20_" x1="-52.391" x2="-1786.215" y1="-719.752" y2="-542.972" gradientTransform="rotate(48.001 -1027.596 68.587) scale(.5446)" gradientUnits="userSpaceOnUse"><stop offset="0" style="stop-color:#0C1325"/><stop offset=".666" style="stop-color:#10B981"/><stop offset="1" style="stop-color:#ECFDF5"/></linearGradient><path d="M-224.1 720.1C-551.5 711-812 526.8-805.9 308.6c6-218.2 276.3-387.7 603.7-378.6s587.9 193.3 581.9 411.4-276.4 387.7-603.8 378.7z" class="st19"/><linearGradient id="SVGID_21_" x1="-8.83" x2="-1757.476" y1="-757.267" y2="-578.793" gradientTransform="matrix(.3637 .4019 -.4019 .3637 -294.67 778.09)" gradientUnits="userSpaceOnUse"><stop offset="0" style="stop-color:#0C1325"/><stop offset=".666" style="stop-color:#10B981"/><stop offset="1" style="stop-color:#ECFDF5"/></linearGradient><path d="M-210.5 713.2c-326.2-14.8-582.7-203.1-572.8-420.4S-501-88.8-174.8-74 407.9 129.1 398 346.5 115.7 728.1-210.5 713.2z" class="st20"/><linearGradient id="SVGID_22_" x1="36.381" x2="-1726.347" y1="-793.634" y2="-613.537" gradientTransform="rotate(47.66 -1020.715 46.09) scale(.5397)" gradientUnits="userSpaceOnUse"><stop offset="0" style="stop-color:#0C1325"/><stop offset=".666" style="stop-color:#10B981"/><stop offset="1" style="stop-color:#ECFDF5"/></linearGradient><path d="M-196 706.6C-520.9 686.4-773.5 494.5-760 278-746.6 61.4-472.3-97.8-147.3-77.6s577.5 212 564 428.6S129 726.8-196 706.6z" class="st21"/><linearGradient id="SVGID_23_" x1="83.167" x2="-1692.835" y1="-828.727" y2="-647.087" gradientTransform="rotate(47.384 -1017.958 35.468) scale(.5376)" gradientUnits="userSpaceOnUse"><stop offset="0" style="stop-color:#0C1325"/><stop offset=".666" style="stop-color:#10B981"/><stop offset="1" style="stop-color:#ECFDF5"/></linearGradient><path d="M-180.5 700.1c-323.6-25.1-572.4-220.4-555.6-436s292.7-370.1 616.4-345S452.7 139.5 436 355.2 143.2 725.3-180.5 700.1z" class="st22"/><linearGradient id="SVGID_24_" x1="131.441" x2="-1656.961" y1="-862.423" y2="-679.327" gradientTransform="rotate(47.036 -1015.78 25.2) scale(.5357)" gradientUnits="userSpaceOnUse"><stop offset="0" style="stop-color:#0C1325"/><stop offset=".666" style="stop-color:#10B981"/><stop offset="1" style="stop-color:#ECFDF5"/></linearGradient><path d="M-164.1 693.8C-486.3 664-731.5 465.8-711.7 251S-414.5-113.7-92.2-83.9s567.5 228 547.6 442.8-297.2 364.7-619.5 334.9z" class="st23"/><linearGradient id="SVGID_25_" x1="181.109" x2="-1618.758" y1="-894.603" y2="-710.143" gradientTransform="rotate(46.645 -1013.63 15.451) scale(.534)" gradientUnits="userSpaceOnUse"><stop offset="0" style="stop-color:#0C1325"/><stop offset=".666" style="stop-color:#10B981"/><stop offset="1" style="stop-color:#ECFDF5"/></linearGradient><path d="M-146.8 687.7c-320.9-34.1-562.6-235.1-539.8-449C-663.9 24.9-385.4-120.8-64.5-86.7s562.6 235.1 539.8 449c-22.7 213.8-301.2 359.5-622.1 325.4z" class="st24"/><linearGradient id="SVGID_26_" x1="232.064" x2="-1578.275" y1="-925.152" y2="-739.429" gradientTransform="scale(.5326) rotate(46.194 -1900.19 11.52)" gradientUnits="userSpaceOnUse"><stop offset="0" style="stop-color:#0C1325"/><stop offset=".666" style="stop-color:#10B981"/><stop offset="1" style="stop-color:#ECFDF5"/></linearGradient><path d="M-128.7 681.8c-319.5-38.2-557.8-241.7-532.4-454.6 25.4-212.9 305-354.5 624.5-316.4s557.8 241.7 532.4 454.6C470.3 578.3 190.7 720-128.7 681.8z" class="st25"/><linearGradient id="SVGID_27_" x1="284.19" x2="-1535.571" y1="-953.963" y2="-767.083" gradientTransform="matrix(.3711 .3804 -.3804 .3711 -306.788 722.606)" gradientUnits="userSpaceOnUse"><stop offset="0" style="stop-color:#0C1325"/><stop offset=".666" style="stop-color:#10B981"/><stop offset="1" style="stop-color:#ECFDF5"/></linearGradient><path d="M-109.9 676.1c-318-41.9-553.2-247.7-525.2-459.6C-607.2 4.5-326.8-133.3-8.7-91.4s553.2 247.7 525.2 459.6c-28 212-308.4 349.8-626.4 307.9z" class="st26"/><linearGradient id="SVGID_28_" x1="337.361" x2="-1490.72" y1="-980.935" y2="-793.007" gradientTransform="matrix(.374 .3762 -.3762 .374 -305.675 712.792)" gradientUnits="userSpaceOnUse"><stop offset="0" style="stop-color:#0C1325"/><stop offset=".666" style="stop-color:#10B981"/><stop offset="1" style="stop-color:#ECFDF5"/></linearGradient><path d="M-90.4 670.6C-407 625.1-639 417.3-608.7 206.3s311.5-345.1 628-299.7S567.9 160 537.6 370.9 226.1 716-90.4 670.6z" class="st27"/><linearGradient id="SVGID_29_" x1="391.446" x2="-1443.807" y1="-1005.974" y2="-817.116" gradientTransform="rotate(44.589 -1009.13 -18.974) scale(.5298)" gradientUnits="userSpaceOnUse"><stop offset="0" style="stop-color:#0C1325"/><stop offset=".666" style="stop-color:#10B981"/><stop offset="1" style="stop-color:#ECFDF5"/></linearGradient><path d="M-70.2 665.3c-315.1-48.8-544.2-258.5-511.7-468.5 32.5-210 314.3-340.7 629.4-291.9s544.2 258.5 511.7 468.5S244.9 714.1-70.2 665.3z" class="st28"/><linearGradient id="SVGID_30_" x1="446.305" x2="-1394.933" y1="-1028.998" y2="-839.331" gradientTransform="rotate(43.976 -1008.758 -26.43) scale(.5293)" gradientUnits="userSpaceOnUse"><stop offset="0" style="stop-color:#0C1325"/><stop offset=".666" style="stop-color:#10B981"/><stop offset="1" style="stop-color:#ECFDF5"/></linearGradient><path d="M-49.4 660.2C-363 608.4-589.2 396.9-554.6 187.9S-237.8-148.5 75.8-96.6 615.6 166.7 581 375.7c-34.5 209-316.8 336.4-630.4 284.5z" class="st29"/><linearGradient id="SVGID_31_" x1="501.793" x2="-1344.205" y1="-1049.932" y2="-859.581" gradientTransform="matrix(.3849 .363 -.363 .3849 -297.873 683.034)" gradientUnits="userSpaceOnUse"><stop offset="0" style="stop-color:#0C1325"/><stop offset=".666" style="stop-color:#10B981"/><stop offset="1" style="stop-color:#ECFDF5"/></linearGradient><path d="M-27.9 655.3C-340 600.5-563.5 387.5-527 179.5S-207.9-152.7 104.3-98s535.6 267.8 499.1 475.8S284.2 710.1-27.9 655.3z" class="st30"/><linearGradient id="SVGID_32_" x1="557.761" x2="-1291.747" y1="-1068.716" y2="-877.808" gradientTransform="rotate(42.643 -1009.25 -39.95) scale(.5291)" gradientUnits="userSpaceOnUse"><stop offset="0" style="stop-color:#0C1325"/><stop offset=".666" style="stop-color:#10B981"/><stop offset="1" style="stop-color:#ECFDF5"/></linearGradient><path d="M-6 650.7c-310.7-57.5-531.5-271.9-493.2-479S-178-156.6 132.7-99.1s531.5 271.9 493.2 479C587.6 586.9 304.7 708.2-6 650.7z" class="st31"/><linearGradient id="SVGID_33_" x1="614.057" x2="-1237.687" y1="-1085.297" y2="-893.964" gradientTransform="matrix(.3937 .3537 -.3537 .3937 -289.349 663.135)" gradientUnits="userSpaceOnUse"><stop offset="0" style="stop-color:#0C1325"/><stop offset=".666" style="stop-color:#10B981"/><stop offset="1" style="stop-color:#ECFDF5"/></linearGradient><path d="M16.6 646.2c-309.2-60-527.4-275.8-487.4-481.8S-147.7-160 161.5-100s527.4 275.8 487.4 481.8S325.8 706.2 16.6 646.2z" class="st32"/><linearGradient id="SVGID_34_" x1="670.527" x2="-1182.165" y1="-1099.637" y2="-908.011" gradientTransform="rotate(41.209 -1010.741 -51.382) scale(.5297)" gradientUnits="userSpaceOnUse"><stop offset="0" style="stop-color:#0C1325"/><stop offset=".666" style="stop-color:#10B981"/><stop offset="1" style="stop-color:#ECFDF5"/></linearGradient><path d="M39.6 641.9c-307.7-62.4-523.5-279.3-481.9-484.4s324.8-320.7 632.6-258.3 523.5 279.3 481.9 484.4C630.5 588.8 347.3 704.4 39.6 641.9z" class="st33"/><linearGradient id="SVGID_35_" x1="727.016" x2="-1125.327" y1="-1111.71" y2="-919.925" gradientTransform="rotate(40.466 -1011.943 -56.154) scale(.5305)" gradientUnits="userSpaceOnUse"><stop offset="0" style="stop-color:#0C1325"/><stop offset=".666" style="stop-color:#10B981"/><stop offset="1" style="stop-color:#ECFDF5"/></linearGradient><path d="M63.1 637.9c-306.3-64.7-519.6-282.6-476.5-486.7S-87.1-166 219.2-101.3s519.6 282.6 476.5 486.7C652.6 589.6 369.4 702.6 63.1 637.9z" class="st34"/><linearGradient id="SVGID_36_" x1="783.373" x2="-1067.326" y1="-1121.5" y2="-929.692" gradientTransform="matrix(.4089 .3395 -.3395 .4089 -272.307 633.488)" gradientUnits="userSpaceOnUse"><stop offset="0" style="stop-color:#0C1325"/><stop offset=".666" style="stop-color:#10B981"/><stop offset="1" style="stop-color:#ECFDF5"/></linearGradient><path d="M87 634c-304.9-66.8-515.9-285.7-471.3-488.8s327.8-313.7 632.6-246.8S764.1 184 719.6 387.2 391.8 700.9 87 634z" class="st35"/><linearGradient id="SVGID_37_" x1="839.445" x2="-1008.317" y1="-1129.007" y2="-937.309" gradientTransform="rotate(38.916 -1015.422 -64.105) scale(.5326)" gradientUnits="userSpaceOnUse"><stop offset="0" style="stop-color:#0C1325"/><stop offset=".666" style="stop-color:#10B981"/><stop offset="1" style="stop-color:#ECFDF5"/></linearGradient><path d="M111.3 630.4C-192.1 561.5-400.9 341.8-355 139.6s329-310.3 632.4-241.5 512.2 288.5 466.3 490.7c-45.8 202.3-329 310.4-632.4 241.6z" class="st36"/><linearGradient id="SVGID_38_" x1="895.087" x2="-948.46" y1="-1134.241" y2="-942.786" gradientTransform="matrix(.4201 .3297 -.3297 .4201 -258.496 613.973)" gradientUnits="userSpaceOnUse"><stop offset="0" style="stop-color:#0C1325"/><stop offset=".666" style="stop-color:#10B981"/><stop offset="1" style="stop-color:#ECFDF5"/></linearGradient><path d="M136 626.9c-302-70.7-508.6-291.2-461.5-492.4S4.7-172.6 306.7-101.9s508.6 291.2 461.5 492.4S438 697.6 136 626.9z" class="st37"/><linearGradient id="SVGID_39_" x1="950.158" x2="-887.917" y1="-1137.223" y2="-946.143" gradientTransform="rotate(37.324 -1020.127 -69.352) scale(.5357)" gradientUnits="userSpaceOnUse"><stop offset="0" style="stop-color:#0C1325"/><stop offset=".666" style="stop-color:#10B981"/><stop offset="1" style="stop-color:#ECFDF5"/></linearGradient><path d="M161.1 623.6C-139.5 551.1-344 330-295.7 129.7S35.4-174.3 336-101.8s505.1 293.6 456.8 493.9-331.1 304-631.7 231.5z" class="st38"/><linearGradient id="SVGID_40_" x1="1004.522" x2="-826.848" y1="-1137.987" y2="-947.412" gradientTransform="matrix(.4321 .3199 -.3199 .4321 -243.013 594.72)" gradientUnits="userSpaceOnUse"><stop offset="0" style="stop-color:#0C1325"/><stop offset=".666" style="stop-color:#10B981"/><stop offset="1" style="stop-color:#ECFDF5"/></linearGradient><path d="M186.5 620.5c-299.2-74.2-501.7-295.9-452.2-495.3s332-300.9 631.2-226.7 501.7 295.9 452.2 495.3-332 300.9-631.2 226.7z" class="st39"/><linearGradient id="SVGID_41_" x1="1058.05" x2="-765.414" y1="-1136.577" y2="-946.633" gradientTransform="rotate(35.697 -1026.105 -71.864) scale(.5397)" gradientUnits="userSpaceOnUse"><stop offset="0" style="stop-color:#0C1325"/><stop offset=".666" style="stop-color:#10B981"/><stop offset="1" style="stop-color:#ECFDF5"/></linearGradient><path d="M212.2 617.6c-297.8-75.7-498.3-298-447.8-496.4s332.7-298 630.5-222.3 498.3 298 447.8 496.4-332.7 298-630.5 222.3z" class="st40"/><linearGradient id="SVGID_42_" x1="1110.622" x2="-703.772" y1="-1133.048" y2="-943.857" gradientTransform="matrix(.4447 .3099 -.3099 .4447 -226.089 575.761)" gradientUnits="userSpaceOnUse"><stop offset="0" style="stop-color:#0C1325"/><stop offset=".666" style="stop-color:#10B981"/><stop offset="1" style="stop-color:#ECFDF5"/></linearGradient><path d="M238.1 614.8c-296.4-77.2-495-299.9-443.5-497.5s333.5-295.1 629.9-217.9S919.5 199.5 868 397c-51.4 197.5-333.4 295.1-629.9 217.8z" class="st41"/><linearGradient id="SVGID_43_" x1="1162.127" x2="-642.075" y1="-1127.461" y2="-939.144" gradientTransform="matrix(.4512 .3049 -.3049 .4512 -217.154 566.4)" gradientUnits="userSpaceOnUse"><stop offset="0" style="stop-color:#0C1325"/><stop offset=".666" style="stop-color:#10B981"/><stop offset="1" style="stop-color:#ECFDF5"/></linearGradient><path d="M264.4 612.3c-295-78.6-491.8-301.7-439.4-498.4S159-178.4 454.1-99.8 945.8 202 893.4 398.6s-334 292.3-629 213.7z" class="st42"/><linearGradient id="SVGID_44_" x1="1212.462" x2="-580.473" y1="-1119.89" y2="-932.56" gradientTransform="rotate(33.212 -1037.952 -70.09) scale(.5473)" gradientUnits="userSpaceOnUse"><stop offset="0" style="stop-color:#0C1325"/><stop offset=".666" style="stop-color:#10B981"/><stop offset="1" style="stop-color:#ECFDF5"/></linearGradient><path d="M290.8 609.9c-293.7-80-488.6-303.4-435.3-499.2S190-178.8 483.7-98.9 972.3 204.5 919 400.2c-53.2 195.7-334.5 289.6-628.2 209.7z" class="st43"/><linearGradient id="SVGID_45_" x1="1261.536" x2="-519.108" y1="-1110.411" y2="-924.178" gradientTransform="rotate(32.387 -1042.483 -67.785) scale(.5503)" gradientUnits="userSpaceOnUse"><stop offset="0" style="stop-color:#0C1325"/><stop offset=".666" style="stop-color:#10B981"/><stop offset="1" style="stop-color:#ECFDF5"/></linearGradient><path d="M317.5 607.6C25.1 526.4-168 302.7-113.9 107.9s335-287 627.3-205.8S998.9 207 944.8 401.8s-335 287-627.3 205.8z" class="st44"/><linearGradient id="SVGID_46_" x1="1309.264" x2="-458.115" y1="-1099.109" y2="-914.078" gradientTransform="matrix(.4717 .2897 -.2897 .4717 -188.777 538.808)" gradientUnits="userSpaceOnUse"><stop offset="0" style="stop-color:#0C1325"/><stop offset=".666" style="stop-color:#10B981"/><stop offset="1" style="stop-color:#ECFDF5"/></linearGradient><path d="M344.3 605.5c-291-82.4-482.5-306.3-427.6-500.3S252-179.1 543-96.8s482.5 306.3 427.6 500.3-335.3 284.4-626.3 202z" class="st45"/><linearGradient id="SVGID_47_" x1="1355.576" x2="-397.623" y1="-1086.075" y2="-902.344" gradientTransform="rotate(30.731 -1053.307 -60.604) scale(.5569)" gradientUnits="userSpaceOnUse"><stop offset="0" style="stop-color:#0C1325"/><stop offset=".666" style="stop-color:#10B981"/><stop offset="1" style="stop-color:#ECFDF5"/></linearGradient><path d="M371.3 603.6C81.6 520.1-108.2 296-52.6 102.9S283-179 572.7-95.5s479.5 307.6 423.8 500.7c-55.6 193-335.5 281.9-625.2 198.4z" class="st46"/><linearGradient id="SVGID_48_" x1="1400.409" x2="-337.752" y1="-1071.402" y2="-889.064" gradientTransform="matrix(.4859 .2795 -.2795 .4859 -168.798 520.826)" gradientUnits="userSpaceOnUse"><stop offset="0" style="stop-color:#0C1325"/><stop offset=".666" style="stop-color:#10B981"/><stop offset="1" style="stop-color:#ECFDF5"/></linearGradient><path d="M398.4 601.8C110 517.3-78.1 293-21.8 100.8S314-178.7 602.4-94.2s476.5 308.8 420.2 501-335.8 279.5-624.2 195z" class="st47"/><linearGradient id="SVGID_49_" x1="1443.71" x2="-278.612" y1="-1055.188" y2="-874.33" gradientTransform="rotate(29.091 -1065.885 -49.57) scale(.5644)" gradientUnits="userSpaceOnUse"><stop offset="0" style="stop-color:#0C1325"/><stop offset=".666" style="stop-color:#10B981"/><stop offset="1" style="stop-color:#ECFDF5"/></linearGradient><path d="M425.7 600.2C138.6 514.7-48 290.3 9 98.9S344.9-178.2 632-92.7s473.6 309.9 416.7 501.2c-57 191.4-335.9 277.2-623 191.7z" class="st48"/><linearGradient id="SVGID_50_" x1="1485.438" x2="-220.308" y1="-1037.532" y2="-858.235" gradientTransform="matrix(.5006 .2693 -.2693 .5006 -148.196 503.172)" gradientUnits="userSpaceOnUse"><stop offset="0" style="stop-color:#0C1325"/><stop offset=".666" style="stop-color:#10B981"/><stop offset="1" style="stop-color:#ECFDF5"/></linearGradient><path d="M453 598.7C167.2 512.2-17.8 287.8 39.8 97.3s336-274.8 621.8-188.4 470.8 310.9 413.2 501.4c-57.6 190.5-336 274.8-621.8 188.4z" class="st49"/><linearGradient id="SVGID_51_" x1="1525.56" x2="-162.931" y1="-1018.534" y2="-840.874" gradientTransform="rotate(27.479 -1080.064 -34.39) scale(.5726)" gradientUnits="userSpaceOnUse"><stop offset="0" style="stop-color:#0C1325"/><stop offset=".666" style="stop-color:#10B981"/><stop offset="1" style="stop-color:#ECFDF5"/></linearGradient><path d="M480.4 597.3C195.9 510 12.4 285.5 70.6 95.9s336-272.6 620.6-185.2 468 311.8 409.9 501.4C1042.8 601.7 765 684.6 480.4 597.3z" class="st50"/><linearGradient id="SVGID_52_" x1="1564.053" x2="-106.566" y1="-998.295" y2="-822.34" gradientTransform="scale(.577) rotate(26.681 -1885.453 -43.663)" gradientUnits="userSpaceOnUse"><stop offset="0" style="stop-color:#0C1325"/><stop offset=".666" style="stop-color:#10B981"/><stop offset="1" style="stop-color:#ECFDF5"/></linearGradient><path d="M507.9 596.1C224.6 507.9 42.6 283.5 101.3 94.7s336-270.4 619.3-182.2 465.3 312.6 406.6 501.4c-58.8 188.7-336 270.3-619.3 182.2z" class="st51"/><linearGradient id="SVGID_53_" x1="1600.9" x2="-51.287" y1="-976.918" y2="-802.73" gradientTransform="matrix(.5232 .2539 -.2539 .5232 -116.53 477.287)" gradientUnits="userSpaceOnUse"><stop offset="0" style="stop-color:#0C1325"/><stop offset=".666" style="stop-color:#10B981"/><stop offset="1" style="stop-color:#ECFDF5"/></linearGradient><path d="M535.4 595C253.4 506 72.8 281.6 132 93.7S467.9-174.5 750-85.6s462.6 313.4 403.4 501.3-336 268.2-618 179.3z" class="st52"/><linearGradient id="SVGID_54_" x1="1636.096" x2="2.84" y1="-954.5" y2="-782.136" gradientTransform="rotate(25.106 -1105.682 -3.307) scale(.5864)" gradientUnits="userSpaceOnUse"><stop offset="0" style="stop-color:#0C1325"/><stop offset=".666" style="stop-color:#10B981"/><stop offset="1" style="stop-color:#ECFDF5"/></linearGradient><path d="M562.9 594c-280.8-89.7-460-314-400.2-501.1S498.5-173.3 779.2-83.6s460 314 400.2 501.1S843.7 683.6 562.9 594z" class="st53"/><linearGradient id="SVGID_55_" x1="1669.641" x2="55.758" y1="-931.141" y2="-760.652" gradientTransform="matrix(.5388 .2437 -.2437 .5388 -95.174 460.407)" gradientUnits="userSpaceOnUse"><stop offset="0" style="stop-color:#0C1325"/><stop offset=".666" style="stop-color:#10B981"/><stop offset="1" style="stop-color:#ECFDF5"/></linearGradient><path d="M590.4 593.1C310.8 502.8 133 278.5 193.2 92.2s335.6-264 615.2-173.7 457.3 314.6 397.1 500.9-335.6 264-615.1 173.7z" class="st54"/><linearGradient id="SVGID_56_" x1="1701.544" x2="107.42" y1="-906.935" y2="-738.366" gradientTransform="matrix(.5466 .2385 -.2385 .5466 -84.488 452.073)" gradientUnits="userSpaceOnUse"><stop offset="0" style="stop-color:#0C1325"/><stop offset=".666" style="stop-color:#10B981"/><stop offset="1" style="stop-color:#ECFDF5"/></linearGradient><path d="M617.8 592.3C339.5 501.4 163 277.2 223.7 91.8S559.1-170.3 837.4-79.3s454.8 315.1 394.1 500.6-335.4 262-613.7 171z" class="st55"/><linearGradient id="SVGID_57_" x1="1731.817" x2="157.785" y1="-881.977" y2="-715.367" gradientTransform="rotate(22.821 -1136.26 38.978) scale(.6017)" gradientUnits="userSpaceOnUse"><stop offset="0" style="stop-color:#0C1325"/><stop offset=".666" style="stop-color:#10B981"/><stop offset="1" style="stop-color:#ECFDF5"/></linearGradient><path d="M645.2 591.7C368.1 500.1 193 276.1 254 91.5S589.2-168.6 866.3-77s452.2 315.6 391.2 500.2-335.2 260.1-612.3 168.5z" class="st56"/><linearGradient id="SVGID_58_" x1="1760.481" x2="206.823" y1="-856.356" y2="-691.739" gradientTransform="rotate(22.074 -1148.018 55.716) scale(.6071)" gradientUnits="userSpaceOnUse"><stop offset="0" style="stop-color:#0C1325"/><stop offset=".666" style="stop-color:#10B981"/><stop offset="1" style="stop-color:#ECFDF5"/></linearGradient><path d="M672.6 591.1C396.7 499 222.8 275.2 284.2 91.3S619.1-166.8 895-74.7s449.8 315.9 388.3 499.8-334.8 258.2-610.7 166z" class="st57"/><linearGradient id="SVGID_59_" x1="1787.561" x2="254.509" y1="-830.158" y2="-667.563" gradientTransform="matrix(.5707 .2231 -.2231 .5707 -52.653 427.47)" gradientUnits="userSpaceOnUse"><stop offset="0" style="stop-color:#0C1325"/><stop offset=".666" style="stop-color:#10B981"/><stop offset="1" style="stop-color:#ECFDF5"/></linearGradient><path d="M699.8 590.7C425.1 498 252.5 274.4 314.3 91.4S648.9-164.9 923.6-72.2s447.3 316.3 385.5 499.3c-61.8 183.1-334.6 256.3-609.3 163.6z" class="st58"/><linearGradient id="SVGID_60_" x1="1813.085" x2="300.825" y1="-803.466" y2="-642.917" gradientTransform="matrix(.5788 .2179 -.2179 .5788 -42.186 419.391)" gradientUnits="userSpaceOnUse"><stop offset="0" style="stop-color:#0C1325"/><stop offset=".666" style="stop-color:#10B981"/><stop offset="1" style="stop-color:#ECFDF5"/></linearGradient><path d="M726.9 590.3C453.4 497.1 282.1 273.8 344.2 91.5S678.4-162.9 951.9-69.7s444.9 316.6 382.7 498.8c-62.1 182.3-334.1 254.5-607.7 161.2z" class="st59"/><linearGradient id="SVGID_61_" x1="1837.086" x2="345.761" y1="-776.358" y2="-617.875" gradientTransform="matrix(.587 .2127 -.2127 .587 -31.826 411.37)" gradientUnits="userSpaceOnUse"><stop offset="0" style="stop-color:#0C1325"/><stop offset=".666" style="stop-color:#10B981"/><stop offset="1" style="stop-color:#ECFDF5"/></linearGradient><path d="M753.9 590.1c-272.3-93.7-442.5-316.8-380-498.3S707.7-160.8 980.1-67.1s442.5 316.8 380 498.3-333.8 252.6-606.2 158.9z" class="st60"/><linearGradient id="SVGID_62_" x1="1859.602" x2="389.313" y1="-748.909" y2="-592.507" gradientTransform="matrix(.5952 .2076 -.2076 .5952 -21.594 403.402)" gradientUnits="userSpaceOnUse"><stop offset="0" style="stop-color:#0C1325"/><stop offset=".666" style="stop-color:#10B981"/><stop offset="1" style="stop-color:#ECFDF5"/></linearGradient><path d="M780.8 589.9c-271.2-94.2-440.1-317-377.4-497.7S736.8-158.6 1008-64.5s440.1 316.9 377.4 497.6S1052 684 780.8 589.9z" class="st61"/><linearGradient id="SVGID_63_" x1="1880.673" x2="431.479" y1="-721.19" y2="-566.879" gradientTransform="matrix(.6035 .2024 -.2024 .6035 -11.51 395.485)" gradientUnits="userSpaceOnUse"><stop offset="0" style="stop-color:#0C1325"/><stop offset=".666" style="stop-color:#10B981"/><stop offset="1" style="stop-color:#ECFDF5"/></linearGradient><path d="M807.5 589.8c-270-94.6-437.8-317.1-374.8-497s333-249.1 603-154.6 437.8 317.1 374.8 497-333 249.1-603 154.6z" class="st62"/><linearGradient id="SVGID_64_" x1="1900.339" x2="472.265" y1="-693.266" y2="-541.054" gradientTransform="rotate(17.865 -1234 188.792) scale(.6429)" gradientUnits="userSpaceOnUse"><stop offset="0" style="stop-color:#0C1325"/><stop offset=".666" style="stop-color:#10B981"/><stop offset="1" style="stop-color:#ECFDF5"/></linearGradient><path d="M834 589.7C565.1 494.8 398.5 272.6 461.8 93.5S794.2-154 1063.1-59s435.5 317.1 372.2 496.3S1102.8 684.7 834 589.7z" class="st63"/><linearGradient id="SVGID_65_" x1="1918.645" x2="511.682" y1="-665.2" y2="-515.09" gradientTransform="matrix(.6203 .1921 -.1921 .6203 8.135 379.788)" gradientUnits="userSpaceOnUse"><stop offset="0" style="stop-color:#0C1325"/><stop offset=".666" style="stop-color:#10B981"/><stop offset="1" style="stop-color:#ECFDF5"/></linearGradient><path d="M860.2 589.8C592.6 494.5 427 272.6 490.5 94.2s332-245.7 599.7-150.5 433.2 317.2 369.7 495.5-332 245.9-599.7 150.6z" class="st64"/><linearGradient id="SVGID_66_" x1="1935.637" x2="549.741" y1="-637.048" y2="-489.04" gradientTransform="rotate(16.558 -1269.585 246.725) scale(.6559)" gradientUnits="userSpaceOnUse"><stop offset="0" style="stop-color:#0C1325"/><stop offset=".666" style="stop-color:#10B981"/><stop offset="1" style="stop-color:#ECFDF5"/></linearGradient><path d="M886.3 589.9c-266.5-95.6-431-317.1-367.2-494.8s331.5-244.1 598-148.5 431 317.1 367.2 494.8-331.5 244.1-598 148.5z" class="st65"/><linearGradient id="SVGID_67_" x1="1951.359" x2="586.462" y1="-608.865" y2="-462.955" gradientTransform="rotate(15.916 -1289.379 278.513) scale(.6626)" gradientUnits="userSpaceOnUse"><stop offset="0" style="stop-color:#0C1325"/><stop offset=".666" style="stop-color:#10B981"/><stop offset="1" style="stop-color:#ECFDF5"/></linearGradient><path d="M912.1 590.1c-265.4-96-428.7-317.1-364.8-494s330.9-242.5 596.3-146.5 428.7 317.1 364.8 494c-63.9 176.8-330.9 242.4-596.3 146.5z" class="st66"/><linearGradient id="SVGID_68_" x1="1965.86" x2="621.862" y1="-580.699" y2="-436.883" gradientTransform="rotate(15.292 -1309.56 312.173) scale(.6694)" gradientUnits="userSpaceOnUse"><stop offset="0" style="stop-color:#0C1325"/><stop offset=".666" style="stop-color:#10B981"/><stop offset="1" style="stop-color:#ECFDF5"/></linearGradient><path d="M937.6 590.3c-264.3-96.2-426.5-317-362.4-493.1s330.3-240.9 594.6-144.7 426.5 317 362.4 493.1c-64.1 176.1-330.3 240.9-594.6 144.7z" class="st67"/><linearGradient id="SVGID_69_" x1="1979.187" x2="655.967" y1="-552.597" y2="-410.864" gradientTransform="rotate(14.687 -1331.766 348.39) scale(.6764)" gradientUnits="userSpaceOnUse"><stop offset="0" style="stop-color:#0C1325"/><stop offset=".666" style="stop-color:#10B981"/><stop offset="1" style="stop-color:#ECFDF5"/></linearGradient><path d="M962.9 590.6C699.7 494.1 538.5 273.7 602.8 98.3S932.6-141 1195.7-44.5s424.4 316.9 360.1 492.2c-64.3 175.4-329.7 239.3-592.9 142.9z" class="st68"/><linearGradient id="SVGID_70_" x1="1991.388" x2="688.799" y1="-524.599" y2="-384.94" gradientTransform="rotate(14.069 -1355.328 386.173) scale(.6834)" gradientUnits="userSpaceOnUse"><stop offset="0" style="stop-color:#0C1325"/><stop offset=".666" style="stop-color:#10B981"/><stop offset="1" style="stop-color:#ECFDF5"/></linearGradient><path d="M987.8 590.9C725.8 494.2 565.6 274.2 630 99.6s329.1-237.8 591.2-141.1 422.2 316.7 357.8 491.3-329.1 237.8-591.2 141.1z" class="st69"/><linearGradient id="SVGID_71_" x1="2002.508" x2="720.388" y1="-496.744" y2="-359.144" gradientTransform="matrix(.6716 .1611 -.1611 .6716 61.444 333.558)" gradientUnits="userSpaceOnUse"><stop offset="0" style="stop-color:#0C1325"/><stop offset=".666" style="stop-color:#10B981"/><stop offset="1" style="stop-color:#ECFDF5"/></linearGradient><path d="M1012.5 591.2c-261-96.9-420.1-316.5-355.5-490.3s328.5-236.3 589.4-139.3 420.1 316.5 355.5 490.4-328.5 236.2-589.4 139.2z" class="st70"/><linearGradient id="SVGID_72_" x1="2012.597" x2="750.76" y1="-469.067" y2="-333.511" gradientTransform="matrix(.6803 .1559 -.1559 .6803 69.302 325.94)" gradientUnits="userSpaceOnUse"><stop offset="0" style="stop-color:#0C1325"/><stop offset=".666" style="stop-color:#10B981"/><stop offset="1" style="stop-color:#ECFDF5"/></linearGradient><path d="M1036.8 591.6c-259.8-97.1-418-316.3-353.3-489.4s327.8-234.8 587.7-137.6 418 316.3 353.3 489.4-327.9 234.8-587.7 137.6z" class="st71"/><linearGradient id="SVGID_73_" x1="2021.7" x2="779.946" y1="-441.599" y2="-308.07" gradientTransform="rotate(12.342 -1434.209 514.631) scale(.7053)" gradientUnits="userSpaceOnUse"><stop offset="0" style="stop-color:#0C1325"/><stop offset=".666" style="stop-color:#10B981"/><stop offset="1" style="stop-color:#ECFDF5"/></linearGradient><path d="M1060.7 592.1c-258.7-97.3-415.9-316-351.1-488.4s327.2-233.3 585.9-136 415.9 316 351.1 488.4-327.2 233.3-585.9 136z" class="st72"/><linearGradient id="SVGID_74_" x1="2029.862" x2="807.977" y1="-414.367" y2="-282.846" gradientTransform="matrix(.6978 .1456 -.1456 .6978 83.963 310.747)" gradientUnits="userSpaceOnUse"><stop offset="0" style="stop-color:#0C1325"/><stop offset=".666" style="stop-color:#10B981"/><stop offset="1" style="stop-color:#ECFDF5"/></linearGradient><path d="M1084.2 592.5C826.6 495 670.4 276.8 735.3 105.1s326.5-231.9 584.1-134.4 413.8 315.7 348.9 487.4-326.4 231.9-584.1 134.4z" class="st73"/><linearGradient id="SVGID_75_" x1="2037.128" x2="834.885" y1="-387.397" y2="-257.864" gradientTransform="rotate(11.234 -1495.138 612.427) scale(.7203)" gradientUnits="userSpaceOnUse"><stop offset="0" style="stop-color:#0C1325"/><stop offset=".666" style="stop-color:#10B981"/><stop offset="1" style="stop-color:#ECFDF5"/></linearGradient><path d="M1107.4 593c-256.6-97.6-411.8-315.4-346.7-486.3S1086.4-123.7 1343-26.1s411.8 315.4 346.7 486.3c-65 171-325.8 230.5-582.3 132.8z" class="st74"/><linearGradient id="SVGID_76_" x1="2043.541" x2="860.701" y1="-360.711" y2="-233.144" gradientTransform="matrix(.7154 .1352 -.1352 .7154 97.091 295.584)" gradientUnits="userSpaceOnUse"><stop offset="0" style="stop-color:#0C1325"/><stop offset=".666" style="stop-color:#10B981"/><stop offset="1" style="stop-color:#ECFDF5"/></linearGradient><path d="M1130.1 593.5c-255.5-97.7-409.8-315-344.6-485.3s325-229 580.5-131.2 409.8 315 344.6 485.3-325 229-580.5 131.2z" class="st75"/><linearGradient id="SVGID_77_" x1="2049.145" x2="885.46" y1="-334.33" y2="-208.706" gradientTransform="rotate(10.187 -1564.457 722.205) scale(.7358)" gradientUnits="userSpaceOnUse"><stop offset="0" style="stop-color:#0C1325"/><stop offset=".666" style="stop-color:#10B981"/><stop offset="1" style="stop-color:#ECFDF5"/></linearGradient><path d="M1152.4 594.1C898 496.2 744.6 279.4 809.8 109.9s324.3-227.6 578.7-129.8 407.8 314.6 342.6 484.2-324.3 227.6-578.7 129.8z" class="st76"/><linearGradient id="SVGID_78_" x1="2053.98" x2="909.192" y1="-308.269" y2="-184.565" gradientTransform="matrix(.7331 .1249 -.1249 .7331 108.533 280.42)" gradientUnits="userSpaceOnUse"><stop offset="0" style="stop-color:#0C1325"/><stop offset=".666" style="stop-color:#10B981"/><stop offset="1" style="stop-color:#ECFDF5"/></linearGradient><path d="M1174.2 594.6c-253.3-98-405.8-314.2-340.5-483s323.6-226.3 576.9-128.3 405.8 314.2 340.5 483c-65.2 168.8-323.5 226.3-576.9 128.3z" class="st77"/><linearGradient id="SVGID_79_" x1="2058.086" x2="931.932" y1="-282.546" y2="-160.737" gradientTransform="rotate(9.167 -1645.318 845.088) scale(.7516)" gradientUnits="userSpaceOnUse"><stop offset="0" style="stop-color:#0C1325"/><stop offset=".666" style="stop-color:#10B981"/><stop offset="1" style="stop-color:#ECFDF5"/></linearGradient><path d="M1195.6 595.1c-252.3-98-403.8-313.8-338.5-481.9s322.8-224.9 575.1-126.9 403.8 313.8 338.5 481.9c-65.4 168.2-322.8 225-575.1 126.9z" class="st78"/><linearGradient id="SVGID_80_" x1="2061.501" x2="953.712" y1="-257.171" y2="-137.232" gradientTransform="rotate(8.68 -1688.797 911.246) scale(.7596)" gradientUnits="userSpaceOnUse"><stop offset="0" style="stop-color:#0C1325"/><stop offset=".666" style="stop-color:#10B981"/><stop offset="1" style="stop-color:#ECFDF5"/></linearGradient><path d="M1216.5 595.7C965.3 497.6 814.6 282.4 880 114.9s322-223.6 573.2-125.5 401.9 313.3 336.5 480.7c-65.4 167.5-322 223.7-573.2 125.6z" class="st79"/><linearGradient id="SVGID_81_" x1="2064.264" x2="974.564" y1="-232.156" y2="-114.061" gradientTransform="matrix(.7599 .1094 -.1094 .7599 122.201 257.603)" gradientUnits="userSpaceOnUse"><stop offset="0" style="stop-color:#0C1325"/><stop offset=".666" style="stop-color:#10B981"/><stop offset="1" style="stop-color:#ECFDF5"/></linearGradient><path d="M1236.9 596.2C986.7 498.1 837 283.3 902.4 116.6s321.2-222.3 571.4-124.1 399.9 312.9 334.5 479.6-321.3 222.3-571.4 124.1z" class="st80"/><linearGradient id="SVGID_82_" x1="2066.41" x2="994.521" y1="-207.511" y2="-91.233" gradientTransform="matrix(.7689 .1042 -.1042 .7689 125.75 249.963)" gradientUnits="userSpaceOnUse"><stop offset="0" style="stop-color:#0C1325"/><stop offset=".666" style="stop-color:#10B981"/><stop offset="1" style="stop-color:#ECFDF5"/></linearGradient><path d="M1256.7 596.8c-249.1-98.2-398-312.4-332.6-478.4s320.4-221 569.5-122.8 398 312.4 332.6 478.4-320.4 220.9-569.5 122.8z" class="st81"/><linearGradient id="SVGID_83_" x1="2067.973" x2="1013.614" y1="-183.243" y2="-68.756" gradientTransform="matrix(.7779 .09908 -.09908 .7779 128.765 242.299)" gradientUnits="userSpaceOnUse"><stop offset="0" style="stop-color:#0C1325"/><stop offset=".666" style="stop-color:#10B981"/><stop offset="1" style="stop-color:#ECFDF5"/></linearGradient><path d="M1276 597.3c-248.1-98.2-396.1-311.8-330.7-477.1S1264.9-99.6 1513-1.4s396.1 311.8 330.7 477.1c-65.5 165.4-319.6 219.8-567.7 121.6z" class="st82"/><linearGradient id="SVGID_84_" x1="2068.986" x2="1031.873" y1="-159.358" y2="-46.634" gradientTransform="matrix(.7869 .09392 -.09392 .7869 131.226 234.606)" gradientUnits="userSpaceOnUse"><stop offset="0" style="stop-color:#0C1325"/><stop offset=".666" style="stop-color:#10B981"/><stop offset="1" style="stop-color:#ECFDF5"/></linearGradient><path d="M1294.7 597.8c-247-98.2-394.2-311.3-328.8-475.9S1284.7-96.6 1531.8 1.7 1926 313 1860.6 477.6 1541.7 696 1294.7 597.8z" class="st83"/></svg>