<svg width="1245" height="362" viewBox="0 0 1245 362" fill="none" xmlns="http://www.w3.org/2000/svg">
<path fill-rule="evenodd" clip-rule="evenodd" d="M1548.31 -580.564C1385.47 -550.344 1159.29 -469.808 906.001 -268.505C652.521 -67.0493 426.114 13.5857 263.051 43.8482C181.521 58.9789 115.831 61.5164 70.5146 60.2693C47.8565 59.6458 30.2918 58.0761 18.3872 56.6615C12.4349 55.9541 7.89751 55.2855 4.84598 54.7933C3.32022 54.5472 2.16592 54.3452 1.39191 54.2045C1.00491 54.1341 0.712973 54.0791 0.51723 54.0415C0.419352 54.0227 0.34551 54.0084 0.295878 53.9986L0.23956 53.9874L0.225045 53.9845C0.221581 53.9838 0.219634 53.9834 0.36453 53.2655C0.509414 52.5477 0.510506 52.5479 0.513116 52.5485L0.525918 52.551L0.578812 52.5614C0.626139 52.5708 0.697665 52.5848 0.793231 52.6031C0.984351 52.6397 1.27159 52.694 1.65389 52.7635C2.41847 52.9025 3.5632 53.1028 5.07924 53.3473C8.11126 53.8365 12.6285 54.5021 18.56 55.2071C30.4231 56.6168 47.9435 58.183 70.5549 58.8051C115.778 60.0497 181.364 57.5184 262.783 42.408C425.618 12.1882 651.802 -68.3486 905.09 -269.651C1158.57 -471.107 1384.98 -551.742 1548.04 -582.004C1629.57 -597.135 1695.26 -599.673 1740.58 -598.426C1763.23 -597.802 1780.8 -596.232 1792.7 -594.818C1798.66 -594.11 1803.19 -593.442 1806.24 -592.95C1807.77 -592.703 1808.92 -592.501 1809.7 -592.361C1810.09 -592.29 1810.38 -592.235 1810.57 -592.198C1810.67 -592.179 1810.75 -592.165 1810.79 -592.155L1810.85 -592.144L1810.87 -592.141C1810.87 -592.14 1810.87 -592.14 1810.73 -591.422C1810.58 -590.704 1810.58 -590.704 1810.58 -590.705L1810.56 -590.707L1810.51 -590.718C1810.46 -590.727 1810.39 -590.741 1810.3 -590.759C1810.11 -590.796 1809.82 -590.85 1809.44 -590.92C1808.67 -591.059 1807.53 -591.259 1806.01 -591.504C1802.98 -591.993 1798.46 -592.658 1792.53 -593.363C1780.67 -594.773 1763.15 -596.339 1740.54 -596.961C1695.31 -598.206 1629.73 -595.675 1548.31 -580.564ZM1559.77 -563.309C1396.93 -533.089 1170.75 -452.553 917.46 -251.25C663.98 -49.7942 437.574 30.8407 274.51 61.1032C192.98 76.234 127.29 78.7714 81.974 77.5244C59.3159 76.9008 41.7512 75.3311 29.8466 73.9165C23.8942 73.2092 19.3569 72.5406 16.3054 72.0484C14.7796 71.8022 13.6253 71.6002 12.8513 71.4595C12.4643 71.3891 12.1724 71.3341 11.9766 71.2965C11.8787 71.2778 11.8049 71.2634 11.7553 71.2536L11.699 71.2425L11.6844 71.2395C11.681 71.2388 11.679 71.2384 11.8239 70.5206C11.9688 69.8027 11.9699 69.803 11.9725 69.8035L11.9853 69.8061L12.0382 69.8165C12.0855 69.8259 12.1571 69.8398 12.2526 69.8581C12.4437 69.8948 12.731 69.949 13.1133 70.0185C13.8779 70.1575 15.0226 70.3578 16.5386 70.6024C19.5707 71.0915 24.0879 71.7572 30.0194 72.4621C41.8825 73.8718 59.4029 75.438 82.0143 76.0602C127.237 77.3047 192.823 74.7734 274.243 59.6631C437.077 29.4433 663.261 -51.0936 916.549 -252.396C1170.03 -453.852 1396.44 -534.487 1559.5 -564.749C1641.03 -579.88 1706.72 -582.418 1752.04 -581.171C1774.69 -580.547 1792.26 -578.977 1804.16 -577.563C1810.12 -576.855 1814.65 -576.187 1817.7 -575.695C1819.23 -575.448 1820.38 -575.246 1821.16 -575.106C1821.55 -575.035 1821.84 -574.98 1822.03 -574.943C1822.13 -574.924 1822.2 -574.91 1822.25 -574.9L1822.31 -574.889L1822.33 -574.886C1822.33 -574.885 1822.33 -574.885 1822.19 -574.167C1822.04 -573.449 1822.04 -573.449 1822.04 -573.45L1822.02 -573.452L1821.97 -573.463C1821.92 -573.472 1821.85 -573.486 1821.76 -573.504C1821.57 -573.541 1821.28 -573.595 1820.9 -573.665C1820.13 -573.804 1818.99 -574.004 1817.47 -574.249C1814.44 -574.738 1809.92 -575.403 1803.99 -576.108C1792.13 -577.518 1774.61 -579.084 1752 -579.706C1706.77 -580.951 1641.19 -578.42 1559.77 -563.309ZM1571.23 -546.054C1408.39 -515.834 1182.21 -435.298 928.92 -233.995C675.44 -32.5392 449.033 48.0958 285.969 78.3583C204.44 93.489 138.75 96.0264 93.4334 94.7794C70.7753 94.1558 53.2106 92.5862 41.306 91.1715C35.3536 90.4643 30.8163 89.7956 27.7648 89.3034C26.239 89.0573 25.0847 88.8552 24.3107 88.7145C23.9237 88.6442 23.6318 88.5891 23.436 88.5515C23.3673 88.5384 23.3105 88.5274 23.2655 88.5186L23.1583 88.4975L23.1438 88.4946C23.1404 88.4939 23.1384 88.4935 23.2833 87.7757C23.4282 87.0578 23.4293 87.058 23.4319 87.0585L23.4447 87.0611L23.4976 87.0715C23.5449 87.0809 23.6164 87.0949 23.712 87.1131C23.9031 87.1498 24.1904 87.2041 24.5727 87.2736C25.3372 87.4126 26.482 87.6129 27.998 87.8574C31.03 88.3465 35.5473 89.0122 41.4788 89.7171C53.3419 91.1269 70.8623 92.6931 93.4737 93.3153C138.696 94.5598 204.283 92.0284 285.702 76.9181C448.536 46.6983 674.72 -33.8386 928.008 -235.141C1181.49 -436.597 1407.9 -517.232 1570.96 -547.494C1652.49 -562.625 1718.18 -565.163 1763.49 -563.915C1786.15 -563.292 1803.72 -561.722 1815.62 -560.308C1821.57 -559.6 1826.11 -558.932 1829.16 -558.439C1830.69 -558.193 1831.84 -557.991 1832.62 -557.851C1833 -557.78 1833.3 -557.725 1833.49 -557.688C1833.59 -557.669 1833.66 -557.654 1833.71 -557.645L1833.77 -557.634L1833.78 -557.631C1833.79 -557.63 1833.79 -557.63 1833.64 -556.912C1833.5 -556.194 1833.5 -556.194 1833.5 -556.195L1833.48 -556.197L1833.43 -556.208C1833.38 -556.217 1833.31 -556.231 1833.22 -556.249C1833.03 -556.286 1832.74 -556.34 1832.36 -556.41C1831.59 -556.549 1830.45 -556.749 1828.93 -556.993C1825.9 -557.483 1821.38 -558.148 1815.45 -558.853C1803.59 -560.263 1786.07 -561.829 1763.45 -562.451C1718.23 -563.696 1652.65 -561.165 1571.23 -546.054ZM1582.69 -528.799C1419.85 -498.579 1193.67 -418.042 940.379 -216.74C686.899 -15.2841 460.493 65.3508 297.429 95.6133C215.899 110.744 150.209 113.281 104.893 112.034C82.2347 111.411 64.67 109.841 52.7654 108.427C46.813 107.719 42.2757 107.051 39.2242 106.558C37.6984 106.312 36.5441 106.11 35.7701 105.97C35.3831 105.899 35.0912 105.844 34.8954 105.807C34.7975 105.788 34.7237 105.773 34.674 105.764L34.6177 105.753L34.6032 105.75C34.5997 105.749 34.5978 105.749 34.7427 105.031C34.8876 104.313 34.8887 104.313 34.8913 104.314L34.9041 104.316L34.957 104.327C35.0043 104.336 35.0758 104.35 35.1714 104.368C35.3625 104.405 35.6498 104.459 36.032 104.529C36.7966 104.668 37.9414 104.868 39.4574 105.112C42.4894 105.602 47.0067 106.267 52.9382 106.972C64.8013 108.382 82.3217 109.948 104.933 110.57C150.156 111.815 215.742 109.284 297.161 94.1731C459.996 63.9533 686.18 -16.5835 939.468 -217.886C1192.95 -419.342 1419.35 -499.977 1582.42 -530.239C1663.95 -545.37 1729.64 -547.907 1774.95 -546.66C1797.61 -546.037 1815.18 -544.467 1827.08 -543.053C1833.03 -542.345 1837.57 -541.677 1840.62 -541.184C1842.15 -540.938 1843.3 -540.736 1844.08 -540.596C1844.46 -540.525 1844.76 -540.47 1844.95 -540.433C1845.05 -540.414 1845.12 -540.399 1845.17 -540.39L1845.23 -540.379L1845.24 -540.376C1845.25 -540.375 1845.25 -540.375 1845.1 -539.657C1845 -539.127 1844.97 -538.988 1844.96 -538.952C1844.96 -538.939 1844.96 -538.939 1844.96 -538.94L1844.94 -538.942L1844.89 -538.953C1844.84 -538.962 1844.77 -538.976 1844.68 -538.994C1844.48 -539.031 1844.2 -539.085 1843.82 -539.155C1843.05 -539.294 1841.91 -539.494 1840.39 -539.738C1837.36 -540.228 1832.84 -540.893 1826.91 -541.598C1815.05 -543.008 1797.53 -544.574 1774.91 -545.196C1729.69 -546.441 1664.11 -543.909 1582.69 -528.799ZM1594.15 -511.544C1431.31 -481.324 1205.13 -400.787 951.839 -199.485C698.358 1.9709 471.952 82.6059 308.888 112.868C227.358 127.999 161.668 130.537 116.352 129.289C93.6941 128.666 76.1294 127.096 64.2248 125.682C58.2724 124.974 53.7351 124.306 50.6836 123.813C49.1578 123.567 48.0035 123.365 47.2295 123.225C46.8425 123.154 46.5505 123.099 46.3548 123.062C46.2569 123.043 46.1831 123.029 46.1334 123.019L46.0771 123.008L46.0626 123.005C46.0591 123.004 46.0572 123.004 46.2021 122.286C46.347 121.568 46.3481 121.568 46.3507 121.569L46.3635 121.571L46.4164 121.582C46.4512 121.588 46.4992 121.598 46.5602 121.61L46.6308 121.623C46.8219 121.66 47.1091 121.714 47.4914 121.784C48.256 121.923 49.4008 122.123 50.9168 122.368C53.9488 122.857 58.466 123.522 64.3976 124.227C76.2607 125.637 93.7811 127.203 116.392 127.825C161.615 129.07 227.201 126.539 308.621 111.428C471.455 81.2083 697.639 0.67152 950.927 -200.631C1204.41 -402.087 1430.81 -482.722 1593.88 -512.984C1675.41 -528.115 1741.1 -530.652 1786.41 -529.405C1809.07 -528.782 1826.64 -527.212 1838.54 -525.798C1844.49 -525.09 1849.03 -524.422 1852.08 -523.929C1853.61 -523.683 1854.76 -523.481 1855.54 -523.341C1855.92 -523.27 1856.22 -523.215 1856.41 -523.178L1856.58 -523.145L1856.63 -523.135L1856.69 -523.123L1856.7 -523.121C1856.71 -523.12 1856.71 -523.119 1856.56 -522.402C1856.42 -521.684 1856.42 -521.684 1856.42 -521.685L1856.4 -521.687L1856.35 -521.698C1856.3 -521.707 1856.23 -521.721 1856.14 -521.739C1856.02 -521.761 1855.88 -521.788 1855.7 -521.822C1855.57 -521.845 1855.43 -521.871 1855.27 -521.899C1854.51 -522.038 1853.37 -522.239 1851.85 -522.483C1848.82 -522.972 1844.3 -523.638 1838.37 -524.343C1826.51 -525.753 1808.98 -527.319 1786.37 -527.941C1741.15 -529.186 1675.56 -526.654 1594.15 -511.544ZM1605.6 -494.289C1442.77 -464.069 1216.59 -383.532 963.298 -182.23C709.818 19.2259 483.411 99.8609 320.347 130.123C238.818 145.254 173.128 147.792 127.812 146.544C105.153 145.921 87.5888 144.351 75.6841 142.937C69.7318 142.229 65.1945 141.561 62.1429 141.069C60.6172 140.822 59.4629 140.62 58.6889 140.48C58.3019 140.409 58.0099 140.354 57.8142 140.317C57.7163 140.298 57.6425 140.284 57.5928 140.274L57.5365 140.263L57.522 140.26C57.5185 140.259 57.5166 140.259 57.6615 139.541C57.8064 138.823 57.8075 138.823 57.8101 138.824L57.8229 138.826L57.8758 138.837C57.9231 138.846 57.9946 138.86 58.0902 138.878C58.1757 138.895 58.2805 138.915 58.4045 138.938C58.5574 138.967 58.7396 139 58.9508 139.039C59.7154 139.178 60.8602 139.378 62.3762 139.623C65.4082 140.112 69.9254 140.777 75.857 141.482C87.7201 142.892 105.241 144.458 127.852 145.08C173.074 146.325 238.661 143.794 320.08 128.683C482.915 98.4634 709.099 17.9265 962.387 -183.376C1215.87 -384.832 1442.27 -465.467 1605.34 -495.729C1686.87 -510.86 1752.56 -513.397 1797.87 -512.15C1820.53 -511.527 1838.1 -509.957 1850 -508.543C1855.95 -507.835 1860.49 -507.167 1863.54 -506.674C1865.07 -506.428 1866.22 -506.226 1867 -506.086C1867.38 -506.015 1867.67 -505.96 1867.87 -505.923C1867.97 -505.904 1868.04 -505.889 1868.09 -505.88L1868.15 -505.868L1868.16 -505.866C1868.17 -505.865 1868.17 -505.864 1868.02 -505.147C1867.88 -504.429 1867.88 -504.429 1867.87 -504.429L1867.86 -504.432L1867.81 -504.443C1867.76 -504.452 1867.69 -504.466 1867.59 -504.484C1867.4 -504.521 1867.12 -504.575 1866.73 -504.644C1865.97 -504.783 1864.82 -504.984 1863.31 -505.228C1860.28 -505.717 1855.76 -506.383 1849.83 -507.088C1837.96 -508.498 1820.44 -510.064 1797.83 -510.686C1752.61 -511.931 1687.02 -509.399 1605.6 -494.289ZM1617.06 -477.034C1454.23 -446.814 1228.05 -366.277 974.757 -164.975C721.277 36.481 494.871 117.116 331.807 147.378C250.277 162.509 184.587 165.047 139.271 163.8C116.613 163.176 99.0482 161.606 87.1435 160.192C81.1912 159.484 76.6539 158.816 73.6023 158.324C72.0766 158.077 70.9223 157.875 70.1482 157.735C69.7613 157.664 69.4693 157.609 69.2736 157.572C69.1757 157.553 69.1019 157.539 69.0522 157.529L68.9959 157.518L68.9814 157.515C68.9779 157.514 68.976 157.514 69.1209 156.796C69.1946 156.431 69.2311 156.251 69.2495 156.163C69.2673 156.078 69.2682 156.078 69.2695 156.079L69.2823 156.081L69.3352 156.092C69.3825 156.101 69.454 156.115 69.5496 156.133C69.6414 156.151 69.7556 156.173 69.8918 156.198C70.0388 156.226 70.2117 156.258 70.4102 156.294C71.1748 156.433 72.3196 156.633 73.8356 156.878C76.8676 157.367 81.3848 158.032 87.3164 158.737C99.1795 160.147 116.7 161.713 139.311 162.335C184.534 163.58 250.12 161.049 331.54 145.938C494.374 115.718 720.558 35.1816 973.846 -166.121C1227.33 -367.577 1453.73 -448.212 1616.8 -478.474C1698.33 -493.605 1764.02 -496.142 1809.33 -494.895C1831.99 -494.272 1849.56 -492.702 1861.46 -491.287C1867.41 -490.58 1871.95 -489.912 1875 -489.419C1876.53 -489.173 1877.68 -488.971 1878.46 -488.831C1878.84 -488.76 1879.13 -488.705 1879.33 -488.668C1879.43 -488.649 1879.5 -488.634 1879.55 -488.625L1879.61 -488.613L1879.62 -488.611C1879.63 -488.61 1879.63 -488.609 1879.48 -487.892C1879.38 -487.401 1879.35 -487.246 1879.34 -487.197C1879.34 -487.174 1879.33 -487.174 1879.33 -487.174L1879.32 -487.177L1879.27 -487.187L1879.14 -487.213L1879.05 -487.229C1878.86 -487.266 1878.58 -487.32 1878.19 -487.389C1877.43 -487.528 1876.28 -487.729 1874.77 -487.973C1871.74 -488.462 1867.22 -489.128 1861.29 -489.833C1849.42 -491.243 1831.9 -492.809 1809.29 -493.431C1764.07 -494.676 1698.48 -492.144 1617.06 -477.034ZM1628.52 -459.779C1465.69 -429.559 1239.5 -349.022 986.217 -147.72C732.737 53.736 506.33 134.371 343.266 164.633C261.737 179.764 196.047 182.302 150.73 181.055C128.072 180.431 110.508 178.861 98.6029 177.447C92.6506 176.739 88.1132 176.071 85.0617 175.579C83.536 175.332 82.3817 175.13 81.6076 174.99C81.2206 174.919 80.9287 174.864 80.733 174.827C80.6351 174.808 80.5612 174.794 80.5116 174.784L80.4553 174.773L80.4408 174.77C80.4373 174.769 80.4354 174.769 80.5802 174.051C80.7251 173.333 80.7262 173.333 80.7288 173.334L80.7416 173.336L80.7945 173.347C80.8419 173.356 80.9134 173.37 81.009 173.388C81.2001 173.425 81.4873 173.479 81.8696 173.549C82.6342 173.688 83.7789 173.888 85.295 174.133C88.327 174.622 92.8442 175.287 98.7758 175.992C110.639 177.402 128.159 178.968 150.771 179.59C195.993 180.835 261.58 178.304 342.999 163.193C505.833 132.973 732.017 52.4366 985.305 -148.866C1238.79 -350.322 1465.19 -430.957 1628.26 -461.219C1709.79 -476.35 1775.48 -478.887 1820.79 -477.64C1843.45 -477.017 1861.01 -475.447 1872.92 -474.032C1878.87 -473.325 1883.41 -472.657 1886.46 -472.164C1887.99 -471.918 1889.14 -471.716 1889.91 -471.575C1890.3 -471.505 1890.59 -471.45 1890.79 -471.412L1891.01 -471.37L1891.07 -471.358L1891.08 -471.355C1891.08 -471.355 1891.09 -471.354 1890.94 -470.637C1890.87 -470.295 1890.84 -470.116 1890.82 -470.023C1890.8 -469.919 1890.79 -469.919 1890.79 -469.919L1890.78 -469.922L1890.73 -469.932C1890.68 -469.942 1890.61 -469.956 1890.51 -469.974C1890.42 -469.993 1890.29 -470.016 1890.15 -470.043C1890 -470.07 1889.84 -470.1 1889.65 -470.134C1888.89 -470.273 1887.74 -470.474 1886.23 -470.718C1883.2 -471.207 1878.68 -471.873 1872.75 -472.578C1860.88 -473.988 1843.36 -475.554 1820.75 -476.176C1775.53 -477.421 1709.94 -474.889 1628.52 -459.779ZM1639.98 -442.524C1477.15 -412.304 1250.96 -331.767 997.676 -130.464C744.196 70.991 517.79 151.626 354.726 181.889C273.196 197.019 207.506 199.557 162.19 198.31C139.532 197.686 121.967 196.116 110.062 194.702C104.11 193.994 99.5726 193.326 96.5211 192.834C94.9954 192.588 93.841 192.386 93.067 192.245C92.68 192.174 92.3881 192.119 92.1924 192.082C92.0945 192.063 92.0206 192.049 91.971 192.039L91.9147 192.028L91.9002 192.025C91.8967 192.024 91.8948 192.024 92.0396 191.306C92.1845 190.588 92.1856 190.588 92.1882 190.589L92.201 190.591L92.2539 190.602C92.3013 190.611 92.3728 190.625 92.4684 190.643C92.6595 190.68 92.9467 190.734 93.329 190.804C94.0936 190.943 95.2383 191.143 96.7543 191.388C99.7864 191.877 104.304 192.542 110.235 193.247C122.098 194.657 139.619 196.223 162.23 196.845C207.453 198.09 273.039 195.559 354.458 180.448C517.293 150.229 743.477 69.6917 996.765 -131.611C1250.24 -333.067 1476.65 -413.702 1639.72 -443.964C1721.25 -459.095 1786.93 -461.632 1832.25 -460.385C1854.91 -459.762 1872.47 -458.192 1884.38 -456.777C1890.33 -456.07 1894.87 -455.401 1897.92 -454.909C1899.45 -454.663 1900.6 -454.461 1901.37 -454.32C1901.76 -454.25 1902.05 -454.195 1902.25 -454.157L1902.47 -454.114L1902.53 -454.103L1902.54 -454.1C1902.54 -454.1 1902.55 -454.099 1902.4 -453.381C1902.32 -453 1902.29 -452.821 1902.27 -452.737C1902.25 -452.664 1902.25 -452.664 1902.25 -452.664L1902.24 -452.667L1902.19 -452.677C1902.14 -452.687 1902.07 -452.701 1901.97 -452.719L1901.69 -452.773C1901.53 -452.803 1901.34 -452.838 1901.11 -452.879C1900.35 -453.018 1899.2 -453.219 1897.69 -453.463C1894.65 -453.952 1890.14 -454.618 1884.21 -455.323C1872.34 -456.733 1854.82 -458.299 1832.21 -458.921C1786.99 -460.166 1721.4 -457.634 1639.98 -442.524ZM1651.44 -425.269C1488.61 -395.049 1262.42 -314.512 1009.14 -113.209C755.655 88.2461 529.249 168.881 366.185 199.144C284.655 214.274 218.965 216.812 173.649 215.565C150.991 214.941 133.426 213.371 121.522 211.957C115.569 211.249 111.032 210.581 107.98 210.089C106.455 209.843 105.3 209.641 104.526 209.5C104.139 209.429 103.847 209.374 103.652 209.337L103.502 209.308L103.374 209.283L103.36 209.28C103.356 209.279 103.354 209.279 103.499 208.561C103.644 207.843 103.645 207.843 103.648 207.844L103.66 207.846L103.713 207.857C103.761 207.866 103.832 207.88 103.928 207.898C104.026 207.917 104.15 207.941 104.298 207.969C104.439 207.995 104.603 208.025 104.788 208.059C105.553 208.198 106.698 208.398 108.214 208.643C111.246 209.132 115.763 209.798 121.695 210.502C133.558 211.912 151.078 213.478 173.689 214.101C218.912 215.345 284.498 212.814 365.918 197.703C528.752 167.484 754.936 86.9467 1008.22 -114.356C1261.7 -315.812 1488.11 -396.447 1651.17 -426.709C1732.7 -441.84 1798.39 -444.377 1843.71 -443.13C1866.37 -442.507 1883.93 -440.937 1895.84 -439.522C1901.79 -438.815 1906.33 -438.146 1909.38 -437.654C1910.9 -437.408 1912.06 -437.206 1912.83 -437.065C1913.22 -436.995 1913.51 -436.94 1913.71 -436.902L1913.93 -436.859L1913.99 -436.848L1914 -436.845C1914 -436.845 1914.01 -436.844 1913.86 -436.126C1913.72 -435.409 1913.71 -435.409 1913.71 -435.409L1913.7 -435.412L1913.65 -435.422L1913.43 -435.464C1913.24 -435.501 1912.95 -435.555 1912.57 -435.624C1911.81 -435.763 1910.66 -435.964 1909.15 -436.208C1906.11 -436.697 1901.6 -437.363 1895.67 -438.068C1883.8 -439.478 1866.28 -441.044 1843.67 -441.666C1798.45 -442.911 1732.86 -440.379 1651.44 -425.269ZM1662.9 -408.014C1500.07 -377.794 1273.88 -297.257 1020.59 -95.9544C767.115 105.501 540.708 186.136 377.644 216.399C296.115 231.529 230.425 234.067 185.109 232.82C162.45 232.196 144.886 230.627 132.981 229.212C127.029 228.505 122.491 227.836 119.44 227.344C117.914 227.098 116.76 226.896 115.986 226.755C115.599 226.685 115.307 226.629 115.111 226.592C115.013 226.573 114.939 226.559 114.89 226.549L114.833 226.538L114.819 226.535C114.815 226.534 114.814 226.534 114.958 225.816C115.103 225.098 115.104 225.098 115.107 225.099L115.12 225.101L115.173 225.112C115.22 225.121 115.292 225.135 115.387 225.153C115.578 225.19 115.865 225.244 116.248 225.314C117.012 225.453 118.157 225.653 119.673 225.898C122.705 226.387 127.222 227.053 133.154 227.757C145.017 229.167 162.537 230.733 185.149 231.356C230.371 232.6 295.958 230.069 377.377 214.958C540.212 184.739 766.396 104.202 1019.68 -97.101C1273.16 -298.557 1499.57 -379.192 1662.63 -409.454C1744.16 -424.585 1809.85 -427.122 1855.17 -425.875C1877.83 -425.252 1895.39 -423.682 1907.3 -422.267C1913.25 -421.56 1917.79 -420.891 1920.84 -420.399C1922.36 -420.153 1923.52 -419.951 1924.29 -419.81C1924.68 -419.74 1924.97 -419.685 1925.17 -419.647L1925.39 -419.604L1925.45 -419.593L1925.46 -419.59C1925.46 -419.59 1925.46 -419.589 1925.32 -418.871C1925.18 -418.154 1925.17 -418.154 1925.17 -418.154L1925.16 -418.157L1925.11 -418.167L1924.89 -418.209C1924.7 -418.246 1924.41 -418.3 1924.03 -418.369C1923.27 -418.508 1922.12 -418.709 1920.61 -418.953C1917.57 -419.442 1913.06 -420.108 1907.12 -420.813C1895.26 -422.223 1877.74 -423.789 1855.13 -424.411C1809.91 -425.656 1744.32 -423.124 1662.9 -408.014ZM1674.36 -390.759C1511.53 -360.539 1285.34 -280.002 1032.05 -78.6994C778.574 122.756 552.168 203.391 389.104 233.654C307.574 248.784 241.884 251.322 196.568 250.075C173.91 249.451 156.345 247.882 144.44 246.467C138.488 245.76 133.951 245.091 130.899 244.599C129.374 244.353 128.219 244.151 127.445 244.01C127.058 243.94 126.766 243.884 126.571 243.847C126.473 243.828 126.399 243.814 126.349 243.804L126.293 243.793L126.278 243.79C126.275 243.789 126.273 243.789 126.418 243.071C126.563 242.353 126.564 242.353 126.566 242.354L126.579 242.356L126.632 242.367C126.679 242.376 126.751 242.39 126.847 242.409C127.038 242.445 127.325 242.499 127.707 242.569C128.472 242.708 129.616 242.908 131.133 243.153C134.165 243.642 138.682 244.308 144.613 245.012C156.476 246.422 173.997 247.988 196.608 248.611C241.831 249.855 307.417 247.324 388.837 232.213C551.671 201.994 777.855 121.457 1031.14 -79.846C1284.62 -281.301 1511.03 -361.936 1674.09 -392.199C1755.62 -407.33 1821.31 -409.867 1866.63 -408.62C1889.29 -407.997 1906.85 -406.427 1918.76 -405.012C1924.71 -404.305 1929.25 -403.636 1932.3 -403.144C1933.82 -402.898 1934.98 -402.696 1935.75 -402.555C1936.14 -402.485 1936.43 -402.43 1936.63 -402.392L1936.85 -402.349L1936.9 -402.338L1936.92 -402.335C1936.92 -402.335 1936.92 -402.334 1936.78 -401.616C1936.63 -400.899 1936.63 -400.899 1936.63 -400.899L1936.62 -400.902L1936.57 -400.912L1936.35 -400.954C1936.16 -400.991 1935.87 -401.045 1935.49 -401.114C1934.73 -401.253 1933.58 -401.454 1932.06 -401.698C1929.03 -402.187 1924.52 -402.853 1918.58 -403.558C1906.72 -404.968 1889.2 -406.534 1866.59 -407.156C1821.37 -408.4 1755.78 -405.869 1674.36 -390.759ZM1685.82 -373.504C1522.99 -343.284 1296.8 -262.747 1043.51 -61.4443C790.034 140.011 563.627 220.646 400.563 250.909C319.033 266.039 253.344 268.577 208.027 267.33C185.369 266.706 167.805 265.137 155.9 263.722C149.948 263.015 145.41 262.346 142.359 261.854C140.833 261.608 139.679 261.406 138.905 261.265C138.518 261.195 138.226 261.14 138.03 261.102C137.932 261.083 137.858 261.069 137.809 261.059L137.752 261.048L137.738 261.045C137.734 261.044 137.732 261.044 137.877 260.326C138.022 259.608 138.023 259.608 138.026 259.609L138.039 259.611L138.091 259.622C138.139 259.631 138.21 259.645 138.306 259.664C138.497 259.7 138.784 259.754 139.167 259.824C139.931 259.963 141.076 260.163 142.592 260.408C145.624 260.897 150.141 261.563 156.073 262.268C167.936 263.677 185.456 265.243 208.068 265.866C253.29 267.11 318.876 264.579 400.296 249.468C563.13 219.249 789.314 138.712 1042.6 -62.591C1296.08 -264.046 1522.49 -344.681 1685.55 -374.944C1767.08 -390.075 1832.77 -392.612 1878.09 -391.365C1900.75 -390.742 1918.31 -389.172 1930.22 -387.757C1936.17 -387.05 1940.71 -386.381 1943.76 -385.889C1945.28 -385.643 1946.44 -385.441 1947.21 -385.3C1947.6 -385.23 1947.89 -385.175 1948.09 -385.137L1948.31 -385.094L1948.36 -385.083L1948.38 -385.08C1948.38 -385.08 1948.38 -385.079 1948.24 -384.361C1948.09 -383.643 1948.09 -383.644 1948.09 -383.644L1948.08 -383.647L1948.02 -383.657L1947.81 -383.699C1947.62 -383.736 1947.33 -383.79 1946.95 -383.859C1946.18 -383.998 1945.04 -384.199 1943.52 -384.443C1940.49 -384.932 1935.97 -385.598 1930.04 -386.303C1918.18 -387.712 1900.66 -389.279 1878.05 -389.901C1832.83 -391.145 1767.24 -388.614 1685.82 -373.504ZM1697.28 -356.249C1534.45 -326.029 1308.26 -245.492 1054.97 -44.1893C801.493 157.266 575.087 237.901 412.023 268.164C330.493 283.294 264.803 285.832 219.487 284.585C196.829 283.961 179.264 282.392 167.359 280.977C161.407 280.27 156.87 279.601 153.818 279.109C152.292 278.863 151.138 278.661 150.364 278.52C149.977 278.45 149.685 278.395 149.489 278.357C149.391 278.338 149.318 278.324 149.268 278.314L149.212 278.303L149.197 278.3C149.194 278.299 149.192 278.299 149.337 277.581C149.481 276.863 149.483 276.863 149.485 276.864L149.498 276.867L149.551 276.877C149.598 276.886 149.67 276.9 149.765 276.919C149.956 276.955 150.244 277.009 150.626 277.079C151.391 277.218 152.535 277.418 154.051 277.663C157.083 278.152 161.601 278.818 167.532 279.523C179.395 280.932 196.916 282.498 219.527 283.121C264.75 284.365 330.336 281.834 411.755 266.723C574.59 236.504 800.774 155.967 1054.06 -45.336C1307.54 -246.791 1533.95 -327.426 1697.01 -357.689C1778.54 -372.82 1844.23 -375.357 1889.55 -374.11C1912.21 -373.487 1929.77 -371.917 1941.68 -370.502C1947.63 -369.795 1952.17 -369.126 1955.22 -368.634C1956.74 -368.388 1957.9 -368.186 1958.67 -368.045C1958.89 -368.005 1959.08 -367.97 1959.24 -367.941C1959.36 -367.918 1959.46 -367.899 1959.55 -367.882C1959.64 -367.863 1959.72 -367.849 1959.77 -367.839L1959.82 -367.828L1959.84 -367.825C1959.84 -367.825 1959.84 -367.824 1959.7 -367.106C1959.61 -366.678 1959.58 -366.505 1959.56 -366.436C1959.55 -366.389 1959.55 -366.389 1959.55 -366.389L1959.54 -366.392L1959.48 -366.402L1959.27 -366.444C1959.08 -366.481 1958.79 -366.535 1958.41 -366.604C1957.64 -366.743 1956.5 -366.944 1954.98 -367.188C1951.95 -367.677 1947.43 -368.343 1941.5 -369.048C1929.64 -370.457 1912.12 -372.024 1889.51 -372.646C1844.29 -373.89 1778.7 -371.359 1697.28 -356.249ZM1708.74 -338.994C1545.9 -308.774 1319.72 -228.237 1066.43 -26.9342C812.952 174.521 586.546 255.156 423.482 285.419C341.952 300.549 276.262 303.087 230.946 301.84C208.288 301.216 190.723 299.647 178.819 298.232C172.866 297.525 168.329 296.856 165.277 296.364C163.752 296.118 162.597 295.916 161.823 295.775C161.436 295.705 161.144 295.65 160.949 295.612C160.851 295.593 160.777 295.579 160.727 295.569L160.671 295.558L160.656 295.555C160.653 295.554 160.651 295.554 160.796 294.836C160.941 294.118 160.942 294.118 160.945 294.119L160.957 294.122L161.01 294.132C161.058 294.141 161.129 294.155 161.225 294.174C161.416 294.21 161.703 294.264 162.085 294.334C162.85 294.473 163.995 294.673 165.511 294.918C168.543 295.407 173.06 296.073 178.991 296.778C190.855 298.187 208.375 299.754 230.986 300.376C276.209 301.62 341.795 299.089 423.215 283.979C586.049 253.759 812.233 173.222 1065.52 -28.0809C1319 -229.536 1545.41 -310.171 1708.47 -340.434C1790 -355.565 1855.69 -358.102 1901.01 -356.855C1923.67 -356.231 1941.23 -354.662 1953.13 -353.247C1959.09 -352.54 1963.62 -351.871 1966.68 -351.379C1968.2 -351.133 1969.36 -350.931 1970.13 -350.79C1970.52 -350.72 1970.81 -350.665 1971 -350.627L1971.23 -350.584L1971.28 -350.573L1971.3 -350.57C1971.3 -350.57 1971.3 -350.569 1971.16 -349.851C1971.09 -349.507 1971.05 -349.328 1971.03 -349.234C1971.01 -349.134 1971.01 -349.134 1971.01 -349.134L1971 -349.137L1970.94 -349.147L1970.73 -349.189C1970.54 -349.225 1970.25 -349.28 1969.87 -349.349C1969.1 -349.488 1967.96 -349.689 1966.44 -349.933C1963.41 -350.422 1958.89 -351.088 1952.96 -351.793C1941.1 -353.202 1923.58 -354.769 1900.97 -355.391C1855.74 -356.635 1790.16 -354.104 1708.74 -338.994ZM1720.2 -321.739C1557.36 -291.519 1331.18 -210.982 1077.89 -9.6792C824.412 191.776 598.005 272.411 434.941 302.674C353.412 317.805 287.722 320.342 242.405 319.095C219.747 318.471 202.183 316.902 190.278 315.487C184.326 314.78 179.788 314.111 176.737 313.619C175.211 313.373 174.057 313.171 173.283 313.03C172.896 312.96 172.604 312.905 172.408 312.867C172.31 312.848 172.236 312.834 172.187 312.824L172.13 312.813L172.116 312.81C172.112 312.809 172.11 312.809 172.255 312.091C172.4 311.373 172.401 311.373 172.404 311.374L172.417 311.377L172.47 311.387C172.517 311.396 172.589 311.41 172.684 311.429C172.875 311.465 173.162 311.52 173.545 311.589C174.309 311.728 175.454 311.928 176.97 312.173C180.002 312.662 184.519 313.328 190.451 314.033C202.314 315.442 219.834 317.009 242.446 317.631C287.668 318.875 353.255 316.344 434.674 301.234C597.509 271.014 823.693 190.477 1076.98 -10.8258C1330.46 -212.281 1556.87 -292.916 1719.93 -323.179C1801.46 -338.31 1867.15 -340.847 1912.47 -339.6C1935.13 -338.976 1952.69 -337.407 1964.59 -335.992C1970.55 -335.285 1975.08 -334.616 1978.14 -334.124C1979.66 -333.878 1980.82 -333.676 1981.59 -333.535C1981.98 -333.465 1982.27 -333.41 1982.46 -333.372L1982.69 -333.329L1982.74 -333.318L1982.76 -333.315C1982.76 -333.314 1982.76 -333.314 1982.62 -332.596C1982.53 -332.156 1982.49 -331.986 1982.48 -331.92C1982.47 -331.879 1982.47 -331.879 1982.47 -331.879L1982.46 -331.882L1982.4 -331.892L1982.19 -331.934C1982 -331.97 1981.71 -332.025 1981.33 -332.094C1980.56 -332.233 1979.42 -332.433 1977.9 -332.678C1974.87 -333.167 1970.35 -333.833 1964.42 -334.538C1952.56 -335.947 1935.04 -337.514 1912.43 -338.136C1867.2 -339.38 1801.62 -336.849 1720.2 -321.739ZM1731.66 -304.484C1568.82 -274.264 1342.64 -193.727 1089.35 7.57583C835.871 209.031 609.465 289.666 446.401 319.929C364.871 335.06 299.181 337.597 253.865 336.35C231.207 335.726 213.642 334.157 201.737 332.742C195.785 332.035 191.248 331.366 188.196 330.874C186.67 330.628 185.516 330.426 184.742 330.285C184.481 330.238 184.263 330.197 184.089 330.164L183.867 330.122C183.77 330.103 183.696 330.089 183.646 330.079L183.59 330.068L183.575 330.065C183.572 330.064 183.57 330.064 183.715 329.346C183.86 328.628 183.861 328.628 183.863 328.629L183.876 328.632L184.02 328.66L184.143 328.684C184.335 328.72 184.622 328.775 185.004 328.844C185.769 328.983 186.913 329.183 188.429 329.428C191.462 329.917 195.979 330.583 201.91 331.288C213.773 332.697 231.294 334.264 253.905 334.886C299.128 336.13 364.714 333.599 446.133 318.489C608.968 288.269 835.152 207.732 1088.44 6.42921C1341.92 -195.026 1568.33 -275.661 1731.39 -305.924C1812.92 -321.055 1878.61 -323.592 1923.93 -322.345C1946.58 -321.721 1964.15 -320.152 1976.05 -318.737C1982.01 -318.03 1986.54 -317.361 1989.59 -316.869C1991.12 -316.623 1992.28 -316.421 1993.05 -316.28C1993.23 -316.247 1993.39 -316.218 1993.53 -316.192C1993.69 -316.163 1993.82 -316.137 1993.92 -316.117L1994.15 -316.074L1994.2 -316.063L1994.22 -316.06C1994.22 -316.059 1994.22 -316.059 1994.08 -315.341C1994 -314.955 1993.96 -314.776 1993.94 -314.694C1993.93 -314.624 1993.93 -314.624 1993.93 -314.624L1993.92 -314.627L1993.86 -314.637L1993.65 -314.679C1993.46 -314.715 1993.17 -314.77 1992.79 -314.839C1992.02 -314.978 1990.88 -315.178 1989.36 -315.423C1986.33 -315.912 1981.81 -316.578 1975.88 -317.283C1964.02 -318.692 1946.5 -320.259 1923.89 -320.881C1878.66 -322.125 1813.08 -319.594 1731.66 -304.484ZM1743.12 -287.229C1580.28 -257.009 1354.1 -176.472 1100.81 24.8309C847.331 226.286 620.924 306.921 457.86 337.184C376.33 352.315 310.641 354.852 265.324 353.605C242.666 352.981 225.101 351.412 213.197 349.997C207.244 349.29 202.707 348.621 199.656 348.129C198.13 347.883 196.976 347.681 196.202 347.54C195.815 347.47 195.523 347.415 195.327 347.377C195.229 347.358 195.155 347.344 195.106 347.334L195.049 347.323L195.035 347.32C195.031 347.319 195.029 347.319 195.174 346.601C195.255 346.2 195.291 346.023 195.308 345.946C195.321 345.884 195.322 345.884 195.323 345.884L195.336 345.887L195.388 345.897C195.436 345.906 195.507 345.92 195.603 345.939C195.794 345.975 196.081 346.03 196.464 346.099C197.228 346.238 198.373 346.438 199.889 346.683C202.921 347.172 207.438 347.838 213.37 348.543C225.233 349.952 242.753 351.519 265.365 352.141C310.587 353.385 376.173 350.854 457.593 335.744C620.427 305.524 846.611 224.987 1099.9 23.6842C1353.38 -177.771 1579.79 -258.406 1742.85 -288.669C1824.38 -303.799 1890.07 -306.337 1935.39 -305.09C1958.04 -304.466 1975.61 -302.897 1987.51 -301.482C1993.47 -300.775 1998 -300.106 2001.05 -299.614C2002.58 -299.368 2003.73 -299.166 2004.51 -299.025C2004.72 -298.986 2004.91 -298.952 2005.06 -298.923C2005.19 -298.899 2005.29 -298.879 2005.38 -298.862L2005.6 -298.819L2005.66 -298.808L2005.68 -298.805C2005.68 -298.804 2005.68 -298.804 2005.54 -298.086C2005.39 -297.368 2005.39 -297.368 2005.39 -297.369L2005.37 -297.372L2005.32 -297.382L2005.11 -297.424C2004.92 -297.46 2004.63 -297.514 2004.25 -297.584C2003.48 -297.723 2002.34 -297.923 2000.82 -298.168C1997.79 -298.657 1993.27 -299.323 1987.34 -300.028C1975.48 -301.437 1957.96 -303.004 1935.35 -303.626C1890.12 -304.87 1824.54 -302.339 1743.12 -287.229ZM1754.58 -269.974C1591.74 -239.754 1365.56 -159.217 1112.27 42.0859C858.79 243.541 632.384 324.176 469.32 354.439C387.79 369.57 322.1 372.107 276.784 370.86C254.126 370.236 236.561 368.667 224.656 367.252C218.704 366.545 214.167 365.876 211.115 365.384C209.589 365.138 208.435 364.936 207.661 364.795C207.274 364.725 206.982 364.67 206.786 364.632C206.688 364.613 206.615 364.599 206.565 364.589L206.509 364.578L206.494 364.575C206.491 364.574 206.489 364.574 206.634 363.856C206.778 363.138 206.78 363.139 206.782 363.139L206.795 363.142L206.848 363.152C206.895 363.162 206.967 363.175 207.062 363.194C207.253 363.23 207.541 363.285 207.923 363.354C208.687 363.493 209.832 363.693 211.348 363.938C214.38 364.427 218.897 365.093 224.829 365.798C236.692 367.207 254.213 368.774 276.824 369.396C322.047 370.64 387.633 368.109 469.052 352.999C631.887 322.779 858.071 242.242 1111.36 40.9393C1364.84 -160.516 1591.25 -241.151 1754.31 -271.414C1835.84 -286.544 1901.53 -289.082 1946.85 -287.835C1969.5 -287.211 1987.07 -285.642 1998.97 -284.227C2004.92 -283.52 2009.46 -282.851 2012.51 -282.359C2014.04 -282.113 2015.19 -281.911 2015.97 -281.77C2016.35 -281.7 2016.65 -281.645 2016.84 -281.607L2017.06 -281.564L2017.12 -281.553L2017.13 -281.55C2017.14 -281.549 2017.14 -281.549 2017 -280.831C2016.85 -280.113 2016.85 -280.113 2016.85 -280.114L2016.83 -280.117L2016.78 -280.127L2016.57 -280.169C2016.38 -280.205 2016.09 -280.259 2015.71 -280.329C2014.94 -280.468 2013.8 -280.668 2012.28 -280.913C2009.25 -281.402 2004.73 -282.068 1998.8 -282.773C1986.94 -284.182 1969.42 -285.748 1946.8 -286.371C1901.58 -287.615 1836 -285.084 1754.58 -269.974ZM1766.04 -252.719C1603.2 -222.499 1377.02 -141.962 1123.73 59.341C870.249 260.796 643.843 341.431 480.779 371.694C399.249 386.825 333.559 389.362 288.243 388.115C265.585 387.492 248.02 385.922 236.116 384.507C230.163 383.8 225.626 383.131 222.574 382.639C221.049 382.393 219.894 382.191 219.12 382.05C218.733 381.98 218.441 381.925 218.246 381.887L218.182 381.875L218.024 381.844L217.968 381.833L217.953 381.83C217.95 381.83 217.948 381.829 218.093 381.111C218.168 380.74 218.204 380.56 218.223 380.474C218.239 380.394 218.24 380.394 218.242 380.394L218.254 380.397L218.307 380.407C218.355 380.417 218.426 380.43 218.522 380.449C218.713 380.485 219 380.54 219.382 380.609C220.147 380.748 221.292 380.949 222.808 381.193C225.84 381.682 230.357 382.348 236.288 383.053C248.152 384.462 265.672 386.029 288.283 386.651C333.506 387.895 399.092 385.364 480.512 370.254C643.346 340.034 869.53 259.497 1122.82 58.1943C1376.3 -143.261 1602.7 -223.896 1765.77 -254.159C1847.3 -269.289 1912.99 -271.827 1958.3 -270.58C1980.96 -269.956 1998.53 -268.387 2010.43 -266.972C2016.38 -266.265 2020.92 -265.596 2023.97 -265.104C2025.5 -264.858 2026.65 -264.656 2027.43 -264.515C2027.81 -264.445 2028.11 -264.39 2028.3 -264.352L2028.52 -264.309L2028.58 -264.298L2028.59 -264.295C2028.6 -264.294 2028.6 -264.294 2028.45 -263.576C2028.37 -263.178 2028.34 -263 2028.32 -262.922C2028.31 -262.858 2028.31 -262.859 2028.31 -262.859L2028.29 -262.862L2028.24 -262.872L2028.03 -262.914C2027.83 -262.95 2027.55 -263.004 2027.17 -263.074C2026.4 -263.213 2025.26 -263.413 2023.74 -263.658C2020.71 -264.147 2016.19 -264.813 2010.26 -265.518C1998.4 -266.927 1980.88 -268.493 1958.26 -269.116C1913.04 -270.36 1847.46 -267.829 1766.04 -252.719ZM1777.5 -235.464C1614.66 -205.244 1388.48 -124.707 1135.19 76.596C881.709 278.051 655.302 358.686 492.238 388.949C410.709 404.08 345.019 406.617 299.702 405.37C277.044 404.747 259.48 403.177 247.575 401.762C241.623 401.055 237.085 400.386 234.034 399.894C232.508 399.648 231.354 399.446 230.58 399.305C230.193 399.235 229.901 399.18 229.705 399.142C229.607 399.123 229.533 399.109 229.484 399.099L229.427 399.088L229.413 399.085C229.409 399.085 229.407 399.084 229.552 398.366C229.697 397.649 229.698 397.649 229.701 397.649L229.714 397.652L229.767 397.662C229.814 397.672 229.885 397.686 229.981 397.704C230.172 397.741 230.459 397.795 230.842 397.864C231.606 398.003 232.751 398.204 234.267 398.448C237.299 398.937 241.816 399.603 247.748 400.308C259.611 401.718 277.131 403.284 299.743 403.906C344.965 405.15 410.552 402.619 491.971 387.509C654.806 357.289 880.99 276.752 1134.28 75.4494C1387.76 -126.006 1614.16 -206.641 1777.23 -236.904C1858.76 -252.034 1924.45 -254.572 1969.76 -253.325C1992.42 -252.701 2009.99 -251.132 2021.89 -249.717C2027.84 -249.01 2032.38 -248.341 2035.43 -247.849C2036.96 -247.603 2038.11 -247.401 2038.89 -247.26C2039.27 -247.19 2039.57 -247.135 2039.76 -247.097L2039.98 -247.054L2040.04 -247.043L2040.05 -247.04C2040.06 -247.039 2040.06 -247.039 2039.91 -246.321C2039.83 -245.916 2039.8 -245.74 2039.78 -245.663C2039.77 -245.603 2039.77 -245.604 2039.77 -245.604L2039.75 -245.606L2039.7 -245.617L2039.49 -245.659C2039.29 -245.695 2039.01 -245.749 2038.62 -245.819C2037.86 -245.958 2036.72 -246.158 2035.2 -246.403C2032.17 -246.892 2027.65 -247.558 2021.72 -248.262C2009.86 -249.672 1992.34 -251.238 1969.72 -251.861C1924.5 -253.105 1858.91 -250.574 1777.5 -235.464ZM1788.95 -218.208C1626.12 -187.989 1399.94 -107.452 1146.65 93.851C893.168 295.307 666.762 375.942 503.698 406.204C422.168 421.335 356.478 423.872 311.162 422.625C288.504 422.002 270.939 420.432 259.034 419.017C253.082 418.31 248.545 417.641 245.493 417.149C243.967 416.903 242.813 416.701 242.039 416.56C241.652 416.49 241.36 416.435 241.164 416.397L241.051 416.376L240.943 416.354L240.887 416.343L240.872 416.34C240.869 416.34 240.867 416.339 241.012 415.621C241.157 414.904 241.158 414.904 241.16 414.904L241.173 414.907L241.226 414.917C241.273 414.927 241.345 414.941 241.44 414.959C241.632 414.996 241.919 415.05 242.301 415.119C243.066 415.258 244.21 415.459 245.726 415.703C248.758 416.192 253.276 416.858 259.207 417.563C271.07 418.973 288.591 420.539 311.202 421.161C356.425 422.405 422.011 419.874 503.43 404.764C666.265 374.544 892.449 294.007 1145.74 92.7044C1399.22 -108.751 1625.62 -189.386 1788.69 -219.649C1870.22 -234.779 1935.91 -237.317 1981.22 -236.07C2003.88 -235.446 2021.45 -233.877 2033.35 -232.462C2039.3 -231.755 2043.84 -231.086 2046.89 -230.594C2048.42 -230.348 2049.57 -230.146 2050.35 -230.005C2050.57 -229.964 2050.76 -229.928 2050.92 -229.898L2051.22 -229.842L2051.44 -229.799L2051.5 -229.788L2051.51 -229.785C2051.52 -229.784 2051.52 -229.784 2051.37 -229.066C2051.29 -228.655 2051.25 -228.479 2051.24 -228.404C2051.23 -228.348 2051.23 -228.349 2051.22 -228.349L2051.21 -228.351L2051.16 -228.362L2050.94 -228.403C2050.75 -228.44 2050.47 -228.494 2050.08 -228.564C2049.32 -228.703 2048.17 -228.903 2046.66 -229.148C2043.63 -229.637 2039.11 -230.303 2033.18 -231.007C2021.31 -232.417 2003.79 -233.983 1981.18 -234.606C1935.96 -235.85 1870.37 -233.319 1788.95 -218.208ZM1800.41 -200.953C1637.58 -170.734 1411.4 -90.1968 1158.11 111.106C904.628 312.562 678.221 393.197 515.157 423.459C433.627 438.59 367.937 441.127 322.621 439.88C299.963 439.257 282.398 437.687 270.494 436.272C264.541 435.565 260.004 434.896 256.953 434.404C255.427 434.158 254.272 433.956 253.499 433.815C253.258 433.772 253.054 433.734 252.888 433.703C252.786 433.683 252.698 433.667 252.624 433.652C252.526 433.634 252.452 433.619 252.402 433.609L252.346 433.598L252.332 433.595C252.328 433.595 252.326 433.594 252.471 432.876C252.616 432.159 252.617 432.159 252.62 432.159L252.633 432.162L252.685 432.172C252.733 432.182 252.804 432.196 252.9 432.214C253.091 432.251 253.378 432.305 253.76 432.374C254.525 432.513 255.67 432.714 257.186 432.958C260.218 433.447 264.735 434.113 270.667 434.818C282.53 436.228 300.05 437.794 322.661 438.416C367.884 439.66 433.47 437.129 514.89 422.019C677.724 391.799 903.908 311.262 1157.2 109.959C1410.68 -91.4961 1637.08 -172.131 1800.15 -202.393C1881.68 -217.524 1947.37 -220.062 1992.68 -218.815C2015.34 -218.191 2032.91 -216.621 2044.81 -215.207C2050.76 -214.499 2055.3 -213.831 2058.35 -213.339C2059.88 -213.093 2061.03 -212.891 2061.81 -212.75C2062.19 -212.679 2062.48 -212.624 2062.68 -212.587L2062.9 -212.544L2062.96 -212.533L2062.97 -212.53C2062.98 -212.529 2062.98 -212.529 2062.83 -211.811C2062.69 -211.093 2062.69 -211.093 2062.68 -211.094L2062.67 -211.096L2062.62 -211.107L2062.4 -211.148C2062.21 -211.185 2061.93 -211.239 2061.54 -211.309C2060.78 -211.448 2059.63 -211.648 2058.12 -211.893C2055.09 -212.382 2050.57 -213.048 2044.64 -213.752C2032.77 -215.162 2015.25 -216.728 1992.64 -217.351C1947.42 -218.595 1881.83 -216.064 1800.41 -200.953ZM1811.87 -183.698C1649.04 -153.479 1422.86 -72.9417 1169.57 128.361C916.087 329.817 689.68 410.452 526.617 440.714C445.087 455.845 379.397 458.382 334.081 457.135C311.423 456.512 293.858 454.942 281.953 453.527C276.001 452.82 271.463 452.151 268.412 451.659C266.886 451.413 265.732 451.211 264.958 451.07C264.571 451 264.279 450.945 264.083 450.907C263.985 450.889 263.911 450.874 263.862 450.864L263.806 450.853L263.791 450.85C263.788 450.85 263.786 450.849 263.931 450.131C264.075 449.414 264.076 449.414 264.079 449.414L264.092 449.417L264.257 449.449L264.359 449.469C264.55 449.506 264.838 449.56 265.22 449.629C265.984 449.768 267.129 449.969 268.645 450.213C271.677 450.702 276.194 451.368 282.126 452.073C293.989 453.483 311.51 455.049 334.121 455.671C379.343 456.916 444.93 454.384 526.349 439.274C689.184 409.054 915.368 328.517 1168.66 127.214C1422.14 -74.241 1648.54 -154.876 1811.61 -185.138C1893.14 -200.269 1958.83 -202.807 2004.14 -201.56C2026.8 -200.936 2044.36 -199.366 2056.27 -197.952C2062.22 -197.244 2066.76 -196.576 2069.81 -196.084C2071.34 -195.838 2072.49 -195.636 2073.26 -195.495C2073.65 -195.424 2073.94 -195.369 2074.14 -195.332L2074.36 -195.289L2074.42 -195.278L2074.43 -195.275C2074.44 -195.274 2074.44 -195.274 2074.29 -194.556C2074.15 -193.838 2074.15 -193.838 2074.14 -193.839L2074.13 -193.841L2074.08 -193.852L2073.86 -193.893C2073.77 -193.911 2073.66 -193.933 2073.52 -193.959C2073.37 -193.986 2073.2 -194.018 2073 -194.054C2072.24 -194.193 2071.09 -194.393 2069.58 -194.638C2066.55 -195.127 2062.03 -195.792 2056.1 -196.497C2044.23 -197.907 2026.71 -199.473 2004.1 -200.096C1958.88 -201.34 1893.29 -198.809 1811.87 -183.698ZM1823.33 -166.443C1660.5 -136.223 1434.31 -55.6867 1181.03 145.616C927.546 347.072 701.14 427.707 538.076 457.969C456.546 473.1 390.856 475.637 345.54 474.39C322.882 473.767 305.317 472.197 293.413 470.782C287.46 470.075 282.923 469.406 279.871 468.914C278.346 468.668 277.191 468.466 276.417 468.325C276.271 468.299 276.139 468.274 276.02 468.252C275.823 468.216 275.664 468.186 275.543 468.162C275.445 468.144 275.371 468.129 275.321 468.12L275.265 468.108L275.25 468.105C275.247 468.105 275.245 468.104 275.39 467.386C275.535 466.669 275.536 466.669 275.538 466.669L275.551 466.672L275.604 466.682C275.651 466.692 275.723 466.706 275.819 466.724C276.01 466.761 276.297 466.815 276.679 466.884C277.444 467.023 278.589 467.224 280.105 467.468C283.137 467.957 287.654 468.623 293.585 469.328C305.449 470.738 322.969 472.304 345.58 472.926C390.803 474.171 456.389 471.639 537.809 456.529C700.643 426.309 926.827 345.772 1180.12 144.469C1433.6 -56.986 1660 -137.621 1823.07 -167.883C1904.6 -183.014 1970.29 -185.552 2015.6 -184.305C2038.26 -183.681 2055.82 -182.111 2067.73 -180.697C2073.68 -179.989 2078.22 -179.321 2081.27 -178.829C2082.8 -178.582 2083.95 -178.381 2084.72 -178.24C2085.11 -178.169 2085.4 -178.114 2085.6 -178.077L2085.82 -178.034L2085.88 -178.023L2085.89 -178.02C2085.89 -178.019 2085.9 -178.019 2085.75 -177.301C2085.61 -176.583 2085.61 -176.583 2085.6 -176.584L2085.59 -176.586L2085.54 -176.597L2085.32 -176.638C2085.19 -176.664 2085 -176.699 2084.77 -176.742L2084.46 -176.799C2083.7 -176.938 2082.55 -177.138 2081.04 -177.383C2078 -177.872 2073.49 -178.537 2067.56 -179.242C2055.69 -180.652 2038.17 -182.218 2015.56 -182.84C1970.34 -184.085 1904.75 -181.554 1823.33 -166.443ZM1834.79 -149.188C1671.96 -118.968 1445.77 -38.4316 1192.49 162.871C939.006 364.327 712.599 444.962 549.535 475.224C468.006 490.355 402.316 492.892 356.999 491.645C334.341 491.022 316.777 489.452 304.872 488.037C298.92 487.33 294.382 486.662 291.331 486.169C289.805 485.923 288.651 485.721 287.877 485.58C287.49 485.51 287.198 485.455 287.002 485.417C286.904 485.399 286.83 485.384 286.781 485.375L286.724 485.363L286.71 485.361C286.706 485.36 286.704 485.359 286.849 484.642C286.928 484.252 286.964 484.073 286.981 483.992C286.996 483.924 286.997 483.924 286.998 483.924L287.011 483.927L287.064 483.937C287.111 483.947 287.182 483.961 287.278 483.979C287.469 484.016 287.756 484.07 288.139 484.139C288.903 484.278 290.048 484.479 291.564 484.723C294.596 485.212 299.113 485.878 305.045 486.583C316.908 487.993 334.428 489.559 357.04 490.181C402.262 491.426 467.849 488.894 549.268 473.784C712.102 443.564 938.286 363.027 1191.57 161.725C1445.05 -39.7309 1671.46 -120.366 1834.53 -150.628C1916.05 -165.759 1981.74 -168.297 2027.06 -167.05C2049.72 -166.426 2067.28 -164.856 2079.19 -163.442C2085.14 -162.734 2089.68 -162.066 2092.73 -161.574C2094.26 -161.327 2095.41 -161.125 2096.18 -160.985C2096.57 -160.914 2096.86 -160.859 2097.06 -160.822L2097.28 -160.779L2097.34 -160.768L2097.35 -160.765C2097.35 -160.764 2097.36 -160.764 2097.26 -160.3L2097.21 -160.046C2097.12 -159.593 2097.09 -159.426 2097.07 -159.365C2097.06 -159.328 2097.06 -159.328 2097.06 -159.329L2097.05 -159.331L2097 -159.342L2096.78 -159.383C2096.59 -159.42 2096.3 -159.474 2095.92 -159.544C2095.16 -159.683 2094.01 -159.883 2092.5 -160.128C2089.46 -160.617 2084.95 -161.282 2079.02 -161.987C2067.15 -163.397 2049.63 -164.963 2027.02 -165.585C1981.8 -166.83 1916.21 -164.299 1834.79 -149.188ZM1846.25 -131.933C1683.42 -101.713 1457.23 -21.1766 1203.95 180.126C950.465 381.582 724.059 462.217 560.995 492.479C479.465 507.61 413.775 510.147 368.459 508.9C345.801 508.277 328.236 506.707 316.331 505.292C310.379 504.585 305.842 503.917 302.79 503.424C301.264 503.178 300.11 502.976 299.336 502.835C299.183 502.808 299.044 502.782 298.921 502.759C298.733 502.724 298.58 502.695 298.461 502.673C298.364 502.654 298.29 502.639 298.24 502.63L298.184 502.618L298.169 502.616C298.166 502.615 298.164 502.614 298.309 501.897C298.454 501.179 298.455 501.179 298.457 501.179L298.47 501.182L298.523 501.192C298.57 501.202 298.642 501.216 298.737 501.234C298.929 501.271 299.216 501.325 299.598 501.394C300.363 501.533 301.507 501.734 303.023 501.978C306.055 502.467 310.573 503.133 316.504 503.838C328.367 505.248 345.888 506.814 368.499 507.436C413.722 508.681 479.308 506.149 560.727 491.039C723.562 460.819 949.746 380.282 1203.03 178.98C1456.51 -22.4759 1682.92 -103.111 1845.98 -133.373C1927.51 -148.504 1993.2 -151.042 2038.52 -149.795C2061.18 -149.171 2078.74 -147.601 2090.65 -146.187C2096.6 -145.479 2101.14 -144.811 2104.19 -144.319C2105.71 -144.072 2106.87 -143.87 2107.64 -143.73C2108.03 -143.659 2108.32 -143.604 2108.52 -143.567L2108.74 -143.524L2108.81 -143.51C2108.81 -143.509 2108.82 -143.509 2108.67 -142.791C2108.58 -142.354 2108.55 -142.183 2108.53 -142.116C2108.52 -142.073 2108.52 -142.073 2108.52 -142.074L2108.46 -142.087L2108.24 -142.128C2108.12 -142.151 2107.97 -142.18 2107.78 -142.216C2107.66 -142.238 2107.53 -142.262 2107.38 -142.289C2106.62 -142.428 2105.47 -142.628 2103.96 -142.873C2100.92 -143.362 2096.41 -144.027 2090.47 -144.732C2078.61 -146.142 2061.09 -147.708 2038.48 -148.33C1993.26 -149.575 1927.67 -147.044 1846.25 -131.933ZM1857.71 -114.678C1694.88 -84.4584 1468.69 -3.92159 1215.4 197.381C961.924 398.837 735.518 479.472 572.454 509.734C490.924 524.865 425.234 527.402 379.918 526.155C357.26 525.532 339.695 523.962 327.791 522.547C321.838 521.84 317.301 521.172 314.25 520.679C312.724 520.433 311.569 520.231 310.795 520.091C310.408 520.02 310.116 519.965 309.921 519.928C309.823 519.909 309.749 519.894 309.699 519.885L309.643 519.873L309.629 519.871C309.625 519.87 309.623 519.869 309.768 519.152C309.913 518.434 309.914 518.434 309.917 518.434L309.929 518.437L309.982 518.447C310.03 518.457 310.101 518.471 310.197 518.489C310.388 518.526 310.675 518.58 311.057 518.649C311.822 518.789 312.967 518.989 314.483 519.233C317.515 519.722 322.032 520.388 327.964 521.093C339.827 522.503 357.347 524.069 379.958 524.691C425.181 525.936 490.767 523.404 572.187 508.294C735.021 478.074 961.205 397.537 1214.49 196.235C1467.97 -5.22085 1694.38 -85.8559 1857.44 -116.118C1938.97 -131.249 2004.66 -133.787 2049.98 -132.539C2072.64 -131.916 2090.2 -130.346 2102.11 -128.932C2108.06 -128.224 2112.6 -127.556 2115.65 -127.063C2117.17 -126.817 2118.33 -126.615 2119.1 -126.475C2119.49 -126.404 2119.78 -126.349 2119.98 -126.312L2120.2 -126.269L2120.27 -126.255C2120.27 -126.254 2120.27 -126.254 2120.13 -125.536C2119.98 -124.818 2119.98 -124.818 2119.98 -124.819L2119.92 -124.832L2119.7 -124.873C2119.51 -124.91 2119.22 -124.964 2118.84 -125.034C2118.08 -125.173 2116.93 -125.373 2115.42 -125.618C2112.38 -126.107 2107.87 -126.772 2101.93 -127.477C2090.07 -128.887 2072.55 -130.453 2049.94 -131.075C2004.72 -132.32 1939.13 -129.789 1857.71 -114.678ZM1869.17 -97.4232C1706.34 -67.2033 1480.15 13.3335 1226.86 214.636C973.384 416.092 746.977 496.727 583.913 526.989C502.384 542.12 436.694 544.657 391.378 543.41C368.719 542.787 351.155 541.217 339.25 539.802C333.298 539.095 328.76 538.427 325.709 537.934C324.183 537.688 323.029 537.486 322.255 537.346C321.868 537.275 321.576 537.22 321.38 537.183C321.282 537.164 321.208 537.15 321.159 537.14L321.103 537.129L321.088 537.126C321.085 537.125 321.083 537.125 321.167 536.706L321.227 536.407C321.372 535.689 321.373 535.689 321.376 535.69L321.389 535.692L321.442 535.702C321.489 535.712 321.561 535.726 321.656 535.744C321.847 535.781 322.135 535.835 322.517 535.905C323.281 536.044 324.426 536.244 325.942 536.488C328.974 536.977 333.491 537.643 339.423 538.348C351.286 539.758 368.807 541.324 391.418 541.946C436.64 543.191 502.227 540.659 583.646 525.549C746.481 495.329 972.665 414.792 1225.95 213.49C1479.43 12.0342 1705.84 -68.6008 1868.9 -98.8632C1950.43 -113.994 2016.12 -116.532 2061.44 -115.284C2084.1 -114.661 2101.66 -113.091 2113.57 -111.677C2119.52 -110.969 2124.06 -110.301 2127.11 -109.808C2128.63 -109.562 2129.79 -109.36 2130.56 -109.22C2130.95 -109.149 2131.24 -109.094 2131.44 -109.057L2131.66 -109.014L2131.73 -109C2131.73 -108.999 2131.73 -108.999 2131.59 -108.281C2131.44 -107.563 2131.44 -107.563 2131.44 -107.564L2131.37 -107.577L2131.16 -107.618C2130.97 -107.655 2130.68 -107.709 2130.3 -107.779C2129.54 -107.918 2128.39 -108.118 2126.87 -108.363C2123.84 -108.852 2119.33 -109.517 2113.39 -110.222C2101.53 -111.632 2084.01 -113.198 2061.4 -113.82C2016.18 -115.065 1950.59 -112.534 1869.17 -97.4232ZM1880.63 -80.1681C1717.8 -49.9483 1491.61 30.5885 1238.32 231.891C984.843 433.347 758.437 513.982 595.373 544.244C513.843 559.375 448.153 561.912 402.837 560.666C380.179 560.042 362.614 558.472 350.71 557.058C344.757 556.35 340.22 555.682 337.168 555.19C335.643 554.943 334.488 554.741 333.714 554.601C333.327 554.53 333.035 554.475 332.84 554.438L332.688 554.408L332.562 554.384L332.547 554.381C332.544 554.38 332.542 554.38 332.687 553.662C332.832 552.944 332.833 552.944 332.835 552.945L332.848 552.947L332.901 552.958C332.948 552.967 333.02 552.981 333.116 552.999C333.307 553.036 333.594 553.09 333.976 553.16C334.741 553.299 335.886 553.499 337.402 553.743C340.434 554.233 344.951 554.898 350.882 555.603C362.745 557.013 380.266 558.579 402.877 559.201C448.1 560.446 513.686 557.914 595.106 542.804C757.94 512.584 984.124 432.048 1237.41 230.745C1490.89 29.2892 1717.3 -51.3458 1880.36 -81.6082C1961.89 -96.739 2027.58 -99.2765 2072.9 -98.0294C2095.56 -97.4059 2113.12 -95.8363 2125.03 -94.4215C2130.98 -93.7142 2135.52 -93.0456 2138.57 -92.5534C2140.09 -92.3073 2141.25 -92.1053 2142.02 -91.9646C2142.41 -91.8943 2142.7 -91.8392 2142.9 -91.8016L2143.12 -91.7587L2143.19 -91.7446C2143.19 -91.7439 2143.19 -91.7435 2143.05 -91.0257C2142.9 -90.3078 2142.9 -90.308 2142.9 -90.3086L2142.83 -90.3216L2142.62 -90.3632C2142.43 -90.3999 2142.14 -90.454 2141.76 -90.5235C2140.99 -90.6625 2139.85 -90.8629 2138.33 -91.1075C2135.3 -91.5964 2130.78 -92.2622 2124.85 -92.9671C2112.99 -94.3768 2095.47 -95.943 2072.86 -96.5653C2027.64 -97.8098 1962.05 -95.2785 1880.63 -80.1681ZM1892.09 -62.9131C1729.25 -32.6933 1503.07 47.8436 1249.78 249.146C996.303 450.602 769.896 531.237 606.832 561.499C525.303 576.63 459.613 579.167 414.296 577.921C391.638 577.297 374.074 575.727 362.169 574.313C356.217 573.605 351.679 572.937 348.628 572.445C347.102 572.198 345.948 571.996 345.174 571.856C344.787 571.785 344.495 571.73 344.299 571.693L344.139 571.662L344.078 571.65L344.021 571.639L344.007 571.636C344.003 571.635 344.001 571.635 344.146 570.917C344.291 570.199 344.292 570.199 344.295 570.2L344.308 570.202L344.361 570.213C344.408 570.222 344.479 570.236 344.575 570.254C344.766 570.291 345.053 570.345 345.436 570.415C346.2 570.554 347.345 570.754 348.861 570.998C351.893 571.488 356.41 572.153 362.342 572.858C374.205 574.268 391.725 575.834 414.337 576.456C459.559 577.701 525.146 575.169 606.565 560.059C769.399 529.839 995.583 449.303 1248.87 248C1502.35 46.5442 1728.76 -34.0908 1891.82 -64.3532C1973.35 -79.4839 2039.04 -82.0214 2084.36 -80.7744C2107.02 -80.1509 2124.58 -78.5812 2136.49 -77.1665C2142.44 -76.4592 2146.97 -75.7906 2150.03 -75.2984C2151.55 -75.0523 2152.71 -74.8502 2153.48 -74.7096C2153.87 -74.6391 2154.16 -74.5842 2154.36 -74.5466L2154.58 -74.5036L2154.65 -74.4896C2154.65 -74.4889 2154.65 -74.4885 2154.51 -73.7706C2154.42 -73.3373 2154.39 -73.1656 2154.37 -73.0977C2154.36 -73.0532 2154.36 -73.0533 2154.36 -73.0535L2154.29 -73.0665L2154.08 -73.1082C2153.89 -73.1448 2153.6 -73.199 2153.22 -73.2685C2152.45 -73.4075 2151.31 -73.6079 2149.79 -73.8524C2146.76 -74.3414 2142.24 -75.0072 2136.31 -75.7121C2124.45 -77.1218 2106.93 -78.688 2084.32 -79.3102C2039.09 -80.5547 1973.51 -78.0235 1892.09 -62.9131ZM1903.55 -45.6581C1740.71 -15.4382 1514.53 65.0986 1261.24 266.401C1007.76 467.857 781.356 548.492 618.292 578.754C536.762 593.885 471.072 596.423 425.756 595.176C403.098 594.552 385.533 592.982 373.628 591.568C367.676 590.86 363.139 590.192 360.087 589.7C358.561 589.453 357.407 589.251 356.633 589.111C356.246 589.04 355.954 588.985 355.758 588.948L355.612 588.92L355.537 588.905L355.481 588.894L355.466 588.891C355.463 588.89 355.461 588.89 355.606 588.172C355.686 587.771 355.723 587.594 355.739 587.516C355.752 587.454 355.753 587.454 355.754 587.455L355.767 587.457L355.82 587.468C355.867 587.477 355.939 587.491 356.034 587.509C356.15 587.531 356.301 587.56 356.488 587.595C356.609 587.617 356.744 587.642 356.895 587.67C357.66 587.809 358.804 588.009 360.32 588.254C363.352 588.743 367.87 589.408 373.801 590.113C385.664 591.523 403.185 593.089 425.796 593.711C471.019 594.956 536.605 592.425 618.024 577.314C780.859 547.094 1007.04 466.558 1260.33 265.255C1513.81 63.7993 1740.22 -16.8357 1903.28 -47.0981C1984.81 -62.2289 2050.5 -64.7664 2095.82 -63.5193C2118.48 -62.8958 2136.04 -61.3262 2147.94 -59.9114C2153.9 -59.2041 2158.43 -58.5356 2161.49 -58.0433C2163.01 -57.7972 2164.17 -57.5952 2164.94 -57.4545C2165.16 -57.4136 2165.36 -57.3779 2165.52 -57.3477L2165.81 -57.2915L2166.04 -57.2486L2166.11 -57.2345C2166.11 -57.2338 2166.11 -57.2334 2165.97 -56.5156C2165.87 -56.0537 2165.84 -55.8891 2165.83 -55.8306C2165.82 -55.7981 2165.82 -55.7983 2165.82 -55.7985L2165.75 -55.8115L2165.54 -55.8531C2165.35 -55.8898 2165.06 -55.9439 2164.68 -56.0134C2163.91 -56.1524 2162.77 -56.3528 2161.25 -56.5974C2158.22 -57.0864 2153.7 -57.7521 2147.77 -58.457C2135.91 -59.8667 2118.39 -61.433 2095.78 -62.0552C2050.55 -63.2997 1984.97 -60.7685 1903.55 -45.6581ZM1915.01 -28.403C1752.17 1.81679 1525.99 82.3536 1272.7 283.656C1019.22 485.112 792.815 565.747 629.751 596.009C548.221 611.14 482.531 613.678 437.215 612.431C414.557 611.807 396.992 610.237 385.088 608.823C379.135 608.115 374.598 607.447 371.546 606.955C370.021 606.709 368.866 606.506 368.092 606.366C367.705 606.295 367.413 606.24 367.218 606.203C367.12 606.184 367.046 606.17 366.996 606.16L366.94 606.149L366.926 606.146C366.922 606.145 366.92 606.145 367.065 605.427C367.146 605.028 367.182 604.85 367.198 604.772C367.212 604.709 367.212 604.709 367.214 604.71L367.226 604.712L367.279 604.723C367.327 604.732 367.398 604.746 367.494 604.764C367.685 604.801 367.972 604.855 368.354 604.925C369.119 605.064 370.264 605.264 371.78 605.509C374.812 605.998 379.329 606.663 385.26 607.368C397.124 608.778 414.644 610.344 437.255 610.966C482.478 612.211 548.064 609.68 629.484 594.569C792.318 564.349 1018.5 483.813 1271.79 282.51C1525.27 81.0544 1751.68 0.419341 1914.74 -29.8431C1996.27 -44.9739 2061.96 -47.5114 2107.28 -46.2643C2129.93 -45.6408 2147.5 -44.0711 2159.4 -42.6564C2165.36 -41.9491 2169.89 -41.2805 2172.95 -40.7883C2174.47 -40.5422 2175.63 -40.3402 2176.4 -40.1995C2176.79 -40.1291 2177.08 -40.0741 2177.27 -40.0365L2177.5 -39.9936L2177.57 -39.9795C2177.57 -39.9788 2177.57 -39.9784 2177.43 -39.2605C2177.35 -38.8716 2177.31 -38.6935 2177.29 -38.612C2177.28 -38.543 2177.28 -38.5432 2177.28 -38.5434L2177.21 -38.5564L2177 -38.5981C2176.81 -38.6348 2176.52 -38.6889 2176.14 -38.7584C2175.37 -38.8974 2174.23 -39.0978 2172.71 -39.3423C2169.68 -39.8313 2165.16 -40.4971 2159.23 -41.202C2147.37 -42.6117 2129.85 -44.1779 2107.24 -44.8002C2062.01 -46.0446 1996.43 -43.5134 1915.01 -28.403ZM1926.47 -11.148C1763.63 19.0719 1537.45 99.6086 1284.16 300.911C1030.68 502.367 804.274 583.002 641.21 613.264C559.681 628.395 493.991 630.933 448.674 629.686C426.016 629.062 408.452 627.492 396.547 626.078C390.595 625.37 386.057 624.702 383.006 624.21C381.48 623.964 380.326 623.761 379.552 623.621C379.404 623.594 379.271 623.569 379.151 623.547C378.956 623.511 378.798 623.481 378.677 623.458C378.579 623.439 378.505 623.425 378.456 623.415L378.399 623.404L378.385 623.401C378.381 623.4 378.379 623.4 378.524 622.682C378.669 621.964 378.67 621.964 378.673 621.965L378.686 621.967L378.739 621.978C378.786 621.987 378.858 622.001 378.953 622.019C379.144 622.056 379.431 622.11 379.814 622.18C380.578 622.319 381.723 622.519 383.239 622.764C386.271 623.253 390.788 623.918 396.72 624.623C408.583 626.033 426.103 627.599 448.715 628.221C493.937 629.466 559.524 626.935 640.943 611.824C803.778 581.604 1029.96 501.068 1283.25 299.765C1536.73 98.3094 1763.14 17.6744 1926.2 -12.5881C2007.73 -27.7188 2073.42 -30.2563 2118.74 -29.0092C2141.39 -28.3857 2158.96 -26.8161 2170.86 -25.4014C2176.82 -24.694 2181.35 -24.0255 2184.4 -23.5333C2185.93 -23.2872 2187.08 -23.0851 2187.86 -22.9444C2188.25 -22.874 2188.54 -22.819 2188.73 -22.7815L2188.95 -22.7385L2189.03 -22.7245C2189.03 -22.7237 2189.03 -22.7234 2188.89 -22.0055C2188.81 -21.6298 2188.77 -21.4508 2188.76 -21.3656C2188.74 -21.288 2188.74 -21.2882 2188.74 -21.2884L2188.67 -21.3014L2188.46 -21.3431C2188.27 -21.3797 2187.98 -21.4339 2187.6 -21.5034C2186.83 -21.6424 2185.69 -21.8428 2184.17 -22.0873C2181.14 -22.5763 2176.62 -23.2421 2170.69 -23.947C2158.83 -25.3567 2141.31 -26.9229 2118.7 -27.5451C2073.47 -28.7896 2007.89 -26.2583 1926.47 -11.148ZM1937.93 6.10701C1775.09 36.3269 1548.91 116.864 1295.62 318.166C1042.14 519.622 815.734 600.257 652.67 630.52C571.14 645.65 505.45 648.188 460.134 646.941C437.476 646.317 419.911 644.747 408.006 643.333C402.054 642.626 397.517 641.957 394.465 641.465C392.939 641.219 391.785 641.016 391.011 640.876C390.781 640.834 390.585 640.798 390.422 640.767C390.311 640.746 390.216 640.728 390.136 640.713C390.039 640.694 389.965 640.68 389.915 640.67L389.859 640.659L389.844 640.656C389.841 640.655 389.839 640.655 389.984 639.937C390.068 639.52 390.104 639.345 390.119 639.272C390.13 639.219 390.131 639.22 390.132 639.22L390.145 639.222L390.198 639.233C390.245 639.242 390.317 639.256 390.412 639.274C390.604 639.311 390.891 639.365 391.273 639.435C392.038 639.574 393.183 639.774 394.698 640.019C397.731 640.508 402.248 641.173 408.179 641.878C420.042 643.288 437.563 644.854 460.174 645.476C505.397 646.721 570.983 644.19 652.403 629.079C815.237 598.86 1041.42 518.323 1294.71 317.02C1548.19 115.564 1774.6 34.9294 1937.66 4.66699C2019.19 -10.4638 2084.88 -13.0012 2130.2 -11.7542C2152.85 -11.1307 2170.42 -9.56105 2182.32 -8.14634C2188.28 -7.43902 2192.81 -6.77049 2195.86 -6.27818C2197.39 -6.03211 2198.54 -5.83012 2199.32 -5.68938C2199.71 -5.61902 2200 -5.56399 2200.19 -5.52641L2200.41 -5.4835L2200.48 -5.46941C2200.49 -5.46869 2200.49 -5.4683 2200.35 -4.75045C2200.25 -4.26652 2200.22 -4.10891 2200.2 -4.05776C2200.2 -4.03303 2200.2 -4.03317 2200.2 -4.03337L2200.13 -4.04636L2199.92 -4.08799C2199.82 -4.10648 2199.7 -4.12932 2199.56 -4.15635C2199.41 -4.18303 2199.25 -4.2138 2199.06 -4.24831C2198.29 -4.38734 2197.15 -4.58767 2195.63 -4.83223C2192.6 -5.32129 2188.08 -5.98704 2182.15 -6.69193C2170.29 -8.10161 2152.77 -9.66785 2130.16 -10.2901C2084.93 -11.5346 2019.35 -9.00329 1937.93 6.10701ZM1949.39 23.362C1786.55 53.5819 1560.37 134.119 1307.08 335.422C1053.6 536.877 827.193 617.512 664.129 647.775C582.599 662.905 516.91 665.443 471.593 664.196C448.935 663.572 431.371 662.002 419.466 660.588C413.513 659.88 408.976 659.212 405.925 658.72C404.399 658.474 403.245 658.272 402.471 658.131C402.084 658.06 401.792 658.006 401.596 657.968C401.498 657.949 401.424 657.935 401.375 657.925L401.318 657.914L401.304 657.911C401.3 657.91 401.298 657.91 401.443 657.192C401.538 656.722 401.571 656.56 401.584 656.504C401.59 656.474 401.591 656.475 401.592 656.475L401.605 656.477L401.657 656.488L401.872 656.53C402.063 656.566 402.35 656.62 402.733 656.69C403.497 656.829 404.642 657.029 406.158 657.274C409.19 657.763 413.707 658.429 419.639 659.133C431.502 660.543 449.022 662.109 471.634 662.731C516.856 663.976 582.442 661.445 663.862 646.334C826.696 616.115 1052.88 535.578 1306.17 334.275C1559.65 132.819 1786.05 52.1844 1949.12 21.922C2030.65 6.79125 2096.34 4.25378 2141.65 5.50081C2164.31 6.12433 2181.88 7.69398 2193.78 9.10868C2199.73 9.81601 2204.27 10.4845 2207.32 10.9768C2208.85 11.2229 2210 11.4249 2210.78 11.5656C2211.16 11.636 2211.46 11.6911 2211.65 11.7286L2211.87 11.7715L2211.94 11.7856C2211.95 11.7864 2211.95 11.7868 2211.8 12.5046C2211.72 12.9189 2211.69 13.094 2211.67 13.1679C2211.66 13.2221 2211.66 13.2219 2211.66 13.2217L2211.59 13.2086L2211.38 13.1671C2211.18 13.1304 2210.9 13.0762 2210.52 13.0067C2209.75 12.8677 2208.61 12.6674 2207.09 12.4228C2204.06 11.9338 2199.54 11.268 2193.61 10.5631C2181.75 9.15342 2164.23 7.58725 2141.61 6.96497C2096.39 5.72047 2030.81 8.25173 1949.39 23.362ZM1960.85 40.6171C1798.01 70.837 1571.83 151.374 1318.54 352.677C1065.06 554.132 838.653 634.767 675.589 665.03C594.059 680.16 528.369 682.698 483.053 681.451C460.395 680.827 442.83 679.257 430.925 677.843C424.973 677.135 420.436 676.467 417.384 675.975C415.858 675.729 414.704 675.527 413.93 675.386C413.543 675.315 413.251 675.261 413.055 675.223C412.957 675.204 412.884 675.19 412.834 675.18L412.778 675.169L412.763 675.166C412.76 675.165 412.758 675.165 412.903 674.447C412.975 674.087 413.012 673.907 413.03 673.818C413.049 673.729 413.05 673.73 413.051 673.73L413.064 673.732L413.117 673.743L413.331 673.785C413.522 673.821 413.81 673.875 414.192 673.945C414.957 674.084 416.101 674.284 417.617 674.529C420.649 675.018 425.167 675.684 431.098 676.388C442.961 677.798 460.482 679.364 483.093 679.987C528.316 681.231 593.902 678.7 675.321 663.589C838.156 633.37 1064.34 552.833 1317.63 351.53C1571.11 150.074 1797.51 69.4395 1960.58 39.1771C2042.11 24.0463 2107.8 21.5088 2153.11 22.7559C2175.77 23.3794 2193.34 24.949 2205.24 26.3637C2211.19 27.071 2215.73 27.7397 2218.78 28.2319C2219.74 28.3865 2220.55 28.5238 2221.22 28.6393C2221.61 28.7077 2221.95 28.7684 2222.24 28.8207C2222.62 28.8911 2222.92 28.9461 2223.11 28.9836L2223.33 29.0265L2223.4 29.0407C2223.41 29.0414 2223.41 29.0418 2223.26 29.7596C2223.18 30.1671 2223.15 30.3432 2223.13 30.4192C2223.12 30.4771 2223.12 30.477 2223.12 30.4767L2223.05 30.4637L2222.84 30.4221C2222.64 30.3854 2222.36 30.3312 2221.97 30.2617C2221.21 30.1227 2220.07 29.9224 2218.55 29.6779C2215.52 29.1888 2211 28.523 2205.07 27.8181C2193.21 26.4084 2175.69 24.8423 2153.07 24.22C2107.85 22.9755 2042.26 25.5068 1960.85 40.6171ZM1972.3 57.8722C1809.47 88.092 1583.29 168.629 1330 369.932C1076.52 571.387 850.112 652.022 687.048 682.285C605.518 697.415 539.828 699.953 494.512 698.706C471.854 698.082 454.289 696.512 442.385 695.098C436.432 694.39 431.895 693.722 428.843 693.23C427.318 692.984 426.163 692.782 425.389 692.641C425.16 692.599 424.964 692.563 424.802 692.532C424.69 692.511 424.594 692.493 424.515 692.478C424.445 692.465 424.387 692.453 424.342 692.444L424.293 692.435L424.237 692.424L424.223 692.421C424.219 692.42 424.217 692.42 424.362 691.702C424.507 690.984 424.508 690.984 424.511 690.985L424.523 690.987L424.576 690.998L424.791 691.04C424.982 691.076 425.269 691.13 425.651 691.2C426.416 691.339 427.561 691.539 429.077 691.784C432.109 692.273 436.626 692.939 442.557 693.643C454.421 695.053 471.941 696.619 494.552 697.242C539.775 698.486 605.361 695.955 686.781 680.844C849.615 650.625 1075.8 570.088 1329.09 368.785C1582.57 167.33 1808.97 86.6945 1972.04 56.4321C2053.57 41.3013 2119.26 38.7638 2164.57 40.0109C2187.23 40.6344 2204.8 42.204 2216.7 43.6187C2222.65 44.3261 2227.19 44.9947 2230.24 45.487C2231.77 45.733 2232.92 45.935 2233.7 46.0758C2234.08 46.1461 2234.38 46.2011 2234.57 46.2387L2234.79 46.2816L2234.86 46.2957C2234.87 46.2964 2234.87 46.2968 2234.72 47.0147C2234.58 47.7325 2234.58 47.7323 2234.57 47.7317L2234.51 47.7187L2234.3 47.6771C2234.1 47.6404 2233.82 47.5863 2233.43 47.5168C2233.04 47.4447 2232.54 47.3561 2231.94 47.2534C2231.38 47.1581 2230.74 47.0506 2230.01 46.9329C2226.98 46.4438 2222.46 45.778 2216.53 45.0732C2204.67 43.6635 2187.14 42.0973 2164.53 41.475C2119.31 40.2305 2053.72 42.7618 1972.3 57.8722Z" fill="url(#paint0_radial_404_25)" fill-opacity="0.35"/>
<defs>
<radialGradient id="paint0_radial_404_25" cx="0" cy="0" r="1" gradientUnits="userSpaceOnUse" gradientTransform="translate(1090.49 119.391) rotate(177.344) scale(979.207 1397.73)">
<stop stop-color="#6EE7B7"/>
<stop offset="1" stop-opacity="0"/>
</radialGradient>
</defs>
</svg>
