<?xml version="1.0" standalone="no"?>
<!DOCTYPE svg PUBLIC "-//W3C//DTD SVG 20010904//EN"
 "http://www.w3.org/TR/2001/REC-SVG-20010904/DTD/svg10.dtd">
<svg version="1.0" xmlns="http://www.w3.org/2000/svg"
 width="700.000000pt" height="700.000000pt" viewBox="0 0 700.000000 700.000000"
 preserveAspectRatio="xMidYMid meet">
<metadata>
Created by potrace 1.11, written by Peter Selinger 2001-2013
</metadata>
<g transform="translate(0.000000,700.000000) scale(0.100000,-0.100000)"
fill="#000000" stroke="none">
<path d="M0 3500 l0 -3500 3500 0 3500 0 0 3500 0 3500 -3500 0 -3500 0 0
-3500z m2330 1477 c196 -42 357 -109 519 -218 175 -116 329 -291 429 -486 46
-89 112 -262 112 -292 0 -8 -113 -11 -392 -11 l-393 0 -40 66 c-56 92 -174
203 -260 243 -210 100 -463 95 -669 -11 -166 -86 -311 -271 -365 -468 -50
-179 -50 -419 -1 -600 68 -246 245 -444 463 -517 75 -25 96 -27 242 -27 138
-1 170 2 230 21 140 44 265 139 347 263 l53 80 393 0 394 0 -7 -32 c-13 -61
-84 -232 -130 -313 -192 -337 -521 -567 -935 -656 -141 -31 -495 -34 -632 -6
-278 56 -503 165 -713 343 -251 215 -423 556 -466 927 -16 141 -6 432 20 559
89 434 324 765 695 977 159 90 315 144 513 176 139 23 445 13 593 -18z m2925
-21 c512 -85 883 -346 1096 -769 50 -98 95 -232 120 -356 26 -126 36 -412 19
-548 -79 -632 -506 -1097 -1131 -1231 -172 -37 -271 -42 -904 -42 l-615 0 0
1486 0 1486 658 -5 c553 -3 673 -7 757 -21z"/>
<path d="M4560 3500 l0 -860 223 0 c313 0 416 17 575 96 76 37 109 61 175 127
45 45 99 111 120 147 151 260 153 682 5 963 -49 94 -192 232 -293 284 -164 84
-274 103 -581 103 l-224 0 0 -860z"/>
</g>
</svg>
